<?xml version="1.0" encoding="utf-8"?>
<!-- Generator: Adobe Illustrator 21.0.0, SVG Export Plug-In . SVG Version: 6.00 Build 0)  -->
<svg version="1.1" id="Layer_1" xmlns="http://www.w3.org/2000/svg" xmlns:xlink="http://www.w3.org/1999/xlink" x="0px" y="0px"
	 viewBox="0 0 110.6 114.2" style="enable-background:new 0 0 110.6 114.2;" xml:space="preserve">
<style type="text/css">
	.st0{fill:#E6E6E6;stroke:#333333;stroke-width:5;stroke-miterlimit:10;}
</style>
<path class="st0" d="M83.1,21.3c-10.5-8-19.4,1.5-27.8,1.8c-8.4-0.3-16.3-8.6-26.8-0.6c-12.6,9.6-26,21.7-26,44.1
	c0,15.8,12.4,29.5,25,39.1c10.5,8,45,8,55.5,0c12.6-9.6,25-23.3,25-39.1C108.1,44.2,95.7,30.9,83.1,21.3z"/>
<path class="st0" d="M53.6,21.8c0,0-7.8-13.4-13-11.5l11.5-6.6l5.4,17.6L53.6,21.8z"/>
</svg>
