<?xml version="1.0" encoding="utf-8"?>
<!-- Generator: Adobe Illustrator 21.0.0, SVG Export Plug-In . SVG Version: 6.00 Build 0)  -->
<svg version="1.1" id="Layer_1" xmlns="http://www.w3.org/2000/svg" xmlns:xlink="http://www.w3.org/1999/xlink" x="0px" y="0px"
	 viewBox="0 0 150.5 171.8" style="enable-background:new 0 0 150.5 171.8;" xml:space="preserve">
<style type="text/css">
	.st0{fill:#E6E6E6;}
	.st1{fill:#333333;}
	.st2{fill:#F1BF66;stroke:#4F341E;stroke-width:44;stroke-miterlimit:10;}
	.st3{opacity:0.52;}
	.st4{fill:#4D4D4D;}
</style>
<g>
	<g>
		<path class="st0" d="M130.6,22.9c0.9-3.8,1.1-6.3,1.1-6.3C72.5-10.6,22.6,15.8,22.6,15.8c0,1.8,0,3.6,0.1,5.3
			C75.3,66,118.6,29.6,130.6,22.9z"/>
		<path class="st1" d="M76,47.5c-19.3,0-38.2-7.7-56.2-23.1l-1.5-1.2l0-1.9c0-1.8-0.1-3.6-0.1-5.4l0.7-1.6l1.6-2.1
			c0.5-0.3,13.4-7,33.7-10.3c11.9-1.9,24-2.3,35.8-1c14.8,1.5,29.4,5.6,43.3,12l2.3,1.7l0.2,2.4c0,0.3-0.2,3-1.2,7.1l-0.4,1.8
			l-1.6,0.9c-1.1,0.6-2.5,1.5-4.2,2.6c-8,5.1-22.9,14.7-41.7,17.4C83.2,47.2,79.6,47.5,76,47.5z M26.9,19.1
			C71.3,55.7,108,32.2,123.8,22c1.1-0.7,2.1-1.3,3-1.9c0.1-0.3,0.1-0.7,0.2-1c-28.3-12.2-54.1-11.7-71-9
			c-14.3,2.3-24.7,6.4-29.1,8.3C26.9,18.7,26.9,18.9,26.9,19.1z"/>
	</g>
	<g>
		<path class="st0" d="M133.9,20.9c0,0-1.1,0.8-3.3,2c-18.3,13.7-70.8,29.9-108-1.8c-0.8-0.4-1.5-0.8-2.3-1.3c0,0-38,56.5,3,133.8
			c0,0,45.9,32.3,104.1-1.6C127.5,152,165,94.1,133.9,20.9z"/>
		<path class="st1" d="M73.1,171.8c-6.8,0-13.7-0.7-20.4-2.1c-19.4-4-31.3-12.3-31.8-12.6l-0.8-0.6l-0.5-0.9
			C10,137.6,3.8,119.1,1.3,100.7C-0.7,86-0.4,71.3,2.2,57c4.5-24.4,14.1-38.9,14.5-39.5l2.2-3.3l3.5,2c0.7,0.4,1.4,0.8,2.2,1.2
			l0.4,0.2l0.3,0.3c19.4,16.5,42.2,18.3,57.9,16.9c19.1-1.7,36.2-8.9,44.7-15.3l0.2-0.2l0.2-0.1c1.9-1.1,3-1.8,3-1.8l4.3-2.9
			l2.1,4.8c7.3,17.2,11.5,34.9,12.5,52.8c0.8,14.3-0.5,28.7-3.8,42.9c-5.6,24.1-15.1,38.9-15.5,39.5l-0.6,0.9l-0.9,0.5
			c-13.8,8-28,13.1-42.4,15.1C82.5,171.5,77.8,171.8,73.1,171.8z M26.7,150.7c2.9,1.8,13.1,7.8,28.2,10.8
			c23.4,4.7,46.8,0.5,69.5-12.6c2-3.4,9.4-16.7,13.9-36.3c4.6-20,7-50.6-6.4-85.3c-9.2,6.4-26.7,14.1-47.8,16
			c-2.9,0.3-6,0.4-9.3,0.4c-15.8,0-35.4-3.7-53-17.8c-3,5.6-8.3,17.1-11.2,33C6.8,79.7,6.6,112.4,26.7,150.7z"/>
	</g>
	<g>
		<path class="st2" d="M22.6,21.1"/>
	</g>
</g>
<g class="st3">
	<path class="st4" d="M38,37.7l-2-1.5c0,0,0,0,0,0.1l0.1,2.3C36.9,38.6,37.6,38.2,38,37.7z"/>
	<polygon class="st4" points="121.8,25.3 121.8,25.3 121.8,25.3 	"/>
	<path class="st4" d="M36,36.2L36,36.2C36,36.3,36,36.2,36,36.2L36,36.2z"/>
	<path class="st4" d="M36,36.3c-0.2,0.3-0.5,1-1,2.1c0.4,0.2,0.7,0.2,1.1,0.3L36,36.3z"/>
	<path class="st4" d="M34,34.7c-4.9,9.5-8.7,23.2-10.3,37.2c-1.4,12.3-1.3,25.6,0.3,39.3c2,16.8,6.2,34.6,12.6,52.8l4.8-1.7
		c-0.9-2.6-1.8-5.2-2.6-7.7c-9.5-29.6-12.9-57.2-10.1-82.1c1.6-14.1,4.8-24.2,7.4-30.4c0.7-1.8,1.4-3.2,2-4.4
		c0.1-0.2,0.1-0.3,0.2-0.4c0.7-1.5,0-2.8-0.9-3.4C36.5,33.3,35,33.3,34,34.7l4.1,3"/>
	<path class="st4" d="M127.1,69.8c-1.6-14-5.1-27-10-36.5c-0.1-0.1-0.1-0.2-0.1-0.3c0.5,1-0.6-0.9-0.8-1l-7.3-6.8l-3.8-3.5
		c3.3,1,6.7,2.2,10.2,3.6c1.8,0.7,3.5,1.5,5.3,2.3l1.1-2.3l0,0l1.1-2.3c-11.5-5.4-23.4-8.8-35.6-10.1c-9.7-1-19.6-0.8-29.4,0.8
		c-16.6,2.7-27,8.4-27.4,8.6l2.4,4.4c0,0,1.7-0.9,4.8-2.2c2.4-1,5.6-2.2,9.5-3.3l1.9,3.4l8.4,14.5c-0.1,1.1-0.3,3.1-0.6,5.3
		c-1,8.8-3,25.1-3.3,46.1c-0.4,25.7,1.8,50.2,6.5,72.8l5,0.2C54.4,111.4,59.9,62.9,62,45.1c0.2-2.1,0.4-3.8,0.5-4.9
		c0.1-1.4,0.3-3.1-0.9-4L55,24.7L52.3,20c2-0.5,4.2-0.9,6.4-1.3c3.7-0.6,7.8-1.1,12.4-1.3l5.5,7.5l10.3,14c0,0.5,0,0.9,0.1,1.4
		c0.1,1.2,0.3,2.8,0.5,4.9c2.1,17.8,7.9,66.2-3,118.2h4.8c4.7-22.6,6.9-47.1,6.5-72.8c-0.3-20.9-2.2-37.3-3.3-46.1
		c-0.3-2.8-0.6-5.4-0.6-5.9c0,0.6-0.6,1.6-1.7,2c-1,0.3-2.1,0-2.7-0.8l4.1-3l-8.8-11.9l-5.6-7.6c5.5,0.1,11.4,0.6,17.7,1.8l6.3,5.9
		l11.2,10.5c0,0,0,0,0,0c2.7,5.2,7.4,16.7,9.4,34.8c3,27.1-1.2,57.3-12.7,89.8l4.8,1.7c6.4-18.2,10.6-35.9,12.6-52.8
		C128.4,95.3,128.5,82.1,127.1,69.8z"/>
</g>
</svg>
