<?xml version="1.0" encoding="utf-8"?>
<!-- Generator: Adobe Illustrator 21.0.0, SVG Export Plug-In . SVG Version: 6.00 Build 0)  -->
<svg version="1.1" id="Layer_1" xmlns="http://www.w3.org/2000/svg" xmlns:xlink="http://www.w3.org/1999/xlink" x="0px" y="0px"
	 viewBox="0 0 123.3 88" style="enable-background:new 0 0 123.3 88;" xml:space="preserve">
<style type="text/css">
	.st0{fill:#E6E6E6;}
	.st1{fill:#333333;}
</style>
<g>
	<path class="st0" d="M11.5,15.1c4.3-3.8,10-7.1,16.8-9.6C27.1,5.2,25.8,5,24.5,5C17.5,5,11.7,9.5,11.5,15.1z"/>
	<path class="st1" d="M11.5,15.1C11.7,9.5,17.5,5,24.5,5c1.3,0,2.6,0.2,3.8,0.5c2.3-0.8,4.6-1.6,7.1-2.2c-3-2-6.8-3.2-11-3.2
		c-9.9,0-18,6.9-18,15.3c0,1.5,0.3,3,0.8,4.4C8.5,18.1,9.9,16.5,11.5,15.1z"/>
	<path class="st0" d="M98.7,5c-1.3,0-2.6,0.2-3.8,0.5c6.8,2.5,12.5,5.7,16.7,9.5C111.4,9.4,105.7,5,98.7,5z"/>
	<path class="st1" d="M94.9,5.5C96.1,5.2,97.4,5,98.7,5c7,0,12.7,4.4,12.9,10c1.7,1.5,3.1,3.1,4.3,4.7c0.5-1.4,0.7-2.8,0.7-4.3
		c0-8.5-8.1-15.3-18-15.3c-4.1,0-7.9,1.2-11,3.2C90.3,3.9,92.7,4.6,94.9,5.5z"/>
	<path class="st0" d="M118.3,51.5c0-6.4-1.1-12.5-3.2-17.8l-0.2-0.6l0.1-0.6c0-0.4,0.1-0.8,0.1-1.2C115,17.1,90.6,5,61.6,5
		S8.3,17.1,8.3,31.4c0,0.4,0,0.8,0.1,1.2l0.1,0.6l-0.2,0.6C6.1,39,5,45.1,5,51.5C5,68.6,13.1,83,22.6,83c8.2,0,15.5-10.4,17.2-24.8
		l0.3-2.6l2.6,0.5c6,1.1,12.3,1.7,18.8,1.7c6.5,0,12.8-0.6,18.8-1.7l2.6-0.5l0.3,2.6c1.8,14.4,9,24.8,17.2,24.8
		C110.2,83,118.3,68.6,118.3,51.5z"/>
	<path class="st1" d="M120,32.4c0-0.4,0-0.7,0-1c0-4.2-1.4-8.1-4.1-11.7c-1.2-1.6-2.6-3.2-4.3-4.7c-4.2-3.8-10-7-16.7-9.5
		c-2.3-0.8-4.7-1.6-7.2-2.2C80,1.2,71.1,0,61.6,0c-9.5,0-18.3,1.2-26.2,3.2c-2.5,0.7-4.9,1.4-7.1,2.2c-6.8,2.5-12.5,5.8-16.8,9.6
		c-1.7,1.5-3.1,3.1-4.3,4.7c-2.6,3.6-4,7.5-4,11.6c0,0.3,0,0.7,0,1C1.1,38.2,0,44.7,0,51.5C0,72,9.9,88,22.6,88
		C33,88,41.8,77.2,44.5,61.4c5.5,0.9,11.3,1.4,17.2,1.4s11.6-0.5,17.2-1.4C81.5,77.2,90.3,88,100.6,88c12.7,0,22.6-16,22.6-36.5
		C123.3,44.7,122.2,38.1,120,32.4z M83.4,58.2l-0.3-2.6L80.5,56c-6,1.1-12.3,1.7-18.8,1.7c-6.5,0-12.8-0.6-18.8-1.7l-2.6-0.5
		l-0.3,2.6C38.1,72.6,30.9,83,22.6,83C13.1,83,5,68.6,5,51.5C5,45.1,6.1,39,8.2,33.7l0.2-0.6l-0.1-0.6c0-0.4-0.1-0.8-0.1-1.2
		C8.3,17.1,32.7,5,61.6,5S115,17.1,115,31.4c0,0.4,0,0.8-0.1,1.2l-0.1,0.6l0.2,0.6c2.1,5.3,3.2,11.4,3.2,17.8
		c0,17.1-8.1,31.5-17.6,31.5C92.4,83,85.2,72.6,83.4,58.2z"/>
</g>
</svg>
