<?xml version="1.0" encoding="utf-8"?>
<!-- Generator: Adobe Illustrator 21.0.0, SVG Export Plug-In . SVG Version: 6.00 Build 0)  -->
<svg version="1.1" id="Layer_1" xmlns="http://www.w3.org/2000/svg" xmlns:xlink="http://www.w3.org/1999/xlink" x="0px" y="0px"
	 viewBox="0 0 64.1 64.9" style="enable-background:new 0 0 64.1 64.9;" xml:space="preserve">
<style type="text/css">
	.st0{fill:#E6E6E6;stroke:#333333;stroke-width:5;stroke-miterlimit:10;}
</style>
<path class="st0" d="M60.1,13.6c0-0.3-0.3-0.4-0.6-0.3c-2.3,1.1-12.7,5.9-27.7,5.9c-15,0-25.3-4.5-27.6-5.5c-0.2-0.1-0.5,0-0.6,0.3
	c-6.4,42.8,14.8,47.7,24.1,48.3c0.1,0,7.2,0,7.3,0C44.1,62,67.8,57.2,60.1,13.6z"/>
<path class="st0" d="M59.9,12.6C59.9,7,47.5,2.5,32.1,2.5S4,7,4,12.6s12.8,10.1,28.1,10.1S59.9,18.2,59.9,12.6z"/>
</svg>
