<?xml version="1.0" encoding="utf-8"?>
<!-- Generator: Adobe Illustrator 21.0.0, SVG Export Plug-In . SVG Version: 6.00 Build 0)  -->
<svg version="1.1" id="Layer_1" xmlns="http://www.w3.org/2000/svg" xmlns:xlink="http://www.w3.org/1999/xlink" x="0px" y="0px"
	 viewBox="0 0 95.6 108.6" style="enable-background:new 0 0 95.6 108.6;" xml:space="preserve">
<style type="text/css">
	.st0{fill:#EEAC27;}
	.st1{fill:#7B3120;}
</style>
<g>
	<path class="st0" d="M76.7,28.6l-1.7-0.2l-0.4-1.7C71.7,14.1,60,5,46.6,5C33.8,5,22.4,13.3,19,25.2l-0.4,1.4L17.2,27
		C10,28.5,5,33.6,5,39.5c0,2.2,0.7,4.4,2.1,6.4l0.5,0.7l0,1c0,3,2,5.5,3.7,7.2c3.5,3.4,8.4,5.5,11,5.5c0,0,0,0,0.1,0
		c1.4,0,4.6-1.1,7.3-2.1c0.9-0.3,1.8-0.6,2.7-0.9l0.9-0.3l0.9,0.4c1.4,0.6,2.2,1.5,2.9,2.3c1.4,1.5,3.3,3.7,14.4,5.1
		c8.9,1.2,12.8-0.6,15.4-1.7c1.2-0.5,2.3-1,3.5-1c6.8,0,12.9-4.2,14.3-10l0.2-0.8l0.7-0.5c3.3-2.5,5.1-5.8,5.1-9.3
		C90.6,35.1,84.6,29.6,76.7,28.6z"/>
	<path class="st1" d="M79,23.9C75,10,61.7,0,46.6,0C32.1,0,19.2,9.2,14.7,22.4C6,24.8,0,31.7,0,39.5c0,3,0.9,6,2.6,8.6
		c0.2,3.5,2,7,5.1,10.1c4,3.9,9.9,6.8,14.2,6.9c4.7,12.1,16.5,40.7,25.2,43.2c0.4,0.1,0.9,0.2,1.3,0.2c3.4,0,8.2-4.2,17-24.6
		c2.6-6.1,5.1-12.3,6.8-17c8-0.7,14.7-5.7,16.9-12.8c4.1-3.4,6.4-8,6.4-12.8C95.6,32.9,88.7,25.8,79,23.9z M85.5,50.8l-0.7,0.5
		l-0.2,0.8c-1.5,5.8-7.5,10-14.3,10c-1.2,0-2.2,0.5-3.5,1c-2.6,1.1-6.5,2.9-15.4,1.7c-11.1-1.5-13-3.6-14.4-5.1
		c-0.7-0.8-1.5-1.7-2.9-2.3l-0.9-0.4l-0.9,0.3c-0.9,0.3-1.8,0.6-2.7,0.9c-2.8,1-5.9,2-7.3,2.1c0,0,0,0-0.1,0c-2.6,0-7.5-2.1-11-5.5
		c-1.7-1.6-3.6-4.2-3.7-7.2l0-1l-0.5-0.7c-1.4-2-2.1-4.2-2.1-6.4c0-5.8,5-11,12.2-12.5l1.5-0.3l0.4-1.4C22.4,13.3,33.8,5,46.6,5
		C60,5,71.7,14.1,74.5,26.7l0.4,1.7l1.7,0.2c7.9,1,13.9,6.5,13.9,12.8C90.6,45,88.8,48.3,85.5,50.8z"/>
</g>
</svg>
