<?xml version="1.0" encoding="utf-8"?>
<!-- Generator: Adobe Illustrator 21.0.0, SVG Export Plug-In . SVG Version: 6.00 Build 0)  -->
<svg version="1.1" id="Layer_1" xmlns="http://www.w3.org/2000/svg" xmlns:xlink="http://www.w3.org/1999/xlink" x="0px" y="0px"
	 viewBox="0 0 154.9 127" style="enable-background:new 0 0 154.9 127;" xml:space="preserve">
<style type="text/css">
	.st0{fill:#E6E6E6;stroke:#333333;stroke-width:5;stroke-miterlimit:10;}
</style>
<path class="st0" d="M152.4,72.3c0-7.3-2.2-14.3-6.1-20.6C146.7,39.6,158,7,145.3,2.8c-8.4-2.8-34.9,11.6-51.3,18.6
	c-5.3-0.8-10.9-1.3-16.6-1.3c-5.7,0-11.2,0.5-16.6,1.3C44.5,14.5,18,0.1,9.6,2.8C-3.1,7,8.2,39.6,8.6,51.8C4.7,58.1,2.5,65,2.5,72.3
	c0,0.4,0,0.8,0,1.2c0,0.4,0,0.8,0,1.2c0,27.4,31.3,49.6,69.9,49.6c0.2,0,0.4,0,0.5,0c1.2,0.1,2.5,0.1,3.8,0.1v0l0.4,0
	c0.1,0,0.2,0,0.4,0c1.4,0,2.7,0,4.1-0.1l1,0c38.6,0,69.9-22.2,69.9-49.6c0-0.4,0-0.8,0-1.2C152.4,73.1,152.4,72.7,152.4,72.3z"/>
</svg>
