<?xml version="1.0" encoding="utf-8"?>
<!-- Generator: Adobe Illustrator 21.0.0, SVG Export Plug-In . SVG Version: 6.00 Build 0)  -->
<svg version="1.1" id="Layer_1" xmlns="http://www.w3.org/2000/svg" xmlns:xlink="http://www.w3.org/1999/xlink" x="0px" y="0px"
	 viewBox="0 0 116.3 101.6" style="enable-background:new 0 0 116.3 101.6;" xml:space="preserve">
<style type="text/css">
	.st0{fill:#E6E6E6;stroke:#333333;stroke-width:5;stroke-miterlimit:10;}
	.st1{fill:#333333;stroke:#333333;stroke-width:5;stroke-miterlimit:10;}
</style>
<path class="st0" d="M113.8,27.4c0-13.8-11.6-24.9-26-24.9c-9.9,0-18.5,5.3-22.9,13.1c-1.8-0.2-3.6-0.2-5.4-0.2
	c-2.7,0-5.3,0.2-7.9,0.5c-4.3-8-13-13.4-23.1-13.4c-14.4,0-26,11.2-26,24.9c0,7.3,3.3,13.9,8.6,18.5c-1.2,3.6-1.9,7.4-1.9,11.4
	c0,23.1,22.5,41.9,50.3,41.9s50.3-18.8,50.3-41.9c0-4.6-0.9-9.1-2.6-13.2C111.3,39.6,113.8,33.8,113.8,27.4z"/>
<path class="st1" d="M38.8,20.6c-2.4-2.2-5.6-3.5-9.1-3.5c-7.5,0-13.6,6.1-13.6,13.6c0,1.8,0.4,3.5,1,5.1
	C22.4,29.2,29.9,23.9,38.8,20.6z"/>
<path class="st1" d="M99.3,34c0.6-1.5,0.9-3.2,0.9-4.9c0-7.5-6.1-13.6-13.6-13.6c-3.9,0-7.4,1.6-9.9,4.3
	C85.8,22.7,93.6,27.6,99.3,34z"/>
</svg>
