<?xml version="1.0" encoding="utf-8"?>
<!-- Generator: Adobe Illustrator 21.0.0, SVG Export Plug-In . SVG Version: 6.00 Build 0)  -->
<svg version="1.1" id="Layer_1" xmlns="http://www.w3.org/2000/svg" xmlns:xlink="http://www.w3.org/1999/xlink" x="0px" y="0px"
	 viewBox="0 0 140.3 132.1" style="enable-background:new 0 0 140.3 132.1;" xml:space="preserve">
<style type="text/css">
	.st0{fill:#E6E6E6;stroke:#333333;stroke-width:5;stroke-miterlimit:10;}
	.st1{fill:#4D4D4D;stroke:#333333;stroke-width:5;stroke-miterlimit:10;}
</style>
<path class="st0" d="M-53.7,49c0,0,9.7-47.9,0-59.4c-10.2-12.1-53.3-11-64.7,0c-10.9,10.5,0,59.4,0,59.4s-18.8-3.9-22.8,0
	c-3.2,3.1-3.5,14.7,0,17.5c4.4,3.5,105.3,3.3,109.6,0c3.5-2.7,3.2-14.4,0-17.5C-35.6,45.2-53.7,49-53.7,49z"/>
<path class="st1" d="M-118.4,49c14.6,5.7,52.9,5.1,64.7,0c2.5-1.1,2-8.8,0-10.7c-11.4-11-53.3-11-64.7,0
	C-120.4,40.2-121,48-118.4,49z"/>
</svg>
