<?xml version="1.0" encoding="utf-8"?>
<!-- Generator: Adobe Illustrator 21.0.0, SVG Export Plug-In . SVG Version: 6.00 Build 0)  -->
<svg version="1.1" id="Layer_1" xmlns="http://www.w3.org/2000/svg" xmlns:xlink="http://www.w3.org/1999/xlink" x="0px" y="0px"
	 viewBox="0 0 139.1 139.1" style="enable-background:new 0 0 139.1 139.1;" xml:space="preserve">
<style type="text/css">
	.st0{fill:#FFFFFF;}
	.st1{fill:none;}
	.st2{fill:#5C0A04;}
</style>
<g>
	<path class="st0" d="M125,69.5C125,38.9,100.1,14,69.5,14C56.2,14,44,18.7,34.4,26.6l82.5,71.8C122.1,90,125,80.1,125,69.5z"/>
	<path class="st0" d="M14,69.5c0,30.6,24.9,55.5,55.5,55.5c11.9,0,22.9-3.8,31.9-10.1L21,42.7C16.6,50.6,14,59.8,14,69.5z"/>
	<g>
		<path class="st1" d="M125,69.5C125,38.9,100.1,14,69.5,14C56.2,14,44,18.7,34.4,26.6l82.5,71.8C122.1,90,125,80.1,125,69.5z"/>
		<path class="st1" d="M14,69.5c0,30.6,24.9,55.5,55.5,55.5c11.9,0,22.9-3.8,31.9-10.1L21,42.7C16.6,50.6,14,59.8,14,69.5z"/>
		<g>
			<path class="st1" d="M125,69.5C125,38.9,100.1,14,69.5,14C56.2,14,44,18.7,34.4,26.6l82.5,71.8C122.1,90,125,80.1,125,69.5z"/>
			<path class="st1" d="M14,69.5c0,30.6,24.9,55.5,55.5,55.5c11.9,0,22.9-3.8,31.9-10.1L21,42.7C16.6,50.6,14,59.8,14,69.5z"/>
			<path class="st2" d="M69.5,0C31.1,0,0,31.1,0,69.5c0,38.4,31.1,69.5,69.5,69.5c38.4,0,69.5-31.1,69.5-69.5
				C139.1,31.1,107.9,0,69.5,0z M103.3,116.5l-1.8-1.6c-9,6.4-20,10.1-31.9,10.1C38.9,125,14,100.1,14,69.5c0-9.7,2.5-18.9,7-26.9
				L20.3,42l9.5-19.5l4.7,4.1C44,18.7,56.2,14,69.5,14c30.6,0,55.5,24.9,55.5,55.5c0,10.6-3,20.5-8.1,28.9l1.9,1.6L103.3,116.5z"/>
			<polygon class="st2" points="34.4,26.6 29.8,22.5 20.3,42 21,42.7 101.4,114.9 103.3,116.5 118.8,100 116.9,98.4 			"/>
		</g>
	</g>
</g>
</svg>
