<?xml version="1.0" encoding="utf-8"?>
<!-- Generator: Adobe Illustrator 21.0.0, SVG Export Plug-In . SVG Version: 6.00 Build 0)  -->
<svg version="1.1" id="Layer_1" xmlns="http://www.w3.org/2000/svg" xmlns:xlink="http://www.w3.org/1999/xlink" x="0px" y="0px"
	 viewBox="0 0 85.6 81.3" style="enable-background:new 0 0 85.6 81.3;" xml:space="preserve">
<style type="text/css">
	.st0{fill:#4495CB;}
</style>
<g>
	<g>
		<g>
			<path class="st0" d="M85.2,43.7c0-2.8,0-5.6,0-8.4c0-1.5-0.5-2-2-2.2c-3-0.5-6.1-0.9-9.1-1.3c-0.4,0-0.6-0.2-0.7-0.5
				c-0.5-1.5-1.1-2.8-1.8-4.2c-0.2-0.3-0.2-0.6,0.1-0.9c1.8-2.2,3.6-4.3,5.3-6.5c0.9-1.1,0.9-1.8,0-2.9c-2-2.4-4.3-4.5-6.6-6.6
				c-0.7-0.6-1.3-1.2-2-1.8c-1-0.9-1.9-0.9-3-0.1c-2.4,1.7-4.9,3.5-7.3,5.2c-0.3,0.2-0.6,0.3-1,0.1c-1.3-0.6-2.6-1.1-4-1.6
				c-0.3-0.1-0.5-0.2-0.5-0.6c-0.5-3.1-1-6.1-1.5-9.1C50.7,1,50,0.4,48.8,0.4c-2,0-4,0-6.1,0c-1.9,0-3.9,0-5.8,0
				c-1.4,0-1.9,0.4-2.3,1.7C34,4.6,33.7,7,33.4,9.5c-0.1,0.5-0.2,1.1-0.2,1.6c0,0.5-0.3,0.7-0.7,0.8c-1.4,0.4-2.7,0.9-3.9,1.6
				c-0.3,0.2-0.6,0.1-0.8-0.1c-2.3-1.7-4.6-3.4-7-5.1c-1.3-0.9-1.8-1-3.2-0.1c-2.2,1.5-4.1,3.4-6,5.2c-1.1,1.1-2.2,2.2-3.1,3.4
				c-0.8,1.1-0.8,1.7,0.1,2.7c1.9,2.2,3.7,4.4,5.5,6.7c0.2,0.3,0.3,0.5,0.1,0.9c-0.7,1.2-1.3,2.5-1.7,3.9c-0.1,0.4-0.3,0.5-0.8,0.6
				c-3.2,0.4-6.4,0.9-9.5,1.4c-0.9,0.1-1.6,0.9-1.7,1.9c0,3.9,0,7.9,0,11.8c0,1,0.8,1.7,1.8,1.8c3,0.4,6,0.8,9,1.2
				c0.6,0.1,1,0.3,1.1,0.9c0.4,1.4,1,2.7,1.8,4c0.2,0.3,0.2,0.5-0.1,0.8c-1.7,2.1-3.4,4.2-5.1,6.3c-1.2,1.4-1.2,2.1,0,3.5
				c1.8,2.2,4,4.1,6.1,6c0.8,0.7,1.5,1.4,2.3,2c1.1,1,2,1,3.1,0.2c2.4-1.7,4.8-3.4,7.2-5.2c0.3-0.2,0.6-0.3,0.9-0.1
				c1.2,0.6,2.5,1.1,3.8,1.5c0.5,0.2,0.7,0.4,0.8,0.9c0.4,3,0.9,6,1.4,9c0.1,0.8,0.8,1.4,1.7,1.5c0.3,0,0.6,0,0.8,0
				c3.8,0,7.6,0,11.4,0c1.6,0,2.1-0.4,2.4-1.9c0.7-2.9,1-5.9,1.4-8.8c0-0.4,0.2-0.6,0.6-0.8c1.4-0.4,2.8-1,4.1-1.6
				c0.3-0.2,0.6-0.1,0.9,0.1c2.3,1.7,4.6,3.4,6.8,5.1c1.3,1,2,1,3.3,0.1c2.3-1.6,4.2-3.6,6.2-5.5c1-1,2-2,2.9-3.2
				c0.7-0.9,0.7-1.7,0-2.5c-1.7-2-3.4-4.1-5.1-6.1c-0.7-0.9-0.9-1.5-0.2-2.5c0.6-0.9,0.9-2,1.4-3.1c0.1-0.3,0.2-0.4,0.6-0.5
				c2.5-0.3,4.9-0.7,7.4-1.1c0.8-0.1,1.6-0.2,2.3-0.3c0.9-0.2,1.6-0.8,1.6-1.8C85.2,45.7,85.2,44.7,85.2,43.7z M42.5,54.1
				C35.1,54,28.5,48,28.7,40.7c-0.2-7.4,6.6-13.6,14.4-13.4c7.7,0.2,13.9,6.1,13.9,13.5C57,48.1,50.4,54.2,42.5,54.1z"/>
			<path class="st0" d="M43.7,81.3c-2.2,0-4.4,0-6.6,0c-0.4,0-0.6,0-0.9,0c-1-0.1-1.8-0.8-2-1.8c-0.5-2.8-1-5.9-1.4-9
				c-0.1-0.3-0.1-0.5-0.6-0.6c-1.3-0.4-2.6-0.9-3.8-1.5c-0.3-0.1-0.4-0.1-0.6,0.1c-1.9,1.4-3.8,2.8-5.6,4.1l-1.5,1.1
				c-1.3,0.9-2.3,0.9-3.5-0.2c-0.6-0.6-1.5-1.3-2.3-2c-2.4-2.1-4.4-3.9-6.2-6.1c-1.3-1.6-1.3-2.4,0-4c1.6-2,3.4-4.2,5.1-6.3
				c0.2-0.2,0.1-0.2,0-0.4c-0.9-1.5-1.5-2.8-1.8-4.1c-0.1-0.4-0.3-0.5-0.9-0.6c-2.6-0.3-5.3-0.7-7.9-1.1l-1.1-0.2
				C0.9,48.5,0,47.6,0,46.5c0-3.8,0-7.6,0-11.8c0-1.1,0.8-2.1,1.9-2.2c3.1-0.5,6.3-0.9,9.5-1.4c0.4,0,0.4-0.1,0.5-0.3
				c0.4-1.3,1-2.6,1.8-4c0.1-0.2,0.1-0.2,0-0.4c-1.8-2.3-3.7-4.5-5.5-6.7c-1-1.2-1-2-0.1-3.2c0.9-1.2,2.1-2.3,3.2-3.4
				c0.2-0.2,0.4-0.4,0.6-0.6c1.7-1.6,3.4-3.3,5.4-4.7c1.4-1,2.1-0.9,3.5,0.1c2.5,1.8,4.8,3.5,7,5.1c0.2,0.2,0.3,0.2,0.5,0.1
				c1.2-0.6,2.5-1.1,4-1.6c0.5-0.1,0.5-0.2,0.5-0.4c0-0.4,0.1-0.8,0.1-1.2C33,9.7,33,9.6,33,9.4c0-0.3,0.1-0.5,0.1-0.8
				c0.3-2.2,0.6-4.4,1.2-6.6c0.4-1.4,1.1-2,2.6-2c1.4,0,2.7,0,4.1,0h1.7c0.6,0,1.2,0,1.8,0c1.4,0,2.8,0,4.3,0c1.4,0,2.3,0.7,2.5,2
				c0.6,3.6,1.1,6.5,1.5,9.2c0,0.2,0,0.2,0.3,0.3c1.6,0.5,2.9,1,4.1,1.6c0.3,0.1,0.4,0.1,0.6-0.1c1.9-1.4,3.9-2.8,5.8-4.2L65,7.7
				c1.2-0.9,2.3-0.8,3.4,0.2c0.6,0.5,1.3,1.1,2,1.8c0.3,0.3,0.6,0.6,0.9,0.9c2,1.8,4,3.7,5.7,5.8c1,1.2,1,2.2,0,3.4
				c-1.4,1.8-3.3,4.2-5.3,6.5c-0.2,0.2-0.2,0.2,0,0.5c0.9,1.6,1.5,3,1.9,4.3c0.1,0.2,0.1,0.3,0.4,0.3l0.6,0.1
				c2.8,0.4,5.7,0.8,8.5,1.2c1.7,0.3,2.3,1,2.3,2.6c0,2.5,0,5.1,0,7.6v0.8c0,0.3,0,0.5,0,0.8c0,0.7,0,1.5,0,2.3
				c0,1.1-0.8,1.9-1.9,2.1C83.1,49,82.5,49,82,49.1c-0.2,0-0.4,0.1-0.7,0.1l-1.7,0.2c-1.9,0.3-3.8,0.6-5.7,0.8
				c-0.2,0-0.2,0.1-0.3,0.2c-0.1,0.3-0.2,0.5-0.3,0.8c-0.3,0.8-0.6,1.6-1.1,2.4c-0.5,0.8-0.4,1.2,0.2,2l1.5,1.7
				c1.2,1.4,2.4,2.9,3.6,4.3c0.8,1,0.8,2,0,3c-1,1.2-2.1,2.4-2.9,3.2L74,68.5c-1.8,1.7-3.6,3.6-5.7,5c-1.5,1-2.3,1-3.7-0.1
				c-0.9-0.7-1.8-1.3-2.7-2c-1.4-1-2.8-2.1-4.2-3.1c-0.2-0.2-0.3-0.2-0.5-0.1c-1.4,0.7-2.8,1.2-4.1,1.6c-0.3,0.1-0.3,0.2-0.3,0.4
				c-0.4,3-0.7,5.9-1.4,8.8c-0.4,1.6-1,2.1-2.8,2.1C47,81.3,45.3,81.3,43.7,81.3z M28.2,67.5c0.2,0,0.4,0,0.6,0.2
				c1.2,0.6,2.4,1.1,3.7,1.5c0.6,0.2,1,0.5,1.1,1.2c0.5,3.1,1,6.3,1.4,9c0.1,0.6,0.6,1.1,1.4,1.2c0.2,0,0.5,0,0.8,0
				c3.8,0,7.6,0,11.4,0c1.5,0,1.8-0.4,2.1-1.6c0.7-2.9,1-5.8,1.4-8.8c0.1-0.4,0.2-0.9,0.8-1.1c1.3-0.4,2.6-0.9,4-1.6
				c0.4-0.2,0.8-0.2,1.2,0.1c1.4,1,2.8,2.1,4.2,3.1c0.9,0.7,1.8,1.3,2.7,2c1.2,0.9,1.7,0.9,3,0.1c2.1-1.4,3.9-3.2,5.6-4.9l0.5-0.5
				c0.8-0.8,1.9-1.9,2.9-3.1c0.6-0.7,0.6-1.3,0-2c-1.2-1.4-2.4-2.9-3.6-4.3l-1.5-1.7c-0.9-1-0.9-1.9-0.3-3c0.4-0.7,0.7-1.5,1-2.2
				c0.1-0.3,0.2-0.5,0.3-0.8c0.2-0.4,0.3-0.6,0.8-0.7c1.9-0.3,3.8-0.5,5.7-0.8l1.7-0.2c0.2,0,0.5-0.1,0.7-0.1
				c0.6-0.1,1.1-0.2,1.7-0.3c0.8-0.1,1.3-0.7,1.3-1.4c0-0.7,0-1.5,0-2.2c0-0.3,0-0.5,0-0.8v-0.8c0-2.5,0-5.1,0-7.6
				c0-1.3-0.4-1.7-1.7-1.9c-2.8-0.4-5.7-0.8-8.5-1.2L74,32.1c-0.4-0.1-0.8-0.2-1-0.8c-0.4-1.3-1-2.6-1.8-4.1
				c-0.2-0.4-0.3-0.8,0.1-1.4c2-2.4,3.9-4.7,5.3-6.5c0.7-0.9,0.7-1.5,0-2.4c-1.7-2.1-3.7-3.9-5.7-5.7c-0.3-0.3-0.6-0.6-0.9-0.9
				c-0.7-0.7-1.5-1.3-2-1.8c-0.9-0.8-1.6-0.8-2.6-0.1l-1.5,1.1c-1.9,1.4-3.9,2.8-5.8,4.2c-0.4,0.3-0.8,0.4-1.3,0.1
				c-1.1-0.6-2.4-1-4-1.5c-0.3-0.1-0.7-0.3-0.8-0.9c-0.4-2.7-0.9-5.6-1.5-9.1c-0.1-0.6-0.4-1.3-1.8-1.4c-1.4,0-2.9,0-4.3,0
				c-0.6,0-1.2,0-1.8,0H41c-1.4,0-2.7,0-4.1,0c-1.2,0-1.7,0.3-1.9,1.4c-0.6,2.1-0.9,4.4-1.2,6.5c0,0.3-0.1,0.5-0.1,0.8
				c0,0.2-0.1,0.3-0.1,0.5c-0.1,0.3-0.1,0.7-0.1,1c0,0.9-0.6,1.1-1,1.2c-1.4,0.5-2.7,1-3.9,1.6c-0.5,0.3-0.9,0.1-1.2-0.1
				c-2.2-1.6-4.5-3.3-7-5.1c-1.2-0.9-1.6-0.9-2.8-0.1c-2,1.3-3.7,3-5.3,4.6c-0.2,0.2-0.4,0.4-0.6,0.6c-1.1,1.1-2.2,2.2-3.1,3.4
				c-0.7,0.9-0.7,1.3,0.1,2.2c1.8,2.2,3.7,4.4,5.5,6.7c0.3,0.4,0.4,0.8,0.1,1.3c-0.8,1.4-1.3,2.6-1.7,3.8c-0.2,0.6-0.6,0.8-1,0.8
				c-3.2,0.4-6.5,0.9-9.5,1.4c-0.8,0.1-1.3,0.8-1.3,1.5c0,4.2,0,8,0,11.8c0,0.8,0.6,1.3,1.5,1.5l1.1,0.2c2.6,0.4,5.3,0.7,7.9,1.1
				c0.7,0.1,1.2,0.3,1.4,1.1c0.3,1.2,0.9,2.5,1.7,3.9c0.3,0.5,0.2,0.8-0.1,1.3c-1.7,2.1-3.5,4.3-5.1,6.3c-1,1.3-1,1.7,0,3
				c1.7,2.1,3.7,3.9,6.1,6c0.8,0.8,1.7,1.5,2.3,2c1,0.9,1.7,0.9,2.7,0.1l1.5-1.1c1.9-1.3,3.8-2.7,5.6-4.1
				C27.7,67.6,28,67.5,28.2,67.5z M42.8,54.5c-0.1,0-0.2,0-0.2,0c-4.2-0.1-8.1-1.9-10.9-5c-2.2-2.5-3.4-5.6-3.3-8.8
				c-0.1-3.2,1.2-6.4,3.5-9c2.8-3.1,7.1-4.9,11.2-4.8c3.8,0.1,7.4,1.5,10,4.1c2.7,2.6,4.2,6,4.2,9.7c0,3.3-1.3,6.5-3.6,9
				C50.9,52.8,46.9,54.5,42.8,54.5z M42.5,53.8c4.1,0.1,7.9-1.6,10.7-4.6c2.2-2.4,3.4-5.4,3.4-8.5c0-7.2-6-12.9-13.6-13.1
				c-4-0.1-8,1.6-10.7,4.6c-2.2,2.4-3.4,5.4-3.3,8.4v0v0c-0.1,3,1,5.9,3.1,8.3C34.8,51.9,38.6,53.7,42.5,53.8z"/>
		</g>
	</g>
</g>
</svg>
