<?xml version="1.0" encoding="utf-8"?>
<!-- Generator: Adobe Illustrator 21.0.0, SVG Export Plug-In . SVG Version: 6.00 Build 0)  -->
<svg version="1.1" id="Layer_1" xmlns="http://www.w3.org/2000/svg" xmlns:xlink="http://www.w3.org/1999/xlink" x="0px" y="0px"
	 viewBox="0 0 89.1 95.7" style="enable-background:new 0 0 89.1 95.7;" xml:space="preserve">
<style type="text/css">
	.st0{fill:#85D3E9;}
</style>
<path class="st0" d="M12.1,53c3.1,0,5.9-1.2,8-3.1c0.5,14-3.5,21,0.8,25.9c3,3.4,12.7,1,21.8,1c-1.3,1.9-2,4.2-2,6.7
	c0,6.7,5.4,12.1,12.1,12.1s12.1-5.4,12.1-12.1c0-2.6-0.8-5-2.2-6.9c13-0.3,20.6,4.3,23.7-0.8c3.4-5.5,4-22.8,0.2-25.4
	c-1.7-1.1-3.8,1.6-6,1.6c-6.7,0-12.1-5.4-12.1-12.1c0-6.7,5.4-12.1,12.1-12.1c2,0,4.7,3,5.5,1.3c4.8-9.7,3-23.9-1-26.7
	c-5.7-4.1-20.5-2.9-24.1,0.7c-2,2,3,4.9,3,7.9c0,6.7-5.4,12.1-12.1,12.1s-12.1-5.4-12.1-12.1c0-2.5,3.1-4.7,2.1-6.7
	c-2.8-5.7-22-2.5-24.1,3.2c-1.5,4.1,1.2,13.5,1.7,23.8c-2-1.5-4.5-2.5-7.3-2.5C5.4,28.9,0,34.3,0,41C0,47.6,5.4,53,12.1,53z"/>
</svg>
