<?xml version="1.0" encoding="utf-8"?>
<!-- Generator: Adobe Illustrator 21.0.0, SVG Export Plug-In . SVG Version: 6.00 Build 0)  -->
<svg version="1.1" id="Layer_1" xmlns="http://www.w3.org/2000/svg" xmlns:xlink="http://www.w3.org/1999/xlink" x="0px" y="0px"
	 viewBox="0 0 201.6 201.6" style="enable-background:new 0 0 201.6 201.6;" xml:space="preserve">
<style type="text/css">
	.st0{fill:#3BBBA5;}
	.st1{fill:#FFFFFF;}
</style>
<circle class="st0" cx="100.8" cy="100.8" r="100.8"/>
<g>
	<path class="st1" d="M146,63.1c-10.8-15.8-25-23.7-42.4-24.9c-20-1.4-36.4,6-48.5,22.3c-2.8,3.8-6.4,5.6-11.2,4.7
		c-7.5-1.5-10.6-8.4-6.2-14.6C49.2,34.4,64.5,23.4,84,19.2c33.4-7.3,66.1,8.6,82.2,39.6c1.7,3.3,3.5,4.7,7.2,4.3
		c2.8-0.3,5.7-0.2,8.5,0c3.6,0.2,4.9,2.5,3.1,5.5c-7.8,12.6-15.8,25-23.8,37.5c-1.9,3-4.5,2.9-6.4,0.1
		c-8.1-12.4-16.2-24.8-24.1-37.3c-1.9-3-0.4-5.5,3.4-5.7C137.6,63,141.2,63.1,146,63.1z"/>
	<path class="st1" d="M56.2,132.1c8.4,12.4,19.1,19.9,32.6,22.8c22.7,4.9,42.1-1.1,57-19.6c5.2-6.5,10.2-8,15.8-4.6
		c5,3.1,6.3,7.7,2.8,12.7c-12.2,17.7-28.8,29.2-50,32.5c-33.5,5.2-63.1-10.1-78.8-40.1c-1.4-2.7-2.9-4.1-6-3.8c-3,0.3-6,0.1-9,0
		c-4.6-0.2-5.7-2.4-3.1-6.6c4.1-6.6,8.4-13.2,12.6-19.8c3.3-5.2,6.5-10.4,9.9-15.5c2.8-4.2,4.8-4.3,7.5-0.3
		c7.9,11.9,15.6,24,23.3,36c2.3,3.6,1,5.9-3.5,6.1C63.9,132.2,60.6,132.1,56.2,132.1z"/>
</g>
</svg>
