<?xml version="1.0" encoding="utf-8"?>
<!-- Generator: Adobe Illustrator 21.0.0, SVG Export Plug-In . SVG Version: 6.00 Build 0)  -->
<svg version="1.1" id="Layer_1" xmlns="http://www.w3.org/2000/svg" xmlns:xlink="http://www.w3.org/1999/xlink" x="0px" y="0px"
	 viewBox="0 0 1728 972" style="enable-background:new 0 0 1728 972;" xml:space="preserve">
<style type="text/css">
	.st0{fill:#192E58;}
	.st1{fill:#FFFFFF;}
	.st2{fill:#1B75BB;}
	.st3{opacity:0.13;fill:#66CCF1;}
	.st4{opacity:0.61;fill:#FFFFFF;}
	.st5{opacity:0.31;fill:#FFFFFF;}
</style>
<path class="st0" d="M921.3,230.2l-42.5,0.8l0,0l-436.6,8.7c-31.6,0.8-33.8,476.9-2.1,476.1l30.1-0.8l0,0l437.5-11.4
	C939.2,702.8,952.9,229.4,921.3,230.2z"/>
<g>
	<path class="st1" d="M451.2,684.7c-1.9-3.2-7.6-16.9-12-71.7c-3.1-39.5-4.9-91.2-4.8-145.5s1.8-106,4.9-145.5
		c4.4-54.8,10.1-68.5,12-71.7h452.1c1.9,3.2,7.6,16.9,12,71.7c3.2,39.5,4.9,91.2,4.9,145.5c0,54.3-1.7,106-4.8,145.5
		c-4.4,54.8-10,68.5-12,71.7H451.2z"/>
	<path class="st2" d="M898.5,257.8c2.3,6.7,6.4,24.5,9.8,69c2.9,38.7,4.6,88.6,4.6,140.6c0,52-1.6,102-4.5,140.7
		c-3.4,44.5-7.5,62.3-9.8,69H477.9h-21.7c-2.3-6.7-6.4-24.5-9.8-69c-2.9-38.7-4.5-88.6-4.5-140.7c0-52,1.6-102,4.6-140.6
		c3.4-44.5,7.6-62.3,9.8-69H877H898.5 M905.4,242.8H877H449.5c-30,0-30.1,449.4-0.1,449.4h28.5h427.6
		C935.5,692.2,935.4,242.8,905.4,242.8L905.4,242.8z"/>
</g>
<path class="st3" d="M442,467.5c0,0,228.7,172,471.3-1.4c0,0,0,176.3-15,210.5h-442C444.7,630.8,442,467.5,442,467.5z"/>
<polygon class="st4" points="640.1,214.1 395.8,408.8 395,480.3 668.1,214.1 "/>
<polygon class="st5" points="395,493.4 681.5,214.1 690.1,214.1 395,500.7 "/>
</svg>
