<?xml version="1.0" encoding="utf-8"?>
<!-- Generator: Adobe Illustrator 21.0.0, SVG Export Plug-In . SVG Version: 6.00 Build 0)  -->
<svg version="1.1" id="Layer_1" xmlns="http://www.w3.org/2000/svg" xmlns:xlink="http://www.w3.org/1999/xlink" x="0px" y="0px"
	 viewBox="0 0 1728 972" style="enable-background:new 0 0 1728 972;" xml:space="preserve">
<style type="text/css">
	.st0{fill:#192E58;}
	.st1{fill:#3FA6DD;stroke:#277EBC;stroke-width:12;stroke-miterlimit:10;}
	.st2{fill:none;}
	.st3{opacity:0.53;}
	.st4{fill:#B3E1F0;}
	.st5{opacity:0.61;fill:#FFFFFF;}
	.st6{opacity:0.31;fill:#FFFFFF;}
</style>
<path class="st0" d="M1354.9,256.1c0.1-7.1-18.3-52.3-32.3-52.5l-903.7-28.1c-14-0.1-38.6,31.5-38.7,45.4l-0.1,7.9
	c-2.1,4.3-3.4,8.4-3.4,11.5l-4,468.8c-0.1,7.3,18.9,59.4,32.9,59.6l903.1,28.4c14,0.1,38.6-31.9,38.7-46.1l0.1-7.8
	c2.1-4.4,3.4-8.5,3.4-11.7L1354.9,256.1z"/>
<path class="st1" d="M1305.3,733.2H425.8c-13.6,0-24.7-11-24.7-24.7l0.1-463.9c0-13.6,11-24.7,24.7-24.7h879.5
	c13.6,0,24.7,11,24.7,24.7l-0.1,463.9C1330,722.2,1318.9,733.2,1305.3,733.2z"/>
<g>
	<path class="st2" d="M1297.7,715.5H433.3c-14.3,0-26-11.6-26-26l0.1-445.5c0-14.3,11.6-26,26-26h864.4c14.3,0,26,11.6,26,26
		l-0.1,445.5C1323.7,703.8,1312.1,715.5,1297.7,715.5z"/>
</g>
<g class="st3">
	<path class="st4" d="M1313.2,214.8h-55.7H418.5c-15.7,0,108.8,6.4,447.3,6.4C1085.4,221.1,1328.9,214.8,1313.2,214.8z"/>
</g>
<g class="st3">
	<path class="st4" d="M1318.2,738.6h-55.7H423.6c-15.7,0,108.8-6.4,447.3-6.4C1090.4,732.2,1333.9,738.6,1318.2,738.6z"/>
</g>
<g class="st3">
	<path class="st4" d="M395.7,243.8v29.5v444.4c0,8.3,6.4-57.6,6.4-236.9C402.1,364.5,395.7,235.5,395.7,243.8z"/>
</g>
<polygon class="st5" points="640.4,214.8 396.1,409.4 395.4,480.9 668.4,214.8 "/>
<polygon class="st6" points="395.4,494 681.8,214.8 690.4,214.8 395.4,501.4 "/>
</svg>
