<?xml version="1.0" encoding="utf-8"?>
<!-- Generator: Adobe Illustrator 21.0.0, SVG Export Plug-In . SVG Version: 6.00 Build 0)  -->
<svg version="1.1" id="Layer_1" xmlns="http://www.w3.org/2000/svg" xmlns:xlink="http://www.w3.org/1999/xlink" x="0px" y="0px"
	 viewBox="0 0 1728 972" style="enable-background:new 0 0 1728 972;" xml:space="preserve">
<style type="text/css">
	.st0{fill:#192E58;}
	.st1{fill:#3FA6DD;stroke:#277EBC;stroke-width:12;stroke-miterlimit:10;}
	.st2{fill:none;}
	.st3{fill:#FFFFFF;}
	.st4{fill:#1B75BB;}
	.st5{fill:#FFFFFF;stroke:#1B75BB;stroke-width:13;stroke-miterlimit:10;}
	.st6{fill:#FFFFFF;stroke:#1B75BB;stroke-width:12;stroke-miterlimit:10;}
	.st7{opacity:0.53;}
	.st8{fill:#B3E1F0;}
	.st9{opacity:0.13;fill:#66CCF1;}
	.st10{fill:#3FA6DD;}
	.st11{opacity:0.61;fill:#FFFFFF;}
	.st12{opacity:0.31;fill:#FFFFFF;}
</style>
<path class="st0" d="M1354.6,255.4c0.1-7.1-18.3-52.3-32.3-52.5l-903.7-28.1c-14-0.1-38.6,31.5-38.7,45.4l-0.1,7.9
	c-2.1,4.3-3.4,8.4-3.4,11.5l-4,468.8c-0.1,7.3,18.9,59.4,32.9,59.6l903.1,28.4c14,0.1,38.6-31.9,38.7-46.1l0.1-7.8
	c2.1-4.4,3.4-8.5,3.4-11.7L1354.6,255.4z"/>
<path class="st1" d="M1305,732.6H425.4c-13.6,0-24.7-11-24.7-24.7l0.1-463.9c0-13.6,11-24.7,24.7-24.7H1305
	c13.6,0,24.7,11,24.7,24.7l-0.1,463.9C1329.6,721.6,1318.6,732.6,1305,732.6z"/>
<g>
	<path class="st2" d="M1297.4,714.8H433c-14.3,0-26-11.6-26-26l0.1-445.5c0-14.3,11.6-26,26-26h864.4c14.3,0,26,11.6,26,26
		l-0.1,445.5C1323.4,703.2,1311.7,714.8,1297.4,714.8z"/>
</g>
<path class="st0" d="M1299.8,527l-30.3,0.5l0,0l-311,5c-22.5,0.4-26.4,185.6-3.8,185.1l21.4-0.4l0,0l311.7-6
	C1310.3,710.7,1322.3,526.6,1299.8,527z"/>
<path class="st0" d="M921.3,230.2l-42.5,0.8l0,0l-436.6,8.7c-31.6,0.8-33.8,476.9-2.1,476.1l30.1-0.8l0,0l437.5-11.4
	C939.2,702.8,952.9,229.4,921.3,230.2z"/>
<path class="st0" d="M1284.8,233l-26.9,0.6l0,0l-276,6.8c-20,0.6-24,220.5-4,219.9l19-0.6l0,0l276.5-8
	C1293.5,451.2,1304.8,232.5,1284.8,233z"/>
<g>
	<path class="st3" d="M451.2,684.7c-1.9-3.2-7.6-16.9-12-71.7c-3.1-39.5-4.9-91.2-4.8-145.5s1.8-106,4.9-145.5
		c4.4-54.8,10.1-68.5,12-71.7h452.1c1.9,3.2,7.6,16.9,12,71.7c3.2,39.5,4.9,91.2,4.9,145.5c0,54.3-1.7,106-4.8,145.5
		c-4.4,54.8-10,68.5-12,71.7H451.2z"/>
	<path class="st4" d="M898.5,257.8c2.3,6.7,6.4,24.5,9.8,69c2.9,38.7,4.6,88.6,4.6,140.6c0,52-1.6,102-4.5,140.7
		c-3.4,44.5-7.5,62.3-9.8,69H477.9h-21.7c-2.3-6.7-6.4-24.5-9.8-69c-2.9-38.7-4.5-88.6-4.5-140.7c0-52,1.6-102,4.6-140.6
		c3.4-44.5,7.6-62.3,9.8-69H877H898.5 M905.4,242.8H877H449.5c-30,0-30.1,449.4-0.1,449.4h28.5h427.6
		C935.5,692.2,935.4,242.8,905.4,242.8L905.4,242.8z"/>
</g>
<path class="st5" d="M1279.6,534.8h-19.7l0,0H963.7c-20.8,0-20.9,167.1-0.1,167.1h19.8l0,0h296.3
	C1300.5,701.9,1300.4,534.8,1279.6,534.8z"/>
<path class="st6" d="M1061.7,247.8h-4.8l0,0h-71.7c-5,0-5.1,86,0,86h4.8l0,0h71.7C1066.8,333.8,1066.8,247.8,1061.7,247.8z"/>
<path class="st6" d="M1167.7,248.8h-4.8l0,0h-71.7c-5,0-5.1,86,0,86h4.8l0,0h71.7C1172.8,334.8,1172.8,248.8,1167.7,248.8z"/>
<path class="st6" d="M1061.7,356.2h-4.8l0,0h-71.7c-5,0-5.1,86,0,86h4.8l0,0h71.7C1066.8,442.2,1066.8,356.2,1061.7,356.2z"/>
<path class="st6" d="M1166.5,356.7h-4.8l0,0h-71.7c-5,0-5.1,86,0,86h4.8l0,0h71.7C1171.6,442.7,1171.6,356.7,1166.5,356.7z"/>
<path class="st6" d="M1272.3,356.2h-4.8l0,0h-71.7c-5,0-5.1,86,0,86h4.8l0,0h71.7C1277.3,442.2,1277.3,356.2,1272.3,356.2z"/>
<path class="st6" d="M1272.3,247.8h-4.8l0,0h-71.7c-5,0-5.1,86,0,86h4.8l0,0h71.7C1277.3,333.8,1277.3,247.8,1272.3,247.8z"/>
<g class="st7">
	<path class="st8" d="M1312.9,214.1h-55.7H418.2c-15.7,0,108.8,6.4,447.3,6.4C1085,220.5,1328.5,214.1,1312.9,214.1z"/>
</g>
<g class="st7">
	<path class="st8" d="M1317.9,737.9h-55.7H423.2c-15.7,0,108.8-6.4,447.3-6.4C1090.1,731.6,1333.6,737.9,1317.9,737.9z"/>
</g>
<g class="st7">
	<path class="st8" d="M1335.7,236v29.5v444.4c0,8.3-6.4-57.6-6.4-236.9C1329.3,356.7,1335.7,227.7,1335.7,236z"/>
</g>
<g class="st7">
	<path class="st8" d="M395.4,243.2v29.5v444.4c0,8.3,6.4-57.6,6.4-236.9C401.7,363.9,395.4,234.9,395.4,243.2z"/>
</g>
<path class="st9" d="M442,467.5c0,0,228.7,172,471.3-1.4c0,0,0,176.3-15,210.5h-442C444.7,630.8,442,467.5,442,467.5z"/>
<path class="st9" d="M987,399.1c0,0,35.1,31.4,73.1,0.6c0,0,0.6,30.4-1.7,36.5h-69.9C986.7,428.1,987,399.1,987,399.1z"/>
<path class="st9" d="M986.9,291.3c0,0,35.1,31.4,73.1,0.6c0,0,0.6,30.4-1.7,36.5h-69.9C986.6,320.2,986.9,291.3,986.9,291.3z"/>
<path class="st9" d="M1093.4,292.1c0,0,35.1,31.4,73.1,0.6c0,0,0.6,30.4-1.7,36.5h-69.9C1093.1,321.1,1093.4,292.1,1093.4,292.1z"/>
<path class="st9" d="M1092.2,399.8c0,0,35.1,31.4,73.1,0.6c0,0,0.6,30.4-1.7,36.5h-69.9C1091.9,428.8,1092.2,399.8,1092.2,399.8z"/>
<path class="st9" d="M1198.1,291.1c0,0,35.1,31.4,73.1,0.6c0,0,0.6,30.4-1.7,36.5h-69.9C1197.7,320.1,1198.1,291.1,1198.1,291.1z"/>
<path class="st9" d="M1197.7,398.8c0,0,35.1,31.4,73.1,0.6c0,0,0.6,30.4-1.7,36.5h-69.9C1197.4,427.8,1197.7,398.8,1197.7,398.8z"/>
<path class="st9" d="M955.5,615.9c0,0,161.8,67.4,333.4-0.5c0,0,0,69-10.6,82.4H965.7C952.4,678.1,955.5,615.9,955.5,615.9z"/>
<path class="st0" d="M1105.8,466.7l-12.2,0.1l0,0l-125.3,1c-9.1,0.1-10.5,51.4-1.4,51.3l8.6-0.1l0,0l125.6-1.3
	C1110.2,517.7,1114.9,466.6,1105.8,466.7z"/>
<path class="st10" d="M1092.5,470.4h-7.2l0,0H977.2c-7.6,0-7.6,37.9,0,37.9h7.2l0,0h108.2C1100.2,508.4,1100.1,470.4,1092.5,470.4z"
	/>
<path class="st9" d="M974.2,488.8c0,0,59.1,15.3,121.8-0.1c0,0,0,15.7-3.9,18.7H977.9C973,503,974.2,488.8,974.2,488.8z"/>
<path class="st0" d="M1291.1,465.5l-12.2,0.1l0,0l-125.3,1c-9.1,0.1-10.5,51.4-1.4,51.3l8.6-0.1l0,0l125.6-1.3
	C1295.5,516.4,1300.2,465.4,1291.1,465.5z"/>
<path class="st4" d="M1277.9,469.2h-7.2l0,0h-108.2c-7.6,0-7.6,37.9,0,37.9h7.2l0,0h108.2C1285.5,507.1,1285.5,469.2,1277.9,469.2z"
	/>
<path class="st9" d="M1159.5,487.6c0,0,59.1,15.3,121.8-0.1c0,0,0,15.7-3.9,18.7h-114.2C1158.3,501.7,1159.5,487.6,1159.5,487.6z"/>
<polygon class="st11" points="640.1,214.1 395.8,408.8 395,480.3 668.1,214.1 "/>
<polygon class="st12" points="395,493.4 681.5,214.1 690.1,214.1 395,500.7 "/>
<polygon class="st0" points="969.9,354.2 946.2,402.2 969.9,445.6 "/>
<polygon class="st6" points="960.1,363.5 951.4,381.3 960.1,397.4 "/>
<polygon class="st0" points="1293.1,259.9 1316.7,307.9 1293.1,351.2 "/>
<polygon class="st6" points="1297.8,272.2 1306.6,290 1297.8,306 "/>
<g class="st7">
	<path class="st8" d="M1095.9,471.4h-7.6H974.2c-2.1,0,14.8,9,60.8,8.9C1064.9,480.2,1098,471.4,1095.9,471.4z"/>
</g>
<g class="st7">
	<path class="st8" d="M1281.9,469.5h-7.6h-114.1c-2.1,0,14.8,9,60.8,8.9C1250.9,478.3,1284,469.5,1281.9,469.5z"/>
</g>
</svg>
