<?xml version="1.0" encoding="utf-8"?>
<!-- Generator: Adobe Illustrator 21.0.0, SVG Export Plug-In . SVG Version: 6.00 Build 0)  -->
<svg version="1.1" id="Layer_1" xmlns="http://www.w3.org/2000/svg" xmlns:xlink="http://www.w3.org/1999/xlink" x="0px" y="0px"
	 viewBox="0 0 91.7 56.5" style="enable-background:new 0 0 91.7 56.5;" xml:space="preserve">
<style type="text/css">
	.st0{stroke:#000000;stroke-miterlimit:10;}
	.st1{fill:none;stroke:#000000;stroke-width:5;stroke-linecap:round;stroke-miterlimit:10;}
</style>
<g>
	<path class="st0" d="M91.2,24.1C90.5,7.6,79.4,0.2,67.4,0.5C62,0.6,57.2,3.4,53.6,8c2.2-1.2,4.6-1.8,7.2-1.9
		c12-0.3,33.7,16.5,20.2,37.5C89.2,39.3,91.5,30.5,91.2,24.1z"/>
</g>
<path class="st0" d="M77.2,19.2c0.4,9.4-5.3,17.2-12.7,17.4c-7.4,0.2-13.7-7.3-14.1-16.7S55.7,2.6,63.1,2.5S76.8,9.8,77.2,19.2z"/>
<g>
	<path class="st0" d="M0.6,23.5C2.2,7.1,13.7,0.3,25.6,1.2C31,1.6,35.7,4.6,39,9.4c-2.2-1.3-4.5-2.1-7.1-2.2
		C20,6.2-2.6,21.9,9.9,43.5C1.8,38.8,0,29.9,0.6,23.5z"/>
</g>
<path class="st0" d="M14.9,19.3c-0.9,9.4,4.4,17.4,11.7,18s14.1-6.6,14.9-16s-4.4-17.4-11.7-18S15.8,10,14.9,19.3z"/>
<path class="st1" d="M35.3,48.4c0,0,9.1,12.7,22,0"/>
</svg>
