<?xml version="1.0" encoding="utf-8"?>
<!-- Generator: Adobe Illustrator 21.0.0, SVG Export Plug-In . SVG Version: 6.00 Build 0)  -->
<svg version="1.1" id="Layer_1" xmlns="http://www.w3.org/2000/svg" xmlns:xlink="http://www.w3.org/1999/xlink" x="0px" y="0px"
	 viewBox="0 0 108.8 69.4" style="enable-background:new 0 0 108.8 69.4;" xml:space="preserve">
<style type="text/css">
	.st0{fill:#FFFFFF;}
	.st1{stroke:#000000;stroke-miterlimit:10;}
	.st2{stroke:#000000;stroke-width:2;stroke-miterlimit:10;}
	.st3{fill:#FF69B1;stroke:#000000;stroke-miterlimit:10;}
	.st4{opacity:0.58;fill:#FF69B1;}
</style>
<path d="M100.4,35.5c-0.3,4.6-8.2,2-18,1.3s-18,0.6-17.6-4c0.3-4.6,8.6-7.7,18.5-6.9S100.8,30.9,100.4,35.5z"/>
<path class="st0" d="M93.4,32.2c-0.2,2.3-4.1,1.7-9.1,1.3s-8.9-0.4-8.8-2.7c0.2-2.3,4.3-3.8,9.2-3.5S93.6,29.9,93.4,32.2z"/>
<path class="st0" d="M77.3,35c-0.1,1.1-2.1,0.6-4.5,0.4c-2.5-0.2-4.5,0-4.4-1.1c0.1-1.1,2.2-1.9,4.6-1.7
	C75.5,32.8,77.4,33.9,77.3,35z"/>
<path d="M42.7,32.3c-0.5,4.6-8.2,1.7-18.1,0.7c-9.8-1.1-18,0-17.5-4.6S16,21,25.8,22.1S43.2,27.7,42.7,32.3z"/>
<path class="st1" d="M37.1,3c0.2,0.4-5.3-3.4-11.2-0.5s-9.1,10.3-9.3,10s2.9-8,8.9-10.9S36.9,2.6,37.1,3z"/>
<path class="st1" d="M76.5,5.3c-0.1,0.4,4.6-4.2,11-2.3s10.6,8.8,10.8,8.4c0.1-0.4-4.1-7.4-10.5-9.3S76.7,4.9,76.5,5.3z"/>
<path class="st0" d="M35.8,28.7c-0.3,2.3-4.2,1.5-9.1,1c-4.9-0.5-8.9-0.7-8.7-2.9c0.3-2.3,4.4-3.7,9.3-3.2S36,26.5,35.8,28.7z"/>
<path class="st0" d="M19.6,31c-0.1,1.1-2.1,0.6-4.5,0.3s-4.5-0.1-4.4-1.3s2.2-1.8,4.7-1.6S19.7,29.9,19.6,31z"/>
<path class="st2" d="M44.7,41.8c3.8,1.5,9.4,3.7,15.7,2.5c5.7-1.1,6,4.6,5.7,8.1c-0.3,3.1-0.8,7-1.8,10.3c-1.1,3.6-4.9,5.9-9,5.8
	c-3.5-0.1-7.9-0.4-11.5-1.2c-3.3-0.7-5.9-3.1-6.7-6.1c-0.7-3.1-1.6-7.7-1.2-11.9C36.2,45.1,37.7,39.1,44.7,41.8z"/>
<path class="st3" d="M60.2,44.2c5.7-1.1,6,4.6,5.7,8.1c-0.3,3.1-0.8,7-1.8,10.3c-1.1,3.6-4.9,5.9-9,5.8c-3.5-0.1-7.9-0.4-11.5-1.2
	c-3.3-0.7-5.9-3.1-6.7-6.1c-0.7-3.1,3.4-10.1,6-13.2C47.1,42.9,54.1,45.4,60.2,44.2z"/>
<ellipse class="st4" cx="93.3" cy="49.9" rx="15.5" ry="7.8"/>
<ellipse class="st4" cx="15.5" cy="42.7" rx="15.5" ry="7.8"/>
</svg>
