<?xml version="1.0" encoding="utf-8"?>
<!-- Generator: Adobe Illustrator 21.0.0, SVG Export Plug-In . SVG Version: 6.00 Build 0)  -->
<svg version="1.1" id="Layer_1" xmlns="http://www.w3.org/2000/svg" xmlns:xlink="http://www.w3.org/1999/xlink" x="0px" y="0px"
	 viewBox="0 0 27.2 16.1" style="enable-background:new 0 0 27.2 16.1;" xml:space="preserve">
<style type="text/css">
	.st0{fill:#F2F2F2;}
</style>
<g>
	<g>
		<path class="st0" d="M15.1,2.3c1.6,2.6-0.3,6.7-4.2,9.2s-8.5,2.6-10.2,0S0.6,4.2,4.5,1.6S13.4-0.3,15.1,2.3z"/>
	</g>
</g>
<g>
	<g>
		<path class="st0" d="M14.2,15c-2.2-2-1.5-6.5,1.7-10s7.6-4.7,9.8-2.7s2,7.1-1.2,10.6S16.5,17,14.2,15z"/>
	</g>
</g>
<g>
	<path d="M6.3,6.9C5.9,6.7,5.4,6.6,5,6.6c-1,0-2,0.5-2.5,1.2C1.7,9,2,10.3,3.3,11c0.4,0.2,0.9,0.3,1.3,0.3c1,0,2-0.5,2.5-1.2
		C7.9,8.9,7.5,7.6,6.3,6.9z"/>
	<path d="M18.9,6.7c-0.4-0.2-0.9-0.3-1.3-0.3c-1,0-2,0.5-2.5,1.2c-0.8,1.1-0.4,2.5,0.8,3.1c0.4,0.2,0.9,0.3,1.3,0.3
		c1,0,2-0.5,2.5-1.2C20.4,8.7,20.1,7.3,18.9,6.7z"/>
</g>
</svg>
