<?xml version="1.0" encoding="utf-8"?>
<!-- Generator: Adobe Illustrator 21.0.0, SVG Export Plug-In . SVG Version: 6.00 Build 0)  -->
<svg version="1.1" id="Layer_1" xmlns="http://www.w3.org/2000/svg" xmlns:xlink="http://www.w3.org/1999/xlink" x="0px" y="0px"
	 viewBox="0 0 54.5 47.8" style="enable-background:new 0 0 54.5 47.8;" xml:space="preserve">
<style type="text/css">
	.st0{fill:#F1F1F2;stroke:#F1F1F2;stroke-width:4;stroke-miterlimit:10;}
	.st1{fill:#383638;}
</style>
<path class="st0" d="M25.2,19.1c-0.1-16.9-9-18-15.2-16.8C6.3,3.1,3.2,8.5,2.4,15.9c-1.2,11.6-0.7,27.6,12,26.9
	C18,42.6,25.2,33.5,25.2,19.1z"/>
<path class="st1" d="M11.8,19.1c0.5,4.5-1.3,9.9-4.2,12S2,31.2,1.5,26.7s1.2-11,4.1-13.1S11.3,14.6,11.8,19.1z"/>
<path class="st0" d="M52.5,22.1c0-16.3-8.9-19.2-15.3-19.2c-4.1,0-7.6,6.3-8.2,14.6c-0.8,12.5,0.4,29,12.8,28.3
	C45.3,45.6,52.5,36.4,52.5,22.1z"/>
<path class="st1" d="M39.1,21c0.5,4.5-1.3,9.9-4.2,12s-5.6,0.1-6.1-4.4s1.2-11,4.1-13.1S38.5,16.5,39.1,21z"/>
</svg>
