<?xml version="1.0" encoding="utf-8"?>
<!-- Generator: Adobe Illustrator 21.0.0, SVG Export Plug-In . SVG Version: 6.00 Build 0)  -->
<svg version="1.1" id="Layer_1" xmlns="http://www.w3.org/2000/svg" xmlns:xlink="http://www.w3.org/1999/xlink" x="0px" y="0px"
	 viewBox="0 0 54.5 25.6" style="enable-background:new 0 0 54.5 25.6;" xml:space="preserve">
<style type="text/css">
	.st0{fill:#F1F1F2;stroke:#F1F1F2;stroke-width:4;stroke-miterlimit:10;}
	.st1{fill:#383638;}
</style>
<path class="st0" d="M25.2,10.4c-0.1-8.3-9-8.9-15.2-8.3C6.3,2.5,3.2,5.2,2.4,8.8c-1.2,5.7-0.7,13.6,12,13.3
	C18,22,25.2,17.5,25.2,10.4z"/>
<path class="st1" d="M11.8,4c0.5,2.2-1.3,4.9-4.2,5.9S2,10,1.5,7.8s1.2-5.4,4.1-6.5S11.3,1.8,11.8,4z"/>
<path class="st0" d="M52.5,11.9c0-8.1-8.9-9.5-15.3-9.5c-4.1,0-7.6,3.1-8.2,7.2c-0.8,6.2,0.4,14.3,12.8,13.9
	C45.3,23.5,52.5,18.9,52.5,11.9z"/>
<path class="st1" d="M39.1,5.5c0.5,2.2-1.3,4.9-4.2,5.9s-5.6,0.1-6.1-2.2s1.2-5.4,4.1-6.5S38.5,3.3,39.1,5.5z"/>
</svg>
