<?xml version="1.0" encoding="utf-8"?>
<!-- Generator: Adobe Illustrator 21.0.0, SVG Export Plug-In . SVG Version: 6.00 Build 0)  -->
<svg version="1.1" id="Layer_1" xmlns="http://www.w3.org/2000/svg" xmlns:xlink="http://www.w3.org/1999/xlink" x="0px" y="0px"
	 viewBox="0 0 66.7 51.5" style="enable-background:new 0 0 66.7 51.5;" xml:space="preserve">
<style type="text/css">
	.st0{stroke:#000000;stroke-miterlimit:10;}
	.st1{fill:#D44B9A;}
	.st2{stroke:#000000;stroke-width:5;stroke-linejoin:round;stroke-miterlimit:10;}
</style>
<path class="st0" d="M47.9,15.6c-2.4,0.7,1.2,10.3-14.6,10.3s-12.2-9.6-14.6-10.3C-2.6,9.1,7,36.5,11.3,42.2
	c4.8,6.3,13.7,8.7,22,8.8c8.4-0.2,17.3-2.5,22-8.8C59.7,36.5,69.3,9.1,47.9,15.6z"/>
<path class="st1" d="M33.4,32.8c-10.7,0-17.8,7.2-14.9,11c3.2,4.2,9.3,5.9,14.9,6c5.7-0.1,11.7-1.7,14.9-6
	C51.2,40,44.1,32.8,33.4,32.8z"/>
<path class="st2" d="M23.2,7.2c0,0-12.3-10.7-20.7,0C2.5,7.2,11.5,1.6,23.2,7.2z"/>
<path class="st2" d="M64.2,7.2c0,0-12.3-10.7-20.7,0C43.6,7.2,52.6,1.6,64.2,7.2z"/>
</svg>
