<?xml version="1.0" encoding="utf-8"?>
<!-- Generator: Adobe Illustrator 21.0.0, SVG Export Plug-In . SVG Version: 6.00 Build 0)  -->
<svg version="1.1" id="Layer_1" xmlns="http://www.w3.org/2000/svg" xmlns:xlink="http://www.w3.org/1999/xlink" x="0px" y="0px"
	 viewBox="0 0 34.8 18.8" style="enable-background:new 0 0 34.8 18.8;" xml:space="preserve">
<style type="text/css">
	.st0{fill:#F6921E;}
</style>
<g>
	<path d="M4.9,0.4C4.5,0.2,4,0,3.4,0c0,0-0.1,0-0.1,0C3.3,0,3.2,0,3.2,0c-1,0-1.9,0.5-2.4,1.4C0.6,1.6,0.6,1.7,0.5,1.9
		C0.1,2.5-0.1,3.3,0,4c0,0.3,0.1,0.5,0.2,0.7c0,0,0,0.1,0.1,0.2c0.2,0.5,0.6,1,1.1,1.3c0.4,0.3,0.9,0.4,1.5,0.4c1.2,0,2.3-0.7,3-1.8
		C6.6,3.1,6.2,1.3,4.9,0.4z"/>
	<path d="M33.5,0.4C33.1,0.1,32.6,0,32.1,0C32,0,32,0,32,0c-0.1,0-0.1,0-0.2,0c-1,0-1.9,0.5-2.4,1.4c-0.1,0.1-0.2,0.3-0.3,0.4
		c-0.4,0.7-0.5,1.4-0.5,2.1c0,0.3,0.1,0.5,0.2,0.7c0,0,0,0.1,0.1,0.2c0.2,0.5,0.6,1,1.1,1.3c0.4,0.3,0.9,0.4,1.5,0.4
		c1.2,0,2.3-0.7,2.9-1.9C35.2,3.1,34.9,1.2,33.5,0.4z"/>
	<path d="M18,7.1c-4.6,0.1-9.2,0.2-9.9,0.3c-0.5,0-1,0.3-1.2,0.8C6.2,9.5,6.5,12.5,8.1,15c1.6,2.5,4,3.8,7.1,3.8c0.1,0,0.3,0,0.4,0
		c2.7,0,11.7-0.8,12.5-10.4l0-0.5l-0.3-0.3C27.4,7.2,27.2,7,18,7.1z M14.9,18.2C3.2,16.6,26.6,5.6,26.5,8.7
		C26,18.8,15.4,18.3,14.9,18.2z"/>
	<path class="st0" d="M26.5,8.7c0.1-3.1-23.3,7.9-11.6,9.5C15.4,18.3,26,18.8,26.5,8.7z"/>
</g>
</svg>
