<?xml version="1.0" encoding="utf-8"?>
<!-- Generator: Adobe Illustrator 21.0.0, SVG Export Plug-In . SVG Version: 6.00 Build 0)  -->
<svg version="1.1" id="Layer_1" xmlns="http://www.w3.org/2000/svg" xmlns:xlink="http://www.w3.org/1999/xlink" x="0px" y="0px"
	 viewBox="0 0 47.2 23.4" style="enable-background:new 0 0 47.2 23.4;" xml:space="preserve">
<g>
	<path d="M9.9,4.2c-0.9-0.6-2-0.9-3.1-0.9C4.4,3.4,2.2,4.7,1,6.8c-1.8,3.1-1,6.8,1.8,8.5c0.9,0.6,2,0.9,3.1,0.9
		c2.3,0,4.6-1.3,5.8-3.4C13.5,9.7,12.7,6,9.9,4.2z"/>
	<path d="M44.4,0.9c-0.9-0.6-2-0.9-3.1-0.9c-2.3,0-4.6,1.3-5.8,3.4c-1.8,3.1-1,6.8,1.8,8.5c0.9,0.6,2,0.9,3.1,0.9
		c2.3,0,4.6-1.3,5.8-3.4C48,6.3,47.2,2.6,44.4,0.9z"/>
</g>
<g>
	<path d="M23.5,23.4c0,0-0.1,0-0.1,0c-4.6-0.1-7.2-5.3-7.6-7.3c-0.4-1.7,0.2-3.5,1.4-4.1c1.2-0.6,2.4,0.4,2.8,2.1
		c1,4.2,4.9,7.6,6.9-0.1c0.4-1.7,1.7-2.5,2.9-1.9c1.1,0.6,1.7,2.5,1.3,4.2C29.7,21.4,27.5,23.4,23.5,23.4z"/>
</g>
</svg>
