<?xml version="1.0" encoding="utf-8"?>
<!-- Generator: Adobe Illustrator 21.0.0, SVG Export Plug-In . SVG Version: 6.00 Build 0)  -->
<svg version="1.1" id="Layer_1" xmlns="http://www.w3.org/2000/svg" xmlns:xlink="http://www.w3.org/1999/xlink" x="0px" y="0px"
	 viewBox="0 0 142.4 74.6" style="enable-background:new 0 0 142.4 74.6;" xml:space="preserve">
<style type="text/css">
	.st0{fill:#F6B0C1;}
	.st1{fill:#D31C5B;}
	.st2{fill:#ED5180;}
	.st3{fill:#EC6B9B;}
</style>
<g>
	<g id="XMLID_13_">
		<path class="st0" d="M62.7,18c0,0,0-0.1,0-0.1C62.7,9.1,56,1,45.9,1.1c-8,0-12.6,5.5-14.2,10.6l0,0C30.2,6.6,25.5,1.1,17.5,1.1
			C7.5,1.1,0.8,9.2,0.8,18c0,0,0,0.1,0,0.1c-0.1,1.9,0,21.4,31,37.2l0,0c0,0,0,0,0,0c0,0,0,0,0,0c0,0,0,0,0,0c0,0,0,0,0,0l0,0
			C62.8,39.4,62.8,19.9,62.7,18z"/>
		<path class="st1" d="M31.8,56.1C31.8,56.1,31.8,56.1,31.8,56.1c-0.2,0-0.3,0-0.4-0.1c0,0,0,0,0,0C0.3,40.1-0.1,20.3,0,18.1L0,18
			C0,9.3,6.5,0.3,17.5,0.3c0,0,0,0,0,0c7.4,0,12,4.4,14.2,9.1c2.1-4.7,6.7-9.1,14.2-9.1c0,0,0,0,0,0c4.9,0,9.4,1.9,12.7,5.4
			c3.1,3.3,4.8,7.6,4.8,12.3l0,0.1c0.1,2.3-0.3,22-31.3,38c-0.1,0.1-0.2,0.1-0.3,0.1C31.9,56.1,31.9,56.1,31.8,56.1z M17.6,1.9
			C17.5,1.9,17.5,1.9,17.6,1.9c-10,0-16,8.2-15.9,16.1l0,0.1C1.6,20.2,1.9,39,31.8,54.4C61.7,38.9,62,20.1,61.9,18c0,0,0,0,0,0
			l0-0.1c0-4.1-1.6-8.2-4.4-11.2c-3-3.1-7.1-4.8-11.5-4.8c0,0,0,0,0,0c-7.6,0-11.9,5.2-13.4,10c-0.1,0.3-0.4,0.6-0.8,0.6
			c0,0,0,0,0,0c-0.4,0-0.7-0.2-0.8-0.6C29.5,7.1,25.2,1.9,17.6,1.9z"/>
	</g>
</g>
<g>
	<g id="XMLID_12_">
		<path class="st2" d="M61.2,19.8c0,0,0-0.1,0-0.1c0-8.3-6.4-16-15.9-16c-7.6,0-12,5.2-13.5,10.1l0,0c-1.5-4.9-5.9-10-13.5-10
			c-9.6,0-15.9,7.7-15.9,16c0,0,0,0.1,0,0.1c0,1.8,0,20.3,29.5,35.3l0,0c0,0,0,0,0,0c0,0,0,0,0,0c0,0,0,0,0,0c0,0,0,0,0,0l0,0
			C61.2,40.1,61.2,21.6,61.2,19.8z"/>
		<path class="st1" d="M31.8,56.6c-0.2,0-0.5-0.1-0.7-0.2c0,0,0,0-0.1,0C18.6,50,9.7,42.2,4.8,33.3C1.1,26.6,0.9,21.4,1,19.9
			c0-0.1,0-0.1,0-0.1c0-4.5,1.7-8.8,4.7-12.1c3.2-3.4,7.7-5.3,12.6-5.3c0,0,0,0,0,0c6.7,0,11.2,3.8,13.5,7.9
			c2.3-4.1,6.7-7.9,13.5-7.9c0,0,0,0,0,0c10.8,0,17.3,8.8,17.3,17.4c0,0,0,0.1,0,0.1h0c0,1.5-0.1,6.7-3.8,13.4
			c-4.9,9-13.7,16.8-26.2,23.2c0,0,0,0,0,0c-0.1,0.1-0.3,0.1-0.5,0.2C32,56.6,31.9,56.6,31.8,56.6C31.9,56.6,31.8,56.6,31.8,56.6z
			 M18.3,5.2C18.3,5.2,18.3,5.2,18.3,5.2c-4.1,0-7.9,1.6-10.5,4.4c-2.5,2.7-4,6.4-4,10.2l0,0.1c0,0,0,0,0,0
			c-0.1,1.9,0.3,19.3,28.1,33.7c27.7-14.5,28-31.9,27.9-33.8c0,0,0,0,0-0.1l0-0.1c0-7.2-5.4-14.6-14.5-14.6c0,0,0,0,0,0
			c-6.9,0-10.8,4.7-12.1,9.1c-0.2,0.6-0.7,1-1.3,1c0,0,0,0,0,0c-0.6,0-1.2-0.4-1.3-1C29.1,9.8,25.1,5.2,18.3,5.2z"/>
	</g>
</g>
<g>
	<path class="st3" d="M3.9,21.5c0,0-0.2-15.7,15.6-16C19.5,5.5,8.7,8.3,3.9,21.5z"/>
</g>
<g>
	<g id="XMLID_2_">
		<path class="st0" d="M141.6,17.7c0,0,0-0.1,0-0.1c0-8.8-6.7-16.8-16.8-16.8c-8,0-12.6,5.5-14.2,10.6l0,0
			c-1.6-5.1-6.2-10.6-14.2-10.5c-10.1,0-16.7,8.1-16.7,16.9c0,0,0,0.1,0,0.1c-0.1,1.9,0,21.4,31,37.2l0,0c0,0,0,0,0,0c0,0,0,0,0,0
			c0,0,0,0,0,0c0,0,0,0,0,0l0,0C141.7,39.1,141.7,19.7,141.6,17.7z"/>
		<path class="st1" d="M110.7,55.8C110.7,55.8,110.7,55.8,110.7,55.8c-0.2,0-0.3,0-0.4-0.1c0,0,0,0,0,0
			C79.2,39.9,78.8,20.1,78.9,17.8l0-0.1c0-8.7,6.5-17.7,17.5-17.7c0,0,0,0,0,0c7.4,0,12,4.4,14.2,9.1c2.1-4.7,6.7-9.1,14.2-9.1
			c0,0,0,0,0,0c4.9,0,9.4,1.9,12.7,5.4c3.1,3.3,4.8,7.6,4.8,12.3l0,0.1c0.1,2.3-0.3,22-31.3,38c-0.1,0.1-0.2,0.1-0.3,0.1
			C110.8,55.8,110.8,55.8,110.7,55.8z M96.4,1.7C96.4,1.7,96.4,1.7,96.4,1.7c-10,0-16,8.2-15.9,16.1l0,0.1
			c-0.1,2.1,0.3,20.9,30.2,36.3c29.8-15.5,30.1-34.3,30.1-36.4c0,0,0,0,0,0l0-0.1c0-4.1-1.6-8.2-4.4-11.2c-3-3.1-7.1-4.8-11.5-4.8
			c0,0,0,0,0,0c-7.6,0-11.9,5.2-13.4,10c-0.1,0.3-0.4,0.6-0.8,0.6c0,0,0,0,0,0c-0.4,0-0.7-0.2-0.8-0.6C108.4,6.8,104.1,1.7,96.4,1.7
			z"/>
	</g>
</g>
<g>
	<g id="XMLID_1_">
		<path class="st2" d="M140.1,19.5c0,0,0-0.1,0-0.1c0-8.3-6.4-16-15.9-16c-7.6,0-12,5.2-13.5,10.1l0,0c-1.5-4.9-5.9-10-13.5-10
			c-9.6,0-15.9,7.7-15.9,16c0,0,0,0.1,0,0.1c0,1.8,0,20.3,29.5,35.3l0,0c0,0,0,0,0,0c0,0,0,0,0,0c0,0,0,0,0,0c0,0,0,0,0,0l0,0
			C140.1,39.8,140.1,21.4,140.1,19.5z"/>
		<path class="st1" d="M110.7,56.4c-0.2,0-0.5-0.1-0.7-0.2c0,0,0,0-0.1,0C97.5,49.8,88.6,42,83.7,33c-3.7-6.7-3.9-11.9-3.9-13.4
			c0-0.1,0-0.1,0-0.1c0-4.5,1.7-8.8,4.7-12.1c3.2-3.4,7.7-5.3,12.6-5.3c0,0,0,0,0,0c6.7,0,11.2,3.8,13.5,7.9
			c2.3-4.1,6.7-7.9,13.5-7.9c0,0,0,0,0,0c10.8,0,17.3,8.8,17.3,17.4c0,0,0,0.1,0,0.1h0c0,1.5-0.1,6.7-3.8,13.4
			c-4.9,9-13.7,16.8-26.2,23.2c0,0,0,0,0,0c-0.1,0.1-0.3,0.1-0.5,0.2C110.9,56.4,110.8,56.4,110.7,56.4
			C110.8,56.4,110.7,56.4,110.7,56.4z M97.2,4.9C97.2,4.9,97.1,4.9,97.2,4.9c-4.1,0-7.9,1.6-10.5,4.4c-2.5,2.7-4,6.4-4,10.2l0,0.1
			c0,0,0,0,0,0C82.6,21.6,83,39,110.7,53.4c27.7-14.5,28-31.9,27.9-33.8c0,0,0,0,0-0.1l0-0.1c0-7.2-5.4-14.6-14.5-14.6c0,0,0,0,0,0
			c-6.9,0-10.8,4.7-12.1,9.1c-0.2,0.6-0.7,1-1.3,1c0,0,0,0,0,0c-0.6,0-1.2-0.4-1.3-1C107.9,9.6,104,4.9,97.2,4.9z"/>
	</g>
</g>
<g>
	<path class="st3" d="M82.8,21.2c0,0-0.2-15.7,15.6-16C98.4,5.3,87.6,8,82.8,21.2z"/>
</g>
<g>
	<path d="M81.9,43.2c0.1,0,0.2,0,0.3,0c1.1,0.2,1.4,0.9,1.6,1.6c0.3,1.2,0.5,2.5,0.8,3.7c0.4,1.7,0.6,3.4,0.7,5
		c0.2,3.1,0.2,6.3-0.5,9.4c-0.5,2.3-1.3,4.6-2.9,6.7c-1.4,1.9-3.3,3.5-6.3,4.4c-0.8,0.2-1.6,0.4-2.4,0.6c-0.3,0-0.6,0-0.9,0
		c-1.2-0.2-2.3-0.5-3.2-1c-1.2-0.6-2.1-1.4-3-2.2c-3-2.9-4.8-6.2-6.4-9.6c-1.1-2.4-2.1-4.9-2.7-7.4c-0.3-1.1-0.5-2.1-0.5-3.2
		c0-1.1,0.4-2,2.2-2.2c0.3,0,0.5-0.1,0.8-0.2c6.2-1.8,12.5-3.5,18.9-4.9C79.6,43.5,80.8,43.4,81.9,43.2z"/>
	<path class="st3" d="M67.7,66.6c0-2.7,0.9-5.3,2.1-7.8c1.9-4,13.1-10.2,14-2.3c0,3.1-0.3,6.3-1.7,9.3c-0.9,2-2.3,3.8-4.8,5.2
		c-0.4,0.2-0.8,0.4-1.1,0.6c-3.1,1.4-6,0.2-7.2-1.2C68.1,69.4,67.7,68.3,67.7,66.6z"/>
</g>
</svg>
