<?xml version="1.0" encoding="utf-8"?>
<!-- Generator: Adobe Illustrator 21.0.0, SVG Export Plug-In . SVG Version: 6.00 Build 0)  -->
<svg version="1.1" id="Layer_1" xmlns="http://www.w3.org/2000/svg" xmlns:xlink="http://www.w3.org/1999/xlink" x="0px" y="0px"
	 viewBox="0 0 103.5 67.1" style="enable-background:new 0 0 103.5 67.1;" xml:space="preserve">
<style type="text/css">
	.st0{fill:#C1272D;}
</style>
<path d="M35.8,18.4c0,10.1-8,0-17.9,0S0,28.5,0,18.4S8,0,17.9,0S35.8,8.2,35.8,18.4z"/>
<path d="M103.5,18.4c0,10.1-8,0-17.9,0s-17.9,10.1-17.9,0S75.7,0,85.6,0S103.5,8.2,103.5,18.4z"/>
<path d="M17.8,41.1c0.1-14.2,15.8-9.4,34.7-9.3s33.8-4.5,33.7,9.7S70.8,67.2,51.9,67.1C33,67,17.7,55.3,17.8,41.1z"/>
<path class="st0" d="M50.9,56.6c-1.2,0.4-9.4-10.1-9.2-14.3c0.1-2.3,4-5.1,9.2,0c0,0,8.6-8.1,9.8,0.8C61.3,47.3,52.8,56,50.9,56.6z"
	/>
</svg>
