<?xml version="1.0" encoding="utf-8"?>
<!-- Generator: Adobe Illustrator 21.0.0, SVG Export Plug-In . SVG Version: 6.00 Build 0)  -->
<svg version="1.1" id="Layer_1" xmlns="http://www.w3.org/2000/svg" xmlns:xlink="http://www.w3.org/1999/xlink" x="0px" y="0px"
	 viewBox="0 0 32 19.6" style="enable-background:new 0 0 32 19.6;" xml:space="preserve">
<style type="text/css">
	.st0{fill:none;stroke:#000000;stroke-width:4;stroke-linecap:round;stroke-miterlimit:10;}
	.st1{stroke:#000000;stroke-width:2;stroke-miterlimit:10;}
</style>
<path class="st0" d="M2,2.5c0,0,5.3,6.3,8.8-0.5"/>
<path class="st0" d="M21.1,2.7c0,0,5.3,6.3,8.8-0.5"/>
<path class="st1" d="M19.7,14.1c0-0.1,0-0.2,0.1-0.3c0.6-2.1,3.5-2.7,3.6-2.7c0.2,0,0.3,0.1,0.3,0.3c0,0.2-0.1,0.3-0.2,0.4
	c0,0-2.6,0.6-3.2,2.3C19.9,15,20.5,16.4,22,18c0.1,0.1,0.1,0.3,0,0.5c-0.1,0.1-0.2,0.1-0.3,0.1c0,0-0.1,0-0.1-0.1
	c-1.3-1.4-1.9-2.6-2-3.7c0,0-13.4,4-15.4-2.6c0,0-0.1-1.4,0.6-0.4C6.9,15,6.6,17.8,19.7,14.1z"/>
</svg>
