<?xml version="1.0" encoding="utf-8"?>
<!-- Generator: Adobe Illustrator 21.0.0, SVG Export Plug-In . SVG Version: 6.00 Build 0)  -->
<svg version="1.1" id="Layer_1" xmlns="http://www.w3.org/2000/svg" xmlns:xlink="http://www.w3.org/1999/xlink" x="0px" y="0px"
	 viewBox="0 0 93.5 53" style="enable-background:new 0 0 93.5 53;" xml:space="preserve">
<style type="text/css">
	.st0{fill:#4F341E;stroke:#000000;stroke-width:2;stroke-miterlimit:10;}
	.st1{fill:none;stroke:#000000;stroke-width:3;stroke-linecap:round;stroke-linejoin:round;stroke-miterlimit:10;}
	.st2{fill:#FFFFFF;}
</style>
<path class="st0" d="M72.8,48.7c-4.6-1.9-6.9-3.7-6.7-5.5c0.3-2.7,6.5-4.4,6.6-4.5c0.4-0.1,0.5-0.4,0.4-0.6
	c-0.1-0.3-0.5-0.4-0.9-0.3c-0.3,0.1-7.1,2-7.5,5.3c0,0.2,0,0.4,0,0.5L25,45.2c-0.8-3.1-7.1-4.9-7.4-4.9c-0.4-0.1-0.8,0-0.9,0.3
	s0,0.5,0.4,0.6c0.1,0,6.3,1.7,6.6,4.5c0.2,1.7-2.1,3.6-6.7,5.5c-0.3,0.1-0.5,0.4-0.3,0.7c0.1,0.2,0.4,0.3,0.6,0.3
	c0.1,0,0.2,0,0.4-0.1c4.6-1.9,7.1-3.8,7.4-5.8l40-1.5c0.8,1.6,3.2,3.3,7.1,4.9c0.1,0,0.2,0.1,0.4,0.1c0.2,0,0.5-0.1,0.6-0.3
	C73.2,49.2,73.1,48.9,72.8,48.7z"/>
<path class="st1" d="M4,13.2c0,0,26.7,10.5,31.2,2.4"/>
<path class="st1" d="M67.8,7c0,0,8.9-11.4,15.8-1.5"/>
<path d="M93.5,30.5c0.1,8.1-8,4.7-17.8,4.8s-17.9,3.6-17.9-4.5S65.7,16,75.5,15.9C85.4,15.9,93.5,22.4,93.5,30.5z"/>
<path class="st2" d="M86.2,25.6c0,4-4,3.5-8.9,3.6c-4.9,0-8.9,0.6-9-3.4s3.9-7.4,8.9-7.4C82.2,18.3,86.2,21.6,86.2,25.6z"/>
<path class="st2" d="M70.5,32.9c0,2-2,1.4-4.5,1.4c-2.5,0-4.5,0.7-4.5-1.3c0-2,2-3.7,4.4-3.7S70.4,30.9,70.5,32.9z"/>
<path d="M35.8,30.9c0.1,8.1-8,4.7-17.8,4.8C8,35.7,0.1,39.2,0,31.2s7.9-14.7,17.8-14.8S35.7,22.8,35.8,30.9z"/>
<path class="st2" d="M28.5,26c0,4-4,3.5-8.9,3.6c-4.9,0-8.9,0.6-9-3.4s3.9-7.4,8.9-7.4C24.4,18.8,28.4,22,28.5,26z"/>
<path class="st2" d="M12.7,33.3c0,2-2,1.4-4.5,1.4c-2.5,0-4.5,0.7-4.5-1.3c0-2,2-3.7,4.4-3.7S12.7,31.3,12.7,33.3z"/>
</svg>
