<?xml version="1.0" encoding="utf-8"?>
<!-- Generator: Adobe Illustrator 21.0.0, SVG Export Plug-In . SVG Version: 6.00 Build 0)  -->
<svg version="1.1" id="Layer_1" xmlns="http://www.w3.org/2000/svg" xmlns:xlink="http://www.w3.org/1999/xlink" x="0px" y="0px"
	 viewBox="0 0 84.8 84.2" style="enable-background:new 0 0 84.8 84.2;" xml:space="preserve">
<style type="text/css">
	.st0{fill:none;stroke:#000000;stroke-width:5;stroke-linecap:round;stroke-miterlimit:10;}
</style>
<path class="st0" d="M11.6,66.9c0,0-12,17,24.3,9.4c0,0,36,15.8,27.3-6.6"/>
<g>
	<path d="M27.9,0.9C22.1-2.5,12,3.9,5.3,15.2c-3,5.1-4.8,10.3-5.3,14.8c0.9-2.4,2-4.8,3.4-7.2C10.1,11.5,20.2,5.1,26.1,8.5
		C29.3,10.4,32.5,3.6,27.9,0.9z"/>
</g>
<ellipse cx="21" cy="49.3" rx="9.9" ry="17"/>
<g>
	<path d="M54.7,11c5.5-3.9,16.1,1.7,23.7,12.4c3.4,4.8,5.6,9.9,6.5,14.3c-1.1-2.3-2.4-4.6-4-6.9c-7.5-10.7-18.1-16.3-23.7-12.4
		C54.1,20.6,50.3,14.1,54.7,11z"/>
</g>
<ellipse cx="56.3" cy="49.5" rx="9.9" ry="17"/>
</svg>
