<?xml version="1.0" encoding="utf-8"?>
<!-- Generator: Adobe Illustrator 21.0.0, SVG Export Plug-In . SVG Version: 6.00 Build 0)  -->
<svg version="1.1" id="Layer_1" xmlns="http://www.w3.org/2000/svg" xmlns:xlink="http://www.w3.org/1999/xlink" x="0px" y="0px"
	 viewBox="0 0 47.2 19.7" style="enable-background:new 0 0 47.2 19.7;" xml:space="preserve">
<g>
	<path d="M9.9,4.2c-0.9-0.6-2-0.9-3.1-0.9C4.4,3.4,2.2,4.7,1,6.8c-1.8,3.1-1,6.8,1.8,8.5c0.9,0.6,2,0.9,3.1,0.9
		c2.3,0,4.6-1.3,5.8-3.4C13.5,9.7,12.7,6,9.9,4.2z"/>
	<path d="M44.4,0.9c-0.9-0.6-2-0.9-3.1-0.9c-2.3,0-4.6,1.3-5.8,3.4c-1.8,3.1-1,6.8,1.8,8.5c0.9,0.6,2,0.9,3.1,0.9
		c2.3,0,4.6-1.3,5.8-3.4C48,6.3,47.2,2.6,44.4,0.9z"/>
</g>
<path d="M30.5,11.5c-0.7-0.4-1.5,0.1-1.8,1.2c-1.3,4.9-3.8,2.8-4.4,0.1c-0.2-0.9-0.9-1.5-1.5-1.4c-0.4,0-0.8,0.3-1.1,1
	c-0.1,0.2-0.1,0.4-0.2,0.6c-1.1,5.3-3.1,2.9-3.7-0.1c-0.2-1.2-0.9-1.9-1.5-1.5c-0.6,0.4-1,1.7-0.7,2.9c0.2,1.5,1.6,5.1,4.1,5.2
	c0,0,0,0,0.1,0c1.6,0,2.6-0.8,3.4-2.7c0.8,0.9,1.9,1.7,3.3,1.8c0,0,0,0,0.1,0c2.5,0,3.9-1.2,4.8-4.6C31.6,13.1,31.2,11.9,30.5,11.5z
	"/>
</svg>
