<?xml version="1.0" encoding="utf-8"?>
<!-- Generator: Adobe Illustrator 21.0.0, SVG Export Plug-In . SVG Version: 6.00 Build 0)  -->
<svg version="1.1" id="Layer_1" xmlns="http://www.w3.org/2000/svg" xmlns:xlink="http://www.w3.org/1999/xlink" x="0px" y="0px"
	 viewBox="0 0 74 43.9" style="enable-background:new 0 0 74 43.9;" xml:space="preserve">
<style type="text/css">
	.st0{fill:none;stroke:#000000;stroke-width:3;stroke-linecap:round;stroke-linejoin:round;stroke-miterlimit:10;}
	.st1{fill:#FFFFFF;}
	.st2{stroke:#000000;stroke-miterlimit:10;}
</style>
<path class="st0" d="M3.1,10.8c0,0,21.1,8.3,24.6,1.9"/>
<path class="st0" d="M53.6,5.9c0,0,7.1-9,12.5-1.2"/>
<path d="M74,24.4c0,6.4-6.3,3.7-14.1,3.8S45.7,31,45.7,24.6c0-6.4,6.2-11.6,14.1-11.7S73.9,18,74,24.4z"/>
<path class="st1" d="M68.2,20.6c0,3.2-3.1,2.8-7,2.8c-3.9,0-7.1,0.5-7.1-2.7s3.1-5.8,7-5.8C65,14.8,68.2,17.4,68.2,20.6z"/>
<path d="M28.3,24.7c0,6.4-6.3,3.7-14.1,3.8C6.4,28.6,0,31.4,0,25s6.2-11.6,14.1-11.7C21.9,13.2,28.2,18.3,28.3,24.7z"/>
<path class="st1" d="M22.5,20.9c0,3.2-3.1,2.8-7,2.8S8.4,24.2,8.4,21s3.1-5.8,7-5.8S22.5,17.7,22.5,20.9z"/>
<path class="st2" d="M21,34.7c0-0.3-1-0.2-1.3,0c-2.1,2.2,2,8.5,11.3,4.3c0,0,12.5,11.9,21-3.4c0.1-0.3-0.7-1.1-1.5-0.1
	C50.4,35.7,45.3,48,31,38C31,38,20.3,40.7,21,34.7z"/>
</svg>
