<?xml version="1.0" encoding="utf-8"?>
<!-- Generator: Adobe Illustrator 21.0.0, SVG Export Plug-In . SVG Version: 6.00 Build 0)  -->
<svg version="1.1" id="Layer_1" xmlns="http://www.w3.org/2000/svg" xmlns:xlink="http://www.w3.org/1999/xlink" x="0px" y="0px"
	 viewBox="0 0 104.4 53.9" style="enable-background:new 0 0 104.4 53.9;" xml:space="preserve">
<style type="text/css">
	.st0{stroke:#000000;stroke-miterlimit:10;}
	.st1{fill:#F79838;}
	.st2{stroke:#000000;stroke-width:2;stroke-miterlimit:10;}
	.st3{fill:#F772F1;}
	.st4{fill:#FFFFFF;}
</style>
<path d="M31.5,16.5c-1.3,8.8-5.7,16.1-12.6,16.1S6.2,25.4,6.2,16.5S11.9,1,18.8,0.3C31.5-0.9,32.9,6.8,31.5,16.5z"/>
<path d="M94.5,19.2c0,9.3-6.4,16.9-14.3,16.9S66,28.5,66,19.2S72.3,2.3,80.2,2.3C94.5,2.3,94.5,9.9,94.5,19.2z"/>
<path class="st0" d="M33.7,32.8c0-0.3-1-0.2-1.3,0c-2.1,2.2,2,8.5,11.3,4.3c0,0,12.5,11.9,21-3.4c0.1-0.3-0.7-1.1-1.5-0.1
	c-0.1,0.2-5.3,12.5-19.6,2.5C43.7,36.1,32.9,38.8,33.7,32.8z"/>
<path class="st1" d="M51.5,45.4c0,2.8-2.1,6-6.4,5.6c-3-0.2-8-0.8-7.3-5.5c0.4-2.8,3.4-5.8,6.4-5.8S51.5,42.7,51.5,45.4z"/>
<path class="st2" d="M37.6,39.4c0,0-3.3,12.2,8.3,13.5c3.6,0.4,10.8-2.3,9.4-10.7c0,0-6.1-2-9.5-3.9C44,37.3,41.2,40.5,37.6,39.4z"
	/>
<ellipse class="st3" cx="46.5" cy="47.3" rx="6.8" ry="5.6"/>
<path class="st4" d="M28,13c-0.1,2.3-4.1,1.8-9,1.5S10,14.3,10.2,12c0.1-2.3,4.2-3.9,9.2-3.6S28.2,10.7,28,13z"/>
<path class="st4" d="M89.1,16.9c-0.3,2.3-4.2,1.5-9.1,1c-4.9-0.5-8.9-0.7-8.7-2.9c0.3-2.3,4.4-3.7,9.3-3.2
	C85.6,12.3,89.3,14.6,89.1,16.9z"/>
<circle class="st4" cx="21.6" cy="21.6" r="3.7"/>
<circle class="st4" cx="87.2" cy="24.6" r="3.8"/>
<path d="M64.4,1.7c13.4,0.6,33.8-0.4,38.9,0.6c0.9,0.2,1.6,3.1,0.8,3.1c-8.9,0-23.8,0-39.4-0.5C63.6,4.9,63.4,1.7,64.4,1.7z"/>
<path d="M2.2,0.6C10.1,0,29.1-0.4,32,0.5c1.1,0.3,0.9,3.5-0.3,3.5C23.9,4,9.1,3.7,0.6,3.5C-0.9,3.5,0.7,0.7,2.2,0.6z"/>
</svg>
