<?xml version="1.0" encoding="utf-8"?>
<!-- Generator: Adobe Illustrator 21.0.0, SVG Export Plug-In . SVG Version: 6.00 Build 0)  -->
<svg version="1.1" id="Layer_1" xmlns="http://www.w3.org/2000/svg" xmlns:xlink="http://www.w3.org/1999/xlink" x="0px" y="0px"
	 viewBox="0 0 66.8 38" style="enable-background:new 0 0 66.8 38;" xml:space="preserve">
<style type="text/css">
	.st0{stroke:#000000;stroke-width:0.25;stroke-miterlimit:10;}
	.st1{fill:#F2F2F2;}
	.st2{stroke:#000000;stroke-width:2;stroke-linecap:round;stroke-linejoin:round;stroke-miterlimit:10;}
</style>
<g>
	<path class="st0" d="M29.6,9.2C26-2.5,7.7,4.3,3.7,9.3c-3.5,4.3-5.9,21.6,16.7,14.4C24.5,22.5,31.5,15.8,29.6,9.2z"/>
	<path class="st0" d="M11,26.8c-5.1,0-7.8-2-9.2-4C-1.4,18,0.6,11,2.7,8.5c3-3.7,12.8-8.2,20.2-6.8c4.1,0.8,6.8,3.3,8,7.2l0,0
		c2.2,7.4-5.2,14.6-10,16.1C16.8,26.3,13.6,26.8,11,26.8z M19.9,4C14,4,6.9,7.4,4.7,10.1c-1.6,2-3.1,7.7-0.7,11.1
		c2.3,3.4,7.9,3.8,16,1.2c3.4-1.1,10-7,8.3-12.9c-0.9-3-2.9-4.8-6-5.4C21.5,4.1,20.7,4,19.9,4z"/>
</g>
<g>
	<g>
		<path class="st1" d="M23.2,9.1c1.8,2.9-0.3,7.5-4.8,10.4s-9.6,2.9-11.4,0s-0.1-8.2,4.4-11.1S21.4,6.2,23.2,9.1z"/>
	</g>
</g>
<g>
	<path d="M65.5,10C64.4-2.2,45.1,0.8,40.1,4.9c-4.2,3.5-10.1,20,13.5,17.5C57.9,22,66.1,16.9,65.5,10z"/>
	<path d="M43.8,23.5c-5-1-7.3-3.5-8.2-5.8C33.4,12.4,36.8,6,39.3,3.9C43,0.9,53.4-1.6,60.4,1.3c3.8,1.6,6,4.6,6.4,8.6l0,0
		c0.7,7.7-8,13.3-13,13.8C49.6,24.2,46.4,24,43.8,23.5z M57,3C51.3,1.8,43.7,3.7,41,6C39,7.6,36.4,12.9,38,16.7
		c1.6,3.8,6.9,5.3,15.5,4.4c3.5-0.4,11.2-4.9,10.7-11c-0.3-3.1-1.9-5.2-4.8-6.4C58.6,3.4,57.8,3.2,57,3z"/>
</g>
<g>
	<g>
		<path class="st1" d="M58.1,7.6c1.6,2.6-0.3,6.7-4.2,9.2s-8.5,2.6-10.2,0s-0.1-7.3,3.9-9.9S56.5,5,58.1,7.6z"/>
	</g>
</g>
<path class="st2" d="M29.9,12.3c0,0-0.4,16.5-11.6,15.5"/>
<path class="st2" d="M65.5,9.9c0,0-0.4,16.5-11.6,15.5"/>
<path class="st2" d="M36.4,10.1c0,0-2.5,16.3,8.7,17.3"/>
<path class="st2" d="M1.7,12c0,0-2.5,16.3,8.7,17.3"/>
<path d="M40.2,29.8c-0.7-0.4-1.5,0.1-1.8,1.2c-1.3,4.9-3.8,2.8-4.4,0.1c-0.2-0.9-0.9-1.5-1.5-1.4c-0.4,0-0.8,0.3-1.1,1
	c-0.1,0.2-0.1,0.4-0.2,0.6c-1.1,5.3-3.1,2.9-3.7-0.1c-0.2-1.2-0.9-1.9-1.5-1.5c-0.6,0.4-1,1.7-0.7,2.9c0.2,1.5,1.6,5.1,4.1,5.2
	c0,0,0,0,0.1,0c1.6,0,2.6-0.8,3.4-2.7c0.8,0.9,1.9,1.7,3.3,1.8c0,0,0,0,0.1,0c2.5,0,3.9-1.2,4.8-4.6C41.3,31.4,40.9,30.2,40.2,29.8z
	"/>
</svg>
