<?xml version="1.0" encoding="utf-8"?>
<!-- Generator: Adobe Illustrator 21.0.0, SVG Export Plug-In . SVG Version: 6.00 Build 0)  -->
<svg version="1.1" id="Layer_1" xmlns="http://www.w3.org/2000/svg" xmlns:xlink="http://www.w3.org/1999/xlink" x="0px" y="0px"
	 viewBox="0 0 251.2 151.9" style="enable-background:new 0 0 251.2 151.9;" xml:space="preserve">
<style type="text/css">
	.st0{fill:#712113;}
	.st1{fill:#441C0E;}
	.st2{fill:#E95F5A;}
	.st3{fill:#DC4527;stroke:#712113;stroke-width:6;stroke-miterlimit:10;}
	.st4{fill:#DB3B30;stroke:#712113;stroke-width:6;stroke-miterlimit:10;}
	.st5{fill:#F1F1F2;}
	.st6{fill:#4A1B0E;}
</style>
<path class="st0" d="M105.7,92.3c10.9-2.8,26-4.6,38.8,1.5c2.8,1.4,5,3.8,6.1,6.7c4,11.1,11.5,41-18.6,51.3c0,0-35.7,3-40.5-39.1
	C90.5,103.4,96.6,94.7,105.7,92.3z"/>
<path class="st1" d="M76.9,25.5c0,13.1-8.9,18.7-19.5,18.7s-21.3-6.4-21.3-19.6S44.7,0.8,55.3,0.8S76.9,12.4,76.9,25.5z"/>
<path class="st2" d="M150.4,125.2c0,10.6-11.5,22.7-22,22.7c-10.6,0-18.1-8.6-19.2-19.2c-2.2-20.7,20.1-26.2,30.7-26.2
	C150.5,102.5,150.4,114.6,150.4,125.2z"/>
<path class="st1" d="M207.3,24.6c0,13.6-9.2,19.6-20.6,19.6s-20.6-6-20.6-19.6S175.4,0,186.7,0S207.3,11,207.3,24.6z"/>
<circle class="st3" cx="223.4" cy="92.6" r="24.8"/>
<ellipse class="st4" cx="25.2" cy="97.8" rx="22.2" ry="26.2"/>
<circle class="st5" cx="50.2" cy="15.8" r="6.3"/>
<circle class="st5" cx="180.4" cy="14.4" r="6.3"/>
<path class="st6" d="M99.6,55.9c-3.9-3.7,21-14.1,21.8-2.3C121.8,59,115.4,70.8,99.6,55.9z"/>
</svg>
