<?xml version="1.0" encoding="utf-8"?>
<!-- Generator: Adobe Illustrator 21.0.0, SVG Export Plug-In . SVG Version: 6.00 Build 0)  -->
<svg version="1.1" id="Layer_1" xmlns="http://www.w3.org/2000/svg" xmlns:xlink="http://www.w3.org/1999/xlink" x="0px" y="0px"
	 viewBox="0 0 73.2 51" style="enable-background:new 0 0 73.2 51;" xml:space="preserve">
<style type="text/css">
	.st0{stroke:#000000;stroke-width:0.25;stroke-miterlimit:10;}
	.st1{fill:#F2F2F2;}
	.st2{stroke:#000000;stroke-width:2;stroke-linecap:round;stroke-linejoin:round;stroke-miterlimit:10;}
	.st3{stroke:#000000;stroke-width:2;stroke-miterlimit:10;}
</style>
<path d="M25.8,44.6c0-3.5,4.1-1.2,9.1-1.2s9.1-2.3,9.1,1.2c0,3.5-4.1,6.3-9.1,6.3S25.8,48.1,25.8,44.6z"/>
<g>
	<path class="st0" d="M32.6,20.3c-3.5-11.8-21.8-5-25.9,0.1C3.2,24.7,0.7,42,23.4,34.8C27.5,33.5,34.5,26.9,32.6,20.3z"/>
	<path class="st0" d="M14,37.8c-5.1,0-7.8-2-9.2-4c-3.2-4.7-1.2-11.7,0.8-14.3c3-3.7,12.8-8.2,20.2-6.8c4.1,0.8,6.8,3.3,8,7.2l0,0
		c2.2,7.4-5.2,14.6-10,16.1C19.8,37.3,16.6,37.8,14,37.8z M22.9,15.1c-5.9,0-12.9,3.3-15.1,6.1c-1.6,2-3.1,7.7-0.7,11.1
		c2.3,3.4,7.9,3.8,16,1.2c3.4-1.1,10-7,8.3-12.9c-0.9-3-2.9-4.8-6-5.4C24.5,15.2,23.7,15.1,22.9,15.1z"/>
</g>
<g>
	<g>
		<path class="st1" d="M26.2,20.1c1.8,2.9-0.3,7.5-4.8,10.4c-4.5,2.9-9.6,2.9-11.4,0s-0.1-8.2,4.4-11.1S24.4,17.3,26.2,20.1z"/>
	</g>
</g>
<g>
	<path d="M68.5,21.1C67.4,8.8,48.1,11.9,43.1,16C38.9,19.5,33,36,56.6,33.5C60.9,33,69.1,27.9,68.5,21.1z"/>
	<path d="M46.8,34.6c-5-1-7.3-3.5-8.2-5.8c-2.2-5.3,1.1-11.7,3.7-13.8c3.7-3.1,14.2-5.5,21.1-2.7c3.8,1.6,6,4.6,6.4,8.6l0,0
		c0.7,7.7-8,13.3-13,13.8C52.6,35.2,49.4,35.1,46.8,34.6z M60,14.1c-5.7-1.2-13.3,0.7-16.1,3C42,18.6,39.4,24,41,27.8
		c1.6,3.8,6.9,5.3,15.5,4.4c3.5-0.4,11.2-4.9,10.7-11c-0.3-3.1-1.9-5.2-4.8-6.4C61.6,14.5,60.8,14.2,60,14.1z"/>
</g>
<g>
	<g>
		<path class="st1" d="M61.1,18.6c1.6,2.6-0.3,6.7-4.2,9.2s-8.5,2.6-10.2,0s-0.1-7.3,3.9-9.9S59.4,16.1,61.1,18.6z"/>
	</g>
</g>
<path class="st2" d="M32.9,23.4c0,0-0.4,16.5-11.6,15.5"/>
<path class="st2" d="M68.5,21c0,0-0.4,16.5-11.6,15.5"/>
<path class="st2" d="M39.4,21.1c0,0-2.5,16.3,8.7,17.3"/>
<path class="st2" d="M4.7,23.1c0,0-2.5,16.3,8.7,17.3"/>
<path class="st3" d="M0.1,18.6l24.7-3.1c0,0,16.1-1.3,2.8-6.6"/>
<path class="st3" d="M51.1,0.1c0,0,1.6,14.5,20.2,21.9l0.9-3.8"/>
</svg>
