<?xml version="1.0" encoding="utf-8"?>
<!-- Generator: Adobe Illustrator 21.0.0, SVG Export Plug-In . SVG Version: 6.00 Build 0)  -->
<svg version="1.1" id="Layer_1" xmlns="http://www.w3.org/2000/svg" xmlns:xlink="http://www.w3.org/1999/xlink" x="0px" y="0px"
	 viewBox="0 0 76 45.3" style="enable-background:new 0 0 76 45.3;" xml:space="preserve">
<style type="text/css">
	.st0{fill:#FFFFFF;stroke:#BE1E2D;stroke-width:6;stroke-miterlimit:10;}
	.st1{fill:#FFFFFF;stroke:#000000;stroke-width:3;stroke-miterlimit:10;}
	.st2{fill:none;stroke:#000000;stroke-width:2;stroke-linejoin:bevel;stroke-miterlimit:10;}
</style>
<path class="st0" d="M16.4,8.1c-0.9-0.5-1.9-0.8-2.9-0.8c-2.4,0-4.7,1.4-6,3.6C5.6,14,6.3,17.5,9,19.2c0.9,0.5,1.9,0.8,2.9,0.8
	c2.4,0,4.7-1.4,6-3.6C19.7,13.3,19,9.7,16.4,8.1z"/>
<path class="st0" d="M61.6,3.8C60.8,3.3,59.7,3,58.7,3c-2.4,0-4.7,1.4-6,3.6c-1.8,3.1-1.1,6.6,1.5,8.2c0.9,0.5,1.9,0.8,2.9,0.8
	c2.4,0,4.7-1.4,6-3.6C64.9,9,64.3,5.4,61.6,3.8z"/>
<path class="st1" d="M2.9,26.2c0,0,47.4,0.6,68.7-8.6C71.7,17.7,34.2,70,2.9,26.2z"/>
<polyline class="st2" points="66.9,23.9 62.9,20 59.9,31.4 54.2,22.8 52,36.5 46.8,24.1 43.2,41.2 38,25.8 32.1,45 28.6,26.4 
	23.4,43.5 15.3,27.4 15.3,39 8.2,26.2 5.9,30.7 "/>
</svg>
