<?xml version="1.0" encoding="utf-8"?>
<!-- Generator: Adobe Illustrator 21.0.0, SVG Export Plug-In . SVG Version: 6.00 Build 0)  -->
<svg version="1.1" id="Layer_1" xmlns="http://www.w3.org/2000/svg" xmlns:xlink="http://www.w3.org/1999/xlink" x="0px" y="0px"
	 viewBox="0 0 67.9 39.6" style="enable-background:new 0 0 67.9 39.6;" xml:space="preserve">
<style type="text/css">
	.st0{fill:#4F341E;stroke:#4F341E;stroke-width:5;stroke-linecap:round;stroke-linejoin:round;stroke-miterlimit:10;}
	.st1{fill:none;stroke:#000000;stroke-width:2;stroke-linecap:round;stroke-linejoin:round;stroke-miterlimit:10;}
	.st2{fill:#FFFFFF;stroke:#000000;stroke-width:2;stroke-linecap:round;stroke-linejoin:round;stroke-miterlimit:10;}
	.st3{fill:#FFFFFF;}
</style>
<path class="st0" d="M42.4,32.9"/>
<path class="st1" d="M47.6,26.5c0,0-15.7,13.5-27.3-1.3"/>
<polyline class="st2" points="27.6,31 27.7,34.1 29.2,31.6 27.7,34.1 26.8,30.6 "/>
<polyline class="st2" points="41.9,28.9 41.3,25.8 43.3,28.4 41.3,25.8 41.1,29.2 "/>
<g>
	<path class="st3" d="M9.7,23.8C5.5,23.8,2,19.1,2,13.3C2,8.5,4.8,5,10.5,2.7C11.6,2.2,12.7,2,13.6,2c1.1,0,1.9,0.3,2.5,1.1
		c1.5,1.7,2,5.5,1.4,10C16.7,18,14.3,23.8,9.7,23.8z"/>
	<path d="M13.6,0v4c0.6,0,0.8,0.2,1,0.4c0.9,1,1.5,4.1,0.9,8.4c-0.7,4.5-2.7,9-5.8,9c-3.1,0-5.7-3.9-5.7-8.5c0-2.5,0.7-6.1,7.2-8.7
		C12.4,4.1,13.1,4,13.6,4L13.6,0 M13.6,0c-1.1,0-2.4,0.3-3.9,0.9C4.8,2.8,0,6.4,0,13.3c0,6.9,4.3,12.5,9.7,12.5
		c5.4,0,8.7-5.6,9.7-12.5C20.3,7.1,19.3,0,13.6,0L13.6,0z"/>
</g>
<g>
	<path class="st3" d="M56.9,22c-4.7,0-8.5-4.2-8.5-9.4c0-4.8,3.3-9.7,6.6-9.7c0.4,0,0.7,0.1,1.1,0.2c8.9,2.9,9.2,4.5,9.2,9.5
		C65.4,17.8,61.6,22,56.9,22z"/>
	<path d="M55,5.4L55,5.4c0.1,0,0.2,0,0.3,0.1C56.7,6,61,7.4,62.2,8.7c0.4,0.4,0.7,1.2,0.7,3.9c0,3.8-2.7,6.9-6,6.9s-6-3.1-6-6.9
		C51,8.8,53.7,5.4,55,5.4 M55,0.4c-5,0-9.1,6.3-9.1,12.2c0,6.5,4.9,11.9,11,11.9s11-5.3,11-11.9s-1.6-8.8-11-11.9
		C56.3,0.5,55.7,0.4,55,0.4L55,0.4z"/>
</g>
</svg>
