<?xml version="1.0" encoding="utf-8"?>
<!-- Generator: Adobe Illustrator 21.0.0, SVG Export Plug-In . SVG Version: 6.00 Build 0)  -->
<svg version="1.1" id="Layer_1" xmlns="http://www.w3.org/2000/svg" xmlns:xlink="http://www.w3.org/1999/xlink" x="0px" y="0px"
	 viewBox="0 0 66.3 51.5" style="enable-background:new 0 0 66.3 51.5;" xml:space="preserve">
<path d="M24.4,19.1c0-17.9,4.1-6.3,9.1-6.3s9.1-11.6,9.1,6.3s-4.1,32.4-9.1,32.4S24.4,37,24.4,19.1z"/>
<path d="M21.4,8.1c0,4.5-4.8,1.6-10.7,1.6S0,12.6,0,8.1S4.8,0,10.7,0S21.4,3.6,21.4,8.1z"/>
<path d="M44.9,8.1c0,4.5,4.8,1.6,10.7,1.6s10.7,2.9,10.7-1.6S61.5,0,55.6,0C49.7,0,44.9,3.6,44.9,8.1z"/>
</svg>
