<?xml version="1.0" encoding="utf-8"?>
<!-- Generator: Adobe Illustrator 21.0.0, SVG Export Plug-In . SVG Version: 6.00 Build 0)  -->
<svg version="1.1" id="Layer_1" xmlns="http://www.w3.org/2000/svg" xmlns:xlink="http://www.w3.org/1999/xlink" x="0px" y="0px"
	 viewBox="0 0 84.5 50.4" style="enable-background:new 0 0 84.5 50.4;" xml:space="preserve">
<style type="text/css">
	.st0{fill:#FFFFFF;}
</style>
<path d="M36.7,23.7c0,0-45-23.9-32.3,10.9c0,0,4.1,15.1,31,15.8c0,0,33.5-1.9,38.6-15.8C73.9,34.6,95,3.1,36.7,23.7z"/>
<path class="st0" d="M10.8,21c0,0,3.4,11.9,3.9,12.1C15.3,33.3,26.3,23,26.3,23L10.8,21z"/>
<path class="st0" d="M50.3,22.7c0,0,5.6,11,6.2,11c0.6,0.1,9.4-12.1,9.4-12.1L50.3,22.7z"/>
<ellipse cx="4.9" cy="4.5" rx="4.9" ry="4.5"/>
<ellipse cx="79.6" cy="12.7" rx="4.9" ry="4.5"/>
</svg>
