<?xml version="1.0" encoding="utf-8"?>
<!-- Generator: Adobe Illustrator 21.0.0, SVG Export Plug-In . SVG Version: 6.00 Build 0)  -->
<svg version="1.1" id="Layer_1" xmlns="http://www.w3.org/2000/svg" xmlns:xlink="http://www.w3.org/1999/xlink" x="0px" y="0px"
	 viewBox="0 0 66.3 64.7" style="enable-background:new 0 0 66.3 64.7;" xml:space="preserve">
<path d="M23.7,32.3c0-17.9,4.1-6.3,9.1-6.3s9.1-11.6,9.1,6.3s-4.1,32.4-9.1,32.4S23.7,50.2,23.7,32.3z"/>
<path d="M21.4,15.2c0,8.4-4.8,3-10.7,3S0,23.6,0,15.2S4.8,0,10.7,0S21.4,6.8,21.4,15.2z"/>
<path d="M44.9,15.2c0,8.4,4.8,3,10.7,3s10.7,5.4,10.7-3S61.5,0,55.6,0C49.7,0,44.9,6.8,44.9,15.2z"/>
</svg>
