<?xml version="1.0" encoding="utf-8"?>
<!-- Generator: Adobe Illustrator 21.0.0, SVG Export Plug-In . SVG Version: 6.00 Build 0)  -->
<svg version="1.1" id="Layer_1" xmlns="http://www.w3.org/2000/svg" xmlns:xlink="http://www.w3.org/1999/xlink" x="0px" y="0px"
	 viewBox="0 0 87 56.3" style="enable-background:new 0 0 87 56.3;" xml:space="preserve">
<style type="text/css">
	.st0{fill:#FFFFFF;}
</style>
<path d="M36.3,18.8c0,9.6-7.8,17.3-17.3,17.3S0,33.9,0,24.4S9.4,1.4,19,1.4S36.3,9.2,36.3,18.8z"/>
<path class="st0" d="M8.5,2.8c0,0,1.2,8.9-7.1,9.7c0,0,8.6,2.3,9,9.6c0,0-0.8-8.5,4.8-10.4C15.1,11.7,11.3,12.9,8.5,2.8z"/>
<path class="st0" d="M24.5,5.2c0,0,2.2,15.7-12.5,17c0,0,15.1,4.1,15.8,16.8c0,0-1.4-14.9,8.4-18.2C36.3,20.8,29.5,22.9,24.5,5.2z"
	/>
<path d="M50.7,17.3c0,9.6,7.8,17.3,17.3,17.3s19-2.2,19-11.8S77.6,0,68,0C58.5,0,50.7,7.8,50.7,17.3z"/>
<path class="st0" d="M78.5,1.4c0,0-1.2,8.9,7.1,9.7c0,0-8.6,2.3-9,9.6c0,0,0.8-8.5-4.8-10.4C71.9,10.3,75.7,11.5,78.5,1.4z"/>
<path class="st0" d="M62.5,3.7c0,0-2.2,15.7,12.5,17c0,0-15.1,4.1-15.8,16.8c0,0,1.4-14.9-8.4-18.2C50.7,19.4,57.5,21.5,62.5,3.7z"
	/>
<g>
	<path d="M54.8,33.8c0.1,0,0.2,0,0.2,0.1c0.8,0.5,0.8,1,0.8,1.6c-0.1,1-0.3,2.1-0.4,3.1c-0.2,1.4-0.4,2.8-0.8,4.1
		c-0.6,2.5-1.4,5-2.8,7.2c-1,1.7-2.1,3.3-3.9,4.5c-1.5,1.1-3.3,1.9-5.7,1.9c-0.6,0-1.3-0.1-1.9-0.2c-0.2-0.1-0.5-0.1-0.7-0.2
		c-0.8-0.4-1.6-0.9-2.1-1.6c-0.7-0.8-1.2-1.6-1.6-2.4c-1.5-3-2-6.1-2.3-9.1c-0.2-2.2-0.3-4.3-0.1-6.4c0.1-0.9,0.2-1.8,0.5-2.6
		c0.3-0.8,0.8-1.4,2.2-1.2c0.2,0,0.4,0,0.6,0c5,0.2,10.1,0.3,15.2,0.8C53.1,33.5,53.9,33.7,54.8,33.8z"/>
</g>
<path class="st0" d="M39.2,37.1c0.1-2,2.1-2.3,4.5-2.2c2.5,0.1,4.5,0.5,4.4,2.6c-0.1,2-2.2,3.6-4.6,3.5S39.2,39.1,39.2,37.1z"/>
</svg>
