<?xml version="1.0" encoding="utf-8"?>
<!-- Generator: Adobe Illustrator 21.0.0, SVG Export Plug-In . SVG Version: 6.00 Build 0)  -->
<svg version="1.1" id="Layer_1" xmlns="http://www.w3.org/2000/svg" xmlns:xlink="http://www.w3.org/1999/xlink" x="0px" y="0px"
	 viewBox="0 0 86.3 55.6" style="enable-background:new 0 0 86.3 55.6;" xml:space="preserve">
<style type="text/css">
	.st0{fill:#FBB03B;}
	.st1{fill:#C1272D;stroke:#A45225;stroke-width:0.75;stroke-linecap:round;stroke-linejoin:round;stroke-miterlimit:10;}
</style>
<path class="st0" d="M9.9,17.9c1.6-2.4,1.4-11.4,1.4-11.4s5.2,6.9,7.9,7.6c2.7,0.7,11-2.7,11-2.7s-5.1,7.6-5,10.4s5.3,9.7,5.3,9.7
	s-8.4-2.2-11-1.2c-2.6,1.1-7.7,8.7-7.7,8.7s-0.1-9-1.8-11.1S0,23.6,0,23.6S8.3,20.3,9.9,17.9z"/>
<path class="st0" d="M75.2,10.6c2.2,1.9,11.1,2.9,11.1,2.9s-7.5,4.3-8.6,6.9S79,31.6,79,31.6s-6.9-6-9.7-6.3
	c-2.8-0.3-10.3,4.1-10.3,4.1s3.3-8,2.6-10.8c-0.7-2.8-7.6-8.7-7.6-8.7s8.9,1,11.3-0.3C67.6,8.1,70.8,0,70.8,0S73,8.7,75.2,10.6z"/>
<path class="st1" d="M30,37.9c0,0,12.8-4.7,30.5-3.4c0,0,5.7,18.7-12.1,20.6C41.3,55.8,31.8,55.4,30,37.9z"/>
</svg>
