<?xml version="1.0" encoding="utf-8"?>
<!-- Generator: Adobe Illustrator 21.0.0, SVG Export Plug-In . SVG Version: 6.00 Build 0)  -->
<svg version="1.1" id="Layer_1" xmlns="http://www.w3.org/2000/svg" xmlns:xlink="http://www.w3.org/1999/xlink" x="0px" y="0px"
	 viewBox="0 0 72 55.3" style="enable-background:new 0 0 72 55.3;" xml:space="preserve">
<style type="text/css">
	.st0{stroke:#000000;stroke-width:4;stroke-miterlimit:10;}
	.st1{fill:#F79838;}
	.st2{stroke:#000000;stroke-width:4;stroke-linecap:round;stroke-miterlimit:10;}
</style>
<g>
	<path d="M25.8,0.4C25.4,0.2,24.9,0,24.3,0c0,0-0.1,0-0.1,0c-0.1,0-0.1,0-0.2,0c-1,0-1.9,0.5-2.4,1.4c-0.1,0.1-0.2,0.3-0.3,0.4
		C21,2.5,20.8,3.3,20.9,4c0,0.3,0.1,0.5,0.2,0.7c0,0,0,0.1,0.1,0.2c0.2,0.5,0.6,1,1.1,1.3c0.4,0.3,0.9,0.4,1.5,0.4
		c1.2,0,2.3-0.7,3-1.8C27.5,3.1,27.1,1.3,25.8,0.4z"/>
</g>
<g>
	<path d="M66.8,0.4C66.3,0.1,65.8,0,65.3,0c0,0-0.1,0-0.1,0c-0.1,0-0.1,0-0.2,0c-1,0-1.9,0.5-2.4,1.4c-0.1,0.1-0.2,0.3-0.3,0.4
		C62,2.5,61.8,3.3,61.9,4c0,0.3,0.1,0.5,0.2,0.7c0,0,0,0.1,0.1,0.2c0.2,0.5,0.6,1,1.1,1.3c0.4,0.3,0.9,0.4,1.5,0.4
		c1.2,0,2.3-0.7,2.9-1.9C68.5,3.1,68.1,1.2,66.8,0.4z"/>
</g>
<path class="st0" d="M61.9,16.6c0-0.2-0.1-0.4-0.1-0.6c0.2-3.9,6.4-6.4,6.7-6.5c0.3-0.1,0.7,0,0.9,0.3c0.1,0.3,0,0.6-0.3,0.8
	c-0.1,0-5.8,2.3-5.9,5.4c-0.1,2,2.1,4.1,6.5,6.1c0.3,0.1,0.4,0.5,0.3,0.8c-0.1,0.2-0.3,0.3-0.6,0.3c-0.1,0-0.2,0-0.3-0.1
	c-3.7-1.7-6-3.5-6.8-5.4c0,0-28.3,13.6-37,3.3c0,0-1-2.3,1.2-0.9C33.1,24.4,34,29.4,61.9,16.6z"/>
<path class="st1" d="M50.1,24.5L47.3,21c-1.8,0.3-24.9,3.4-38.1,16.4l-1.7-0.3c0,0-0.2,1-0.3,2.5c-0.5,0.6-1,1.2-1.5,1.8l-1.3-0.7
	c0,0-1.2,2.2-2.4,4.5c-0.2,0.5-0.4,0.9-0.5,1.3l0,0c0,0,0,0.1,0,0.2c0,0.1,0,0.2-0.1,0.3C1,48.6,0,52.9,0,52.9l1.6-2.5
	c0.8,2.4,2.7,4.2,3.9,4.9c0.5,0.3-0.1-8.1,0.6-9.1c0.4-0.5,0.5-0.3,0.8-0.2c0,0.4,0.1,0.7,0.2,1c0.3,1,4.6,5.9,4.2,4.4
	c-0.9-4-0.9-7.2-0.7-9.5c0.5-0.6,1-1.1,1.6-1.6c0,0.3,0.1,0.6,0.3,0.9c3,6.4,8.9,8.2,7.8,6.8c-2.8-3.7-2.5-9.8-2.3-12.3
	C30.8,27.4,49.2,24.7,50.1,24.5z"/>
<path class="st2" d="M44.1,30.7c0,0,6.5,5,8.5-2.4"/>
</svg>
