<?xml version="1.0" encoding="utf-8"?>
<!-- Generator: Adobe Illustrator 21.0.0, SVG Export Plug-In . SVG Version: 6.00 Build 0)  -->
<svg version="1.1" id="Layer_1" xmlns="http://www.w3.org/2000/svg" xmlns:xlink="http://www.w3.org/1999/xlink" x="0px" y="0px"
	 viewBox="0 0 1728 972" style="enable-background:new 0 0 1728 972;" xml:space="preserve">
<style type="text/css">
	.st0{fill:#192E58;}
	.st1{fill:#FFFFFF;stroke:#1B75BB;stroke-width:13;stroke-miterlimit:10;}
	.st2{opacity:0.13;fill:#66CCF1;}
</style>
<path class="st0" d="M1299.8,527l-30.3,0.5l0,0l-311,5c-22.5,0.4-26.4,185.6-3.8,185.1l21.4-0.4l0,0l311.7-6
	C1310.3,710.7,1322.3,526.6,1299.8,527z"/>
<path class="st1" d="M1279.6,534.8h-19.7l0,0H963.7c-20.8,0-20.9,167.1-0.1,167.1h19.8l0,0h296.3
	C1300.5,701.9,1300.4,534.8,1279.6,534.8z"/>
<path class="st2" d="M955.5,615.9c0,0,161.8,67.4,333.4-0.5c0,0,0,69-10.6,82.4H965.7C952.4,678.1,955.5,615.9,955.5,615.9z"/>
</svg>
