<?xml version="1.0" encoding="utf-8"?>
<!-- Generator: Adobe Illustrator 21.0.0, SVG Export Plug-In . SVG Version: 6.00 Build 0)  -->
<svg version="1.1" id="Layer_1" xmlns="http://www.w3.org/2000/svg" xmlns:xlink="http://www.w3.org/1999/xlink" x="0px" y="0px"
	 viewBox="0 0 1728 972" style="enable-background:new 0 0 1728 972;" xml:space="preserve">
<style type="text/css">
	.st0{fill:#192E58;}
	.st1{fill:#3FA6DD;}
	.st2{opacity:0.13;fill:#66CCF1;}
	.st3{opacity:0.53;}
	.st4{fill:#B3E1F0;}
</style>
<path class="st0" d="M933.4,460.2l-12.2,0.1l0,0l-125.3,1c-9.1,0.1-10.5,51.4-1.4,51.3l8.6-0.1l0,0l125.6-1.3
	C937.7,511.2,942.4,460.1,933.4,460.2z"/>
<path class="st1" d="M920.1,463.9h-7.2l0,0H804.7c-7.6,0-7.6,37.9,0,37.9h7.2l0,0h108.2C927.7,501.8,927.7,463.9,920.1,463.9z"/>
<path class="st2" d="M801.7,482.3c0,0,59.1,15.3,121.8-0.1c0,0,0,15.7-3.9,18.7H805.5C800.6,496.4,801.7,482.3,801.7,482.3z"/>
<g class="st3">
	<path class="st4" d="M923.4,464.9h-7.6H801.8c-2.1,0,14.8,9,60.8,8.9C892.5,473.7,925.6,464.9,923.4,464.9z"/>
</g>
</svg>
