<?xml version="1.0" encoding="utf-8"?>
<!-- Generator: Adobe Illustrator 21.0.0, SVG Export Plug-In . SVG Version: 6.00 Build 0)  -->
<svg version="1.1" id="Layer_1" xmlns="http://www.w3.org/2000/svg" xmlns:xlink="http://www.w3.org/1999/xlink" x="0px" y="0px"
	 viewBox="0 0 1728 972" style="enable-background:new 0 0 1728 972;" xml:space="preserve">
<style type="text/css">
	.st0{fill:#192E58;}
	.st1{fill:#FFFFFF;}
	.st2{fill:#1B75BB;}
	.st3{opacity:0.61;fill:#FFFFFF;}
	.st4{opacity:0.31;fill:#FFFFFF;}
</style>
<g>
	<polygon class="st0" points="638.7,242.8 652.1,242.8 659.7,235.4 646,235.7 	"/>
	<path class="st0" d="M449.5,242.8h154.6l8.1-6.5l-170.2,3.4c-11.8,0.3-19.5,67-22.9,150.3l9.2-7.3
		C431.3,304.8,438.3,242.8,449.5,242.8z"/>
	<path class="st0" d="M877,242.8h28.4c30,0,30.1,449.4,0.1,449.4H477.9h-28.5c-14.9,0-22.4-110.8-22.4-222.4l-9.6,9.3
		c-0.5,118.8,6.9,237.2,22.7,236.8l30.1-0.8l437.5-11.4c31.6-0.8,45.3-474.3,13.7-473.4l-42.5,0.8l-210.3,4.2l-7.8,7.6H877z"/>
	<path class="st0" d="M427,449.1l-9.5,9.3c-0.1,4.4-0.1,8.8-0.1,13.2l9.6-9.3C426.9,457.9,427,453.5,427,449.1z"/>
	<path class="st1" d="M456.3,257.8c-2.3,6.7-6.4,24.5-9.8,69c-1,13.3-1.9,27.9-2.6,43.5l141.3-112.6H456.3z"/>
	<path class="st1" d="M442,447.6l194.7-189.8h-13.4L442.2,434.4C442.1,438.7,442,443.2,442,447.6z"/>
	<path class="st1" d="M441.9,467.5c0,52,1.6,102,4.5,140.7c3.4,44.5,7.5,62.3,9.8,69h21.7h420.8c2.3-6.7,6.4-24.5,9.8-69
		c2.9-38.7,4.5-88.6,4.5-140.7c0-52-1.6-102-4.6-140.6c-3.4-44.5-7.6-62.3-9.8-69H877H645.1L442,455.1
		C441.9,459.2,441.9,463.4,441.9,467.5z"/>
	<polygon class="st2" points="623.3,257.8 636.7,257.8 652.1,242.8 638.7,242.8 	"/>
	<path class="st2" d="M444,370.4c0.7-15.6,1.5-30.2,2.6-43.5c3.4-44.5,7.6-62.3,9.8-69h129l18.8-15H449.5c-11.1,0-18.2,62-21,139.9
		L444,370.4z"/>
	<path class="st2" d="M645.1,257.8H877h21.6c2.3,6.7,6.4,24.5,9.8,69c2.9,38.7,4.6,88.6,4.6,140.6c0,52-1.6,102-4.5,140.7
		c-3.4,44.5-7.5,62.3-9.8,69H477.9h-21.7c-2.3-6.7-6.4-24.5-9.8-69c-2.9-38.7-4.5-88.6-4.5-140.7c0-4.1,0-8.2,0-12.3l-15,14.6
		c0.1,111.6,7.5,222.4,22.4,222.4h28.5h427.6c30,0,29.9-449.4-0.1-449.4H877H660.6L645.1,257.8z"/>
	<path class="st2" d="M442,447.6c0-4.4,0.1-8.9,0.1-13.2L427,449.1c0,4.4-0.1,8.8-0.1,13.2L442,447.6z"/>
	<path class="st0" d="M428.4,382.7l-9.2,7.3c-0.9,21.9-1.5,45-1.7,68.3l9.5-9.3C427.2,426.4,427.7,404,428.4,382.7z"/>
	<path class="st3" d="M428.4,382.7l-9.2,7.3c-0.9,21.9-1.5,45-1.7,68.3l9.5-9.3C427.2,426.4,427.7,404,428.4,382.7z"/>
	<polygon class="st0" points="638.7,242.8 646,235.7 612.3,236.3 604.1,242.8 	"/>
	<polygon class="st3" points="638.7,242.8 646,235.7 612.3,236.3 604.1,242.8 	"/>
	<path class="st1" d="M444,370.4c-0.9,20-1.5,41.6-1.8,64l181.1-176.5h-38L444,370.4z"/>
	<path class="st3" d="M444,370.4c-0.9,20-1.5,41.6-1.8,64l181.1-176.5h-38L444,370.4z"/>
	<polygon class="st2" points="585.3,257.8 623.3,257.8 638.7,242.8 604.1,242.8 	"/>
	<polygon class="st3" points="585.3,257.8 623.3,257.8 638.7,242.8 604.1,242.8 	"/>
	<path class="st2" d="M442.2,434.4c0.3-22.4,0.9-44,1.8-64l-15.5,12.4c-0.8,21.3-1.3,43.7-1.4,66.4L442.2,434.4z"/>
	<path class="st3" d="M442.2,434.4c0.3-22.4,0.9-44,1.8-64l-15.5,12.4c-0.8,21.3-1.3,43.7-1.4,66.4L442.2,434.4z"/>
	<path class="st0" d="M426.9,462.3l-9.6,9.3c0,2.5,0,5,0,7.5l9.6-9.3C426.9,467.3,426.9,464.8,426.9,462.3z"/>
	<path class="st4" d="M426.9,462.3l-9.6,9.3c0,2.5,0,5,0,7.5l9.6-9.3C426.9,467.3,426.9,464.8,426.9,462.3z"/>
	<polygon class="st0" points="652.1,242.8 660.6,242.8 668.4,235.2 659.7,235.4 	"/>
	<polygon class="st4" points="652.1,242.8 660.6,242.8 668.4,235.2 659.7,235.4 	"/>
	<path class="st1" d="M442,455.1l203.2-197.3h-8.5L442,447.6C442,450.1,442,452.6,442,455.1z"/>
	<path class="st4" d="M442,455.1l203.2-197.3h-8.5L442,447.6C442,450.1,442,452.6,442,455.1z"/>
	<polygon class="st2" points="636.7,257.8 645.1,257.8 660.6,242.8 652.1,242.8 	"/>
	<polygon class="st4" points="636.7,257.8 645.1,257.8 660.6,242.8 652.1,242.8 	"/>
	<path class="st2" d="M442,455.1c0-2.5,0-5,0.1-7.5l-15.1,14.7c0,2.5,0,5,0,7.5L442,455.1z"/>
	<path class="st4" d="M442,455.1c0-2.5,0-5,0.1-7.5l-15.1,14.7c0,2.5,0,5,0,7.5L442,455.1z"/>
</g>
</svg>
