<?xml version="1.0" encoding="utf-8"?>
<!-- Generator: Adobe Illustrator 21.0.0, SVG Export Plug-In . SVG Version: 6.00 Build 0)  -->
<svg version="1.1" id="Layer_1" xmlns="http://www.w3.org/2000/svg" xmlns:xlink="http://www.w3.org/1999/xlink" x="0px" y="0px"
	 viewBox="0 0 77 77" style="enable-background:new 0 0 77 77;" xml:space="preserve">
<style type="text/css">
	.st0{fill:#3FA6DD;}
	.st1{fill:#7F3F97;}
	.st2{fill:#2B388F;}
	.st3{fill:#CF3B94;}
	.st4{fill:#37B34A;}
	.st5{fill:#FFF100;}
	.st6{fill:#EE4036;}
	.st7{fill:#F6921E;}
</style>
<g>
	<path class="st0" d="M38.5,0c-9.9,0-19.7,3.8-27.2,11.3l27.2,27.2V0z"/>
	<path class="st1" d="M11.3,11.3C3.8,18.8,0,28.6,0,38.5h38.5L11.3,11.3z"/>
	<path class="st2" d="M11.3,65.7L11.3,65.7C18.8,73.2,28.6,77,38.5,77V38.5L11.3,65.7z"/>
	<path class="st3" d="M0,38.5c0,9.9,3.8,19.7,11.3,27.2l27.2-27.2H0z"/>
	<path class="st4" d="M77,38.5c0-9.9-3.8-19.7-11.3-27.2l0,0L38.5,38.5H77z"/>
	<path class="st5" d="M65.7,11.3C58.2,3.8,48.3,0,38.5,0v38.5L65.7,11.3z"/>
	<path class="st6" d="M65.7,65.7C73.2,58.2,77,48.3,77,38.5H38.5L65.7,65.7z"/>
	<path class="st7" d="M65.7,65.7L38.5,38.5V77C48.3,77,58.2,73.2,65.7,65.7z"/>
</g>
</svg>
