<?xml version="1.0" encoding="utf-8"?>
<!-- Generator: Adobe Illustrator 21.0.0, SVG Export Plug-In . SVG Version: 6.00 Build 0)  -->
<svg version="1.1" id="Layer_1" xmlns="http://www.w3.org/2000/svg" xmlns:xlink="http://www.w3.org/1999/xlink" x="0px" y="0px"
	 viewBox="0 0 51.9 92" style="enable-background:new 0 0 51.9 92;" xml:space="preserve">
<style type="text/css">
	.st0{fill:#369FD0;}
</style>
<g>
	<path class="st0" d="M51.1,20.2C49.4,12.3,45,0,24.3,0C11.3,0,2.4,9.2,0.4,16.2c-1.3,4.4,0.3,15.9,7.9,16.6c3,0.3,6.4,0.2,6.7-4
		c0.3-4.3,2.7-6.4,6.6-6.7c3.7-0.3,7.2,1,8.5,4.7c1.3,3.7,2.4,7.6-1.8,10.9c-3.5,2.8-7.3,2.6-11.4,2.4c-1.7-0.1-4.3-0.9-3.9,2.1
		c0.8,6.6-0.3,13.3,1.3,19.9c0.5,2.2,1.6,3.2,3.7,3.2c3.2,0,6.3,0,9.4-0.7c2.8-0.6,4.3-2.1,3.9-4.8c-0.7-4.2,1.2-5.7,5.1-6.7
		C52.1,48.9,53.1,29.8,51.1,20.2z"/>
	<path class="st0" d="M24.8,71c-5.9,0-10.6,4.9-10.5,11c0.1,5.3,4.9,10.1,10.2,10.1c6.1,0,10-4.2,9.9-10.6
		C34.3,75.1,30.5,71,24.8,71z"/>
</g>
</svg>
