<?xml version="1.0" encoding="utf-8"?>
<!-- Generator: Adobe Illustrator 21.0.0, SVG Export Plug-In . SVG Version: 6.00 Build 0)  -->
<svg version="1.1" id="Layer_1" xmlns="http://www.w3.org/2000/svg" xmlns:xlink="http://www.w3.org/1999/xlink" x="0px" y="0px"
	 viewBox="0 0 118.5 114" style="enable-background:new 0 0 118.5 114;" xml:space="preserve">
<style type="text/css">
	.st0{fill:#FFFFFF;stroke:#383638;stroke-width:8;stroke-miterlimit:10;}
	.st1{fill:#383638;}
</style>
<path class="st0" d="M114.5,46.8C114.5,23.2,89.7,4,59.2,4C28.7,4,4,23.2,4,46.8C4,62.9,15.5,77,32.4,84.3c0,0.5,0,0.9,0,1.4
	c0,13.4,4.1,24.3,9.1,24.3c3.2,0,6-4.4,7.7-11.1c1.6,6.7,4.5,11.1,7.7,11.1s6-4.4,7.7-11.1c1.6,6.7,4.5,11.1,7.7,11.1
	c5,0,9.1-10.7,9.1-23.9C100.8,79.5,114.5,64.4,114.5,46.8z"/>
<path class="st1" d="M14.5,47.4c-0.9,9.4,6,17.6,15.4,18.3c9.4,0.7,17.8-6.3,18.7-15.7s-6-17.6-15.4-18.3C23.8,31,15.5,38,14.5,47.4
	z"/>
<path class="st1" d="M69.5,47.4c-0.9,9.4,6,17.6,15.4,18.3c9.4,0.7,17.8-6.3,18.7-15.7s-6-17.6-15.4-18.3C78.8,31,70.4,38,69.5,47.4
	z"/>
</svg>
