<?xml version="1.0" encoding="utf-8"?>
<!-- Generator: Adobe Illustrator 21.0.0, SVG Export Plug-In . SVG Version: 6.00 Build 0)  -->
<svg version="1.1" id="Layer_1" xmlns="http://www.w3.org/2000/svg" xmlns:xlink="http://www.w3.org/1999/xlink" x="0px" y="0px"
	 viewBox="0 0 67.9 52.8" style="enable-background:new 0 0 67.9 52.8;" xml:space="preserve">
<style type="text/css">
	.st0{fill:#FFFFFF;stroke:#000000;stroke-width:3;stroke-linecap:round;stroke-linejoin:round;stroke-miterlimit:10;}
	.st1{fill:none;stroke:#000000;stroke-width:2;stroke-linecap:round;stroke-linejoin:round;stroke-miterlimit:10;}
	.st2{fill:#C25128;stroke:#A45225;stroke-width:0.75;stroke-linecap:round;stroke-linejoin:round;stroke-miterlimit:10;}
	.st3{fill:#4F341E;stroke:#4F341E;stroke-width:5;stroke-linecap:round;stroke-linejoin:round;stroke-miterlimit:10;}
	.st4{fill:#FFFFFF;stroke:#000000;stroke-width:2;stroke-linecap:round;stroke-linejoin:round;stroke-miterlimit:10;}
	.st5{fill:#EE4036;}
</style>
<path class="st0" d="M15.2,51.3c0,0-16.7-30.3,18.2-22.6c0,0,30.6-3.8,25.2,14.6C58.6,43.3,32,45.2,15.2,51.3z"/>
<path class="st1" d="M51.6,48.7c0,0,9.8,6.6,10.9-3.9"/>
<path class="st2" d="M48.3,41.2c-4,5.2-10.5,0.8-10.5,0.8c-3.6,6.3-11.5,0.1-11.5,0.1c-5.7,7.9-13.3-0.8-13.3-0.8l2.6,8.2l36.5-7.1
	L48.3,41.2z"/>
<path class="st3" d="M20.4,33"/>
<path class="st4" d="M11.2,37c0,0,27.7-8.3,48.3,0.8"/>
<polyline class="st4" points="46.6,34.2 46.4,32.3 43.9,33.9 46.4,32.3 48,34.5 "/>
<polyline class="st4" points="21.4,35.5 22.4,37.5 18.9,35.8 22.4,37.5 22.7,35.4 "/>
<g>
	<path class="st5" d="M9.7,23C5.5,23,2,18.3,2,12.6C2,7,5.4,2.5,9.9,2.1C10.5,2,11.1,2,11.7,2c2.3,0,3.9,0.5,4.8,1.6
		c1.3,1.5,1.6,4.3,1,8.7C16.7,17.2,14.3,23,9.7,23z"/>
	<path d="M11.7,0v4c1.1,0,2.6,0.2,3.3,0.9c0.5,0.6,1.2,2.2,0.5,7.1c-0.7,4.5-2.7,9-5.8,9C6.6,21,4,17.1,4,12.6
		c0-4.5,2.6-8.1,6.1-8.5C10.7,4,11.2,4,11.7,4L11.7,0 M11.7,0c-0.6,0-1.3,0-2,0.1C4.4,0.6,0,5.7,0,12.6S4.3,25,9.7,25
		s8.7-5.6,9.7-12.5C20.4,5.7,19.6,0,11.7,0L11.7,0z"/>
</g>
<g>
	<path class="st5" d="M56.9,21.2c-4.7,0-8.5-4.2-8.5-9.4c0-5.2,3.8-9.4,8.5-9.4c8.5,0,8.5,2.7,8.5,9.4C65.4,17,61.6,21.2,56.9,21.2z
		"/>
	<path d="M56.9,5c3.4,0,5,0.6,5.4,1.2c0.6,0.9,0.6,3.5,0.6,5.7c0,3.8-2.7,6.9-6,6.9c-3.3,0-6-3.1-6-6.9S53.6,5,56.9,5 M56.9,0
		c-6.1,0-11,5.3-11,11.9s4.9,11.9,11,11.9s11-5.3,11-11.9S67.9,0,56.9,0L56.9,0z"/>
</g>
</svg>
