<?xml version="1.0" encoding="utf-8"?>
<!-- Generator: Adobe Illustrator 21.0.0, SVG Export Plug-In . SVG Version: 6.00 Build 0)  -->
<svg version="1.1" id="Layer_1" xmlns="http://www.w3.org/2000/svg" xmlns:xlink="http://www.w3.org/1999/xlink" x="0px" y="0px"
	 viewBox="0 0 84 56.9" style="enable-background:new 0 0 84 56.9;" xml:space="preserve">
<style type="text/css">
	.st0{stroke:#000000;stroke-width:5;stroke-miterlimit:10;}
</style>
<path class="st0" d="M53.5,6.2c-0.1,0.4,4.6-4.2,11-2.3s10.6,8.8,10.8,8.4c0.1-0.4-4.1-7.4-10.5-9.3S53.6,5.8,53.5,6.2z"/>
<path class="st0" d="M61.4,46.2c-0.1-0.4-3.6,5.9-12.5,7s-17.7-3.1-17.6-2.6c0.1,0.4,8.9,4.8,17.7,3.6S61.5,46.6,61.4,46.2z"/>
<path d="M65.2,20.7c-0.9,0-1.8-0.1-2.8-0.1c-1.1,0-2.2-0.1-3.3-0.1c-2.2-0.1-4.4-0.1-6.4-0.2c-5.3-0.1-9.4-0.2-10.4-0.2
	c-0.1,0-0.2,0-0.3,0.1c-2.4-0.5-11.5-0.9-20.5-1.2c-1,0-1.9-0.1-2.8-0.1c-0.8,0-1.6,0-2.4-0.1c-2.2-0.1-4.2-0.1-6.1-0.2
	c-4.7-0.1-8.2-0.2-9.1-0.2c-1.6,0-1.6,5.5,1,10.9c0.5,1.1,1.1,2.2,1.9,3.2c0.4,0.6,0.8,1.1,1.3,1.7c0.4,0.4,0.8,0.8,1.2,1.2
	c2.9,2.8,6.8,4.7,11.9,4.8c1.1,0,19.1,1.8,23.4-13.5c0.4,1.7,1.1,3.6,2.1,5.4c0.6,1.1,1.2,2.1,2,3.1c0.6,0.7,1.2,1.4,1.9,2
	c0.4,0.4,0.8,0.7,1.2,1.1c2.7,2.1,6.2,3.6,10.6,3.6c1.2,0,23.7,2.2,24.4-19.9C84,21.6,74.9,21.1,65.2,20.7z"/>
</svg>
