<?xml version="1.0" encoding="utf-8"?>
<!-- Generator: Adobe Illustrator 21.0.0, SVG Export Plug-In . SVG Version: 6.00 Build 0)  -->
<svg version="1.1" id="Layer_1" xmlns="http://www.w3.org/2000/svg" xmlns:xlink="http://www.w3.org/1999/xlink" x="0px" y="0px"
	 viewBox="0 0 142.5 101" style="enable-background:new 0 0 142.5 101;" xml:space="preserve">
<style type="text/css">
	.st0{fill:#F1F1F2;stroke:#000000;stroke-width:4;stroke-miterlimit:10;}
</style>
<path class="st0" d="M36.7,98.9c0,0,21.7,1.5,24.7-24.5s-22-95.9-51-62.4l-3.8,7c0,0-21,65.1,27.5,79.6L36.7,98.9z"/>
<path class="st0" d="M67.9,34.4c0,0-4.8-48.8,40.7-26.7c39.3,19.2,35.5,50.7,24.3,65.2c-7,9-26.7,25-43.5,9.2S67.9,34.4,67.9,34.4z"
	/>
<path d="M31,62.4c1.9,6.4,0,12.5-4.2,13.8c-4.2,1.2-9.2-2.9-11-9.3c-1.9-6.4-0.4-14.1,3.8-15.3S29.2,56,31,62.4z"/>
<path d="M107,53.4c2.6,7,0.8,14.2-4,16s-10.9-2.5-13.5-9.5c-2.6-7-1.4-15.9,3.4-17.7C97.8,40.4,104.4,46.3,107,53.4z"/>
</svg>
