<?xml version="1.0" encoding="utf-8"?>
<!-- Generator: Adobe Illustrator 21.0.0, SVG Export Plug-In . SVG Version: 6.00 Build 0)  -->
<svg version="1.1" id="Layer_1" xmlns="http://www.w3.org/2000/svg" xmlns:xlink="http://www.w3.org/1999/xlink" x="0px" y="0px"
	 viewBox="0 0 55.5 25.4" style="enable-background:new 0 0 55.5 25.4;" xml:space="preserve">
<style type="text/css">
	.st0{fill:none;stroke:#000000;stroke-width:2;stroke-linecap:round;stroke-linejoin:round;stroke-miterlimit:10;}
</style>
<path class="st0" d="M23.9,20.4c0,0,4.2,9.3,7.7-0.3"/>
<g>
	<path d="M44.2,5c3,0,5.6,2.6,6.1,5.9c0.4,2.4-0.4,5.2-1.8,6.9c-0.3,0.3-0.8,0.8-1.3,0.8c-0.1,0-0.1,0-0.2,0c-1.4-0.2-5.8-1-7.2-2.2
		c-0.4-0.4-0.9-1.1-1.3-3.7C38,9,40.2,5.6,43.5,5.1C43.7,5,44,5,44.2,5 M44.2,0c-0.5,0-1,0-1.5,0.1c-6,0.9-10,6.9-9.1,13.4
		s2.9,8.4,12.6,10.1c0.4,0.1,0.7,0.1,1,0.1c5.4,0,8.9-7.4,8-13.5C54.4,4.3,49.6,0,44.2,0L44.2,0z"/>
</g>
<g>
	<path d="M11.2,6.1c0.3,0,0.5,0,0.8,0.1c1.5,0.2,2.8,1.1,3.8,2.5c1,1.5,1.4,3.3,1.1,5.2c-0.4,2.7-0.9,3.4-1.3,3.7
		c-1.4,1.2-5.8,1.9-7.2,2.2c-0.1,0-0.1,0-0.2,0c-0.5,0-1-0.5-1.3-0.8c-1.4-1.6-2.1-4.5-1.8-6.9C5.6,8.6,8.2,6.1,11.2,6.1 M11.2,1.1
		C5.8,1.1,1,5.4,0.1,11.3c-0.9,6.1,2.6,13.5,8,13.5c0.3,0,0.7,0,1-0.1C18.9,23,20.8,21,21.8,14.6c1-6.5-3.1-12.5-9.1-13.4
		C12.2,1.1,11.7,1.1,11.2,1.1L11.2,1.1z"/>
</g>
</svg>
