<?xml version="1.0" encoding="utf-8"?>
<!-- Generator: Adobe Illustrator 21.0.0, SVG Export Plug-In . SVG Version: 6.00 Build 0)  -->
<svg version="1.1" id="Layer_1" xmlns="http://www.w3.org/2000/svg" xmlns:xlink="http://www.w3.org/1999/xlink" x="0px" y="0px"
	 viewBox="0 0 72.9 70.3" style="enable-background:new 0 0 72.9 70.3;" xml:space="preserve">
<style type="text/css">
	.st0{fill:#FFFFFF;}
</style>
<path d="M33.5,39.4c0,0-39.3-55.7-32.8,0.9c0,0,8.7,29.4,35.5,30c0,0,29-16.1,34.1-30C70.3,40.3,87.5-10,33.5,39.4z"/>
<path class="st0" d="M12.1,20.3c0,0-5.7,10.9-5.4,11.5c0.3,0.5,15.3,0.6,15.3,0.6L12.1,20.3z"/>
<path class="st0" d="M45.7,32.5c0,0,9.8,7.5,10.4,7.3c0.6-0.2,3.2-15,3.2-15L45.7,32.5z"/>
<ellipse cx="19" cy="7.9" rx="8.6" ry="7.9"/>
<ellipse transform="matrix(8.798910e-02 -0.9961 0.9961 8.798910e-02 26.3205 58.4488)" cx="45.1" cy="14.9" rx="4.5" ry="4.9"/>
</svg>
