<?xml version="1.0" encoding="utf-8"?>
<!-- Generator: Adobe Illustrator 21.0.0, SVG Export Plug-In . SVG Version: 6.00 Build 0)  -->
<svg version="1.1" id="Layer_1" xmlns="http://www.w3.org/2000/svg" xmlns:xlink="http://www.w3.org/1999/xlink" x="0px" y="0px"
	 viewBox="0 0 75.5 54.8" style="enable-background:new 0 0 75.5 54.8;" xml:space="preserve">
<style type="text/css">
	.st0{fill:#FFFFFF;}
</style>
<path d="M25.7,15.2c0,8.4-4.8,3-10.7,3s-10.7,5.4-10.7-3S9.1,0,15,0S25.7,6.8,25.7,15.2z"/>
<path d="M49.2,15.2c0,8.4,4.8,3,10.7,3s10.7,5.4,10.7-3S65.8,0,59.9,0C54,0,49.2,6.8,49.2,15.2z"/>
<path d="M34.6,28.1c0,0-45-23.9-32.3,10.9c0,0,4.1,15.1,31,15.8c0,0,33.5-1.9,38.6-15.8C71.8,39,92.9,7.5,34.6,28.1z"/>
<path class="st0" d="M8.8,25.4c0,0,3.4,11.9,3.9,12.1c0.6,0.2,11.6-10.1,11.6-10.1L8.8,25.4z"/>
<path class="st0" d="M48.2,27.1c0,0,5.6,11,6.2,11S63.8,26,63.8,26L48.2,27.1z"/>
</svg>
