<?xml version="1.0" encoding="utf-8"?>
<!-- Generator: Adobe Illustrator 21.0.0, SVG Export Plug-In . SVG Version: 6.00 Build 0)  -->
<svg version="1.1" id="Layer_1" xmlns="http://www.w3.org/2000/svg" xmlns:xlink="http://www.w3.org/1999/xlink" x="0px" y="0px"
	 viewBox="0 0 26.7 16.9" style="enable-background:new 0 0 26.7 16.9;" xml:space="preserve">
<g>
	<g>
		<path d="M9,1.3c1,1.5-0.2,4-2.5,5.5s-5.1,1.5-6.1,0S0.3,2.5,2.7,1S8-0.2,9,1.3z"/>
	</g>
</g>
<g>
	<g>
		<path d="M26.3,2.7c1,1.5-0.2,4-2.5,5.5s-5.1,1.5-6.1,0c-1-1.5-0.1-4.4,2.3-5.9S25.3,1.1,26.3,2.7z"/>
	</g>
</g>
<path d="M14.6,9.5c-0.5,0.1,0,2.3-3.4,1.9S8.8,9,8.3,8.8C3.9,6.9,5.2,13,6,14.4c0.9,1.5,2.7,2.2,4.5,2.5c1.8,0.2,3.8-0.1,5-1.3
	C16.6,14.4,19.4,8.7,14.6,9.5z"/>
</svg>
