<?xml version="1.0" encoding="utf-8"?>
<!-- Generator: Adobe Illustrator 21.0.0, SVG Export Plug-In . SVG Version: 6.00 Build 0)  -->
<svg version="1.1" id="Layer_1" xmlns="http://www.w3.org/2000/svg" xmlns:xlink="http://www.w3.org/1999/xlink" x="0px" y="0px"
	 viewBox="0 0 79.1 43.3" style="enable-background:new 0 0 79.1 43.3;" xml:space="preserve">
<style type="text/css">
	.st0{fill:#FFFFFF;}
</style>
<g>
	<path d="M39.5,43.3c0,0-0.1,0-0.1,0c-4.6-0.1-7.2-5.3-7.6-7.3c-0.4-1.7,0.2-3.5,1.4-4.1c1.2-0.6,2.4,0.4,2.8,2.1
		c1,4.2,4.9,7.6,6.9-0.1c0.4-1.7,1.7-2.5,2.9-1.9c1.1,0.6,1.7,2.5,1.3,4.2C45.7,41.3,43.4,43.3,39.5,43.3z"/>
</g>
<circle cx="17.3" cy="17.3" r="17.3"/>
<circle class="st0" cx="12.6" cy="7.5" r="5.4"/>
<circle class="st0" cx="4.9" cy="16" r="3.1"/>
<circle cx="61.7" cy="17.3" r="17.3"/>
<circle class="st0" cx="57" cy="7.5" r="5.4"/>
<circle class="st0" cx="49.3" cy="16" r="3.1"/>
</svg>
