<?xml version="1.0" encoding="utf-8"?>
<!-- Generator: Adobe Illustrator 21.0.0, SVG Export Plug-In . SVG Version: 6.00 Build 0)  -->
<svg version="1.1" id="Layer_1" xmlns="http://www.w3.org/2000/svg" xmlns:xlink="http://www.w3.org/1999/xlink" x="0px" y="0px"
	 viewBox="0 0 63.4 43.7" style="enable-background:new 0 0 63.4 43.7;" xml:space="preserve">
<style type="text/css">
	.st0{fill:#FFFFFF;stroke:#000000;stroke-width:4;stroke-miterlimit:10;}
	.st1{fill:#F1F1F1;stroke:#000000;stroke-width:3;stroke-miterlimit:10;}
</style>
<g>
	<path d="M12.1,0.4C11.6,0.2,11.1,0,10.6,0c0,0-0.1,0-0.1,0c-0.1,0-0.1,0-0.2,0c-1,0-1.9,0.5-2.4,1.4C7.8,1.6,7.7,1.7,7.7,1.9
		C7.3,2.5,7.1,3.3,7.2,4c0,0.3,0.1,0.5,0.2,0.7c0,0,0,0.1,0.1,0.2c0.2,0.5,0.6,1,1.1,1.3c0.4,0.3,0.9,0.4,1.5,0.4
		c1.2,0,2.3-0.7,3-1.8C13.8,3.1,13.4,1.3,12.1,0.4z"/>
</g>
<g>
	<path d="M53,0.4C52.6,0.1,52.1,0,51.6,0c0,0-0.1,0-0.1,0c-0.1,0-0.1,0-0.2,0c-1,0-1.9,0.5-2.4,1.4c-0.1,0.1-0.2,0.3-0.3,0.4
		c-0.4,0.7-0.5,1.4-0.5,2.1c0,0.3,0.1,0.5,0.2,0.7c0,0,0,0.1,0.1,0.2c0.2,0.5,0.6,1,1.1,1.3c0.4,0.3,0.9,0.4,1.5,0.4
		c1.2,0,2.3-0.7,2.9-1.9C54.7,3.1,54.4,1.2,53,0.4z"/>
</g>
<path class="st0" d="M3.6,11.9c-4.5,0-0.5,30,23.5,29.7c1.6,0,32.9,2.5,34.3-28C61.5,12.1,8.2,11.9,3.6,11.9z"/>
<line class="st1" x1="18" y1="11.6" x2="19.1" y2="40.2"/>
<line class="st1" x1="41.8" y1="11.6" x2="42.9" y2="40.2"/>
</svg>
