<?xml version="1.0" encoding="utf-8"?>
<!-- Generator: Adobe Illustrator 21.0.0, SVG Export Plug-In . SVG Version: 6.00 Build 0)  -->
<svg version="1.1" id="Layer_1" xmlns="http://www.w3.org/2000/svg" xmlns:xlink="http://www.w3.org/1999/xlink" x="0px" y="0px"
	 viewBox="0 0 58.5 32.8" style="enable-background:new 0 0 58.5 32.8;" xml:space="preserve">
<style type="text/css">
	.st0{fill:#4F341E;stroke:#000000;stroke-width:2;stroke-miterlimit:10;}
	.st1{fill:#FFFFFF;stroke:#000000;stroke-width:6;stroke-miterlimit:10;}
	.st2{fill:#FFFFFF;stroke:#000000;stroke-width:2;stroke-linecap:round;stroke-miterlimit:10;}
</style>
<path class="st0" d="M57.2,28.5c-4.6-1.9-6.9-3.7-6.7-5.5c0.3-2.7,6.5-4.4,6.6-4.5c0.4-0.1,0.5-0.4,0.4-0.6
	c-0.1-0.3-0.5-0.4-0.9-0.3c-0.3,0.1-7.1,2-7.5,5.3c0,0.2,0,0.4,0,0.5L9.4,25c-0.8-3.1-7.1-4.9-7.4-4.9c-0.4-0.1-0.8,0-0.9,0.3
	s0,0.5,0.4,0.6c0.1,0,6.3,1.7,6.6,4.5C8.2,27.2,6,29,1.4,30.9C1,31,0.9,31.3,1.1,31.6c0.1,0.2,0.4,0.3,0.6,0.3c0.1,0,0.2,0,0.4-0.1
	c4.6-1.9,7.1-3.8,7.4-5.8l40-1.5c0.8,1.6,3.2,3.3,7.1,4.9c0.1,0,0.2,0.1,0.4,0.1c0.2,0,0.5-0.1,0.6-0.3C57.6,29,57.5,28.7,57.2,28.5
	z"/>
<path class="st1" d="M14.7,3.8C13.8,3.3,12.8,3,11.7,3C9.3,3,7,4.4,5.7,6.6c-1.8,3.1-1.1,6.6,1.5,8.2c0.9,0.5,1.9,0.8,2.9,0.8
	c2.4,0,4.7-1.4,6-3.6C18,9,17.3,5.4,14.7,3.8z"/>
<path class="st1" d="M49,3.8C48.1,3.3,47.1,3,46.1,3c-2.4,0-4.7,1.4-6,3.6c-1.8,3.1-1.1,6.6,1.5,8.2c0.9,0.5,1.9,0.8,2.9,0.8
	c2.4,0,4.7-1.4,6-3.6C52.3,9,51.6,5.4,49,3.8z"/>
<line class="st2" x1="18.9" y1="29.8" x2="29.9" y2="31.8"/>
</svg>
