<?xml version="1.0" encoding="utf-8"?>
<!-- Generator: Adobe Illustrator 21.0.0, SVG Export Plug-In . SVG Version: 6.00 Build 0)  -->
<svg version="1.1" id="Layer_1" xmlns="http://www.w3.org/2000/svg" xmlns:xlink="http://www.w3.org/1999/xlink" x="0px" y="0px"
	 viewBox="0 0 58.5 30" style="enable-background:new 0 0 58.5 30;" xml:space="preserve">
<style type="text/css">
	.st0{fill:#4F341E;stroke:#000000;stroke-width:2;stroke-miterlimit:10;}
	.st1{stroke:#000000;stroke-width:6;stroke-miterlimit:10;}
	.st2{fill:#FFFFFF;stroke:#000000;stroke-width:2;stroke-linecap:round;stroke-miterlimit:10;}
</style>
<path class="st0" d="M57.2,25.7c-4.6-1.9-6.9-3.7-6.7-5.5c0.3-2.7,6.5-4.4,6.6-4.5c0.4-0.1,0.5-0.4,0.4-0.6
	c-0.1-0.3-0.5-0.4-0.9-0.3c-0.3,0.1-7.1,2-7.5,5.3c0,0.2,0,0.4,0,0.5L9.4,22.2c-0.8-3.1-7.1-4.9-7.4-4.9c-0.4-0.1-0.8,0-0.9,0.3
	s0,0.5,0.4,0.6c0.1,0,6.3,1.7,6.6,4.5c0.2,1.7-2.1,3.6-6.7,5.5c-0.3,0.1-0.5,0.4-0.3,0.7C1.2,29,1.5,29,1.7,29c0.1,0,0.2,0,0.4-0.1
	c4.6-1.9,7.1-3.8,7.4-5.8l40-1.5c0.8,1.6,3.2,3.3,7.1,4.9c0.1,0,0.2,0.1,0.4,0.1c0.2,0,0.5-0.1,0.6-0.3
	C57.6,26.2,57.5,25.9,57.2,25.7z"/>
<path class="st1" d="M36.5,9.3c0.5,0.3,1,0.4,1.6,0.4c1.3,0,2.5-0.7,3.2-1.9c1-1.6,0.6-3.5-0.8-4.4C40,3.1,39.4,3,38.9,3
	c-1.3,0-2.5,0.7-3.2,1.9C34.7,6.5,35.1,8.5,36.5,9.3z"/>
<path class="st1" d="M18.1,9.3c0.5,0.3,1,0.4,1.6,0.4c1.3,0,2.5-0.7,3.2-1.9c1-1.6,0.6-3.5-0.8-4.4C21.6,3.1,21,3,20.5,3
	c-1.3,0-2.5,0.7-3.2,1.9C16.3,6.5,16.7,8.5,18.1,9.3z"/>
<line class="st2" x1="18.9" y1="27" x2="29.9" y2="29"/>
</svg>
