<?xml version="1.0" encoding="utf-8"?>
<!-- Generator: Adobe Illustrator 21.0.0, SVG Export Plug-In . SVG Version: 6.00 Build 0)  -->
<svg version="1.1" id="Layer_1" xmlns="http://www.w3.org/2000/svg" xmlns:xlink="http://www.w3.org/1999/xlink" x="0px" y="0px"
	 viewBox="0 0 109.8 58.9" style="enable-background:new 0 0 109.8 58.9;" xml:space="preserve">
<style type="text/css">
	.st0{fill:#F1F1F2;stroke:#000000;stroke-width:4;stroke-miterlimit:10;}
	.st1{fill:#FFFFFF;stroke:#000000;stroke-width:3;stroke-linecap:round;stroke-linejoin:round;stroke-miterlimit:10;}
	.st2{fill:none;stroke:#000000;stroke-width:2;stroke-linecap:round;stroke-linejoin:round;stroke-miterlimit:10;}
	.st3{fill:#C25128;stroke:#A45225;stroke-width:0.75;stroke-linecap:round;stroke-linejoin:round;stroke-miterlimit:10;}
	.st4{fill:#4F341E;stroke:#4F341E;stroke-width:5;stroke-linecap:round;stroke-linejoin:round;stroke-miterlimit:10;}
	.st5{fill:#FFFFFF;stroke:#000000;stroke-width:2;stroke-linecap:round;stroke-linejoin:round;stroke-miterlimit:10;}
</style>
<path class="st0" d="M50.5,14.1c-1.9-10.7-24.1-6.4-35.4-3.6c-5.5,1.4-9.6,6.3-9.5,12c0.1,6.1,5,12.1,26.2,8.3
	C38.8,29.5,51.9,22.1,50.5,14.1z"/>
<path d="M20.5,14.5c1.1,2.6-2.6,5.6-8.2,6.8c-5.6,1.2-11,0.1-12.1-2.5s2.4-6.3,8-7.5S19.4,11.9,20.5,14.5z"/>
<path class="st0" d="M105.1,12.9C104.9,2.3,82.2,1.7,69.9,2.1C63.2,2.3,57.7,8,58.3,14.7c0.6,6,6,12,25.6,11.7
	C91,26.3,105.1,21.1,105.1,12.9z"/>
<path d="M109.6,9.1c1.1,2.6-2.6,5.6-8.2,6.8c-5.6,1.2-11,0.1-12.1-2.5c-1.1-2.6,2.4-6.3,8-7.5C102.9,4.7,108.5,6.5,109.6,9.1z"/>
<path class="st1" d="M40.7,57.4c0,0-16.7-30.3,18.2-22.6c0,0,30.6-3.8,25.2,14.6C84,49.4,57.4,51.3,40.7,57.4z"/>
<path class="st2" d="M77,54.8c0,0,9.8,6.6,10.9-3.9"/>
<path class="st3" d="M73.7,47.3c-4,5.2-10.5,0.8-10.5,0.8c-3.6,6.3-11.5,0.1-11.5,0.1c-5.7,7.9-13.3-0.8-13.3-0.8l2.6,8.2l36.5-7.1
	L73.7,47.3z"/>
<path class="st4" d="M45.9,39.1"/>
<path class="st5" d="M36.7,43.1c0,0,27.7-8.3,48.3,0.8"/>
<polyline class="st5" points="72,40.3 71.8,38.4 69.3,40 71.8,38.4 73.5,40.5 "/>
<polyline class="st5" points="46.8,41.6 47.8,43.6 44.3,41.9 47.8,43.6 48.1,41.5 "/>
</svg>
