<?xml version="1.0" encoding="utf-8"?>
<!-- Generator: Adobe Illustrator 21.0.0, SVG Export Plug-In . SVG Version: 6.00 Build 0)  -->
<svg version="1.1" id="Layer_1" xmlns="http://www.w3.org/2000/svg" xmlns:xlink="http://www.w3.org/1999/xlink" x="0px" y="0px"
	 viewBox="0 0 648.1 644.8" style="enable-background:new 0 0 648.1 644.8;" xml:space="preserve">
<style type="text/css">
	.st0{fill:#1A1A1A;stroke:#1A1A1A;stroke-width:44;stroke-miterlimit:10;}
	.st1{fill:#ED236C;}
</style>
<path class="st0" d="M126.7,454.9c224.9,101.9,130.5,206.6,306.2,153.7c14.1-4.2,297-84.5,151.8-395.4
	C578.9,200.6,89.7,438.1,126.7,454.9z"/>
<path class="st1" d="M388,614.9c14.3-1,291.9-61.8,218.8-321.4C584.2,213.1,145.5,632.6,388,614.9z"/>
<path class="st0" d="M483.3,23.4c-33,17.7-118.6,64.5-162.1,207.9c0,0,175.2-57.4,258.9-104.3c37.7-21.1-192.9,48.6-192.9,48.6
	S518.3,4.6,483.3,23.4z"/>
<path class="st0" d="M25.3,261.3c27-10.1,97.4-35.8,202.3,11.8c0,0-122,72.1-191.5,96.7C4.8,380.9,162,283,162,283
	S-3.3,272,25.3,261.3z"/>
</svg>
