<?xml version="1.0" encoding="utf-8"?>
<!-- Generator: Adobe Illustrator 21.0.0, SVG Export Plug-In . SVG Version: 6.00 Build 0)  -->
<svg version="1.1" id="Layer_1" xmlns="http://www.w3.org/2000/svg" xmlns:xlink="http://www.w3.org/1999/xlink" x="0px" y="0px"
	 viewBox="0 0 71.8 43.8" style="enable-background:new 0 0 71.8 43.8;" xml:space="preserve">
<style type="text/css">
	.st0{fill:#EFC2CB;}
</style>
<path d="M41.7,41.5c0-0.8-0.8-1.3-1.9-1c-4.9,1.2-4.2-2-2.2-3.8c0.7-0.6,0.9-1.5,0.5-2c-0.2-0.4-0.7-0.6-1.4-0.4
	c-0.2,0-0.4,0.1-0.6,0.2c-5.1,1.5-4-1.4-1.7-3.3c1-0.8,1.2-1.7,0.6-2c-0.7-0.4-2,0-2.9,0.7c-1.2,0.9-3.8,3.9-2.7,6.1c0,0,0,0,0,0
	c0.7,1.4,1.9,1.9,4,1.7c-0.4,1.1-0.6,2.5,0,3.7c0,0,0,0,0,0.1c1.2,2.2,3,2.9,6.3,2.1C40.8,43.2,41.7,42.4,41.7,41.5z"/>
<path class="st0" d="M9.2,39c0.9-1.4,2.8-4.3,0.6-3.1C7,37.5,6.5,43.3,9.2,39z"/>
<path class="st0" d="M13.6,40.7c0.1-1.9,0.5-5.6-0.9-3.4C10.9,40.1,13.2,46.3,13.6,40.7z"/>
<path class="st0" d="M16.1,38.5c0.2,1.7,0.6,5.1,1.6,2.7C18.9,38.1,15.4,33.4,16.1,38.5z"/>
<path class="st0" d="M60.9,35.1c0.2-1.9,0.8-5.7-1-3.4C57.6,34.7,60.2,40.9,60.9,35.1z"/>
<path class="st0" d="M66.8,34.5c-0.9-1.9-2.5-5.8-2.9-2.9C63.5,35.3,69.5,40.4,66.8,34.5z"/>
<path class="st0" d="M68.5,31.1c1.2,1.6,3.5,4.8,3.3,1.9C71.5,29.2,64.8,26.4,68.5,31.1z"/>
<g>
	<path d="M28.3,21.5c0.2,1.6-0.1,2.1-0.5,3.1c-1.5,3.7-2.3,5.4-5.5,7.8c-7.7,5.8-20.6,0.5-22.2-9.2c-1-6.2,2.5-12.7,8-15.2
		c4.7-2.1,12.1-1.8,14.3,5.6c0.3,0.9,0.3,1.8,0.4,2.8c0.3,3.9-0.9,7.2-4,9.5c-2.7,2-5.7,2.2-8.5,0.5c-2.7-1.6-3.9-5.4-2.8-8.8
		c0.9-2.9,3.7-4.8,6.5-4.5c1.3,0.1,2.2,0.7,2.3,2.2c0,1.6-1,2.3-2.3,2.2c-1.8-0.1-2.8,0.6-2.8,2.5c0,2.1,1.2,3,3,3.1
		c3,0.1,5.2-3.2,4.6-6.7c-0.5-2.8-2.5-4.8-5.1-5c-3.5-0.3-7,1.7-8.5,4.9C2.9,21.2,4,25.3,8.4,28.3c4.9,3.4,10.5,2.7,13.9-1.6
		c1.7-2.2,1.3-3.3,2.8-5.6C25.1,21.1,27.9,19.2,28.3,21.5z"/>
</g>
<g>
	<path d="M37.5,18.3c-0.8-1.6-0.6-2.2-0.5-3.3c0.4-4.2,0.8-6.2,3.6-9.6c6.8-8.3,23.2-6.7,28.1,2.8c3.1,6,1.4,13.7-4,17.9
		c-4.6,3.6-13.1,5.5-18-1.5c-0.6-0.8-1-1.8-1.4-2.7c-1.6-3.9-1.4-7.7,1.4-10.9c2.5-2.8,5.7-3.9,9.4-3c3.6,0.8,6.2,4.4,6.1,8.1
		c-0.1,3.2-2.6,6-5.8,6.6c-1.5,0.3-2.8-0.1-3.3-1.6c-0.6-1.6,0.3-2.7,1.8-3c2.1-0.4,2.9-1.5,2.3-3.4c-0.7-2.2-2.4-2.7-4.4-2.3
		c-3.4,0.8-4.9,4.8-3,8.2c1.5,2.7,4.4,4.2,7.5,3.6c4.1-0.7,7.3-3.8,8-7.5c0.9-5.7-1.7-9.6-7.7-11.4c-6.7-2-12.8,0.3-15.1,5.8
		c-1.2,2.8-0.4,3.7-1.3,6.5C41.1,17.7,38.6,20.6,37.5,18.3z"/>
</g>
</svg>
