<?xml version="1.0" encoding="utf-8"?>
<!-- Generator: Adobe Illustrator 21.0.0, SVG Export Plug-In . SVG Version: 6.00 Build 0)  -->
<svg version="1.1" id="Layer_1" xmlns="http://www.w3.org/2000/svg" xmlns:xlink="http://www.w3.org/1999/xlink" x="0px" y="0px"
	 viewBox="0 0 70.6 68.5" style="enable-background:new 0 0 70.6 68.5;" xml:space="preserve">
<style type="text/css">
	.st0{fill:#E6E6E6;}
	.st1{fill:none;stroke:#000000;stroke-width:5;stroke-linecap:round;stroke-miterlimit:10;}
</style>
<path class="st0" d="M0.1,37.2c1.8,11.4,8.7,10.9,16.1,11.4S26.9,42.4,27.7,33s-3-17.6-10.4-18.1C10,14.3-1.3,27.9,0.1,37.2z"/>
<path class="st0" d="M70.5,37.1C68.7,48.6,61.8,48,54.4,48.6s-10.7-6.3-11.6-15.7c-0.9-9.4,3-17.6,10.4-18.1S71.9,27.8,70.5,37.1z"
	/>
<path d="M6.2,30.6c-0.9,9.4,4.4,17.4,11.7,18S32,42,32.9,32.7c0.9-9.4-4.4-17.4-11.7-18S7.1,21.2,6.2,30.6z"/>
<path d="M38.8,30.6c-0.9,9.4,4.4,17.4,11.7,18s14.1-6.6,14.9-16s-4.4-17.4-11.7-18S39.7,21.2,38.8,30.6z"/>
<path class="st1" d="M42.2,3.9c0,0,9.1,16.7,22,0"/>
<path class="st1" d="M8.5,2.5c-0.7,1.2,7.7,19.4,22,0"/>
<path class="st1" d="M11.8,53.1c0,0-10.7,17.3,20,8.3c0,0,29.5,14.2,23.2-7.7"/>
</svg>
