<?xml version="1.0" encoding="utf-8"?>
<!-- Generator: Adobe Illustrator 21.0.0, SVG Export Plug-In . SVG Version: 6.00 Build 0)  -->
<svg version="1.1" id="Layer_1" xmlns="http://www.w3.org/2000/svg" xmlns:xlink="http://www.w3.org/1999/xlink" x="0px" y="0px"
	 viewBox="0 0 85.8 57.2" style="enable-background:new 0 0 85.8 57.2;" xml:space="preserve">
<style type="text/css">
	.st0{stroke:#000000;stroke-miterlimit:10;}
	.st1{fill:#F79838;}
	.st2{stroke:#000000;stroke-width:2;stroke-miterlimit:10;}
	.st3{fill:#F772F1;}
	.st4{fill:#FFFFFF;}
</style>
<path class="st0" d="M29.9,36.1c0-0.3-1-0.2-1.3,0c-2.1,2.2,2,8.5,11.3,4.3c0,0,12.5,11.9,21-3.4c0.1-0.3-0.7-1.1-1.5-0.1
	c-0.1,0.2-5.3,12.5-19.6,2.5C39.9,39.3,29.2,42.1,29.9,36.1z"/>
<path class="st1" d="M47.7,48.7c0,2.8-2.1,6-6.4,5.6c-3-0.2-8-0.8-7.3-5.5c0.4-2.8,3.4-5.8,6.4-5.8S47.7,45.9,47.7,48.7z"/>
<path class="st2" d="M33.8,42.7c0,0-3.3,12.2,8.3,13.5c3.6,0.4,10.8-2.3,9.4-10.7c0,0-6.1-2-9.5-3.9C40.2,40.6,37.4,43.8,33.8,42.7z
	"/>
<ellipse class="st3" cx="42.7" cy="50.6" rx="6.8" ry="5.6"/>
<circle cx="17.3" cy="17.3" r="17.3"/>
<circle class="st4" cx="17.3" cy="12.6" r="8.7"/>
<circle class="st4" cx="13" cy="26.3" r="4.3"/>
<circle cx="68.4" cy="17.3" r="17.3"/>
<circle class="st4" cx="68.4" cy="12.6" r="8.7"/>
<circle class="st4" cx="72.8" cy="26.3" r="4.3"/>
</svg>
