<?xml version="1.0" encoding="utf-8"?>
<!-- Generator: Adobe Illustrator 21.0.0, SVG Export Plug-In . SVG Version: 6.00 Build 0)  -->
<svg version="1.1" id="Layer_1" xmlns="http://www.w3.org/2000/svg" xmlns:xlink="http://www.w3.org/1999/xlink" x="0px" y="0px"
	 viewBox="0 0 57.1 62.1" style="enable-background:new 0 0 57.1 62.1;" xml:space="preserve">
<style type="text/css">
	.st0{stroke:#000000;stroke-width:6;stroke-miterlimit:10;}
</style>
<path d="M16.8,29.7c0-17.9,4.1-6.3,9.1-6.3s9.1-11.6,9.1,6.3S31,62.1,25.9,62.1S16.8,47.6,16.8,29.7z"/>
<path class="st0" d="M43.5,15.5c0.9,0.6,2,0.8,3.1,0.8c2.5,0,5-1.5,6.3-3.8c1.9-3.2,1.2-7-1.6-8.7c-0.9-0.5-2-0.8-3.1-0.8
	c-2.5,0-5,1.5-6.3,3.8C40.1,10,40.8,13.8,43.5,15.5z"/>
<path class="st0" d="M4.3,19.3c0.5,0.3,1,0.4,1.6,0.4c1.3,0,2.5-0.7,3.2-1.9c1-1.6,0.6-3.5-0.8-4.4c-0.5-0.3-1-0.4-1.6-0.4
	c-1.3,0-2.5,0.7-3.2,1.9C2.6,16.5,2.9,18.4,4.3,19.3z"/>
</svg>
