<?xml version="1.0" encoding="utf-8"?>
<!-- Generator: Adobe Illustrator 21.0.0, SVG Export Plug-In . SVG Version: 6.00 Build 0)  -->
<svg version="1.1" id="Layer_1" xmlns="http://www.w3.org/2000/svg" xmlns:xlink="http://www.w3.org/1999/xlink" x="0px" y="0px"
	 viewBox="0 0 67.9 39.6" style="enable-background:new 0 0 67.9 39.6;" xml:space="preserve">
<style type="text/css">
	.st0{fill:#4F341E;stroke:#4F341E;stroke-width:5;stroke-linecap:round;stroke-linejoin:round;stroke-miterlimit:10;}
	.st1{fill:none;stroke:#000000;stroke-width:2;stroke-linecap:round;stroke-linejoin:round;stroke-miterlimit:10;}
	.st2{fill:#FFFFFF;stroke:#000000;stroke-width:2;stroke-linecap:round;stroke-linejoin:round;stroke-miterlimit:10;}
</style>
<path class="st0" d="M50.3,37.8"/>
<path class="st1" d="M59.5,33.8c0,0-27.7,8.3-48.3-0.8"/>
<polyline class="st2" points="24.2,36.7 24.4,38.6 26.9,37 24.4,38.6 22.7,36.4 "/>
<polyline class="st2" points="49.4,35.3 48.4,33.4 51.9,35.1 48.4,33.4 48.1,35.5 "/>
<g>
	<path d="M13.6,0v4c0.6,0,0.8,0.2,1,0.4c0.9,1,1.5,4.1,0.9,8.4c-0.7,4.5-2.7,9-5.8,9c-3.1,0-5.7-3.9-5.7-8.5c0-2.5,0.7-6.1,7.2-8.7
		C12.4,4.1,13.1,4,13.6,4L13.6,0 M13.6,0c-1.1,0-2.4,0.3-3.9,0.9C4.8,2.8,0,6.4,0,13.3c0,6.9,4.3,12.5,9.7,12.5
		c5.4,0,8.7-5.6,9.7-12.5C20.3,7.1,19.3,0,13.6,0L13.6,0z"/>
</g>
<g>
	<path d="M55,5.4L55,5.4c0.1,0,0.2,0,0.3,0.1C56.7,6,61,7.4,62.2,8.7c0.4,0.4,0.7,1.2,0.7,3.9c0,3.8-2.7,6.9-6,6.9s-6-3.1-6-6.9
		C51,8.8,53.7,5.4,55,5.4 M55,0.4c-5,0-9.1,6.3-9.1,12.2c0,6.5,4.9,11.9,11,11.9s11-5.3,11-11.9s-1.6-8.8-11-11.9
		C56.3,0.5,55.7,0.4,55,0.4L55,0.4z"/>
</g>
</svg>
