<?xml version="1.0" encoding="utf-8"?>
<!-- Generator: Adobe Illustrator 21.0.0, SVG Export Plug-In . SVG Version: 6.00 Build 0)  -->
<svg version="1.1" id="Layer_1" xmlns="http://www.w3.org/2000/svg" xmlns:xlink="http://www.w3.org/1999/xlink" x="0px" y="0px"
	 viewBox="0 0 52 44.4" style="enable-background:new 0 0 52 44.4;" xml:space="preserve">
<style type="text/css">
	.st0{fill:#E6E6E6;}
	.st1{fill:#E6E6E6;stroke:#000000;stroke-width:2;stroke-miterlimit:10;}
	.st2{fill:#F1F1F2;stroke:#000000;stroke-width:2;stroke-miterlimit:10;}
</style>
<path class="st0" d="M12.5,0c0,0,2.2,15.7-12.5,17c0,0,15.1,4.1,15.8,16.8c0,0-1.4-14.9,8.4-18.2C24.3,15.6,17.4,17.8,12.5,0z"/>
<path class="st0" d="M42.2,6.6c0,0-1.7,12.3,9.8,13.3c0,0-11.8,3.2-12.4,13.2c0,0,1.1-11.7-6.6-14.2C33,18.8,38.4,20.5,42.2,6.6z"/>
<path class="st1" d="M13,27.8c-2.4,0-0.3,15.8,12.3,15.6c0.9,0,17.3,1.3,18.1-14.7C43.4,27.9,15.4,27.8,13,27.8z"/>
<line class="st2" x1="20.5" y1="27.1" x2="21.1" y2="43.4"/>
<line class="st2" x1="33" y1="27.1" x2="33.6" y2="43.4"/>
</svg>
