<?xml version="1.0" encoding="utf-8"?>
<!-- Generator: Adobe Illustrator 21.0.0, SVG Export Plug-In . SVG Version: 6.00 Build 0)  -->
<svg version="1.1" id="Layer_1" xmlns="http://www.w3.org/2000/svg" xmlns:xlink="http://www.w3.org/1999/xlink" x="0px" y="0px"
	 viewBox="0 0 104.4 110.6" style="enable-background:new 0 0 104.4 110.6;" xml:space="preserve">
<style type="text/css">
	.st0{fill:#FFDA63;stroke:#AC5626;stroke-width:2;stroke-miterlimit:10;}
	.st1{fill:#FFFFFF;}
	.st2{fill:#F79838;stroke:#C25128;stroke-width:3;stroke-miterlimit:10;}
	.st3{stroke:#000000;stroke-width:4;stroke-miterlimit:10;}
</style>
<path class="st0" d="M40.6,44.4"/>
<path d="M104.2,25.4c-1.1,8-8.6,3.5-18.4,2.1s-18.2,0.9-17-7.1s10-13.4,19.8-12S105.4,17.4,104.2,25.4z"/>
<path class="st1" d="M97.7,19.6c-0.6,4-4.5,2.9-9.3,2.2c-4.9-0.7-8.9-0.7-8.4-4.7s5-6.7,9.9-6C94.8,11.7,98.3,15.6,97.7,19.6z"/>
<path class="st1" d="M81,24.4c-0.3,2-2.2,1.1-4.6,0.7s-4.5,0-4.2-2s2.5-3.3,4.9-3C79.6,20.5,81.3,22.4,81,24.4z"/>
<path d="M47,17.3c-1.1,8-8.6,3.5-18.4,2.1c-9.8-1.4-18.2,0.9-17-7.1s10-13.4,19.8-12S48.2,9.2,47,17.3z"/>
<path class="st1" d="M40.6,11.4c-0.6,4-4.5,2.9-9.3,2.2s-8.9-0.7-8.4-4.7c0.6-4,5-6.7,9.9-6S41.1,7.4,40.6,11.4z"/>
<path class="st1" d="M23.9,16.2c-0.3,2-2.2,1.1-4.6,0.7s-4.5,0-4.2-2s2.5-3.3,4.9-3C22.4,12.3,24.1,14.2,23.9,16.2z"/>
<path class="st2" d="M5.6,72.8C8.2,65.5-0.8,46.5,5.9,42c5.4-3.5,19.7-1.7,21.6,27.7c0,0,33-10,42.6-5.2
	c8.7,4.3,15.1,13.6-19.6,20.3c-7.3,1.4,1.4,20.8-32.1,24.1C6.9,110.1-4.9,101.2,5.6,72.8z"/>
<path class="st3" d="M35.5,32.1c0-0.3-1-0.2-1.3,0c-2.1,2.2,2,8.5,11.3,4.3c0,0,12.5,11.9,21-3.4c0.1-0.3-0.7-1.1-1.5-0.1
	c-0.1,0.2-5.3,12.5-19.6,2.5C45.5,35.3,34.7,38.1,35.5,32.1z"/>
</svg>
