<?xml version="1.0" encoding="utf-8"?>
<!-- Generator: Adobe Illustrator 21.0.0, SVG Export Plug-In . SVG Version: 6.00 Build 0)  -->
<svg version="1.1" id="Layer_1" xmlns="http://www.w3.org/2000/svg" xmlns:xlink="http://www.w3.org/1999/xlink" x="0px" y="0px"
	 viewBox="0 0 262 155.5" style="enable-background:new 0 0 262 155.5;" xml:space="preserve">
<style type="text/css">
	.st0{fill:#231F20;stroke:#231F20;stroke-width:2;stroke-miterlimit:10;}
	.st1{fill:#231F20;}
	.st2{fill:#FFFFFF;}
</style>
<path class="st0" d="M111.3,98.4c-9,0.5-17.2,8.7-17.6,16.5c-0.4,7.4,5,12.7,14,12.9c3.5,0.1,3.4,1.1,2.4,3.7
	c-2,4.8-3.2,9.9-1.7,15.1c1.5,5.4,5.2,8.1,10.9,7.9c8.2-0.3,14.2-5,19.2-10.8c2.4-2.7,4-6.1,5.9-9.2c0.9-1.6,1.4-3.8,0-4.9
	c-1.8-1.4-2.8,0.9-3.8,2c-5.2,5.3-9.4,11.6-17.1,13.9c-5.9,1.8-8,0.1-7.1-5.9c0.5-3.6,1.6-7.1,2.6-10.6c1.5-5.7-0.3-8.3-6.1-8.6
	c-1.2-0.1-2.4-0.5-3.6-0.5c-2.5-0.1-5.2-0.4-6.2-3c-0.9-2.7,0.9-4.9,2.5-6.9c2.2-2.8,5.4-3.9,8.8-4.7c1.5-0.3,4.1,0,4.1-2.5
	c-0.1-2.3-2.2-3.3-4.1-4C113,98.4,111.6,98.5,111.3,98.4z"/>
<path class="st1" d="M0,45.5l106.8-2c0,0,10.5,47-47.4,44.5C-3.4,85.4,0,45.5,0,45.5z"/>
<path class="st1" d="M259.8,38l-131,7.2c0,0,5.2,55.8,74.9,47.8C279.2,84.3,259.8,38,259.8,38z"/>
<path class="st1" d="M8.2,11.1c14.7,9,71.7,9.5,91.7,3.1c10.3-3.3,10.1-11.8-39.7-12.6C6.2,0.8-0.5,5.8,8.2,11.1z"/>
<path class="st1" d="M251.3,13.2c-21.4,8.2-92.7,10.1-116.6-1.9c-13.9-7-2.6-12.9,60-10.9C262.6,2.6,261.8,9.3,251.3,13.2z"/>
<path class="st2" d="M14.1,45.4l26.3-1.6c0,0,2,21.7-12.2,20.9C12.8,63.9,14.1,45.4,14.1,45.4z"/>
<path class="st2" d="M184.7,42.3l-34.5,0.9c0,0,6.7,27.3,24.7,24.8C194.3,65.2,184.7,42.3,184.7,42.3z"/>
</svg>
