<?xml version="1.0" encoding="utf-8"?>
<!-- Generator: Adobe Illustrator 21.0.0, SVG Export Plug-In . SVG Version: 6.00 Build 0)  -->
<svg version="1.1" id="Layer_1" xmlns="http://www.w3.org/2000/svg" xmlns:xlink="http://www.w3.org/1999/xlink" x="0px" y="0px"
	 viewBox="0 0 39.7 20.6" style="enable-background:new 0 0 39.7 20.6;" xml:space="preserve">
<g>
	<path d="M6.6,13.1C6.6,13.1,6.5,13.1,6.6,13.1c-4-0.2-6.1-6-6.5-8.3c-0.3-1.9,0.2-4,1.2-4.6c1-0.6,2,0.4,2.4,2.3
		C4.5,7.3,7.8,11,9.5,2.4c0.4-1.9,1.5-2.8,2.4-2.1C12.9,1,13.4,3.1,13,5C11.8,10.9,9.9,13.1,6.6,13.1z"/>
</g>
<g>
	<path d="M31.9,12.3c0,0-0.1,0-0.1,0C27.2,12.2,24.7,7,24.2,5c-0.4-1.7,0.2-3.5,1.4-4.1c1.2-0.6,2.4,0.4,2.8,2.1
		c1,4.2,4.9,7.6,6.9-0.1c0.4-1.7,1.7-2.5,2.9-1.9c1.1,0.6,1.7,2.5,1.3,4.2C38.2,10.4,35.9,12.3,31.9,12.3z"/>
</g>
<path d="M27.2,12.5c-0.7-0.4-1.5,0.1-1.8,1.2c-1.3,4.9-3.8,2.8-4.4,0.1c-0.2-0.9-0.9-1.5-1.5-1.4c-0.4,0-0.8,0.3-1.1,1
	c-0.1,0.2-0.1,0.4-0.2,0.6c-1.1,5.3-3.1,2.9-3.7-0.1c-0.2-1.2-0.9-1.9-1.5-1.5c-0.6,0.4-1,1.7-0.7,2.9c0.2,1.5,1.6,5.1,4.1,5.2
	c0,0,0,0,0.1,0c1.6,0,2.6-0.8,3.4-2.7c0.8,0.9,1.9,1.7,3.3,1.8c0,0,0,0,0.1,0c2.5,0,3.9-1.2,4.8-4.6C28.3,14.1,27.9,12.9,27.2,12.5z
	"/>
</svg>
