<?xml version="1.0" encoding="utf-8"?>
<!-- Generator: Adobe Illustrator 21.0.0, SVG Export Plug-In . SVG Version: 6.00 Build 0)  -->
<svg version="1.1" id="Layer_1" xmlns="http://www.w3.org/2000/svg" xmlns:xlink="http://www.w3.org/1999/xlink" x="0px" y="0px"
	 viewBox="0 0 87.3 124.8" style="enable-background:new 0 0 87.3 124.8;" xml:space="preserve">
<style type="text/css">
	.st0{fill:#E6E6E6;stroke:#333333;stroke-width:5;stroke-miterlimit:10;}
</style>
<path class="st0" d="M43.6,122.3c22.7,0,41.1-15.6,41.1-34.8c0-6-1.8-11.7-5-16.7c3-6.9,5-18,5-30.5c0-20.9-12.4-37.9-19.2-37.9
	S60,19.5,60,40.4c0,5.6,0.4,10.9,1.1,15.7c-5.3-2.1-11.2-3.3-17.5-3.3c-6.2,0-12,1.2-17.2,3.2c0.5-4.3,0.9-8.9,0.9-13.8
	c0-20.9-1.7-37.9-8.5-37.9S2.5,21.2,2.5,42.1c0,11.9,1.8,22.5,4.6,29.4c-2.9,4.8-4.6,10.2-4.6,15.9C2.5,106.7,20.9,122.3,43.6,122.3
	"/>
</svg>
