<?xml version="1.0" encoding="utf-8"?>
<!-- Generator: Adobe Illustrator 21.0.0, SVG Export Plug-In . SVG Version: 6.00 Build 0)  -->
<svg version="1.1" id="Layer_1" xmlns="http://www.w3.org/2000/svg" xmlns:xlink="http://www.w3.org/1999/xlink" x="0px" y="0px"
	 viewBox="0 0 120.9 245.4" style="enable-background:new 0 0 120.9 245.4;" xml:space="preserve">
<style type="text/css">
	.st0{fill:#E6E6E6;}
	.st1{fill:#333333;}
	.st2{fill:#4D4D4D;stroke:#333333;stroke-width:5;stroke-miterlimit:10;}
</style>
<g>
	<path class="st0" d="M42.8,100l13.5-88.2l58.6-9c0,0,3.3,9.7,1.2,17.3l-45.9,6.6l-9.4,77.7L42.8,100z"/>
	<path class="st1" d="M62.9,107.5L40,101.8L54,9.6L116.5,0l0.7,2c0.1,0.4,3.6,10.5,1.3,18.8l-0.4,1.6l-45.6,6.6L62.9,107.5z
		 M45.6,98.1l13,3.2l9.3-76.8l46.1-6.6c0.7-4.5-0.3-9.6-1-12.3L58.4,14L45.6,98.1z"/>
</g>
<polygon class="st2" points="94.2,6 96.8,22.9 105.8,21.6 106.7,4 "/>
<polygon class="st2" points="71.3,9.7 74.8,25.4 85.4,23.8 83.9,7.8 "/>
<path class="st2" d="M58.9,14.6l10.7,11.5c0.4,0.4,0.6,0.9,0.5,1.5l-0.3,2.6c-0.1,1.2-1.4,2-2.5,1.5L55.4,27c-0.8-0.3-1.3-1.2-1.2-2
	l1.4-9.4C55.9,14.1,57.8,13.5,58.9,14.6z"/>
<g>
	<polyline class="st0" points="87.3,97.2 117.9,85.1 87.3,100.4 87.3,97.2 	"/>
	<polygon class="st1" points="84.8,104.5 84.8,95.5 117,82.8 119,87.4 	"/>
</g>
<g>
	<path class="st0" d="M118.4,221l-30.1,21.3c-0.5,0.4-1.6-0.2-1.6-0.8l1.4-142.7l8.8-35.3l4.2-21.9l0,22.4l17.2,22.7V221z"/>
	<path class="st1" d="M87.9,244.9c-0.6,0-1.2-0.1-1.7-0.4c-1.2-0.6-1.9-1.8-1.9-3l1.4-143l8.9-35.5l4.2-21.8l5,0.5l0,21.6l17.2,22.7
		v136.4l-31.3,23C89.1,245.7,88.5,244.9,87.9,244.9z M90.6,99.1l-1.3,139.5l26.6-18.9V87.5L99,65.4L90.6,99.1z"/>
</g>
<g>
	<polygon class="st0" points="9.4,239.4 2.5,99.9 24.8,60.2 24.8,39.8 101.1,41.6 96.9,63.5 87.8,98.8 87.1,242.7 	"/>
	<path class="st1" d="M89.6,245.3L7,241.8L0,99.3l22.3-39.8V37.3l81.8,1.9l-4.8,24.9l-9,35L89.6,245.3z M11.8,237l72.9,3.1
		l0.7-141.6l9.1-35.6L98.1,44l-70.8-1.6v18.4L5.1,100.5L11.8,237z"/>
</g>
<g>
	<polyline class="st0" points="24.8,60.2 96.1,61.9 95.6,65.4 22.9,63.6 24.8,60.2 	"/>
	<polygon class="st1" points="97.8,67.9 18.6,66 23.4,57.6 98.9,59.5 	"/>
</g>
<g>
	<polyline class="st0" points="4.8,98.7 87.3,97.2 87.3,100.4 2.9,102.1 4.8,98.7 	"/>
	<polygon class="st1" points="2.5,104.2 3.3,96.2 89.9,94.7 89.8,102.8 	"/>
</g>
<g>
	<polygon class="st0" points="87.3,97.2 116.8,85.7 118.4,87.5 87.3,100.4 	"/>
	<polygon class="st1" points="86.7,103.3 84.8,95.5 117.5,82.7 119.2,88.4 	"/>
</g>
<g>
	<polygon class="st0" points="96.1,61.9 100.8,61.9 101.1,64 95.6,65.4 	"/>
	<polygon class="st1" points="92.7,68.7 93.9,59.4 102.9,59.4 104,65.8 	"/>
</g>
</svg>
