<?xml version="1.0" encoding="utf-8"?>
<!-- Generator: Adobe Illustrator 21.0.0, SVG Export Plug-In . SVG Version: 6.00 Build 0)  -->
<svg version="1.1" id="Layer_1" xmlns="http://www.w3.org/2000/svg" xmlns:xlink="http://www.w3.org/1999/xlink" x="0px" y="0px"
	 viewBox="0 0 104.8 82.4" style="enable-background:new 0 0 104.8 82.4;" xml:space="preserve">
<style type="text/css">
	.st0{fill:#E6E6E6;stroke:#333333;stroke-width:5;stroke-miterlimit:10;}
</style>
<path class="st0" d="M94.8,32.3c0-0.4,0-0.8,0-1.2c0-13.5-10.9-24.4-24.4-24.4c-3,0-5.9,0.6-8.6,1.6c-4.3-3.6-9.8-5.8-15.8-5.8
	c-9.3,0-17.3,5.2-21.5,12.8C12.2,16.4,2.5,26.9,2.5,39.6c0,9,4.9,16.8,12.1,21.1c2.3,11,12.1,19.3,23.9,19.3c4,0,7.7-1,11-2.6
	c3.3,1.7,7.1,2.6,11,2.6c8.2,0,15.4-4,19.8-10.2c0.2,0,0.4,0,0.7,0c11.7,0,21.3-9.5,21.3-21.3C102.3,42,99.4,36.2,94.8,32.3z"/>
</svg>
