<?xml version="1.0" encoding="utf-8"?>
<!-- Generator: Adobe Illustrator 21.0.0, SVG Export Plug-In . SVG Version: 6.00 Build 0)  -->
<svg version="1.1" id="Layer_1" xmlns="http://www.w3.org/2000/svg" xmlns:xlink="http://www.w3.org/1999/xlink" x="0px" y="0px"
	 viewBox="0 0 79.3 112" style="enable-background:new 0 0 79.3 112;" xml:space="preserve">
<style type="text/css">
	.st0{fill:#333333;}
	.st1{fill:#333333;stroke:#333333;stroke-width:5;stroke-miterlimit:10;}
	.st2{fill:#E6E6E6;stroke:#333333;stroke-width:5;stroke-miterlimit:10;}
	.st3{fill:#4D4D4D;stroke:#333333;stroke-width:5;stroke-miterlimit:10;}
</style>
<path class="st0" d="M34,22.9c0,0,0.2-17.3-10.2-18.8L31,0c0,0,10.1,5.3,5.9,21.8C36.5,23.5,35.9,21.5,34,22.9z"/>
<path class="st1" d="M7.2,74.5l10,30.3c0,0,20.9,11.5,47-1.6l7.9-28.7C72.1,74.5,38.4,82.2,7.2,74.5z"/>
<path class="st2" d="M68,56.5c0.6-1.1,1-2.3,1-3.5c0-5.1-10.4-11-15.1-12c-8.8-1.8-27.3-1.5-35.8,1.4c-3.6,1.2-10.9,6.4-10.9,10.6
	c0,1.7,0.7,3.3,1.9,4.8c-4.1,2.7-6.5,6-6.5,9.5c0,9.3,16.6,16.8,37.2,16.8c20.5,0,37.2-7.5,37.2-16.8C76.8,63.3,73.5,59.5,68,56.5z"
	/>
<ellipse class="st3" cx="36.2" cy="38" rx="15.8" ry="14.5"/>
</svg>
