<?xml version="1.0" encoding="utf-8"?>
<!-- Generator: Adobe Illustrator 21.0.0, SVG Export Plug-In . SVG Version: 6.00 Build 0)  -->
<svg version="1.1" id="Layer_1" xmlns="http://www.w3.org/2000/svg" xmlns:xlink="http://www.w3.org/1999/xlink" x="0px" y="0px"
	 viewBox="0 0 75 67.1" style="enable-background:new 0 0 75 67.1;" xml:space="preserve">
<style type="text/css">
	.st0{fill:#E6E6E6;stroke:#333333;stroke-width:5;stroke-miterlimit:10;}
</style>
<path class="st0" d="M71.8,23.1c-2.6-6.6-11.4-9.3-20.3-6.6c-1.7-8-7.4-14-14.3-14c-6.9,0-12.6,5.9-14.3,13.8
	c-9.6-1.7-18.4,2.4-20,9.5c-1.4,6.2,3,12.6,10.2,16c-4.3,6.1-5,13.3-1.2,17.9c4.9,5.9,15.3,5.3,23.2-1.3c1.4-1.1,2.5-2.4,3.6-3.7
	c0.4,0.6,0.9,1.3,1.4,1.9c6.6,7.9,16.7,10.4,22.6,5.5c5.3-4.4,5.3-13.4,0.3-20.9C70.4,36.9,74.3,29.3,71.8,23.1z"/>
</svg>
