<?xml version="1.0" encoding="utf-8"?>
<!-- Generator: Adobe Illustrator 21.0.0, SVG Export Plug-In . SVG Version: 6.00 Build 0)  -->
<svg version="1.1" id="Layer_1" xmlns="http://www.w3.org/2000/svg" xmlns:xlink="http://www.w3.org/1999/xlink" x="0px" y="0px"
	 viewBox="0 0 74.4 65.2" style="enable-background:new 0 0 74.4 65.2;" xml:space="preserve">
<style type="text/css">
	.st0{fill:#E6E6E6;stroke:#333333;stroke-width:5;stroke-miterlimit:10;}
</style>
<path class="st0" d="M71.7,23.3c0,0-11.4-9.3-20.3-6.6c-1.7-8-14.3-14-14.3-14S24.5,8.6,22.8,16.6c-9.6-1.7-20,9.5-20,9.5
	s3,12.6,10.2,16C8.6,48.2,11.8,60,11.8,60S27,65.3,35,58.7c1.4-1.1,2.5-2.4,3.6-3.7c0.4,0.6,0.9,1.3,1.4,1.9
	c6.6,7.9,22.6,5.5,22.6,5.5s5.3-13.4,0.3-20.9C70.3,37.1,71.7,23.3,71.7,23.3z"/>
</svg>
