<?xml version="1.0" encoding="utf-8"?>
<!-- Generator: Adobe Illustrator 21.0.0, SVG Export Plug-In . SVG Version: 6.00 Build 0)  -->
<svg version="1.1" id="Layer_1" xmlns="http://www.w3.org/2000/svg" xmlns:xlink="http://www.w3.org/1999/xlink" x="0px" y="0px"
	 viewBox="0 0 140.3 132.1" style="enable-background:new 0 0 140.3 132.1;" xml:space="preserve">
<style type="text/css">
	.st0{fill:#E6E6E6;stroke:#333333;stroke-width:5;stroke-miterlimit:10;}
</style>
<path class="st0" d="M119.7,51.8C119.1,25.1,98.8,3.4,73.3,2.7c-0.8,0-1.6,0-2.3,0c-0.8-0.1-1.6-0.1-2.3-0.1
	c-26-0.7-47.7,20.5-49.2,47.8c-32.8-6.3-9.3,20.3-1.6,28.3c-0.8,16.8-1.1,35.7,1.7,40.5C23.7,126,36.3,92.8,43,96.9
	c6.7,4.1,15.4,32.4,23.7,32.7c0.2,0,0.4,0,0.7,0c0.2,0,0.4,0.1,0.7,0.1c8.3,0.2,18.6-27.5,25.5-31.3c6.9-3.7,17.6,30.2,22.1,23.5
	c3-4.5,3.8-22.6,4-39.1C151.6,48.4,134.7,48.1,119.7,51.8z"/>
</svg>
