<?xml version="1.0" encoding="utf-8"?>
<!-- Generator: Adobe Illustrator 21.0.0, SVG Export Plug-In . SVG Version: 6.00 Build 0)  -->
<svg version="1.1" id="Layer_1" xmlns="http://www.w3.org/2000/svg" xmlns:xlink="http://www.w3.org/1999/xlink" x="0px" y="0px"
	 viewBox="0 0 95.6 108.1" style="enable-background:new 0 0 95.6 108.1;" xml:space="preserve">
<style type="text/css">
	.st0{fill:#333333;stroke:#333333;stroke-width:5;stroke-miterlimit:10;}
	.st1{fill:#E6E6E6;stroke:#333333;stroke-width:5;stroke-miterlimit:10;}
</style>
<path class="st0" d="M22.7,59.8c0,0,15.9,43.1,25.1,45.7c7.6,2.2,25.1-47.8,25.1-47.8L22.7,59.8z"/>
<path class="st1" d="M77,26.1c-3-13.5-15.5-23.6-30.4-23.6c-14.3,0-26.3,9.3-30,22c-8.1,1.7-14.1,7.8-14.1,15c0,2.9,1,5.5,2.6,7.8
	c0,0,0,0.1,0,0.1c0,8.4,11.5,15.3,17.2,15.2c2.3,0,4.4-1,8.6-2.3c18.5,19.8,27.3-11.1,22.5,12.9c-1.4,7.1-3.1,19.7,7,17.8
	c14-2.6,1.7-19.6,3-27.8c2.1,0.8,4.4,1.3,6.9,1.3c8.2,0,15-5.1,16.8-11.8c3.7-2.8,6.1-6.9,6.1-11.3C93.1,33.7,86.1,27.2,77,26.1z"/>
</svg>
