<?xml version="1.0" encoding="utf-8"?>
<!-- Generator: Adobe Illustrator 21.0.0, SVG Export Plug-In . SVG Version: 6.00 Build 0)  -->
<svg version="1.1" id="Layer_1" xmlns="http://www.w3.org/2000/svg" xmlns:xlink="http://www.w3.org/1999/xlink" x="0px" y="0px"
	 viewBox="0 0 102.9 93.8" style="enable-background:new 0 0 102.9 93.8;" xml:space="preserve">
<style type="text/css">
	.st0{fill:#E6E6E6;stroke:#333333;stroke-width:5;stroke-miterlimit:10;}
</style>
<path class="st0" d="M83,51.9C79.7,37.3,67.6,2.5,51.5,2.5C36,2.5,21.7,36.4,17.8,50.1C9,52,2.5,58.5,2.5,66.3
	c0,9.2,9.2,16.7,20.5,16.7c1.5,0,3-0.1,4.4-0.4c6,5.4,14,8.6,22.8,8.6c8.2,0,15.7-2.8,21.6-7.6c2.5,0.9,5.3,1.4,8.2,1.4
	c11.3,0,20.5-7.5,20.5-16.7C100.4,60,92.9,53.1,83,51.9z"/>
</svg>
