<?xml version="1.0" encoding="utf-8"?>
<!-- Generator: Adobe Illustrator 21.0.0, SVG Export Plug-In . SVG Version: 6.00 Build 0)  -->
<svg version="1.1" id="Layer_1" xmlns="http://www.w3.org/2000/svg" xmlns:xlink="http://www.w3.org/1999/xlink" x="0px" y="0px"
	 viewBox="0 0 79.3 65.8" style="enable-background:new 0 0 79.3 65.8;" xml:space="preserve">
<style type="text/css">
	.st0{fill:#E6E6E6;stroke:#333333;stroke-width:5;stroke-miterlimit:10;}
</style>
<path class="st0" d="M68,35.6c0.6-1.1,1-2.3,1-3.5c0-5.1-6.1-9.6-15.1-12c0.2-0.9,0.2-1.8,0.2-2.7c-0.4-7.7-25.9-1.9-25.9-13.9
	c0-4.8-10.9,8.2-10.5,15.9c0,0.7,0.2,1.4,0.3,2.1C11.4,24,7.1,27.8,7.1,32.1c0,1.7,0.7,3.3,1.9,4.8c-4.1,2.7-6.5,6-6.5,9.5
	c0,9.3,16.6,16.8,37.2,16.8c20.5,0,37.2-7.5,37.2-16.8C76.8,42.3,73.5,38.5,68,35.6z"/>
</svg>
