<?xml version="1.0" encoding="utf-8"?>
<!-- Generator: Adobe Illustrator 21.0.0, SVG Export Plug-In . SVG Version: 6.00 Build 0)  -->
<svg version="1.1" id="Layer_1" xmlns="http://www.w3.org/2000/svg" xmlns:xlink="http://www.w3.org/1999/xlink" x="0px" y="0px"
	 viewBox="0 0 115.5 111" style="enable-background:new 0 0 115.5 111;" xml:space="preserve">
<style type="text/css">
	.st0{fill:#E6E6E6;stroke:#333333;stroke-width:5;stroke-miterlimit:10;}
</style>
<path class="st0" d="M113,45.3c0-23.7-24.7-42.8-55.2-42.8C27.2,2.5,2.5,21.7,2.5,45.3c0,16.1,11.5,30.1,28.4,37.4
	c0,0.5,0,0.9,0,1.4c0,13.4,4.1,24.3,9.1,24.3c3.2,0,6-4.4,7.7-11.1c1.6,6.7,4.5,11.1,7.7,11.1s6-4.4,7.7-11.1
	c1.6,6.7,4.5,11.1,7.7,11.1c5,0,9.1-10.7,9.1-23.9C99.3,78,113,62.9,113,45.3z"/>
</svg>
