<?xml version="1.0" encoding="utf-8"?>
<!-- Generator: Adobe Illustrator 21.0.0, SVG Export Plug-In . SVG Version: 6.00 Build 0)  -->
<svg version="1.1" id="Layer_1" xmlns="http://www.w3.org/2000/svg" xmlns:xlink="http://www.w3.org/1999/xlink" x="0px" y="0px"
	 viewBox="0 0 181 72" style="enable-background:new 0 0 181 72;" xml:space="preserve">
<style type="text/css">
	.st0{fill:#E6E6E6;stroke:#333333;stroke-width:5;stroke-miterlimit:10;}
</style>
<path class="st0" d="M125.4,21.3c0,0,9.6-19,23.4-1.5c0,0,21.7-6.6,14.5,9.3c0,0,26.3,5.8,9.8,16.6c0,0,5.1,14.4-10.3,9.8
	L125.4,21.3z"/>
<path class="st0" d="M54.8,21.7c0,0-10.5-18.5-23.5-0.4c0,0-22-5.6-14,9.9c0,0-26,7-9,17c0,0-4.5,14.6,10.8,9.3L54.8,21.7z"/>
<path class="st0" d="M116.9,6.5c-10.5-5.9-44.1-5-54.6,0.9c-12.6,7.1-45,38.6-45,55.1c0,11.6,147.5,7.9,147.5-3.7
	C164.8,42.3,129.5,13.5,116.9,6.5z"/>
</svg>
