<?xml version="1.0" encoding="utf-8"?>
<!-- Generator: Adobe Illustrator 21.0.0, SVG Export Plug-In . SVG Version: 6.00 Build 0)  -->
<svg version="1.1" id="Layer_1" xmlns="http://www.w3.org/2000/svg" xmlns:xlink="http://www.w3.org/1999/xlink" x="0px" y="0px"
	 viewBox="0 0 109.3 99" style="enable-background:new 0 0 109.3 99;" xml:space="preserve">
<style type="text/css">
	.st0{fill:#333333;stroke:#333333;stroke-width:5;stroke-miterlimit:10;}
	.st1{fill:#E6E6E6;stroke:#333333;stroke-width:5;stroke-miterlimit:10;}
</style>
<path class="st0" d="M48.4,65c0,0,1.6,24.7-5.7,31.5h27.8c0,0-15.1-19.6-10.4-31.3c0.1-0.4,0.3-0.7,0.5-1.1
	C66.8,52.8,48.4,65,48.4,65z"/>
<path class="st1" d="M106.8,35.3c0-11.2-11.9-20.3-26.7-20.3c-3,0-5.9,0.4-8.6,1.1c-3.3-8-11.2-13.6-20.3-13.6
	C41.4,2.5,33,9,30.2,18c-2.2-0.8-4.6-1.3-7.1-1.3C11.7,16.8,2.5,26,2.5,37.4c0,9.3,6.2,17.2,14.6,19.7C17,57.6,17,58,17,58.5
	c0,6.6,7.2,12,16.1,12c3.8,0,7.3-1,10.1-2.6c3.8,1.7,8.1,2.6,12.8,2.6c7.9,0,15-2.8,19.6-7.1c2.3,3.3,6.2,5.4,10.5,5.4
	c7.1,0,12.9-5.8,12.9-12.9c0-2-0.5-3.9-1.3-5.6C103.3,46.7,106.8,41.3,106.8,35.3z"/>
</svg>
