<?xml version="1.0" encoding="utf-8"?>
<!-- Generator: Adobe Illustrator 21.0.0, SVG Export Plug-In . SVG Version: 6.00 Build 0)  -->
<svg version="1.1" id="Layer_1" xmlns="http://www.w3.org/2000/svg" xmlns:xlink="http://www.w3.org/1999/xlink" x="0px" y="0px"
	 viewBox="0 0 372.1 227.4" style="enable-background:new 0 0 372.1 227.4;" xml:space="preserve" preserveAspectRatio="none">
<style type="text/css">
	.st0{fill:#192E58;}
	.st1{fill:#FFFFFF;}
	.st2{fill:#1B75BB;}
</style>
<g>
	<path class="st0" d="M340.2,0l-26.9,0.6l0,0l-276,6.8c-20,0.6-24,220.5-4,219.9l19-0.6l0,0l276.5-8C348.8,218.2,360.2-0.6,340.2,0z
		"/>
</g>
<g>
	<polygon class="st0" points="25.3,121.2 1.6,169.2 25.3,212.5 	"/>
</g>
<g>
	<polygon class="st1" points="15.5,130.5 6.8,148.3 15.5,164.3 	"/>
	<polygon class="st2" points="21.5,187.9 0,148.4 21.5,104.7 	"/>
</g>
<g>
	<polygon class="st0" points="348.5,26.8 372.1,74.8 348.5,118.2 	"/>
</g>
<g>
	<polygon class="st1" points="353.2,39.1 362,56.9 353.2,73 	"/>
	<polygon class="st2" points="347.2,96.5 347.2,13.4 368.8,57.1 	"/>
</g>
</svg>
