<?xml version="1.0" encoding="utf-8"?>
<!-- Generator: Adobe Illustrator 21.0.0, SVG Export Plug-In . SVG Version: 6.00 Build 0)  -->
<svg version="1.1" id="Layer_1" xmlns="http://www.w3.org/2000/svg" xmlns:xlink="http://www.w3.org/1999/xlink" x="0px" y="0px"
	 viewBox="0 0 96 98" style="enable-background:new 0 0 96 98;" xml:space="preserve" preserveAspectRatio="none">
<style type="text/css">
	.st0{fill:#FFFFFF;}
	.st1{fill:#8e44ad;}
	.st2{opacity:0.13;}
	.st3{fill:#66CCF1;}
</style>
<g>
	<path class="st0" d="M86.2,6h-4.8l0,0H9.8c-5,0-5.1,86,0,86h4.8l0,0h71.7C91.3,92,91.3,6,86.2,6z"/>
	<path class="st1" d="M86.3,98H9.8c-7.3,0-8-9.2-8.8-18.9c-0.6-7.9-1-18.5-1-29.9C0,37.7,0.3,27,1,19C1.7,9.2,2.4,0,9.8,0h76.5
		c7.3,0,8.1,9.2,8.8,19c0.6,8,1,18.7,1,30.1c0,11.4-0.3,22-1,29.9C94.3,88.8,93.6,98,86.3,98z M13.7,86h68.6c2.3-13.2,2.3-60.8,0-74
		H13.7C11.4,25.2,11.4,72.8,13.7,86z"/>
</g>
<g class="st2">
	<path class="st3" d="M11.4,49.4c0,0,35.1,31.4,73.1,0.6c0,0,0.6,30.4-1.7,36.5H12.9C11.1,78.4,11.4,49.4,11.4,49.4z"/>
</g>
</svg>
