<?xml version="1.0" encoding="utf-8"?>
<!-- Generator: Adobe Illustrator 21.0.0, SVG Export Plug-In . SVG Version: 6.00 Build 0)  -->
<svg version="1.1" id="Layer_1" xmlns="http://www.w3.org/2000/svg" xmlns:xlink="http://www.w3.org/1999/xlink" x="0px" y="0px"
	 viewBox="0 0 150 52.5" style="enable-background:new 0 0 150 52.5;" xml:space="preserve" preserveAspectRatio="none">
<style type="text/css">
	.st0{fill:#192E58;}
	.st1{fill:#61CBEE;}
	.st2{fill:#FFFFFF;}
	.st3{opacity:0.5;fill:#92D7F1;}
	.st4{opacity:0.42;}
</style>
<path class="st0" d="M145.1,0l-12.2,0.1l0,0L7.6,1.1C-1.5,1.2-2.9,52.6,6.1,52.5l8.6-0.1l0,0l125.6-1.3C149.5,51,154.2-0.1,145.1,0z
	"/>
<g>
	<path class="st1" d="M16.4,40.1c-0.7,0-1.9-1.3-2.8-4.8c-0.9-3.3-1.4-7.8-1.4-12.6c0-11.3,2.5-17.5,4.2-17.5h115.4
		c1.7,0,4.2,6.2,4.2,17.5c0,4.8-0.5,9.4-1.4,12.6c-0.9,3.5-2.1,4.8-2.8,4.8H16.4z"/>
	<path class="st2" d="M131.6,6.7c1.1,1,2.9,6.4,2.9,15.9c0,9.6-1.8,15-2.9,16h-108h-7c-1.1-1-2.9-6.4-2.9-16c0-9.6,1.9-15,2.9-15.9
		h108H131.6 M131.8,3.7h-7.2H16.5c-7.6,0-7.6,37.9,0,37.9h7.2h108.2C139.5,41.6,139.4,3.7,131.8,3.7L131.8,3.7z"/>
</g>
<path class="st3" d="M14.3,22.1c0,0,58.4,13.9,120.3-0.1c0,0,0,14.3-3.8,17.1H18C13.1,35,14.3,22.1,14.3,22.1z"/>
<g class="st4">
	<path class="st2" d="M133.3,4.6h-7.3H15.4c-2.1,0,14.3,9,59,8.9C103.2,13.5,135.3,4.6,133.3,4.6z"/>
</g>
</svg>
