<?xml version="1.0" encoding="utf-8"?>
<!-- Generator: Adobe Illustrator 21.0.0, SVG Export Plug-In . SVG Version: 6.00 Build 0)  -->
<svg version="1.1" id="Layer_1" xmlns="http://www.w3.org/2000/svg" xmlns:xlink="http://www.w3.org/1999/xlink" x="0px" y="0px"
	 viewBox="0 0 150 52.5" style="enable-background:new 0 0 150 52.5;" xml:space="preserve" preserveAspectRatio="none">
<style type="text/css">
	.st0{fill:#192E58;}
	.st1{fill:#3FA6DD;}
	.st2{opacity:0.13;fill:#66CCF1;}
	.st3{opacity:0.53;}
	.st4{fill:#B3E1F0;}
</style>
<path class="st0" d="M145.1,0l-12.2,0.1l0,0L7.6,1.1C-1.5,1.2-2.9,52.6,6.1,52.5l8.6-0.1l0,0l125.6-1.3C149.5,51,154.2-0.1,145.1,0z
	"/>
<path class="st1" d="M131.8,3.7h-7.2l0,0H16.5c-7.6,0-7.6,37.9,0,37.9h7.2l0,0h108.2C139.5,41.6,139.4,3.7,131.8,3.7z"/>
<path class="st2" d="M13.5,22.1c0,0,59.1,15.3,121.8-0.1c0,0,0,15.7-3.9,18.7H17.2C12.3,36.2,13.5,22.1,13.5,22.1z"/>
<g class="st3">
	<path class="st4" d="M135.2,4.6h-7.6H13.5c-2.1,0,14.8,9,60.8,8.9C104.2,13.5,137.3,4.6,135.2,4.6z"/>
</g>
</svg>
