<?xml version="1.0" encoding="utf-8"?>
<!-- Generator: Adobe Illustrator 21.0.0, SVG Export Plug-In . SVG Version: 6.00 Build 0)  -->
<svg version="1.1" id="Layer_1" xmlns="http://www.w3.org/2000/svg" xmlns:xlink="http://www.w3.org/1999/xlink" x="0px" y="0px"
	 viewBox="0 0 56.1 56.9" style="enable-background:new 0 0 56.1 56.9;" xml:space="preserve">
<style type="text/css">
	.st0{fill:#4F341E;}
	.st1{fill:#D44B9A;}
</style>
<path class="st0" d="M42.5,21.4c-2.4,0.7,1.2,10.3-14.6,10.3s-12.2-9.6-14.6-10.3C-8,15,1.6,42.4,5.9,48c4.8,6.3,13.7,8.7,22,8.8
	c8.4-0.2,17.3-2.5,22-8.8C54.3,42.4,63.9,15,42.5,21.4z"/>
<path class="st1" d="M28,38.7c-10.7,0-17.8,7.2-14.9,11c3.2,4.2,9.3,5.9,14.9,6c5.7-0.1,11.7-1.7,14.9-6
	C45.8,45.8,38.7,38.7,28,38.7z"/>
<circle class="st0" cx="48.4" cy="7.7" r="7.7"/>
<circle class="st0" cx="8.5" cy="7.7" r="7.7"/>
</svg>
