<?xml version="1.0" encoding="utf-8"?>
<!-- Generator: Adobe Illustrator 21.0.0, SVG Export Plug-In . SVG Version: 6.00 Build 0)  -->
<svg version="1.1" id="Layer_1" xmlns="http://www.w3.org/2000/svg" xmlns:xlink="http://www.w3.org/1999/xlink" x="0px" y="0px"
	 viewBox="0 0 657.4 737.8" style="enable-background:new 0 0 657.4 737.8;" xml:space="preserve">
<style type="text/css">
	.st0{fill:#192E58;}
	.st1{fill:#3FA6DD;}
	.st2{fill:#FFFFFF;}
	.st3{fill:#00ADEE;}
	.st4{opacity:0.92;}
	.st5{fill:#5AC9E8;stroke:#5AC9E8;stroke-width:11;stroke-linecap:round;stroke-linejoin:round;stroke-miterlimit:10;}
	.st6{fill:#5AC9E8;}
</style>
<path class="st0" d="M657.4,243l0-6.3c0-21.2-17.4-20.3-20.7-21.2c-23.8-5.9-51.8-10.9-82.7-15c-3.2-8.3-7.4-16.2-11.9-24
	c-1.4-2.3-1.5-3.8,0.5-6c13-14.4,25.8-28.9,38.5-43.4c6.3-7.2,6.2-12.2-0.2-19.4c-14.3-16.2-31.6-29.9-48.3-44.1
	c-4.8-4.1-9.7-8-14.7-12c-7.2-5.8-13.9-6-21.7-0.8c-17.7,11.5-35.4,23-52.9,34.7c-2.5,1.6-4.2,1.8-7,0.6
	c-9.4-4.2-19.2-7.5-29.2-10.4c-2.3-0.7-3.3-1.5-3.7-3.8c-3.5-20.3-7.1-40.6-10.8-60.8c-1.4-7.4-6.5-11-15.6-11
	c-14.7-0.1-29.3,0-44,0c-14,0-28.1,0-42.1,0c-10,0-14.1,2.8-16.5,11.2c-4.6,16.2-6.8,32.7-9.3,49.1c-0.5,3.5-1.5,7-1.5,10.4
	c0.1,3.5-2.1,4.4-5.3,5.3c-9.9,2.8-19.5,6.2-28.6,10.5c-2.5,1.2-4,0.8-6.1-0.6c-16.8-11.4-33.7-22.8-50.6-34.1
	c-9.4-6.3-13.3-6.5-23-0.5c-16.1,9.9-29.6,22.4-43.3,34.7c-8,7.2-16,14.4-22.8,22.6c-6,7.2-6,11.2,0.5,18.1
	c13.6,14.6,27.2,29.2,39.9,44.5c1.6,2,1.9,3.4,0.5,5.7c-4.4,7-8.2,14.3-11.1,21.8c-34.9,4.4-66.5,10-92.8,16.8
	C13.7,217.4,0,225,0,236.7l0,480c0,11.7,9.3,21.2,20.7,21.2h616c11.4,0,20.7-9.5,20.7-21.1l0-245L657.4,243
	C657.4,243,657.4,243,657.4,243z M335.4,178.4c15.5,0.3,30.2,3.6,43.4,9.2c-29.7-0.7-59.7-0.9-89.5-0.4
	C303.3,181.3,319.1,178.1,335.4,178.4z"/>
<g>
	<g>
		<path class="st1" d="M641.2,301.4c0-18.7,0-37.4,0-56.1c0-9.7-3.5-13.4-14.6-14.9c-22.1-3-44.3-5.9-66.4-8.8
			c-2.7-0.3-4.4-1.2-5.3-3.6c-3.3-9.7-8.1-18.9-13.4-27.9c-1.4-2.3-1.5-3.8,0.5-6c13-14.4,25.8-28.9,38.5-43.4
			c6.3-7.2,6.2-12.2-0.2-19.4c-14.3-16.2-31.6-29.9-48.3-44.1c-4.8-4.1-9.7-8-14.7-12c-7.2-5.8-13.9-6-21.7-0.8
			c-17.7,11.5-35.4,23-52.9,34.7c-2.5,1.6-4.2,1.8-7,0.6c-9.4-4.2-19.2-7.5-29.2-10.4c-2.3-0.7-3.3-1.5-3.7-3.8
			c-3.5-20.3-7.1-40.6-10.8-60.8c-1.4-7.4-6.5-11-15.6-11c-14.7-0.1-29.3,0-44,0c-14,0-28.1,0-42.1,0c-10,0-14.1,2.8-16.5,11.2
			c-4.6,16.2-6.8,32.7-9.3,49.1c-0.5,3.5-1.5,7-1.5,10.4c0.1,3.5-2.1,4.4-5.3,5.3c-9.9,2.8-19.5,6.2-28.6,10.5
			c-2.5,1.2-4,0.8-6.1-0.6c-16.8-11.4-33.7-22.8-50.6-34.1c-9.4-6.3-13.3-6.5-23-0.5c-16.1,9.9-29.6,22.4-43.3,34.7
			c-8,7.2-16,14.4-22.8,22.6c-6,7.2-6,11.2,0.5,18.1c13.6,14.6,27.2,29.2,39.9,44.5c1.6,2,1.9,3.4,0.5,5.7
			c-5.2,8.3-9.6,16.9-12.7,26c-0.9,2.6-2.5,3.3-5.6,3.7c-23.1,2.8-46.2,5.9-69.2,9c-6.6,0.9-11.9,6.1-12,12.3
			c-0.1,26.1-0.2,52.3,0,78.4c0,6.5,5.5,11.2,13.1,12.2c21.9,2.8,43.7,5.6,65.6,8.2c4.5,0.5,7,1.7,8.3,5.8
			c2.9,9.4,7.6,18.2,12.9,26.7c1.3,2,1.1,3.5-0.6,5.4C111.7,392,99.3,405.9,87,419.9c-8.4,9.6-8.5,13.8,0.2,23.3
			c13.4,14.6,28.9,27.3,44.5,40c5.6,4.5,11.2,9,16.8,13.5c8,6.4,14.3,6.6,22.8,1c17.4-11.5,34.7-22.9,52-34.4
			c2.4-1.6,4.1-1.9,6.9-0.6c8.8,4,18,7.3,27.5,9.9c3.8,1,5.3,2.6,5.9,6.1c3.2,20.1,6.8,40.1,10.4,60.1c1,5.4,5.7,9.1,12.1,9.7
			c2,0.2,4,0.3,6.1,0.3c27.6,0,55.3,0,82.9,0c11.4,0,15.3-2.8,17.7-12.4c4.9-19.3,7.6-38.9,10.2-58.4c0.3-2.6,1.2-4.1,4.3-5
			c10.2-2.7,20.1-6.4,29.6-10.7c2.4-1.1,4-0.9,6.2,0.6c16.5,11.4,33.1,22.5,49.7,33.8c9.5,6.5,14.3,6.8,24.2,0.6
			c16.8-10.5,30.8-23.6,45.1-36.5c7.5-6.7,14.7-13.6,21.2-21.1c4.9-5.7,5.2-11,0.1-16.6c-12.2-13.5-24.5-27-36.8-40.5
			c-5.2-5.7-6.2-10.2-1.8-16.6c4.3-6.3,6.8-13.5,9.9-20.4c0.8-1.8,1.7-2.8,4.1-3.1c17.9-2.3,35.7-4.7,53.5-7.1
			c5.7-0.8,11.4-1.4,17-2.3c6.9-1.1,11.5-5.6,11.8-11.8C641.4,314.7,641.2,308,641.2,301.4z M331.2,370.5
			c-54.3-0.8-102.1-40.9-100.9-89.5c-1.2-49,48.3-90.3,104.5-89.1c55.7,1.2,100.8,40.4,101.1,89.4
			C436.2,330.4,388,371.3,331.2,370.5z"/>
	</g>
</g>
<g>
	<g>
		<path class="st2" d="M641.8,311.6c0-18.7,0-37.4,0-56.1c0-9.7-3.5-13.4-14.6-14.9c-22.1-3-44.3-5.9-66.4-8.8
			c-2.7-0.3-4.4-1.2-5.3-3.6c-3.3-9.7-8.1-18.9-13.4-27.9c-1.4-2.3-1.5-3.8,0.5-6c13-14.4,25.8-28.9,38.5-43.4
			c6.3-7.2,6.2-12.2-0.2-19.4c-14.3-16.2-31.6-29.9-48.3-44.1c-4.8-4.1-9.7-8-14.7-12c-7.2-5.8-13.9-6-21.7-0.8
			c-17.7,11.5-35.4,23-52.9,34.7c-2.5,1.6-4.2,1.8-7,0.6c-9.4-4.2-19.2-7.5-29.2-10.4c-2.3-0.7-3.3-1.5-3.7-3.8
			c-3.5-20.3-7.1-40.6-10.8-60.8c-1.4-7.4-6.5-11-15.6-11c-14.7-0.1-29.3,0-44,0c-14,0-28.1,0-42.1,0c-10,0-14.1,2.8-16.5,11.2
			c-4.6,16.2-6.8,32.7-9.3,49.1c-0.5,3.5-1.5,7-1.5,10.4c0.1,3.5-2.1,4.4-5.3,5.3c-9.9,2.8-19.5,6.2-28.6,10.5
			c-2.5,1.2-4,0.8-6.1-0.6c-16.8-11.4-33.7-22.8-50.6-34.1c-9.4-6.3-13.3-6.5-23-0.5c-16.1,9.9-29.6,22.4-43.3,34.7
			c-8,7.2-16,14.4-22.8,22.6c-6,7.2-6,11.2,0.5,18.1c13.6,14.6,27.2,29.2,39.9,44.5c1.6,2,1.9,3.4,0.5,5.7
			c-5.2,8.3-9.6,16.9-12.7,26c-0.9,2.6-2.5,3.3-5.6,3.7c-23.1,2.8-46.2,5.9-69.2,9c-6.6,0.9-11.9,6.1-12,12.3
			c-0.1,26.1-0.2,52.3,0,78.4c0,6.5,5.5,11.2,13.1,12.2c21.9,2.8,43.7,5.6,65.6,8.2c4.5,0.5,7,1.7,8.3,5.8
			c2.9,9.4,7.6,18.2,12.9,26.7c1.3,2,1.1,3.5-0.6,5.4c-12.5,13.9-24.8,27.8-37.1,41.8c-8.4,9.6-8.5,13.8,0.2,23.3
			c13.4,14.6,28.9,27.3,44.5,40c5.6,4.5,11.2,9,16.8,13.5c8,6.4,14.3,6.6,22.8,1c17.4-11.5,34.7-22.9,52-34.4
			c2.4-1.6,4.1-1.9,6.9-0.6c8.8,4,18,7.3,27.5,9.9c3.8,1,5.3,2.6,5.9,6.1c3.2,20.1,6.8,40.1,10.4,60.1c1,5.4,5.7,9.1,12.1,9.7
			c2,0.2,4,0.3,6.1,0.3c27.6,0,55.3,0,82.9,0c11.4,0,15.3-2.8,17.7-12.4c4.9-19.3,7.6-38.9,10.2-58.4c0.3-2.6,1.2-4.1,4.3-5
			c10.2-2.7,20.1-6.4,29.6-10.7c2.4-1.1,4-0.9,6.2,0.6c16.5,11.4,33.1,22.5,49.7,33.8c9.5,6.5,14.3,6.8,24.2,0.6
			c16.8-10.5,30.8-23.6,45.1-36.5c7.5-6.7,14.7-13.6,21.2-21.1c4.9-5.7,5.2-11,0.1-16.6c-12.2-13.5-24.5-27-36.8-40.5
			c-5.2-5.7-6.2-10.2-1.8-16.6c4.3-6.3,6.8-13.5,9.9-20.4c0.8-1.8,1.7-2.8,4.1-3.1c17.9-2.3,35.7-4.7,53.5-7.1
			c5.7-0.8,11.4-1.4,17-2.3c6.9-1.1,11.5-5.6,11.8-11.8C641.9,324.9,641.8,318.2,641.8,311.6z M331.8,380.7
			c-54.3-0.8-102.1-40.9-100.9-89.5c-1.2-49,48.3-90.3,104.5-89.1c55.7,1.2,100.8,40.4,101.1,89.4
			C436.8,340.6,388.6,381.5,331.8,380.7z"/>
		<path class="st3" d="M340.4,561.4c-15.9,0-31.8,0-47.7,0c-2.6,0-4.5-0.1-6.3-0.3c-7.5-0.8-13.1-5.4-14.3-11.8
			c-3.3-18.5-7-39.4-10.4-60.1c-0.4-2.3-1-3.2-4.1-4.1c-9.7-2.6-19-6-27.8-10c-2-0.9-2.8-0.7-4.5,0.4c-13.6,9.1-27.6,18.3-41,27.1
			l-11,7.3c-9.4,6.2-16.9,5.9-25.7-1.1c-4.6-3.7-10.7-8.5-16.9-13.5c-17.4-14.2-31.8-26.2-44.7-40.3c-9.5-10.4-9.6-16.1-0.3-26.7
			c11.8-13.4,24.4-27.7,37.1-41.8c1.1-1.2,1-1.4,0.3-2.4c-6.4-10.1-10.6-18.7-13.2-27.3c-0.9-2.8-2.1-3.6-6.2-4.1
			c-19.2-2.2-38.7-4.7-57.5-7.1l-8.1-1c-9.1-1.2-15.3-7.1-15.3-14.7c-0.2-25-0.2-50.7,0-78.5c0-7.3,6.1-13.7,14.1-14.8
			c22.2-3,45.8-6.1,69.3-9c2.8-0.3,3.1-0.8,3.5-2c2.9-8.5,7.1-17.2,12.9-26.5c0.8-1.3,0.8-1.5-0.2-2.8
			c-12.9-15.5-26.6-30.2-39.8-44.4c-7.3-7.8-7.5-13.2-0.6-21.4c6.9-8.3,14.9-15.5,23.1-22.8c1.4-1.2,2.8-2.5,4.2-3.7
			C121.4,93.3,134,82,148.7,73c10.4-6.4,15.4-6.3,25.7,0.6c18,12.1,34.6,23.2,50.6,34.1c1.5,1,2.2,1.1,3.6,0.4
			c8.7-4.1,18.2-7.6,29-10.7c3.3-0.9,3.5-1.4,3.5-2.9c0-2.6,0.5-5.2,0.9-7.7c0.2-1.1,0.4-2.1,0.6-3.2c0.3-1.8,0.5-3.6,0.8-5.4
			c2.2-14.5,4.4-29.5,8.5-44c2.7-9.4,7.8-13,18.9-13c10,0,19.9,0,29.9,0l12.3,0c4.4,0,8.7,0,13.1,0c10.1,0,20.6,0,30.9,0
			c10.4,0.1,16.5,4.4,18.1,13.1c4.4,23.8,7.8,43.1,10.8,60.9c0.2,1,0.2,1.3,2,1.8c11.9,3.4,21.2,6.8,29.5,10.6
			c1.9,0.9,2.8,0.8,4.6-0.4c14-9.3,28.3-18.6,42.1-27.6l10.9-7.1c8.8-5.7,16.6-5.4,24.7,1c4.1,3.3,9.4,7.6,14.7,12
			c2.3,1.9,4.6,3.9,6.9,5.8c14.4,12,29.2,24.5,41.7,38.6c7.3,8.2,7.3,14.5,0.2,22.7c-10.5,11.9-24.3,27.7-38.5,43.4
			c-1.1,1.2-1.1,1.5-0.2,3.1c6.3,10.7,10.6,19.7,13.6,28.4c0.4,1.1,0.9,1.7,3.2,2l4.5,0.6c20.3,2.7,41.3,5.4,62,8.2
			c12.2,1.7,16.7,6.4,16.8,17.4c0,16.9,0,33.9,0,50.8l0,5.3c0,1.7,0,3.4,0,5c0,4.9,0,10-0.2,15c-0.3,7.3-5.7,12.9-13.9,14.1
			c-4.1,0.6-8.2,1.2-12.2,1.7c-1.6,0.2-3.2,0.4-4.9,0.6l-12,1.6c-13.6,1.8-27.7,3.7-41.5,5.5c-1.4,0.2-1.6,0.5-2.1,1.6
			c-0.7,1.7-1.4,3.3-2.2,5c-2.2,5.3-4.6,10.8-7.9,15.8c-3.5,5.2-3.1,8.3,1.6,13.6l10.6,11.6c8.7,9.6,17.5,19.2,26.2,28.8
			c5.8,6.4,5.8,13.1-0.1,19.9c-7.2,8.3-15.2,15.8-21.4,21.3l-3.9,3.5c-12.8,11.6-26.1,23.6-41.6,33.2c-10.7,6.6-16.4,6.5-26.9-0.6
			c-6.5-4.4-12.9-8.8-19.4-13.2c-9.9-6.7-20.2-13.7-30.2-20.6c-1.5-1-2.2-1.1-3.8-0.4c-10.4,4.7-20.2,8.2-30,10.8
			c-1.9,0.5-2.2,1.1-2.5,2.9c-2.6,19.9-5.4,39.4-10.3,58.7c-2.7,10.8-7.6,14.2-20.2,14.2C363.9,561.4,352.2,561.4,340.4,561.4z
			 M227.8,469.7c1.2,0,2.6,0.3,4.1,1c8.6,3.9,17.7,7.2,27.1,9.7c4.7,1.3,7,3.6,7.7,8.1c3.3,20.6,7.1,41.6,10.4,60
			c0.7,4.2,4.5,7.1,9.9,7.7c1.6,0.2,3.4,0.2,5.8,0.2c27.6,0,55.3,0,82.9,0c10.9,0,13.3-2.6,15.3-10.5c4.8-19,7.6-38.4,10.2-58.2
			c0.4-2.8,1.4-5.8,6.1-7c9.5-2.6,19.1-6,29.2-10.6c3.2-1.4,5.7-1.2,8.6,0.8c10,6.9,20.3,13.9,30.2,20.6c6.5,4.4,13,8.8,19.4,13.2
			c8.8,6,12.6,6.1,21.5,0.5c15.1-9.4,28.2-21.2,40.9-32.7l3.9-3.5c6.1-5.5,14-12.8,21-20.9c4.2-4.9,4.3-8.8,0.2-13.3
			c-8.7-9.6-17.4-19.2-26.2-28.8l-10.6-11.6c-6.3-6.9-6.9-12.6-2.1-19.7c3.1-4.6,5.2-9.6,7.5-14.9c0.7-1.7,1.4-3.4,2.2-5.1
			c1.1-2.4,2.5-4.1,6-4.5c13.8-1.8,27.9-3.6,41.5-5.5l12-1.6c1.6-0.2,3.3-0.4,4.9-0.6c4-0.5,8.1-1,12.1-1.7c5.8-0.9,9.5-4.4,9.7-9.4
			c0.2-4.9,0.2-9.9,0.2-14.8c0-1.7,0-3.4,0-5.1l0-5.3c0-16.9,0-33.9,0-50.8c0-8.5-2.7-11.1-12.4-12.5c-20.6-2.8-41.6-5.6-62-8.2
			l-4.5-0.6c-2.7-0.4-5.9-1.3-7.3-5.3c-2.9-8.4-7.1-17.1-13.2-27.5c-1.4-2.4-2.4-5.4,0.8-9c14.2-15.7,28-31.4,38.5-43.4
			c5.4-6.2,5.4-9.8-0.1-16.1c-12.3-13.8-27-26.1-41.2-38c-2.3-1.9-4.6-3.9-6.9-5.8c-5.2-4.4-10.6-8.7-14.6-11.9
			c-6.4-5.1-11.8-5.3-18.8-0.7l-10.9,7.1c-13.8,9-28.1,18.3-42.1,27.6c-3.2,2.1-5.9,2.4-9.4,0.8c-8.1-3.7-17.3-6.9-28.9-10.3
			c-2.5-0.7-4.8-1.9-5.5-5.8c-3-17.7-6.5-37-10.8-60.8c-0.8-4.1-2.9-8.9-13.2-9c-10.3-0.1-20.8,0-30.9,0c-4.4,0-8.7,0-13.1,0
			l-12.3,0c-9.9,0-19.9,0-29.8,0c-8.9,0-12.1,2.1-14.1,9.4c-4,14.2-6.2,29.1-8.4,43.4c-0.3,1.8-0.5,3.6-0.8,5.4
			c-0.2,1.1-0.4,2.3-0.6,3.4c-0.5,2.3-0.9,4.5-0.9,6.6c0.1,5.7-4.4,7-7.1,7.8c-10.5,3-19.8,6.4-28.3,10.4c-3.8,1.8-6.4,0.7-8.6-0.8
			c-16-10.9-32.5-22-50.6-34.1c-8.6-5.8-11.5-5.8-20.3-0.5c-14.3,8.8-26.7,19.9-38.7,30.7c-1.4,1.2-2.8,2.5-4.2,3.7
			c-8.1,7.2-15.9,14.3-22.6,22.3c-5.3,6.3-5.2,8.8,0.4,14.8c13.3,14.3,27.1,29,40,44.6c2.4,2.9,2.6,5.5,0.7,8.6
			c-5.6,9-9.7,17.3-12.4,25.5c-1.5,4.3-4.7,5-7.6,5.4c-23.5,2.9-47.1,6-69.2,9c-5.5,0.7-9.8,5.1-9.8,9.8c-0.2,27.8-0.1,53.4,0,78.4
			c0,5.1,4.3,8.9,10.9,9.7l8.1,1c18.8,2.4,38.3,4.9,57.5,7.1c5,0.6,8.7,2.1,10.4,7.6c2.5,8.1,6.5,16.5,12.7,26.1
			c1.9,3,1.6,5.6-0.9,8.4c-12.7,14.1-25.3,28.4-37.1,41.8c-7.6,8.7-7.6,11.5,0.2,20c12.7,13.8,26.9,25.7,44.2,39.8
			c6.1,5,12.2,9.8,16.8,13.5c7.2,5.7,12.2,5.9,19.9,0.9l11-7.3c13.5-8.9,27.4-18,41-27.1C224.2,470.4,225.9,469.7,227.8,469.7z
			 M333.4,383.3c-0.6,0-1.1,0-1.7,0c-30.3-0.4-59.2-12.6-79.2-33.5c-16-16.7-24.6-37.5-24.1-58.5c-0.5-21.5,8.5-42.6,25.4-59.5
			c20.7-20.8,51.2-32.8,81.7-32.1c27.6,0.6,53.5,10.3,72.9,27.4c19.6,17.2,30.5,40.2,30.6,64.5c0.1,21.8-9.2,43.1-26.1,60
			C392.5,371.7,363.6,383.3,333.4,383.3z M331.8,378.2c29.4,0.4,57.7-10.6,77.5-30.3c16-15.9,24.8-35.9,24.6-56.4
			c-0.3-47.6-43.6-85.8-98.6-86.9c-29.1-0.6-58.3,10.8-78.1,30.6c-15.9,15.9-24.4,35.8-23.9,55.9l0,0.1l0,0.1
			c-0.5,19.8,7.6,39.3,22.7,55C275.3,366.2,302.9,377.8,331.8,378.2z"/>
	</g>
</g>
<g class="st4">
	<path class="st1" d="M617,704.6H49.4c-10.5,0-19.1-8.5-19.1-19.1l0-433c0-10.5,8.5-19.1,19.1-19.1c0,0,143.1-25.1,281.5-24.9
		c90.4,0.2,286.1,24.9,286.1,24.9c10.5,0,19.1,8.5,19.1,19.1l0,433C636,696,627.5,704.6,617,704.6z"/>
</g>
<path class="st1" d="M624.2,225.9c-71.9-17.5-184.5-26.6-296.7-26.6c-109.9,0-219.3,8.7-289.6,26.6c-6.8,1.7-19.7,8.8-19.7,19.7
	l0,2.8c-0.7,1.6-1.1,3.4-1.1,5.2l0,435.4c0,2.5,0.5,4.9,1.4,7.1c1.6,9.3,9.6,16.5,19.4,16.5h586.2c10.9,0,19.7-8.8,19.7-19.7
	l0-447.3C643.9,225.9,627.4,226.7,624.2,225.9z M32.2,692.1l0-439.7c1.9-1.8,5.5-3.8,8-4.4c65.3-16.2,169.6-25.5,286.2-25.5h0
	c116.4,0,226.1,9.5,293.4,25.5c1.2,0.3,2.3,0.4,3.3,0.5c1.4,0.2,3.8,0.4,4.8,1.1c0.4,0.3,0.8,1.7,0.8,3.9l0,435.4
	c0,2.9-2.6,5.2-5.7,5.2H36.8c-2.2,0-3.5-1-4.2-1.7C32.5,692.4,32.4,692.3,32.2,692.1z"/>
<g>
	<path class="st5" d="M205.2,122.6l-2.9,20.9c-1-0.3-2-0.4-3-0.5c-1-0.1-2-0.1-3-0.1c-2.6,0-5,0.3-7.3,1c-2.3,0.6-4.4,1.6-6.1,2.9
		c-1.8,1.3-3.2,3-4.3,4.9c-1.1,2-1.6,4.3-1.6,7c0,1.7,0.3,3.2,0.9,4.5c0.6,1.3,1.4,2.3,2.4,3.1c1,0.8,2.3,1.4,3.7,1.8
		c1.4,0.4,3,0.6,4.7,0.6c1.3,0,2.6-0.1,4-0.4c1.4-0.3,2.8-0.6,4.1-1c1.3-0.4,2.7-0.9,3.9-1.5c1.3-0.6,2.5-1.1,3.5-1.7l-2.1,23.2
		c-1.3,0.7-2.8,1.2-4.4,1.8c-1.6,0.5-3.2,1-4.9,1.3c-1.7,0.4-3.3,0.7-5,0.9c-1.7,0.2-3.3,0.3-4.8,0.3c-4.4,0-8.5-0.8-12.3-2.3
		c-3.8-1.5-7.1-3.7-9.9-6.4c-2.8-2.7-5-5.9-6.6-9.6c-1.6-3.7-2.4-7.6-2.4-11.9c0-5.6,0.8-11,2.5-16s4.2-9.4,7.5-13.1
		c3.3-3.8,7.4-6.7,12.2-8.9c4.9-2.2,10.5-3.3,16.8-3.3c2.4,0,4.8,0.2,7.3,0.5C200.8,121,203.1,121.6,205.2,122.6z"/>
	<path class="st5" d="M272,157.3c0,3-0.4,5.9-1.1,8.7c-0.7,2.8-1.8,5.4-3.1,7.8c-1.4,2.4-3,4.7-5,6.7c-2,2-4.2,3.8-6.6,5.2
		c-2.4,1.5-5.1,2.6-8,3.4c-2.9,0.8-5.9,1.2-9.1,1.2c-3.1,0-6.1-0.4-8.9-1.1c-2.8-0.8-5.5-1.8-7.9-3.2c-2.5-1.4-4.7-3-6.7-4.9
		c-2-1.9-3.7-4.1-5.1-6.4c-1.4-2.4-2.5-4.9-3.3-7.6c-0.8-2.7-1.2-5.5-1.2-8.5c0-2.9,0.4-5.7,1.1-8.4c0.7-2.8,1.8-5.4,3.1-7.8
		c1.4-2.4,3-4.7,5-6.7c1.9-2,4.1-3.8,6.5-5.3c2.4-1.5,5-2.6,7.8-3.5c2.8-0.8,5.8-1.2,8.9-1.2c5,0,9.6,0.7,13.7,2.2
		c4.1,1.5,7.7,3.6,10.6,6.4c2.9,2.8,5.2,6.1,6.8,10S272,152.4,272,157.3z M249,158.5c0-1.4-0.2-2.8-0.6-4.1
		c-0.4-1.3-1.1-2.5-1.9-3.6c-0.8-1-1.9-1.9-3.1-2.5s-2.6-1-4.2-1c-1.6,0-3.1,0.3-4.4,0.8c-1.3,0.6-2.4,1.3-3.3,2.3
		c-0.9,1-1.6,2.1-2.1,3.4c-0.5,1.3-0.7,2.7-0.7,4.1c0,1.4,0.2,2.8,0.6,4.2c0.4,1.4,1,2.6,1.9,3.8c0.8,1.1,1.9,2,3.1,2.7
		c1.2,0.7,2.7,1,4.3,1c1.6,0,3.1-0.3,4.4-0.9c1.3-0.6,2.4-1.4,3.3-2.5s1.6-2.2,2.1-3.6C248.7,161.4,249,160,249,158.5z"/>
	<path class="st5" d="M346.2,121.2l-3.7,67.1l-27.2,2.4l-14.5-35.9l-2.3,36.6h-23.3l1.9-70.1l25.9-1.2l17.9,35.6l0.8-33.6
		L346.2,121.2z"/>
	<path class="st5" d="M399.5,120.9c-0.2,3.1-0.4,6.2-0.6,9.2c-0.2,3-0.4,6.1-0.7,9.2l-22,1.1v6.2h19.1l-1,15.3l-18.2,0.5l0.1,29.3
		l-26.2,0.5l1.7-71.3H399.5z"/>
	<path class="st5" d="M430.1,122.5l-5.7,67.4l-21.9,1.1v-67.1L430.1,122.5z"/>
	<path class="st5" d="M495.8,182.1c-1.6,1.9-3.6,3.6-6,5.1c-2.4,1.5-4.9,2.7-7.7,3.6c-2.7,1-5.5,1.7-8.4,2.2s-5.6,0.7-8.2,0.7
		c-5,0-9.6-0.9-13.9-2.6c-4.2-1.7-7.9-4.1-10.9-7.1s-5.5-6.6-7.2-10.7c-1.7-4.1-2.6-8.5-2.6-13.2c0-3.6,0.4-7.1,1.3-10.6
		c0.9-3.4,2.1-6.7,3.7-9.7c1.6-3,3.6-5.9,5.9-8.4c2.3-2.6,4.9-4.8,7.9-6.6c2.9-1.8,6.2-3.3,9.6-4.3c3.5-1,7.2-1.5,11.2-1.5
		c1.5,0,3.1,0.1,4.8,0.2c1.7,0.1,3.4,0.3,5.1,0.6c1.7,0.3,3.3,0.7,4.9,1.2c1.6,0.5,3,1.1,4.4,1.8l-1.5,18.9c-1.9-0.7-3.9-1.2-6-1.4
		c-2.1-0.2-4.1-0.4-6-0.4c-2.8,0-5.4,0.4-7.8,1.2c-2.4,0.8-4.5,2-6.3,3.5c-1.8,1.5-3.2,3.4-4.2,5.5c-1,2.2-1.6,4.6-1.6,7.4
		c0,1.7,0.2,3.4,0.7,5s1.2,3,2.2,4.3c1,1.2,2.2,2.2,3.7,3c1.5,0.8,3.2,1.1,5.1,1.1c1.3,0,2.7-0.2,4.1-0.5c1.4-0.3,2.6-0.9,3.6-1.7
		l0.2-3.9l-12.4-0.2l0.6-14.8c5.2-0.2,10.3-0.3,15.5-0.4c5.2-0.1,10.3-0.3,15.6-0.5L495.8,182.1z"/>
</g>
<g>
	<path class="st0" d="M205.2,117.1l-2.9,21.9c-1-0.3-2-0.5-3-0.6c-1-0.1-2-0.2-3-0.2c-2.6,0-5,0.3-7.3,1c-2.3,0.7-4.4,1.7-6.1,3.1
		c-1.8,1.4-3.2,3.1-4.3,5.2c-1.1,2.1-1.6,4.5-1.6,7.3c0,1.8,0.3,3.4,0.9,4.7c0.6,1.3,1.4,2.4,2.4,3.3c1,0.9,2.3,1.5,3.7,1.9
		c1.4,0.4,3,0.6,4.7,0.6c1.3,0,2.6-0.1,4-0.4c1.4-0.3,2.8-0.6,4.1-1.1c1.3-0.4,2.7-1,3.9-1.6c1.3-0.6,2.5-1.2,3.5-1.8l-2.1,24.4
		c-1.3,0.7-2.8,1.3-4.4,1.8c-1.6,0.5-3.2,1-4.9,1.4c-1.7,0.4-3.3,0.7-5,0.9c-1.7,0.2-3.3,0.3-4.8,0.3c-4.4,0-8.5-0.8-12.3-2.4
		c-3.8-1.6-7.1-3.9-9.9-6.7c-2.8-2.8-5-6.2-6.6-10c-1.6-3.9-2.4-8-2.4-12.5c0-5.9,0.8-11.5,2.5-16.7s4.2-9.8,7.5-13.8
		c3.3-3.9,7.4-7.1,12.2-9.3c4.9-2.3,10.5-3.4,16.8-3.4c2.4,0,4.8,0.2,7.3,0.6C200.8,115.4,203.1,116.1,205.2,117.1z"/>
	<path class="st0" d="M272,153.4c0,3.1-0.4,6.2-1.1,9.1c-0.7,2.9-1.8,5.7-3.1,8.2c-1.4,2.6-3,4.9-5,7c-2,2.1-4.2,4-6.6,5.5
		c-2.4,1.5-5.1,2.7-8,3.6c-2.9,0.8-5.9,1.3-9.1,1.3c-3.1,0-6.1-0.4-8.9-1.2c-2.8-0.8-5.5-1.9-7.9-3.3c-2.5-1.4-4.7-3.2-6.7-5.2
		c-2-2-3.7-4.3-5.1-6.7c-1.4-2.5-2.5-5.1-3.3-8c-0.8-2.8-1.2-5.8-1.2-8.9c0-3,0.4-6,1.1-8.8c0.7-2.9,1.8-5.6,3.1-8.2
		c1.4-2.6,3-4.9,5-7.1c1.9-2.1,4.1-4,6.5-5.6c2.4-1.6,5-2.8,7.8-3.6c2.8-0.9,5.8-1.3,8.9-1.3c5,0,9.6,0.8,13.7,2.3
		c4.1,1.6,7.7,3.8,10.6,6.7c2.9,2.9,5.2,6.4,6.8,10.5S272,148.4,272,153.4z M249,154.8c0-1.5-0.2-2.9-0.6-4.3
		c-0.4-1.4-1.1-2.6-1.9-3.7s-1.9-2-3.1-2.6c-1.2-0.7-2.6-1-4.2-1c-1.6,0-3.1,0.3-4.4,0.9c-1.3,0.6-2.4,1.4-3.3,2.4
		c-0.9,1-1.6,2.2-2.1,3.6c-0.5,1.4-0.7,2.8-0.7,4.3c0,1.5,0.2,2.9,0.6,4.4c0.4,1.5,1,2.8,1.9,3.9c0.8,1.2,1.9,2.1,3.1,2.9
		s2.7,1.1,4.3,1.1c1.6,0,3.1-0.3,4.4-1c1.3-0.6,2.4-1.5,3.3-2.6c0.9-1.1,1.6-2.3,2.1-3.8C248.7,157.8,249,156.3,249,154.8z"/>
	<path class="st0" d="M346.2,115.7l-3.7,70.3l-27.2,2.5l-14.5-37.7l-2.3,38.4h-23.3l1.9-73.6l25.9-1.2l17.9,37.3l0.8-35.3
		L346.2,115.7z"/>
	<path class="st0" d="M399.5,115.2c-0.2,3.3-0.4,6.5-0.6,9.6c-0.2,3.2-0.4,6.4-0.7,9.6l-22,1.1v6.5h19.1l-1,16.1l-18.2,0.5l0.1,30.7
		L350,190l1.7-74.8H399.5z"/>
	<path class="st0" d="M430.2,117l-5.7,70.7l-21.9,1.1v-70.3L430.2,117z"/>
	<path class="st0" d="M495.8,179.5c-1.6,2-3.6,3.8-6,5.3c-2.4,1.5-4.9,2.8-7.7,3.8c-2.7,1-5.5,1.8-8.4,2.3c-2.9,0.5-5.6,0.8-8.2,0.8
		c-5,0-9.6-0.9-13.9-2.7c-4.2-1.8-7.9-4.3-10.9-7.4c-3.1-3.2-5.5-6.9-7.2-11.2c-1.7-4.3-2.6-8.9-2.6-13.9c0-3.8,0.4-7.5,1.3-11.1
		c0.9-3.6,2.1-7,3.7-10.2c1.6-3.2,3.6-6.1,5.9-8.8c2.3-2.7,4.9-5,7.9-6.9c2.9-1.9,6.2-3.4,9.6-4.5c3.5-1.1,7.2-1.6,11.2-1.6
		c1.5,0,3.1,0.1,4.8,0.2c1.7,0.1,3.4,0.3,5.1,0.6c1.7,0.3,3.3,0.7,4.9,1.2c1.6,0.5,3,1.2,4.4,1.9l-1.5,19.8c-1.9-0.7-3.9-1.2-6-1.5
		s-4.1-0.4-6-0.4c-2.8,0-5.4,0.4-7.8,1.3c-2.4,0.8-4.5,2.1-6.3,3.7c-1.8,1.6-3.2,3.5-4.2,5.8c-1,2.3-1.6,4.9-1.6,7.7
		c0,1.8,0.2,3.5,0.7,5.2c0.5,1.7,1.2,3.2,2.2,4.5s2.2,2.3,3.7,3.1c1.5,0.8,3.2,1.2,5.1,1.2c1.3,0,2.7-0.2,4.1-0.5
		c1.4-0.3,2.6-0.9,3.6-1.8l0.2-4l-12.4-0.2l0.6-15.6c5.2-0.2,10.3-0.3,15.5-0.4c5.2-0.1,10.3-0.3,15.6-0.5L495.8,179.5z"/>
</g>
<g>
	<g>
		<path class="st6" d="M258.4,156.9c0-1.2,0-2.4,0-3.6c0-0.6-0.2-0.9-0.9-0.9c-1.4-0.2-2.8-0.4-4.2-0.6c-0.2,0-0.3-0.1-0.3-0.2
			c-0.2-0.6-0.5-1.2-0.8-1.8c-0.1-0.1-0.1-0.2,0-0.4c0.8-0.9,1.6-1.8,2.4-2.8c0.4-0.5,0.4-0.8,0-1.2c-0.9-1-2-1.9-3.1-2.8
			c-0.3-0.3-0.6-0.5-0.9-0.8c-0.5-0.4-0.9-0.4-1.4-0.1c-1.1,0.7-2.2,1.5-3.4,2.2c-0.2,0.1-0.3,0.1-0.4,0c-0.6-0.3-1.2-0.5-1.9-0.7
			c-0.1,0-0.2-0.1-0.2-0.2c-0.2-1.3-0.5-2.6-0.7-3.9c-0.1-0.5-0.4-0.7-1-0.7c-0.9,0-1.9,0-2.8,0c-0.9,0-1.8,0-2.7,0
			c-0.6,0-0.9,0.2-1,0.7c-0.3,1-0.4,2.1-0.6,3.1c0,0.2-0.1,0.4-0.1,0.7c0,0.2-0.1,0.3-0.3,0.3c-0.6,0.2-1.2,0.4-1.8,0.7
			c-0.2,0.1-0.3,0-0.4,0c-1.1-0.7-2.1-1.4-3.2-2.2c-0.6-0.4-0.8-0.4-1.5,0c-1,0.6-1.9,1.4-2.7,2.2c-0.5,0.5-1,0.9-1.4,1.4
			c-0.4,0.5-0.4,0.7,0,1.2c0.9,0.9,1.7,1.9,2.5,2.8c0.1,0.1,0.1,0.2,0,0.4c-0.3,0.5-0.6,1.1-0.8,1.6c-0.1,0.2-0.2,0.2-0.4,0.2
			c-1.5,0.2-2.9,0.4-4.4,0.6c-0.4,0.1-0.8,0.4-0.8,0.8c0,1.7,0,3.3,0,5c0,0.4,0.3,0.7,0.8,0.8c1.4,0.2,2.8,0.4,4.2,0.5
			c0.3,0,0.4,0.1,0.5,0.4c0.2,0.6,0.5,1.2,0.8,1.7c0.1,0.1,0.1,0.2,0,0.3c-0.8,0.9-1.6,1.8-2.4,2.7c-0.5,0.6-0.5,0.9,0,1.5
			c0.8,0.9,1.8,1.7,2.8,2.5c0.4,0.3,0.7,0.6,1.1,0.9c0.5,0.4,0.9,0.4,1.4,0.1c1.1-0.7,2.2-1.5,3.3-2.2c0.1-0.1,0.3-0.1,0.4,0
			c0.6,0.3,1.1,0.5,1.7,0.6c0.2,0.1,0.3,0.2,0.4,0.4c0.2,1.3,0.4,2.5,0.7,3.8c0.1,0.3,0.4,0.6,0.8,0.6c0.1,0,0.3,0,0.4,0
			c1.8,0,3.5,0,5.3,0c0.7,0,1-0.2,1.1-0.8c0.3-1.2,0.5-2.5,0.7-3.7c0-0.2,0.1-0.3,0.3-0.3c0.7-0.2,1.3-0.4,1.9-0.7
			c0.2-0.1,0.3-0.1,0.4,0c1,0.7,2.1,1.4,3.2,2.1c0.6,0.4,0.9,0.4,1.5,0c1.1-0.7,2-1.5,2.9-2.3c0.5-0.4,0.9-0.9,1.3-1.3
			c0.3-0.4,0.3-0.7,0-1.1c-0.8-0.9-1.6-1.7-2.3-2.6c-0.3-0.4-0.4-0.6-0.1-1.1c0.3-0.4,0.4-0.9,0.6-1.3c0.1-0.1,0.1-0.2,0.3-0.2
			c1.1-0.1,2.3-0.3,3.4-0.4c0.4,0,0.7-0.1,1.1-0.1c0.4-0.1,0.7-0.4,0.7-0.7C258.4,157.7,258.4,157.3,258.4,156.9z M238.7,161.3
			c-3.5,0-6.5-2.6-6.4-5.7c-0.1-3.1,3.1-5.7,6.6-5.7c3.5,0.1,6.4,2.6,6.4,5.7C245.3,158.7,242.3,161.3,238.7,161.3z"/>
	</g>
</g>
<g>
	<g>
		<path class="st2" d="M264.6,157.3c0-1.6,0-3.1,0-4.7c0-0.8-0.3-1.1-1.2-1.3c-1.9-0.3-3.7-0.5-5.6-0.7c-0.2,0-0.4-0.1-0.4-0.3
			c-0.3-0.8-0.7-1.6-1.1-2.3c-0.1-0.2-0.1-0.3,0-0.5c1.1-1.2,2.2-2.4,3.2-3.6c0.5-0.6,0.5-1,0-1.6c-1.2-1.4-2.6-2.5-4.1-3.7
			c-0.4-0.3-0.8-0.7-1.2-1c-0.6-0.5-1.2-0.5-1.8-0.1c-1.5,1-3,1.9-4.4,2.9c-0.2,0.1-0.4,0.2-0.6,0.1c-0.8-0.4-1.6-0.6-2.5-0.9
			c-0.2-0.1-0.3-0.1-0.3-0.3c-0.3-1.7-0.6-3.4-0.9-5.1c-0.1-0.6-0.5-0.9-1.3-0.9c-1.2,0-2.5,0-3.7,0c-1.2,0-2.4,0-3.5,0
			c-0.8,0-1.2,0.2-1.4,0.9c-0.4,1.4-0.6,2.7-0.8,4.1c0,0.3-0.1,0.6-0.1,0.9c0,0.3-0.2,0.4-0.4,0.4c-0.8,0.2-1.6,0.5-2.4,0.9
			c-0.2,0.1-0.3,0.1-0.5-0.1c-1.4-1-2.8-1.9-4.2-2.9c-0.8-0.5-1.1-0.5-1.9,0c-1.4,0.8-2.5,1.9-3.6,2.9c-0.7,0.6-1.3,1.2-1.9,1.9
			c-0.5,0.6-0.5,0.9,0,1.5c1.1,1.2,2.3,2.5,3.3,3.7c0.1,0.2,0.2,0.3,0,0.5c-0.4,0.7-0.8,1.4-1.1,2.2c-0.1,0.2-0.2,0.3-0.5,0.3
			c-1.9,0.2-3.9,0.5-5.8,0.8c-0.6,0.1-1,0.5-1,1c0,2.2,0,4.4,0,6.6c0,0.5,0.5,0.9,1.1,1c1.8,0.2,3.7,0.5,5.5,0.7
			c0.4,0,0.6,0.1,0.7,0.5c0.2,0.8,0.6,1.5,1.1,2.2c0.1,0.2,0.1,0.3-0.1,0.5c-1,1.2-2.1,2.3-3.1,3.5c-0.7,0.8-0.7,1.2,0,2
			c1.1,1.2,2.4,2.3,3.7,3.4c0.5,0.4,0.9,0.8,1.4,1.1c0.7,0.5,1.2,0.6,1.9,0.1c1.5-1,2.9-1.9,4.4-2.9c0.2-0.1,0.3-0.2,0.6-0.1
			c0.7,0.3,1.5,0.6,2.3,0.8c0.3,0.1,0.4,0.2,0.5,0.5c0.3,1.7,0.6,3.4,0.9,5c0.1,0.5,0.5,0.8,1,0.8c0.2,0,0.3,0,0.5,0
			c2.3,0,4.6,0,7,0c1,0,1.3-0.2,1.5-1c0.4-1.6,0.6-3.3,0.9-4.9c0-0.2,0.1-0.3,0.4-0.4c0.9-0.2,1.7-0.5,2.5-0.9
			c0.2-0.1,0.3-0.1,0.5,0c1.4,1,2.8,1.9,4.2,2.8c0.8,0.5,1.2,0.6,2,0c1.4-0.9,2.6-2,3.8-3.1c0.6-0.6,1.2-1.1,1.8-1.8
			c0.4-0.5,0.4-0.9,0-1.4c-1-1.1-2.1-2.3-3.1-3.4c-0.4-0.5-0.5-0.9-0.2-1.4c0.4-0.5,0.6-1.1,0.8-1.7c0.1-0.2,0.1-0.2,0.3-0.3
			c1.5-0.2,3-0.4,4.5-0.6c0.5-0.1,1-0.1,1.4-0.2c0.6-0.1,1-0.5,1-1C264.6,158.4,264.6,157.9,264.6,157.3z M238.6,163.1
			c-4.6-0.1-8.6-3.4-8.5-7.5c-0.1-4.1,4.1-7.6,8.8-7.5c4.7,0.1,8.5,3.4,8.5,7.5C247.4,159.8,243.4,163.2,238.6,163.1z"/>
		<path class="st6" d="M242.3,179.1l-7,0c-0.2,0-0.4,0-0.6,0c-1-0.1-1.7-0.7-1.9-1.6c-0.3-1.6-0.6-3.2-0.8-4.8
			c-0.7-0.2-1.4-0.5-2.1-0.7c-1.1,0.7-2.2,1.5-3.3,2.2l-0.9,0.6c-1.1,0.7-2.1,0.7-3.1-0.1c-0.5-0.4-1-0.8-1.4-1.1
			c-1.2-1-2.6-2.1-3.8-3.5c-1.1-1.2-1.1-2.1,0-3.3c0.9-1.1,1.9-2.1,2.8-3.2c-0.4-0.7-0.7-1.3-0.9-1.9c-1.7-0.2-3.2-0.4-4.8-0.6
			l-0.6-0.1c-1.2-0.1-2-1-2-2c0-2.2,0-4.4,0-6.6c0-1,0.8-1.9,1.9-2c1.9-0.2,3.7-0.5,5.6-0.7c0.2-0.5,0.5-1.1,0.8-1.7
			c-1-1.2-2-2.3-3-3.4c-0.9-0.9-0.9-1.9-0.1-2.8c0.6-0.7,1.3-1.4,2-2l0.3-0.3c1-0.9,2.1-1.9,3.4-2.7c1.1-0.7,1.9-0.7,3,0.1
			c1.3,0.9,2.7,1.8,4,2.7c0.6-0.3,1.3-0.5,2-0.7c0-0.1,0-0.2,0.1-0.3c0-0.1,0-0.2,0-0.2l0.1-0.4c0.2-1.2,0.4-2.5,0.7-3.8
			c0.4-1.5,1.5-1.7,2.3-1.7l2.7,0l0.8,0l1.1,0c0.9,0,1.7,0,2.6,0c1.8,0,2.2,1.2,2.3,1.7c0.3,1.6,0.6,3.2,0.8,4.7
			c0.8,0.2,1.5,0.5,2.1,0.7c1.1-0.7,2.2-1.5,3.3-2.2l0.9-0.6c1-0.7,2.1-0.6,3,0.1c0.4,0.3,0.8,0.7,1.3,1l0.6,0.5
			c1.2,1,2.5,2.1,3.6,3.3c0.9,1,0.9,2,0,2.9c-1,1.1-2,2.2-3,3.3c0.4,0.7,0.7,1.3,0.9,1.8l0.3,0c1.7,0.2,3.4,0.4,5,0.7
			c1.4,0.2,2.1,0.9,2.1,2.2c0,1.4,0,2.8,0,4.2l0,0.5l0,0.4c0,0.4,0,0.9,0,1.3c0,1-0.8,1.8-1.8,1.9c-0.4,0.1-0.7,0.1-1.1,0.1
			l-1.5,0.2c-1,0.1-2.1,0.3-3.1,0.4l-0.1,0.1c-0.2,0.5-0.4,1-0.7,1.5c0,0,0,0,0,0c0,0,0.1,0.1,0.1,0.1l3.1,3.4
			c0.8,0.8,0.8,1.9,0,2.7c-0.6,0.7-1.3,1.4-1.9,1.9l-0.3,0.3c-1.1,1-2.2,2-3.6,2.9c-1.1,0.7-2,0.7-3.1-0.1l-1.6-1.1
			c-0.8-0.5-1.6-1.1-2.3-1.6c-0.7,0.3-1.4,0.6-2.1,0.8c-0.2,1.6-0.4,3.1-0.8,4.7C244.4,178.9,243.3,179.1,242.3,179.1z M234.8,177
			c0,0,0.1,0,0.1,0c0.1,0,0.3,0,0.4,0l7,0c0.3,0,0.4,0,0.5,0c0,0,0-0.1,0.1-0.2c0.4-1.6,0.6-3.2,0.8-4.8c0.1-0.9,0.7-1.2,1.1-1.2
			c0.8-0.2,1.5-0.5,2.3-0.8c0.5-0.2,1-0.2,1.5,0.1c0.8,0.6,1.7,1.2,2.5,1.7l1.6,1.1c0.5,0.3,0.5,0.3,0.9,0c1.2-0.8,2.2-1.7,3.3-2.7
			l0.3-0.3c0.5-0.4,1.1-1,1.7-1.7c0,0,0,0,0,0c0,0,0,0,0,0l-3.1-3.4c-0.8-0.8-0.8-1.7-0.2-2.6c0.2-0.3,0.4-0.7,0.6-1.1l0.2-0.4
			c0.2-0.5,0.6-0.8,1.1-0.8c1.1-0.1,2.3-0.3,3.4-0.5l1.5-0.2c0.3,0,0.7-0.1,1-0.1c0.1,0,0.1,0,0.2-0.1c0-0.4,0-0.8,0-1.2l0-0.4
			l0-0.5c0-1.4,0-2.8,0-4.2c0-0.1,0-0.2,0-0.2c-0.1,0-0.2,0-0.4-0.1c-1.7-0.2-3.4-0.5-5-0.7l-0.5-0.1c-0.8-0.1-1.1-0.6-1.3-1
			c-0.2-0.6-0.6-1.3-1-2.2c-0.5-0.8-0.1-1.4,0.2-1.7c1.1-1.2,2.2-2.4,3.2-3.6c0.1-0.1,0.1-0.1,0.1-0.1c0,0-0.1-0.1-0.1-0.2
			c-1-1.1-2.1-2.1-3.4-3.1l-0.6-0.5c-0.4-0.3-0.8-0.7-1.2-1c-0.3-0.2-0.3-0.2-0.7,0l-0.9,0.6c-1.2,0.8-2.3,1.5-3.5,2.3
			c-0.5,0.3-1,0.4-1.6,0.1c-0.6-0.3-1.4-0.6-2.3-0.8c-0.7-0.2-1-0.7-1-1.1c-0.3-1.7-0.6-3.4-0.9-5.1c0-0.1-0.1-0.1-0.3-0.1
			c-0.9,0-1.7,0-2.6,0l-1.1,0l-0.8,0l-2.7,0c-0.2,0-0.3,0-0.4,0c0,0,0,0.1-0.1,0.2c-0.3,1.1-0.5,2.3-0.7,3.6l-0.1,0.4
			c0,0.1,0,0.2-0.1,0.3c0,0.2-0.1,0.3-0.1,0.4c0,0.5-0.2,1.1-1.2,1.4c-0.8,0.2-1.6,0.5-2.2,0.8c-0.5,0.2-1,0.2-1.5-0.1
			c-1.4-1-2.8-1.9-4.2-2.9c-0.3-0.2-0.4-0.2-0.4-0.2c0,0-0.1,0-0.4,0.2c-1.1,0.7-2.1,1.6-3.1,2.5l-0.3,0.3c-0.7,0.6-1.3,1.2-1.8,1.8
			c0,0-0.1,0.1-0.1,0.1c0,0,0.1,0.1,0.1,0.1c1.1,1.2,2.3,2.5,3.4,3.8c0.4,0.5,0.5,1.1,0.1,1.6c-0.4,0.7-0.8,1.3-1,2
			c-0.2,0.6-0.6,0.9-1.3,1c-1.9,0.2-3.9,0.5-5.8,0.8c-0.1,0-0.1,0.1-0.1,0.1c0,2.2,0,4.3,0,6.5c0,0,0.1,0,0.2,0l0.6,0.1
			c1.6,0.2,3.2,0.4,4.9,0.6c0.3,0,1.2,0.1,1.5,1.2c0.2,0.6,0.5,1.3,1,2c0.4,0.6,0.3,1.2-0.2,1.7c-1,1.2-2.1,2.3-3.1,3.5
			c-0.1,0.2-0.2,0.3-0.2,0.3c0,0.1,0.1,0.2,0.3,0.3c1.1,1.2,2.4,2.3,3.6,3.3c0.5,0.4,0.9,0.8,1.4,1.1c0.3,0.3,0.4,0.3,0.7,0l0.9-0.6
			c1.2-0.8,2.3-1.5,3.5-2.3c0.5-0.3,1-0.4,1.5-0.1c0.7,0.3,1.4,0.6,2.2,0.8c0.7,0.2,1.1,0.6,1.2,1.3
			C234.2,173.7,234.5,175.4,234.8,177C234.8,177,234.8,177,234.8,177z M259.1,168.3L259.1,168.3L259.1,168.3z M220.5,163.8
			C220.5,163.8,220.5,163.8,220.5,163.8C220.5,163.8,220.5,163.8,220.5,163.8z M231.9,139.1C231.9,139.1,231.9,139.1,231.9,139.1
			C231.9,139.1,231.9,139.1,231.9,139.1z M238.8,164.1c-0.1,0-0.1,0-0.2,0c-2.8,0-5.4-1.1-7.2-3c-1.5-1.6-2.3-3.5-2.2-5.5
			c0-2,0.8-4,2.4-5.5c1.9-1.9,4.6-3,7.4-2.9c5.3,0.1,9.4,3.8,9.5,8.5c0,2-0.9,4-2.4,5.6C244.1,163.1,241.5,164.1,238.8,164.1z
			 M238.7,149.1c-2.2,0-4.3,0.9-5.8,2.3c-1.2,1.2-1.8,2.6-1.8,4.1c0,1.5,0.6,2.9,1.7,4.1c1.4,1.5,3.6,2.4,5.8,2.4l0,0
			c2.3,0,4.4-0.8,5.9-2.3c1.2-1.2,1.8-2.7,1.8-4.2c0-3.6-3.3-6.4-7.5-6.5C238.9,149.1,238.8,149.1,238.7,149.1z"/>
	</g>
</g>
<g>
	<g>
		<path class="st6" d="M537.3,173.9C537.3,173.9,537.3,173.9,537.3,173.9c-0.9-1.9-2.1-3.6-3.6-5c-1.5-1.4-3.2-2.5-5.1-3.3
			c-4-1.7-8.8-1.7-12.8,0c-1.9,0.8-3.6,1.9-5.1,3.3c-1.5,1.4-2.7,3.1-3.6,5.1c-0.9,2-1.3,4.1-1.3,6.3c0,2.2,0.5,4.4,1.4,6.3
			c0.9,1.9,2.1,3.6,3.5,5c1.5,1.4,3.2,2.5,5.1,3.3c2,0.8,4.1,1.2,6.4,1.2c2.2,0,4.3-0.4,6.3-1.2c1.9-0.8,3.7-1.9,5.1-3.3
			c1.5-1.4,2.7-3.1,3.5-4.9c0.9-2,1.4-4.1,1.4-6.4C538.7,178,538.2,175.9,537.3,173.9z"/>
	</g>
</g>
<g>
	<g>
		<path class="st0" d="M533,176.1c0,1.5-0.3,2.9-0.9,4.3c-0.6,1.3-1.4,2.5-2.4,3.4s-2.1,1.8-3.5,2.3c-1.3,0.6-2.7,0.9-4.2,0.9
			c-1.5,0-2.9-0.3-4.3-0.9c-1.3-0.6-2.5-1.3-3.4-2.3s-1.8-2.1-2.3-3.4c-0.6-1.3-0.9-2.7-0.9-4.3c0-1.5,0.3-2.9,0.9-4.3
			c0.6-1.3,1.3-2.5,2.3-3.5s2.1-1.8,3.4-2.4c1.3-0.6,2.7-0.9,4.3-0.9c1.5,0,2.9,0.3,4.2,0.9c1.3,0.6,2.5,1.4,3.5,2.4
			s1.8,2.2,2.4,3.5C532.7,173.2,533,174.6,533,176.1z"/>
	</g>
</g>
</svg>
