<?xml version="1.0" encoding="utf-8"?>
<!-- Generator: Adobe Illustrator 21.0.0, SVG Export Plug-In . SVG Version: 6.00 Build 0)  -->
<svg version="1.1" id="Layer_1" xmlns="http://www.w3.org/2000/svg" xmlns:xlink="http://www.w3.org/1999/xlink" x="0px" y="0px"
	 viewBox="0 0 521.9 485.6" style="enable-background:new 0 0 521.9 485.6;" xml:space="preserve" preserveAspectRatio="none">
<style type="text/css">
	.st0{fill:#192E58;}
	.st1{fill:#FFFFFF;}
	.st2{fill:#1B75BB;}
	.st3{opacity:0.13;fill:#66CCF1;}
</style>
<path class="st0" d="M504,0l-42.5,0.8l0,0L24.8,9.5c-31.6,0.8-33.8,476.9-2.1,476.1l30.1-0.8l0,0l437.5-11.4
	C521.9,472.6,535.6-0.8,504,0z"/>
<g>
	<path class="st1" d="M33.9,454.5c-1.9-3.2-7.6-16.9-12-71.7c-3.1-39.5-4.9-91.2-4.8-145.5c0-54.3,1.8-106,4.9-145.5
		c4.4-54.8,10.1-68.5,12-71.7h452.1c1.9,3.2,7.6,16.8,12,71.7c3.2,39.5,4.9,91.2,4.9,145.5s-1.7,106-4.8,145.5
		c-4.4,54.8-10,68.5-12,71.7H33.9z"/>
	<path class="st2" d="M481.2,27.6c2.3,6.7,6.4,24.5,9.8,69c2.9,38.7,4.6,88.6,4.6,140.6c0,52-1.6,102-4.5,140.7
		c-3.4,44.5-7.5,62.3-9.8,69H60.6H38.9c-2.3-6.7-6.4-24.5-9.8-69c-2.9-38.7-4.5-88.6-4.5-140.7c0-52,1.6-102,4.6-140.6
		c3.4-44.5,7.6-62.3,9.8-69h420.7H481.2 M488.1,12.6h-28.4H32.2C2.2,12.6,2,462,32,462h28.5h427.6C518.2,462,518.1,12.6,488.1,12.6
		L488.1,12.6z"/>
</g>
<path class="st3" d="M24.7,237.3c0,0,228.7,172,471.3-1.4c0,0,0,176.3-15,210.5h-442C27.4,400.6,24.7,237.3,24.7,237.3z"/>
</svg>
