<?xml version="1.0" encoding="utf-8"?>
<!-- Generator: Adobe Illustrator 21.0.0, SVG Export Plug-In . SVG Version: 6.00 Build 0)  -->
<svg version="1.1" id="Layer_1" xmlns="http://www.w3.org/2000/svg" xmlns:xlink="http://www.w3.org/1999/xlink" x="0px" y="0px"
	 viewBox="0 0 1811.3 920.1" style="enable-background:new 0 0 1811.3 920.1;" xml:space="preserve">
<style type="text/css">
	.st0{fill:#1B75BB;}
	.st1{fill:#FFFFFF;}
	.st2{fill:#25A9E0;}
	.st3{fill:#00ADEE;}
	.st4{fill:#A9D4F1;}
	.st5{opacity:0.69;}
</style>
<g>
	<circle class="st0" cx="1190.2" cy="170" r="140.3"/>
</g>
<g>
	<circle class="st1" cx="1195.7" cy="131.9" r="116.7"/>
	<path class="st0" d="M1195.7,263.7c-72.7,0-131.9-59.1-131.9-131.9S1123,0,1195.7,0s131.9,59.1,131.9,131.9
		S1268.4,263.7,1195.7,263.7z M1195.7,30.2c-56,0-101.6,45.6-101.6,101.6s45.6,101.6,101.6,101.6s101.6-45.6,101.6-101.6
		S1251.8,30.2,1195.7,30.2z"/>
</g>
<g>
	<path class="st0" d="M1390,151.9c-36.2,0-66.6,35.6-22.1,85.6c30.1,33.9-9.3,59.5-34.3,87.5c-1.6,1.8,1.2,2.8,6.9,2.8
		c26,0,112.4-21.7,112.4-93.5C1453,175.5,1419.6,151.9,1390,151.9z"/>
</g>
<g>
	<g>
		<path class="st0" d="M642.9,875.3c72.4-12.1,118.3-98.3,104.5-142.7c-40.2-130.3,57.8-216.2,47-216.9s-347.9,83.8-309.1,260.8
			C500,843.2,570.5,887.4,642.9,875.3z"/>
	</g>
	<g>
		<path class="st0" d="M715.2,479.5c0,0,129.6,37.5,52.9,90.6C739.5,590,740.5,700.6,744.6,715c0,0-23.1-35-69.8-82.6
			C645.7,602.6,609,537.9,715.2,479.5z"/>
	</g>
</g>
<g>
	<g>
		<path class="st1" d="M615.7,831.7C688,819.6,733.9,733.4,720.2,689c-40.2-130.3,57.8-216.2,47-216.9
			c-10.8-0.7-347.9,83.8-309.1,260.8C472.8,799.6,543.3,843.8,615.7,831.7z"/>
	</g>
	<g>
		<path class="st1" d="M687.9,436c0,0,129.6,37.5,52.9,90.6c-28.6,19.8-27.6,130.4-23.5,144.8c0,0-23.1-35-69.8-82.6
			C618.4,559,581.8,494.3,687.9,436z"/>
	</g>
</g>
<g>
	<path class="st0" d="M1393.3,558.5c-0.9-0.1-4.4,0.5-10,1.8c-19.6-23.6-69.3-38-69.3-38c-53.9,29.6-70.9,60.8-70.9,88.3
		c-88.8,42.7-180.1,111.8-158.8,208.6c14.6,66.7,85.1,110.9,157.5,98.8c72.4-12.1,118.3-98.3,104.5-142.7
		c-2.3-7.3-4.1-14.5-5.5-21.5c1.8,2.5,2.7,3.9,2.7,3.9c-4.1-14.4-5.1-125,23.5-144.8c23.8-16.5,27.7-31.5,21.8-44.3
		C1393.2,562.1,1395.4,558.6,1393.3,558.5z"/>
</g>
<g>
	<path class="st0" d="M677,332.4c-10.7-46.4-34.8-66.5-60.8-73.2c-11.8-75-47.9-158.3-146.5-166.7c-67.8-5.8-132.4,34.4-144.2,90
		c-11.8,55.5,55.1,110.1,101.5,111.1c7.6,0.2,15,0.6,22.1,1.3c-3,0.7-4.5,1-4.5,1c15,0.6,120,27.1,129.6,52.7
		c7.9,21.3,20.9,27.9,34.9,26.8c4.8,4.9,7.4,7.4,8.2,5.8c0.4-0.7,0.9-3.4,1.5-7.7C647.3,365,677,332.4,677,332.4z"/>
</g>
<g>
	<path class="st0" d="M1572.9,439c0-118.3-95.9-214.3-214.3-214.3c-20.4,0-40.1,2.8-58.7,8.1c-39.3-49.1-99.7-80.5-167.4-80.5
		c-54.3,0-103.9,20.2-141.6,53.5C952.1,150.3,887.8,114,815,114c-92.7,0-171.6,58.8-201.5,141.2c-28.3-13.7-60-21.5-93.6-21.5
		c-110.9,0-202.1,84.2-213.1,192.1c-40.9,39-66.4,94.1-66.4,155.1c0,118.3,95.9,214.3,214.3,214.3c66.7,0,126.4-30.5,165.7-78.4
		c35.1,25.2,78.2,40,124.7,40c3.4,0,6.7-0.1,10.1-0.2c39.3,46.1,97.8,75.3,163.1,75.3c72.8,0,137.1-36.3,175.9-91.8
		c38,34.3,88.3,55.1,143.5,55.1c99.6,0,183.3-67.9,207.3-160C1520.2,602,1572.9,526.7,1572.9,439z"/>
</g>
<g>
	<path class="st2" d="M1479.8,417.1c0-103.6-84-187.6-187.6-187.6c-17.8,0-35.1,2.5-51.4,7.1c-34.4-43-87.3-70.5-146.6-70.5
		c-47.5,0-90.9,17.7-124,46.8c-33.9-48.6-90.2-80.4-154-80.4c-81.1,0-150.3,51.5-176.4,123.6c-24.8-12-52.5-18.8-81.9-18.8
		c-97.1,0-176.9,73.7-186.6,168.2c-35.8,34.2-58.1,82.4-58.1,135.8C313,645,397,729,500.7,729c58.4,0,110.6-26.7,145.1-68.6
		c30.8,22,68.4,35,109.2,35c3,0,5.9-0.1,8.8-0.2c34.4,40.4,85.6,66,142.8,66c63.8,0,120.1-31.8,154-80.4
		c33.3,30,77.3,48.3,125.6,48.3c87.2,0,160.5-59.5,181.6-140.1C1433.7,559.8,1479.8,493.8,1479.8,417.1z"/>
	<path class="st1" d="M906.6,787.6c-58.5,0-114.1-23.8-154.4-65.8c-36.1-0.4-70.9-9.8-101.9-27.3c-39.8,38.9-93.2,60.9-149.6,60.9
		c-57.2,0-111-22.3-151.4-62.7s-62.7-94.2-62.7-151.4c0-29.8,6-58.6,17.9-85.7c10.1-23.2,24.1-44.2,41.6-62.4
		c7.2-48.7,31.1-93.5,67.9-126.8c39.5-35.8,90.6-55.6,143.9-55.6c23.4,0,46.2,3.7,68,11c15.6-30.2,38.1-56.2,66.1-76.2
		c36.4-26,79.4-39.7,124.2-39.7c60.7,0,118.1,25.8,158.4,70.1c35.2-23.7,76.7-36.5,119.6-36.5c59.6,0,115.6,24.4,156,67.5
		c13.8-2.7,27.8-4.1,42-4.1c57.2,0,111,22.3,151.4,62.7s62.7,94.2,62.7,151.4c0,80.6-45.3,154.1-116.5,190.6
		c-28.5,87.6-110.5,147.8-203.7,147.8c-43.7,0-85.9-13.2-121.4-37.7C1024.5,761.9,967.1,787.6,906.6,787.6z M763.7,668.7
		c7.7,0,15.1,3.4,20.2,9.3c30.7,36,75.4,56.7,122.7,56.7c52.6,0,102.1-25.8,132.3-69.1c4.3-6.2,11.2-10.3,18.7-11.2
		c7.6-0.9,15.1,1.6,20.8,6.7c29.6,26.7,68,41.5,107.9,41.5c73.3,0,137.4-49.5,155.9-120.3c2-7.8,7.6-14.3,15-17.6
		c58.5-25.8,96.3-83.7,96.3-147.5c0-88.8-72.3-161.1-161.1-161.1c-15,0-29.9,2.1-44.2,6.1c-10.3,2.9-21.3-0.6-27.9-8.9
		c-30.8-38.5-76.7-60.6-125.9-60.6c-39.2,0-77.1,14.3-106.5,40.2c-5.7,5-13.2,7.3-20.7,6.4c-7.5-0.9-14.3-5-18.6-11.2
		c-30.2-43.3-79.6-69.1-132.3-69.1c-67.6,0-128.5,42.7-151.5,106.2c-2.6,7.1-8,12.7-15,15.5c-7,2.8-14.8,2.6-21.5-0.7
		c-22-10.7-45.7-16.1-70.3-16.1c-82.9,0-151.8,62.1-160.3,144.4c-0.6,6.3-3.5,12.1-8.1,16.5c-32.2,30.7-49.9,72.1-49.9,116.6
		c0,88.8,72.3,161.1,161.1,161.1c48.4,0,93.8-21.5,124.6-58.9c8.9-10.8,24.6-12.8,35.9-4.7c27.4,19.7,59.9,30.1,93.7,30.1
		c2.4,0,4.9-0.1,7.6-0.2C762.9,668.7,763.3,668.7,763.7,668.7z"/>
</g>
<g>
	<path class="st0" d="M1389.3,437.5c0-72.6-71-131.4-158.5-131.4c-15.1,0-29.6,1.7-43.4,5c-29-30.1-73.7-49.4-123.8-49.4
		c-40.2,0-76.8,12.4-104.8,32.8c-28.6-34-76.2-56.3-130.1-56.3c-68.6,0-126.9,36.1-149,86.6c-20.9-8.4-44.4-13.2-69.2-13.2
		c-82,0-149.5,51.6-157.7,117.8c-30.3,23.9-49.1,57.7-49.1,95.1c0,72.6,106.7,165.2,235.2,66.5c49.5,52.1,103.7,41.4,138.1,41.4
		c2.5,0,5-0.1,7.5-0.1c29.1,28.3,72.3,46.2,120.7,46.2c53.9,0,101.4-22.3,130.1-56.3c28.1,21,65.3,33.8,106.1,33.8
		c73.7,0,135.6-41.7,153.4-98.1C1350.3,537.4,1389.3,491.2,1389.3,437.5z"/>
</g>
<g>
	<path class="st0" d="M443.8,441c-0.2-0.6-0.3-0.4-0.4-0.5c-0.2-0.1-0.4-0.2-0.5-0.3c-0.3-0.2-0.7-0.4-1-0.5c-0.7-0.3-1.3-0.6-2-0.9
		c-1.3-0.6-2.6-1.1-3.9-1.7c-2.6-1.1-5.3-2.1-8-3.2c-5.3-2-10.7-4-16.1-5.8c-10.8-3.7-21.7-7.2-32.6-10.4
		c-21.9-6.4-44.1-11.8-66.6-16.2c-22.5-4.3-45.1-7.6-68-9.4c-22.9-1.7-45.9-2-68.9,0.1c-22.9,2.1-45.8,6.6-67.6,14.8
		c-21.8,8.1-42.4,20.1-59.4,36.4c-8.5,8.1-16.1,17.2-22.6,27c-3.3,4.9-6.2,10-8.9,15.2c-2.7,5.2-5.2,10.6-7.3,16.1
		c-8.5,22-11.7,46.1-9,69.7c2.6,23.6,11.1,46.6,25,66.1c6.9,9.7,15.2,18.6,24.5,26.2c9.3,7.6,19.7,13.9,30.6,18.7
		c10.9,4.9,22.4,8.5,34.2,10.5c11.8,2,24,2.7,36,1.5c12-1.1,23.9-3.9,35.1-8.4c11.2-4.5,21.8-10.5,31.3-17.9
		c27.4-22.5,45.2-51.6,48.7-78.2c0,0,0,0,0,0c40.2-92.2,180.7-148.5,180.7-148.5C446,441.1,444.9,441.1,443.8,441z M443,440.6
		C442.9,440.6,442.9,440.6,443,440.6C443.1,440.4,443,440.7,443,440.6z"/>
</g>
<g>
	<circle class="st0" cx="1772.9" cy="411" r="38.4"/>
</g>
<g>
	<path class="st0" d="M1783.1,269.8c-3-9.1-7.5-17.8-13.2-25.8c-11.4-16-27.6-29.2-46.4-38c-18.8-8.9-40.1-13.7-61.4-13.9
		c-5.3-0.1-10.7,0.2-16,0.6c-5.3,0.5-10.6,1.2-15.8,2.1c-10.5,1.9-20.7,4.9-30.5,8.8c-19.6,7.8-36.9,19.5-51.3,33.2
		c-14.5,13.7-26.3,29.4-36.2,45.7c-9.8,16.4-17.7,33.5-24.3,50.9c-6.6,17.4-11.9,35.2-16.1,53.1c-4.3,17.9-7.5,36-9.9,54.1
		c-1.2,9.1-2.1,18.1-2.8,27.2c-0.3,4.5-0.6,9.1-0.8,13.6c-0.1,2.3-0.1,4.6-0.2,6.8c0,1.1,0,2.3,0,3.4c0,0.6,0,1.1,0.1,1.7
		c0,0.3,0,0.6,0.1,0.9c0,0.2,0,0.3,0.1,0.5c0.1,0.1-0.1,0.1,0.3,0.5c-0.3,0.9-0.7,1.7-1,2.6c0,0,96.5-87.4,187.8-90c0,0,0,0,0,0
		c23.4,5.2,54,0.6,82.5-13c9.5-4.9,18.3-10.9,26-17.9c7.7-7,14.2-15,19.4-23.5c5.2-8.6,9-17.7,11.4-27.1c2.4-9.4,3.5-19,3.3-28.5
		C1787.7,288.5,1786.1,278.9,1783.1,269.8z M1458.6,494.5C1458.6,494.6,1458.6,494.6,1458.6,494.5
		C1458.7,494.6,1458.4,494.6,1458.6,494.5z"/>
</g>
<g>
	<path class="st2" d="M1349.6,760.4c0-61.9-52.8-112-118-112c-45.3,0-138.9,162.4-194.5-19.5c-4.1-13.6-1.5,264.2,171.5,264.2
		C1273.8,893.1,1349.6,822.2,1349.6,760.4z"/>
</g>
<g>
	<circle class="st1" cx="1772.9" cy="399.5" r="30.7"/>
	<path class="st3" d="M1772.9,434.2c-19.1,0-34.7-15.6-34.7-34.7c0-19.1,15.6-34.7,34.7-34.7c19.1,0,34.7,15.6,34.7,34.7
		C1807.7,418.7,1792.1,434.2,1772.9,434.2z M1772.9,372.8c-14.8,0-26.8,12-26.8,26.8c0,14.8,12,26.8,26.8,26.8s26.8-12,26.8-26.8
		C1799.7,384.8,1787.7,372.8,1772.9,372.8z"/>
</g>
<g>
	<circle class="st0" cx="648.5" cy="108.4" r="36.9"/>
</g>
<g>
	<circle class="st1" cx="650" cy="98.4" r="30.7"/>
	<path class="st0" d="M650,133.1c-19.1,0-34.7-15.6-34.7-34.7s15.6-34.7,34.7-34.7c19.1,0,34.7,15.6,34.7,34.7
		S669.1,133.1,650,133.1z M650,71.6c-14.8,0-26.8,12-26.8,26.8s12,26.8,26.8,26.8c14.8,0,26.8-12,26.8-26.8S664.7,71.6,650,71.6z"/>
</g>
<g>
	<g>
		<path class="st1" d="M1369.2,296.8c22.5-22.5,50.5-50.5,20.4-84.4c-17.7-19.9-24-38.7-17.6-52.9c5.1-11.3,18.2-18.6,33.4-18.6
			c13.8,0,26.6,5.8,36.2,16.4c11.9,13.1,18.2,32.9,18.2,57.4c0,27.8-14.2,50.1-42.2,66.4c-17.5,10.1-36.9,15.5-50.3,17.6
			C1367.9,298.1,1368.5,297.5,1369.2,296.8z"/>
	</g>
	<g>
		<path class="st2" d="M1405.3,149.5c6.6,0,19.2,1.8,30,13.6c10.4,11.5,16,29.4,16,51.7c0,24.5-12.8,44.4-38,59
			c-6.4,3.7-13,6.7-19.4,9.1c5.1-6.2,9.5-12.6,12.6-19.6c6-13.6,9.1-34.4-10.6-56.5c-15.1-17-21-33-16.2-43.7
			C1383.4,154.8,1393.5,149.5,1405.3,149.5L1405.3,149.5 M1405.3,132.5c-36.2,0-66.6,35.6-22.1,85.6c30.1,33.9-9.3,59.5-34.3,87.5
			c-1.6,1.8,1.2,2.8,6.9,2.8c26,0,112.4-21.7,112.4-93.5C1468.3,156.1,1434.8,132.5,1405.3,132.5L1405.3,132.5z"/>
	</g>
</g>
<g>
	<path class="st4" d="M1393.1,283.8c0,0,69.3-25,47-102.3c0,0,2,62-30.3,54C1409.8,235.5,1414.8,258.5,1393.1,283.8z"/>
</g>
<g>
	<g>
		<path class="st1" d="M1784.9,278.8c0,61.9-74,115.3-118,112c-129.2-9.6-194.7,86.8-197,78c-2.3-8.8,24-302,197-302
			C1732.1,166.8,1784.9,216.9,1784.9,278.8z"/>
	</g>
	<g>
		<path class="st4" d="M1641.3,268.8c0,0,97,71.8,116.7-55.1c0,0,80.4,81.5-33.7,163.6c0,0-43.8,19.5-79.2-4.9
			C1623.3,357.4,1599.1,305.8,1641.3,268.8z"/>
	</g>
	<g>
		<path class="st0" d="M1468.3,472.2c0,0,96.3-85.2,181.6-80.5c0,0-28.2-12-43.2-45.6C1606.6,346,1506.5,374.1,1468.3,472.2z"/>
	</g>
	<g>
		<path class="st2" d="M1469.9,468.8c0,0,66.9-103.3,152.2-98.6c0,0-5.1-3.6-17.7-27.2C1604.4,343,1508.1,370.7,1469.9,468.8z"/>
	</g>
	<g>
		<path class="st4" d="M1504.6,330.5c0,0,49.5-138.4,164.5-146.9c38.6-2.9,10.5-16.9-41.8-2.6
			C1583.4,193.1,1540.8,233.3,1504.6,330.5z"/>
	</g>
	<g class="st5">
		<g>
			<path class="st2" d="M1608.6,296.6c-2,4.2-3.2,8.6-3.8,13.1c-0.1,0.5-0.1,1-0.2,1.6c1.4-7.9,4.3-15.3,8.5-22.1
				C1611.4,291.5,1609.9,294,1608.6,296.6z"/>
		</g>
		<g>
			<path class="st2" d="M1773.5,244.8c-2.4,6,0.6,109.8-96.4,108.1c-50.5-0.9-55-70-36.9-83.3c0,0-15,5.4-23.7,15.6
				c-1.1,1.3-2.3,2.6-3.3,3.9c-4.2,6.8-7.1,14.2-8.5,22.1c-0.6,3.3-0.9,6.7-0.9,10.1c0,38.7,37.3,70,83.3,70
				c46,0,87.4-51.4,94.7-81.8C1790.5,272.9,1773.5,245.1,1773.5,244.8z"/>
		</g>
	</g>
	<g>
		<path class="st0" d="M1470.4,469.2c-0.3,0,0.5,0.4-1,0.5c-0.5-0.5-0.3-0.5-0.4-0.6c0-0.2,0-0.4,0-0.5c0-0.3,0-0.6,0-0.9
			c0-0.6,0-1.2,0.1-1.8c0.1-1.2,0.1-2.4,0.2-3.6c0.2-2.4,0.4-4.8,0.6-7.3c0.5-4.8,1.1-9.6,1.7-14.5c1.3-9.6,2.8-19.2,4.5-28.7
			c3.5-19.1,7.9-38,13.1-56.7c5.3-18.7,11.4-37.2,18.8-55.2c7.4-18,16-35.6,26.3-52.2c10.4-16.6,22.5-32.2,37-45.7
			c14.4-13.4,31.4-24.5,50.3-31.2c9.4-3.4,19.2-5.7,29.1-6.9c5-0.6,9.9-0.9,14.9-1c5-0.1,10,0.1,15,0.6c19.9,1.9,39.5,8.7,56.4,19.7
			c16.9,11,31.1,26.2,40.6,44.2c4.8,9,8.3,18.6,10.5,28.6c2.2,9.9,3,20.3,2.5,30.4c-0.5,10.1-2.1,20.2-5.1,30
			c-3,9.8-7.1,19.2-12.6,27.9c-5.4,8.7-12.1,16.6-19.8,23.5c-7.7,6.8-16.3,12.5-25.5,17c-32.5,14.4-66.9,15.2-88.9,2.1
			c-8.9-5.3-16-12.9-22-21c-6.1-8.1-11-17-14.1-26.7c-3.1-9.6-4.4-20-2.6-30.2c0.9-5,2.7-9.9,5.2-14.4c2.5-4.4,5.7-8.5,9.4-11.8
			c3.7-3.4,7.8-6.2,12.2-8.5c4.4-2.3,8.9-4.1,13.6-5.6c0.3-0.1,0.7,0.1,0.8,0.4c0.1,0.3-0.1,0.6-0.3,0.7
			c-8.9,3.7-17.2,8.7-23.7,15.6c-3.2,3.4-5.9,7.2-7.9,11.4c-2,4.2-3.2,8.6-3.8,13.1c-1.1,9.1,0.5,18.4,3.8,27
			c3.3,8.6,8.1,16.7,14,23.8c2.9,3.6,6.2,6.9,9.6,9.9c3.4,3.1,7.1,5.8,10.9,8.2c3.9,2.3,7.8,4.6,12,5.6c35.6,8.5,58.2-6.2,66.4-10.3
			c16.4-8.1,30.3-20.8,40-36.3c9.7-15.4,15.2-33.5,16.3-51.9c0.6-9.2,0.1-18.4-1.7-27.4c-1.8-9-4.8-17.8-8.9-26
			c-8.3-16.5-21-30.7-36.5-41.1c-15.4-10.4-33.4-17-52-19.1c-9.3-1.1-18.7-1-28.1-0.1c-9.3,1-18.5,3-27.4,6
			c-17.8,6-34.1,16.2-48.2,28.9c-14.1,12.7-26.2,27.7-36.6,43.8c-10.4,16.1-19.3,33.2-26.9,50.9c-7.7,17.7-14.1,35.9-19.7,54.3
			c-5.6,18.5-10.3,37.2-14.2,56.2c-2,9.5-3.7,19-5.2,28.5c-0.7,4.8-1.4,9.6-2,14.4c-0.3,2.4-0.6,4.8-0.8,7.2
			c-0.1,1.2-0.2,2.4-0.3,3.6c0,0.6-0.1,1.2-0.1,1.8c0,0.3,0,0.6,0,0.9c0,0.1,0,0.3,0,0.4c-0.1,0,0.2,0.2-0.2-0.2
			c-1.3,0.1-0.5,0.2-0.7,0.1c0.1-0.3,0.5-0.5,0.8-0.3C1470.4,468.5,1470.6,468.9,1470.4,469.2z"/>
	</g>
</g>
<g>
	<g>
		<path class="st1" d="M67.3,629.8c60.7,40.3,161.3,2.6,186.7-42.7c74.7-132.9,211.9-134.4,204.9-142.3
			c-7.1-8-311.8-173.3-424.5-3.6C-8.1,505,6.6,589.5,67.3,629.8z"/>
	</g>
	<g>
		<path class="st4" d="M151,482.4c0,0,7.2,141.9-130.1,78.6c0,0,27.6,131.9,182.4,73.6c0,0,47.6-30.3,46.8-80.8
			C249.6,522.6,214.9,465.2,151,482.4z"/>
	</g>
	<g>
		<path class="st0" d="M463.3,445.3c0,0-146.3,38.9-197.3,125.6c0,0,6.7-35.5-16.6-72.1C249.3,498.8,342.2,418.9,463.3,445.3z"/>
	</g>
	<g>
		<path class="st2" d="M458.8,444.7c0,0-144.9-1.7-195.9,85c0,0-0.2-7.3-15.1-35.1C247.8,494.6,337.8,418.2,458.8,444.7z"/>
	</g>
	<g>
		<path class="st4" d="M300.7,388.6c0,0-167.9-41.6-251.2,65.6c-28,36-23.4-0.7,24.7-42.6C114.5,376.4,181.7,360.7,300.7,388.6z"/>
	</g>
	<g class="st5">
		<g>
			<path class="st2" d="M199.6,468.5c5.3,0.8,10.5,2.4,15.3,4.9c0.6,0.3,1.1,0.6,1.6,0.9c-8.6-3.8-17.8-5.8-27.2-6.1
				C192.8,467.9,196.2,468,199.6,468.5z"/>
		</g>
		<g>
			<path class="st2" d="M41.3,596.4c7.4,1.6,107.3,72.1,168.9-24.1c32.1-50.1-32.8-99.5-57.6-90.5c0,0,15-11.2,30.7-13.1
				c2-0.2,4-0.6,6-0.7c9.4,0.3,18.6,2.3,27.2,6.1c3.6,1.6,7.1,3.5,10.5,5.7c37.9,25.2,44.3,82.2,14.4,127.3
				c-30,45.1-107.3,52.2-141.9,39.5C57.8,631.5,41.7,596.6,41.3,596.4z"/>
		</g>
	</g>
	<g>
		<path class="st0" d="M458.9,445.5c0.2-0.2,0.1,0.7,1.1-0.7c-0.2-0.9-0.3-0.6-0.4-0.8c-0.2-0.2-0.3-0.3-0.5-0.4
			c-0.3-0.2-0.6-0.4-0.9-0.6c-0.6-0.4-1.2-0.8-1.8-1.1c-1.2-0.7-2.5-1.5-3.7-2.2c-2.5-1.4-5-2.8-7.5-4.1c-5-2.7-10.1-5.2-15.3-7.8
			c-10.3-5-20.7-9.8-31.1-14.3c-21-9-42.4-17.1-64.2-24.1c-21.8-7-43.9-13-66.4-17.5c-22.5-4.5-45.3-7.5-68.4-8.2
			c-23-0.6-46.3,1-68.9,6.5c-22.6,5.4-44.5,14.9-63.4,29c-9.4,7-18.1,15.1-25.7,24c-3.8,4.5-7.4,9.1-10.7,14
			c-3.3,4.8-6.4,9.9-9.2,15.1c-11.1,20.8-17.2,44.4-17.4,68.1C4.3,544.1,10,568,21.5,589c5.7,10.5,12.8,20.3,21.2,28.9
			c8.3,8.6,17.9,16.2,28.1,22.2c10.2,6.1,21.2,11.1,32.7,14.6c11.5,3.5,23.5,5.5,35.5,5.8c12.1,0.3,24.2-1,35.9-4.1
			c11.7-3.1,22.9-7.8,33.3-13.9c35.3-22.5,58.5-55.7,60-85.8c0.6-12.2-2.3-24.1-6.2-35.3c-4-11.2-9.5-21.9-17-31.2
			c-7.4-9.3-16.8-17.4-27.9-22.2c-5.5-2.4-11.5-3.8-17.5-4.3c-6-0.4-12,0.1-17.7,1.6c-5.7,1.4-11.2,3.6-16.3,6.4
			c-5.1,2.8-9.9,6.1-14.4,9.6c-0.3,0.2-0.4,0.7-0.1,1c0.2,0.3,0.6,0.3,0.9,0.1c9.4-6.3,19.8-11.2,30.7-13.1c5.4-1,10.9-1.1,16.3-0.3
			c5.3,0.8,10.5,2.4,15.3,4.9c9.6,4.8,17.7,12.5,23.9,21.4c6.3,8.9,11.1,18.9,14.2,29.3c1.6,5.2,2.8,10.5,3.5,15.9
			c0.8,5.4,1.1,10.7,0.9,16.1c-0.2,5.3-0.6,10.6-2.4,15.4c-14.9,40.5-44,53.1-53.4,58.4c-18.7,10.8-40.2,16.2-61.6,15.5
			c-21.5-0.5-42.8-7-61.5-17.8c-9.5-5.4-18.1-11.9-25.8-19.5c-7.7-7.6-14.3-16.3-19.6-25.7c-10.7-18.9-16.4-40.6-16.5-62.5
			c-0.2-21.9,5.1-43.8,15.2-63.4c5-9.8,11.2-19,18.2-27.6c7-8.5,15-16.2,23.8-23c17.5-13.5,38.2-22.9,59.8-28.4
			c21.7-5.6,44.2-7.6,66.8-7.3c22.6,0.3,45.1,2.8,67.4,6.8c22.3,4,44.4,9.5,66.1,16.1c21.8,6.6,43.2,14.2,64.3,22.7
			c10.6,4.3,21,8.7,31.4,13.5c5.2,2.4,10.3,4.8,15.4,7.4c2.5,1.3,5.1,2.6,7.6,3.9c1.3,0.7,2.5,1.4,3.7,2.1c0.6,0.4,1.2,0.7,1.8,1.1
			c0.3,0.2,0.6,0.4,0.9,0.6c0.1,0.1,0.3,0.2,0.4,0.3c0-0.1,0.1,0.3-0.1-0.4c0.9-1.2,0.6-0.4,0.6-0.6c-0.4-0.1-0.8,0.2-0.8,0.5
			C458.2,445,458.5,445.4,458.9,445.5z"/>
	</g>
</g>
<g>
	<g>
		<path class="st1" d="M342.5,163.8c0.3,61.9,74.6,114.9,118.5,111.4c129.1-10.3,195.1,85.8,197.4,77.1
			C660.7,343.5,633,50.4,460,51.2C394.8,51.5,342.2,101.9,342.5,163.8z"/>
	</g>
	<g>
		<path class="st0" d="M704.8,293.2c0,0-30.2,140-93.7,27.7c-15.1-26.7-118.8-45.7-133-44.9c0,0,36.6-12.9,88.7-43
			C599.4,214.1,666.1,195.3,704.8,293.2z"/>
	</g>
</g>
<g>
	<g>
		<path class="st0" d="M779.2,370.7c-9.4,0.1-18.7,0.1-27.8-0.1c-5.1-0.1-10.4-0.2-15.6-0.4l-16.5-0.5l0.7,7.5l-7.2,0.1
			c-9.6,0.2-19.5,0-29.2-0.4c-9.9-0.4-19.9-0.9-29.9-1.3l-11.9-0.6l-2.9,11.5c-1.6,6.5-3,13.3-4.2,20.3c-2.8-3.9-5.8-7.6-9.2-10.9
			c-8.3-8.2-18.4-14.6-30.1-19c-11.4-4.3-24-6.4-37.5-6.4c-8.8,0-17.3,1.2-25.2,3.7c-3.7,1.1-7.3,2.5-10.7,4.1l-87.3-6.2l-16,27.2
			l-5.2-28.2l-94.5,11.9l40.7,105.6l-1.7,88.1h86.8l3.6-86.3l18.6-26c0,0.7,0,1.5,0,2.2c0,8.5,1.1,16.9,3.3,24.8
			c2.1,7.8,5.2,15.3,9.1,22.1c3.9,6.9,8.7,13.3,14.3,18.9c5.6,5.7,11.9,10.6,18.8,14.6c6.8,4,14.3,7.1,22.1,9.3
			c7.9,2.2,16.3,3.4,25,3.4c9,0,17.6-1.2,25.7-3.6c8-2.4,15.5-5.7,22.4-10c6.8-4.3,13.1-9.5,18.6-15.4c3.9-4.2,7.3-8.8,10.4-13.6
			c0.3,0.8,0.6,1.5,1,2.3c2.6,6,5.9,11.7,9.7,17.1c4,5.6,8.5,10.6,13.5,14.8c5.2,4.4,11,8,17.2,10.6c6.6,2.8,13.6,4.3,21,4.4
			c3.1,0.1,6.5-0.1,9.8-0.6c0.3,0,0.5-0.1,0.8-0.1l-1.2,10.3l80.1-5.9l1-12.4c2.4-28.7,4.9-57.6,7.5-85.8
			c2.6-28.1,5.7-56.9,9.4-85.3l2.2-17.3l-17.5,1C787,370.5,783.1,370.6,779.2,370.7z M716.8,437.7c1.1-5.6,2.4-11.2,3.8-16.8
			c-0.3,5.2-0.7,10.9-1.2,16.8c-0.5,6.2-1.3,12.5-2.2,18.6c-0.9,6-2,11.8-3.2,17.3c-0.5,2.4-1.1,4.7-1.8,6.8c0-0.7,0-1.3,0-1.7
			c0-6.8,0.4-13.6,1.2-20.3C714.3,451.5,715.4,444.5,716.8,437.7z M568.3,466.6c0,2-0.3,3.9-0.9,5.7c-0.6,1.7-1.4,3.1-2.4,4.3
			c-0.8,1-1.8,1.7-3,2.4c-1,0.5-2.3,0.8-3.9,0.8c-1.2,0-2.1-0.2-2.7-0.6c-1.1-0.7-2-1.5-2.8-2.6c-1-1.4-1.8-3.1-2.3-4.9
			c-0.6-2.1-0.9-4.2-0.9-6.3c0-2,0.3-3.7,0.9-5.4c0.5-1.4,1.2-2.6,2.1-3.6c0.8-0.9,1.8-1.7,3-2.2c1.1-0.5,2.5-0.8,4.2-0.8
			c1.3,0,2.3,0.2,3,0.6c1.1,0.6,2,1.4,2.7,2.3c0.9,1.2,1.6,2.6,2.1,4.3C568,462.6,568.3,464.5,568.3,466.6z"/>
	</g>
	<g>
		<path class="st0" d="M1467,518.6h4.4l12.3-157.9H1393l0.2,6.5l-67.1,2.3l-0.9,36.7l-20.4-42.5l-84.3,4l-1.1,44.8
			c-2.5-3.3-5.1-6.4-8-9.3c-8.3-8.2-18.4-14.6-30.1-19c-11.4-4.3-24-6.4-37.5-6.4c-8.8,0-17.3,1.2-25.2,3.7
			c-7.9,2.4-15.3,5.9-22,10.3c-5.6,3.6-10.7,7.8-15.4,12.6l5.1-30.2l-90.5-8.1l-1.4,14.3l-2.4-13.1h-72.2l-2,12.3l-1.6-13.5l-90.5,8
			l33.8,195.4l51.8-1.8l5.6-0.2l36.5-1.3l2.3-12.3l3.3,19.3l41.7-0.9l4.7-0.1l47.7-1l9.4-55.8c0.9,1.8,1.8,3.7,2.8,5.4
			c3.9,6.9,8.7,13.3,14.3,18.9c5.6,5.7,11.9,10.6,18.8,14.6c6.8,4,14.3,7.1,22.1,9.3c7.9,2.2,16.3,3.4,25,3.4c9,0,17.6-1.2,25.7-3.6
			c8-2.4,15.5-5.7,22.4-10c6.8-4.3,13.1-9.5,18.6-15.4c1.6-1.7,3.1-3.5,4.5-5.3l-0.9,37h83.7l2.2-37.6l14.2,36.8l83.6-7.7
			c1.8,3.3,4.1,6.3,6.7,8.9c3.6,3.6,7.9,6.5,12.6,8.6c4.9,2.1,10.2,3.2,15.8,3.2c5.5,0,10.8-1.1,15.7-3.2c4.8-2.1,9-5,12.6-8.6
			c3.6-3.6,6.5-7.8,8.6-12.5c2.2-5,3.3-10.3,3.3-16c0-5.5-1.1-10.8-3.3-15.8C1470,523.3,1468.6,520.9,1467,518.6z M1153.9,473.9
			c0,2-0.3,3.9-0.9,5.7c-0.6,1.7-1.4,3.1-2.4,4.3c-0.8,1-1.8,1.7-3,2.4c-1,0.5-2.3,0.8-3.9,0.8c-1.2,0-2.1-0.2-2.7-0.6
			c-1.1-0.7-2-1.5-2.8-2.6c-1-1.4-1.8-3.1-2.3-4.9c-0.6-2.1-0.9-4.2-0.9-6.3c0-2,0.3-3.7,0.9-5.4c0.5-1.4,1.2-2.6,2.1-3.6
			c0.8-0.9,1.8-1.7,3-2.2c1.1-0.5,2.5-0.8,4.2-0.8c1.3,0,2.3,0.2,3,0.6c1.1,0.6,2,1.4,2.7,2.3c0.9,1.2,1.6,2.6,2.2,4.3
			C1153.7,469.9,1153.9,471.9,1153.9,473.9z"/>
	</g>
</g>
<g>
	<path class="st1" d="M499.5,380.4l-67.4,94.1l-3.2,76.7h-58.1l1.5-76.2l-35-90.9l62.5-7.8l9.8,52.9l31.1-52.9L499.5,380.4z"/>
	<path class="st1" d="M635.2,452.4c0,7.4-0.9,14.6-2.6,21.5c-1.7,6.9-4.2,13.4-7.4,19.4c-3.2,6-7.1,11.6-11.8,16.6
		c-4.6,5-9.8,9.3-15.6,12.9c-5.8,3.6-12,6.4-18.8,8.4c-6.8,2-14,3-21.6,3c-7.4,0-14.4-0.9-21-2.8c-6.7-1.9-12.9-4.5-18.7-7.9
		c-5.8-3.4-11-7.5-15.7-12.3c-4.7-4.8-8.7-10.1-12-15.9c-3.3-5.8-5.9-12.1-7.7-18.8c-1.8-6.7-2.8-13.7-2.8-21
		c0-7.1,0.9-14.1,2.6-20.9c1.7-6.8,4.2-13.3,7.4-19.3c3.2-6,7.1-11.6,11.7-16.7c4.6-5.1,9.7-9.4,15.4-13.1
		c5.7-3.7,11.8-6.5,18.4-8.6c6.6-2,13.6-3.1,21-3.1c11.8,0,22.6,1.8,32.4,5.5c9.8,3.7,18.1,8.9,25,15.7c6.9,6.8,12.3,15.1,16.1,24.8
		C633.3,429.7,635.2,440.5,635.2,452.4z M580.8,455.6c0-3.5-0.5-6.9-1.5-10.2c-1-3.3-2.5-6.2-4.5-8.8c-2-2.6-4.4-4.7-7.3-6.2
		c-2.9-1.6-6.2-2.4-10-2.4c-3.8,0-7.3,0.7-10.3,2.1c-3,1.4-5.6,3.3-7.8,5.7c-2.2,2.4-3.8,5.2-5,8.5c-1.1,3.2-1.7,6.6-1.7,10.2
		c0,3.4,0.5,6.9,1.5,10.3c1,3.4,2.5,6.5,4.4,9.3c2,2.8,4.4,5,7.3,6.7c2.9,1.7,6.3,2.6,10.1,2.6c3.8,0,7.3-0.8,10.4-2.3
		c3.1-1.5,5.7-3.6,7.8-6.1c2.1-2.6,3.8-5.5,4.9-8.9C580.2,462.7,580.8,459.2,580.8,455.6z"/>
	<path class="st1" d="M789.8,373.7c-3.7,28.8-6.8,57.4-9.4,85.8c-2.6,28.5-5.1,57.1-7.5,86l-50.2,3.7l2.2-18.9
		c-1.6,1.9-3.5,3.5-5.7,4.9c-2.2,1.4-4.5,2.5-6.9,3.4c-2.5,0.9-5,1.5-7.6,1.8c-2.6,0.4-5.1,0.5-7.5,0.4c-5.6-0.1-10.8-1.2-15.7-3.2
		c-4.9-2.1-9.4-4.9-13.5-8.3c-4.1-3.5-7.8-7.5-11-12.1c-3.3-4.6-6-9.5-8.3-14.6c-2.2-5.1-4-10.3-5.1-15.6
		c-1.2-5.3-1.8-10.5-1.8-15.4c0-7.4,0.1-15,0.4-22.9c0.3-7.9,0.8-15.8,1.5-23.7c0.7-7.9,1.7-15.8,2.9-23.5
		c1.2-7.8,2.7-15.2,4.5-22.3c10,0.5,20,0.9,30,1.3c10,0.4,20.1,0.5,30,0.4c-1.9,7.1-3.7,14.2-5.6,21.4c-1.8,7.1-3.5,14.3-5,21.6
		c-1.5,7.2-2.7,14.5-3.6,21.7c-0.9,7.3-1.3,14.6-1.3,22.1c0,1.7,0.1,4.2,0.2,7.4c0.2,3.2,0.6,6.3,1.3,9.4c0.7,3.1,1.8,5.8,3.2,8.1
		c1.4,2.3,3.5,3.5,6.1,3.5c3.1,0,5.9-1.3,8.3-4c2.5-2.7,4.6-6.2,6.5-10.7c1.9-4.5,3.5-9.7,4.8-15.6c1.3-5.9,2.5-12,3.4-18.4
		c0.9-6.4,1.7-12.9,2.3-19.4c0.6-6.5,1-12.7,1.3-18.4c0.3-5.8,0.5-10.9,0.6-15.5c0.1-4.6,0.2-8.1,0.2-10.7c0-1.6,0-3.2-0.1-4.8
		c-0.1-1.6-0.2-3.1-0.4-4.8c5.3,0.2,10.6,0.3,15.8,0.4c5.2,0.1,10.5,0.1,15.8,0.1c4.1,0,8.2,0,12.3-0.1
		C781.5,374.1,785.6,374,789.8,373.7z"/>
	<path class="st1" d="M1067.2,376.2L1038.5,546l-69.6,1.5l-14.9-88L939,541.1l-69.6,2.5l-28.9-167.4l60.8-5.4l12.3,101.7L930,370.8
		h47.8l19.1,102.9l9.8-102.9L1067.2,376.2z"/>
	<path class="st1" d="M1220.9,459.8c0,7.4-0.9,14.6-2.6,21.5c-1.7,6.9-4.2,13.4-7.4,19.4c-3.2,6-7.1,11.6-11.8,16.6
		c-4.6,5-9.8,9.3-15.6,12.9c-5.8,3.6-12,6.4-18.8,8.4c-6.8,2-14,3-21.6,3c-7.4,0-14.4-0.9-21-2.8c-6.7-1.9-12.9-4.5-18.7-7.9
		c-5.8-3.4-11-7.5-15.7-12.3c-4.7-4.8-8.7-10.1-12-15.9c-3.3-5.8-5.9-12.1-7.7-18.8c-1.8-6.7-2.8-13.7-2.8-21
		c0-7.1,0.9-14.1,2.6-20.9c1.7-6.8,4.2-13.3,7.4-19.3c3.2-6,7.1-11.6,11.7-16.7c4.6-5.1,9.7-9.4,15.4-13.1
		c5.7-3.7,11.8-6.5,18.4-8.6c6.6-2,13.6-3.1,21-3.1c11.8,0,22.6,1.8,32.4,5.5c9.8,3.7,18.1,8.9,25,15.7c6.9,6.8,12.3,15.1,16.1,24.8
		C1219,437,1220.9,447.8,1220.9,459.8z M1166.4,462.9c0-3.5-0.5-6.9-1.5-10.2c-1-3.3-2.5-6.2-4.5-8.8c-2-2.6-4.4-4.7-7.3-6.2
		c-2.9-1.6-6.2-2.4-10-2.4c-3.8,0-7.3,0.7-10.3,2.1c-3,1.4-5.6,3.3-7.8,5.7c-2.2,2.4-3.8,5.2-5,8.5c-1.1,3.2-1.7,6.6-1.7,10.2
		c0,3.4,0.5,6.9,1.5,10.3s2.5,6.5,4.4,9.3c2,2.8,4.4,5,7.3,6.7c2.9,1.7,6.3,2.6,10.1,2.6c3.8,0,7.3-0.8,10.4-2.3
		c3.1-1.5,5.7-3.6,7.8-6.1c2.1-2.6,3.8-5.5,4.9-8.9C1165.9,470,1166.4,466.5,1166.4,462.9z"/>
	<path class="st1" d="M1396.1,370.6l-8.8,166.1l-64.2,5.9l-34.3-89l-5.4,90.7h-55.1l4.4-173.7l61.3-2.9l42.4,88.2l2-83.3
		L1396.1,370.6z"/>
	<path class="st1" d="M1466,364.2l-10,128.9h-45.3l-4.7-128.9H1466z M1457.9,530.8c0,3.6-0.7,6.9-2.1,10c-1.4,3.1-3.2,5.8-5.6,8.1
		s-5,4.2-8.1,5.5c-3.1,1.3-6.4,2-9.9,2c-3.6,0-6.9-0.7-10-2c-3.1-1.3-5.8-3.2-8.1-5.5s-4.2-5-5.5-8.1c-1.3-3.1-2-6.5-2-10
		c0-3.5,0.7-6.9,2-10c1.3-3.2,3.2-5.9,5.5-8.3s5-4.2,8.1-5.6c3.1-1.4,6.5-2.1,10-2.1c3.5,0,6.8,0.7,9.9,2.1c3.1,1.4,5.8,3.2,8.1,5.6
		s4.2,5.1,5.6,8.3C1457.2,524,1457.9,527.3,1457.9,530.8z"/>
</g>
<g>
	<path class="st1" d="M1274.6,686.7c2,7.9,3.1,16.2,3.1,24.8c0,54.9-44.5,99.3-99.3,99.3c-21.9,0-42.1-7.1-58.5-19.1
		c11,42.9,49.9,74.5,96.2,74.5c54.9,0,99.3-44.5,99.3-99.3C1315.5,734,1299.4,704.7,1274.6,686.7z"/>
</g>
<g>
	<g>
		<path class="st4" d="M541.3,108.4c-23.6-30.2-58.1-44.7-92.7-40.8c-39.4,4.4-83.4,40-83.4,89.4c0,31.9,13.4,59.8,33.6,75.7
			c-0.2-3.5-0.4-7-0.4-10.6C398.4,156.3,424.2,114,541.3,108.4z"/>
	</g>
</g>
</svg>
