<?xml version="1.0" encoding="utf-8"?>
<!-- Generator: Adobe Illustrator 21.0.0, SVG Export Plug-In . SVG Version: 6.00 Build 0)  -->
<svg version="1.1" id="Layer_1" xmlns="http://www.w3.org/2000/svg" xmlns:xlink="http://www.w3.org/1999/xlink" x="0px" y="0px"
	 viewBox="0 0 520.7 485.6" style="enable-background:new 0 0 520.7 485.6;" xml:space="preserve" preserveAspectRatio="none">
<style type="text/css">
	.st0{fill:#192E58;}
	.st1{fill:#FFFFFF;}
	.st2{fill:#1B75BB;}
	.st3{opacity:0.13;}
	.st4{fill:#66CCF1;}
</style>
<g>
	<path class="st0" d="M498,0l-30.1,0.8L30.4,12.2C14.9,12.6,3.7,126.7,0.1,242.8h0C-0.7,363.6,6.6,486,22.7,485.6l30.1-0.8
		l437.5-11.4c15.5-0.4,26.7-114.5,30.4-230.6h0C521.4,122,514.1-0.4,498,0z"/>
</g>
<g>
	<path class="st1" d="M34.2,460c-1.9-3.2-7.6-16.9-12-71.7c-3.1-39.5-4.9-91.2-4.8-145.5c0-54.3,1.8-106,4.9-145.5
		c4.4-54.8,10.1-68.5,12-71.7h452.1c1.9,3.2,7.6,16.8,12,71.7c3.2,39.5,4.9,91.2,4.9,145.5c0,54.3-1.7,106-4.8,145.5
		c-4.4,54.8-10,68.5-12,71.7H34.2z"/>
</g>
<g>
	<path class="st1" d="M495.9,242.8L495.9,242.8c0-52-1.6-102-4.6-140.6c-3.4-44.5-7.6-62.3-9.8-69h-21.6H260.4H60.8H39.2
		c-2.3,6.7-6.4,24.5-9.8,69c-2.9,38.7-4.6,88.6-4.6,140.6l0,0c0,0,0,0,0,0c0,0,0,0,0,0s0,0,0,0c0,0,0,0,0,0l0,0
		c0,52,1.6,102,4.6,140.6c3.4,44.5,7.6,62.3,9.8,69h21.6h199.5h199.5h21.6c2.3-6.7,6.4-24.5,9.8-69
		C494.2,344.8,495.8,294.8,495.9,242.8L495.9,242.8C495.9,242.8,495.9,242.8,495.9,242.8C495.9,242.8,495.9,242.8,495.9,242.8
		C495.9,242.8,495.9,242.8,495.9,242.8C495.9,242.8,495.9,242.8,495.9,242.8z"/>
	<path class="st2" d="M488.3,18.1h-28.4H32.4c-30,0-30.1,449.4-0.1,449.4h28.5h427.6C518.4,467.5,518.3,18.1,488.3,18.1z
		 M40.7,450.5c-2.3-7.4-6.1-25.5-9.3-67.2c-2.9-38.6-4.6-88.5-4.6-140.5c0-52,1.6-101.8,4.6-140.5c3.2-41.7,7-59.7,9.3-67.2H480
		c2.3,7.4,6.1,25.5,9.3,67.2c2.9,38.6,4.6,88.5,4.6,140.5l2,0l0,0l-2,0c0,52-1.6,101.8-4.6,140.5c-3.2,41.7-7,59.7-9.3,67.2H40.7z"
		/>
</g>
<g class="st3">
	<path class="st4" d="M24.8,241.9c0,0,228.7,172,471.3-1.4c0,0,0,176.3-15,210.5h-442C27.5,405.2,24.8,241.9,24.8,241.9z"/>
</g>
</svg>
