<?xml version="1.0" encoding="utf-8"?>
<!-- Generator: Adobe Illustrator 21.0.0, SVG Export Plug-In . SVG Version: 6.00 Build 0)  -->
<svg version="1.1" id="Layer_1" xmlns="http://www.w3.org/2000/svg" xmlns:xlink="http://www.w3.org/1999/xlink" x="0px" y="0px"
	 viewBox="0 0 131.1 132" style="enable-background:new 0 0 131.1 132;" xml:space="preserve">
<style type="text/css">
	.st0{fill:#79D0EB;}
	.st1{fill:#1A2D57;}
	.st2{fill:#B6E2EF;}
</style>
<g>
	<path class="st0" d="M105.4,53.8l-66.7-35c-3.6-1.9-7.5-2.8-11-2.8c-6.2,0-11.1,2.8-10.8,7.6l-1,84.3c0.3,5.2,5.4,8.1,11.7,8.1
		c4,0,8.5-1.2,12.6-3.7l66.8-35.1C118.4,70.4,117.6,60.2,105.4,53.8z M93.2,73.8l-49.6,26c-7.8,4.8-17.7,3-18-3.3L26.3,34
		c-0.3-5.5,8.7-7.5,16.2-3.6l49.5,26C101.1,61.2,101.6,68.7,93.2,73.8z"/>
	<path class="st1" d="M112.9,39.7l-66.7-35C40.4,1.6,34.1,0,27.8,0c0,0,0,0,0,0C19.3,0,11.9,2.9,7,8.1c-4,4.3-6.2,9.8-6,15.7l-1,84
		c0,0.3,0,0.7,0,1C0.7,122.2,12.4,132,27.7,132c7,0,14.2-2,20.4-5.7l66.4-34.9c0.3-0.2,0.6-0.3,0.9-0.5c10.3-6.3,16-15.6,15.6-25.7
		C130.8,54.9,124.1,45.6,112.9,39.7z M27.7,116c-6.3,0-11.4-2.9-11.7-8.1l1-84.3c-0.3-4.8,4.6-7.6,10.8-7.6c3.5,0,7.4,0.9,11,2.8
		l66.7,35c12.2,6.4,12.9,16.6,1.7,23.4l-66.8,35.1C36.2,114.8,31.7,116,27.7,116z"/>
	<path class="st2" d="M92,56.4l-49.5-26C35,26.5,26,28.5,26.3,34l-0.7,62.6c0.3,6.3,10.2,8,18,3.3l49.6-26
		C101.6,68.7,101.1,61.2,92,56.4z"/>
</g>
</svg>
