<?xml version="1.0" encoding="utf-8"?>
<!-- Generator: Adobe Illustrator 21.0.0, SVG Export Plug-In . SVG Version: 6.00 Build 0)  -->
<svg version="1.1" id="Layer_1" xmlns="http://www.w3.org/2000/svg" xmlns:xlink="http://www.w3.org/1999/xlink" x="0px" y="0px"
	 viewBox="0 0 940.9 525.3" style="enable-background:new 0 0 940.9 525.3;" xml:space="preserve" preserveAspectRatio="none">
<style type="text/css">
	.st0{fill:#3FA6DD;}
	.st1{fill:#277EBC;}
	.st2{fill:none;}
	.st3{opacity:0.53;}
	.st4{fill:#B3E1F0;}
	.st5{opacity:6.000000e-02;}
	.st6{fill:#FFFFFF;}
</style>
<g>
	<path class="st0" d="M910.2,519.3H30.7C17,519.3,6,508.2,6,494.6L6.1,30.7C6.1,17,17.1,6,30.7,6h879.5c13.6,0,24.7,11,24.7,24.7
		l-0.1,463.9C934.9,508.2,923.8,519.3,910.2,519.3z"/>
	<path class="st1" d="M910.2,525.3H30.7c-8.2,0-15.9-3.2-21.7-9c-5.8-5.8-9-13.5-9-21.7L0.1,30.7C0.1,13.8,13.8,0,30.7,0h879.5
		c8.2,0,15.9,3.2,21.7,9c5.8,5.8,9,13.5,9,21.7l-0.1,463.9C940.9,511.5,927.1,525.3,910.2,525.3z M30.7,12
		c-10.3,0-18.7,8.4-18.7,18.7L12,494.6c0,5,1.9,9.7,5.5,13.2c3.5,3.5,8.2,5.5,13.2,5.5h879.5c10.3,0,18.7-8.4,18.7-18.7l0.1-463.9
		c0-5-1.9-9.7-5.5-13.2c-3.5-3.5-8.2-5.5-13.2-5.5H30.7z"/>
</g>
<g>
	<path class="st2" d="M902.6,501.5H38.2c-14.3,0-26-11.6-26-26L12.3,30c0-14.3,11.6-26,26-26h864.4c14.3,0,26,11.6,26,26l-0.1,445.5
		C928.6,489.9,917,501.5,902.6,501.5z"/>
</g>
<g class="st3">
	<g>
		<path class="st4" d="M918.1,0.8h-55.7H23.4c-15.7,0,108.8,6.4,447.3,6.4C690.3,7.2,933.8,0.8,918.1,0.8z"/>
	</g>
</g>
<g class="st3">
	<g>
		<path class="st4" d="M923.1,524.6h-55.7H28.5c-15.7,0,108.8-6.4,447.3-6.4C695.3,518.3,938.8,524.6,923.1,524.6z"/>
	</g>
</g>
<g class="st3">
	<g>
		<path class="st4" d="M940.9,22.7v29.5v444.4c0,8.3-6.4-57.6-6.4-236.9C934.5,143.4,940.9,14.4,940.9,22.7z"/>
	</g>
</g>
<g class="st3">
	<g>
		<path class="st4" d="M0.6,29.9v29.5l0,444.4c0,8.3,6.4-57.6,6.4-236.9C7,150.5,0.6,21.6,0.6,29.9z"/>
	</g>
</g>
<g class="st5">
	<polygon class="st6" points="245.4,0.8 1,195.4 0.3,267 273.3,0.8 	"/>
</g>
<g class="st5">
	<polygon class="st6" points="0.3,280.1 286.7,0.8 295.3,0.8 0.3,287.4 	"/>
</g>
</svg>
