<?xml version="1.0" encoding="utf-8"?>
<!-- Generator: Adobe Illustrator 21.0.0, SVG Export Plug-In . SVG Version: 6.00 Build 0)  -->
<svg version="1.1" id="Layer_1" xmlns="http://www.w3.org/2000/svg" xmlns:xlink="http://www.w3.org/1999/xlink" x="0px" y="0px"
	 viewBox="0 0 150 52.5" style="enable-background:new 0 0 150 52.5;" xml:space="preserve" preserveAspectRatio="none">
<style type="text/css">
	.st0{fill:#192E58;}
	.st1{fill:#0D6799;}
	.st2{fill:#00ADEE;}
	.st3{fill:#B3E1F0;}
	.st4{fill:#045073;}
	.st5{fill:#0A2E4C;}
	.st6{opacity:0.13;}
	.st7{fill:#66CCF1;}
	.st8{opacity:0.64;}
	.st9{opacity:0.31;}
</style>
<g>
	<path class="st0" d="M145.1,0l-12.2,0.1l0,0L7.6,1.1C-1.5,1.2-2.9,52.6,6.1,52.5l8.6-0.1l0,0l125.6-1.3C149.5,51,154.2-0.1,145.1,0
		z"/>
</g>
<g>
	<g>
		<path class="st1" d="M17.1,9.3c-1,0.5-3.2,6-3.2,16.5c0,10.5,2.2,16,3.3,16.5l115.3,0c1-0.5,3.2-6,3.2-16.4
			c0-10.4-2.1-15.9-3.2-16.5H17.1z"/>
		<path class="st2" d="M16.6,45.2L16,44.9C12.3,43.3,11,33.6,11,25.7c0-7.8,1.3-17.5,4.9-19.2l0.6-0.3h116.8l0.7,0.3
			c3.6,1.9,4.8,11.5,4.8,19.1c0,7.8-1.3,17.4-4.9,19.1l-0.6,0.3L16.6,45.2z M130.6,40C130.6,40,130.6,40,130.6,40L130.6,40z
			 M19.2,40L19.2,40L19.2,40z M18.8,12.3C18.1,14,17,18.3,17,25.7c0,7.5,1.2,11.8,1.8,13.5l112.1,0c0.7-1.7,1.8-6.1,1.8-13.4
			c0-7.5-1.1-11.8-1.8-13.5H18.8z M19.1,11.4L19.1,11.4z"/>
	</g>
	<g>
		<path class="st3" d="M18.9,40.3L18.9,40.3L18.9,40.3 M131.2,39.7h-5.9H18.5c-0.8-1.7-2-6.4-2-14c0-7.6,1.2-12.2,2-14h5.9h106.9
			c0.8,1.7,2,6.4,2,14C133.3,33.3,132,38,131.2,39.7 M132.5,44.7c7.6,0,7.6-37.9,0-37.9H24.4h-7.2c-7.6,0-7.6,37.9,0,37.9h108.2
			H132.5L132.5,44.7z"/>
	</g>
</g>
<g>
	<g>
		<path class="st4" d="M19.5,10.8c-1,0.4-3.1,5.3-3,14.5c0,9.2,2.1,14,3.2,14.5l110.6,0c1-0.4,3.1-5.2,3.1-14.4c0-9.1-2-14-3.1-14.5
			H19.5z"/>
		<path class="st4" d="M19.2,41.7l-0.4-0.1c-2.6-1.1-4.4-7.8-4.4-16.3c0-8.5,1.7-15.2,4.2-16.3l0.4-0.2h111.5L131,9
			c2.5,1.2,4.2,7.9,4.2,16.3c0,8.5-1.8,15.2-4.3,16.3l-0.4,0.2L19.2,41.7z M129,38.1L129,38.1L129,38.1z M20.4,12.8
			c-0.7,1.3-2,5.1-2,12.5c0,7.4,1.4,11.3,2,12.5l108.8,0c0.7-1.3,2-5.1,2-12.4c0-7.4-1.3-11.3-2-12.5H20.4z"/>
	</g>
	<g>
		<path class="st2" d="M19.5,40.2L19.5,40.2c-1.5-0.6-3.6-5.7-3.6-15c0-8.8,1.9-14.3,3.3-14.9l0.2,0h110.8l0.1,0
			c1.4,0.7,3.4,5.9,3.4,14.9c0,8.8-2,14.3-3.4,14.9l-0.2,0L19.5,40.2z M19.6,11.3c-0.6,0.5-2.7,4.9-2.7,14c0,9.3,2.1,13.5,2.8,14
			l110.3,0c0.6-0.5,2.7-4.9,2.7-13.9c0-9.3-2-13.4-2.7-14H19.6z"/>
	</g>
</g>
<g>
	<g>
		<path class="st5" d="M130,11.2h-6.9H19.9c-1.9,0,13.4,2.2,55.1,2.2C102,13.5,132,11.2,130,11.2z"/>
	</g>
</g>
<g class="st6">
	<path class="st7" d="M16.5,19.8c0,0,56.7,15.3,116.9-0.1c0,0,0,15.7-3.7,18.7H20C15.4,33.9,16.5,19.8,16.5,19.8z"/>
</g>
<g class="st8">
	<g>
		<path class="st5" d="M130,39h-6.9H19.9C18,39,33.3,36.7,75,36.7C102,36.8,132,39,130,39z"/>
	</g>
</g>
<g class="st9">
	<g>
		<g>
			<path class="st1" d="M17.2,9.3c-1,0.5-3.2,6-3.2,16.5c0,10.5,2.2,16,3.3,16.5l115.3,0c1-0.5,3.2-6,3.2-16.4
				c0-10.4-2.1-15.9-3.2-16.5H17.2z"/>
		</g>
		<g>
			<path class="st2" d="M16.7,45.2l-0.6-0.3C12.4,43.3,11,33.6,11,25.7c0-7.8,1.3-17.5,4.9-19.2l0.6-0.3h116.8l0.7,0.3
				c3.6,1.9,4.8,11.5,4.8,19.1c0,7.8-1.3,17.4-4.9,19.1l-0.6,0.3L16.7,45.2z M130.6,40L130.6,40L130.6,40z M18.8,12.3
				C18.1,14,17,18.3,17,25.7c0,7.5,1.2,11.8,1.8,13.5l112.1,0c0.7-1.7,1.8-6.1,1.8-13.4c0-7.5-1.1-11.8-1.8-13.5H18.8z"/>
		</g>
	</g>
	<g>
		<g>
			<path class="st3" d="M18.9,40.3L18.9,40.3L18.9,40.3 M131.3,39.7h-5.9H18.6c-0.8-1.7-2-6.4-2-14c0-7.6,1.2-12.2,2-14h5.9h106.9
				c0.8,1.7,2,6.4,2,14C133.3,33.3,132.1,38,131.3,39.7 M132.6,44.7c7.6,0,7.6-37.9,0-37.9H24.4h-7.2c-7.6,0-7.6,37.9,0,37.9h108.2
				H132.6L132.6,44.7z"/>
		</g>
	</g>
</g>
<g class="st9">
	<g>
		<g>
			<path class="st2" d="M19.6,40.2L19.6,40.2c-1.5-0.6-3.6-5.7-3.6-15c0-8.8,1.9-14.3,3.3-14.9l0.2,0h110.8l0.1,0
				c1.4,0.7,3.4,5.9,3.4,14.9c0,8.8-2,14.3-3.4,14.9l-0.2,0L19.6,40.2z M19.7,11.3c-0.6,0.5-2.7,4.9-2.7,14c0,9.3,2.1,13.5,2.8,14
				l110.3,0c0.6-0.5,2.7-4.9,2.7-13.9c0-9.3-2-13.4-2.7-14H19.7z"/>
		</g>
	</g>
	<g>
		<g>
			<path class="st5" d="M19.2,42.2L18.7,42c-3.2-1.3-4.7-9.4-4.7-16.8c0-7.4,1.4-15.4,4.5-16.8l0.5-0.2h111.7l0.5,0.2
				c3.1,1.5,4.5,9.5,4.5,16.7c0,7.3-1.4,15.4-4.6,16.7l-0.5,0.2L19.2,42.2z M21.2,37.7L21.2,37.7L21.2,37.7z M20.8,13.3
				c-0.6,1.4-1.8,5.2-1.8,12c0,6.8,1.2,10.6,1.8,12l108.2,0c0.6-1.4,1.8-5.2,1.8-11.9c0-6.8-1.2-10.6-1.8-12H20.8z"/>
		</g>
	</g>
</g>
<g class="st9">
	<g>
		<g>
			<path class="st5" d="M130.1,11.2h-6.9H20c-1.9,0,13.4,2.2,55.1,2.2C102.1,13.5,132,11.2,130.1,11.2z"/>
		</g>
	</g>
</g>
<g class="st9">
	<g>
		<path class="st7" d="M16.5,19.8c0,0,56.7,15.3,116.9-0.1c0,0,0,15.7-3.7,18.7H20.1C15.4,33.9,16.5,19.8,16.5,19.8z"/>
	</g>
</g>
<g class="st9">
	<g>
		<g>
			<path class="st5" d="M130.1,39h-6.9H20C18,39,33.3,36.7,75,36.7C102.1,36.8,132,39,130.1,39z"/>
		</g>
	</g>
</g>
</svg>
