<?xml version="1.0" encoding="utf-8"?>
<!-- Generator: Adobe Illustrator 21.0.0, SVG Export Plug-In . SVG Version: 6.00 Build 0)  -->
<svg version="1.1" id="Layer_1" xmlns="http://www.w3.org/2000/svg" xmlns:xlink="http://www.w3.org/1999/xlink" x="0px" y="0px"
	 viewBox="0 0 372.3 190.5" style="enable-background:new 0 0 372.3 190.5;" xml:space="preserve" preserveAspectRatio="none">
<style type="text/css">
	.st0{fill:#192E58;}
	.st1{fill:#FFFFFF;}
	.st2{fill:#1B75BB;}
	.st3{opacity:0.13;}
	.st4{fill:#66CCF1;}
</style>
<g>
	<path class="st0" d="M360.3,0L330,0.5l0,0l-311,5C-3.6,5.8-7.4,191,15.1,190.5l21.4-0.4l0,0l311.7-6C370.8,183.7,382.8-0.4,360.3,0
		z"/>
</g>
<g>
	<path class="st1" d="M340.1,7.8h-19.7l0,0H24.2c-20.8,0-20.9,167.1-0.1,167.1h19.8l0,0h296.3C361,174.9,360.9,7.8,340.1,7.8z"/>
	<path class="st2" d="M340.2,181.4H24.1c-11.4,0-15.6-16.8-18.1-31.4c-2.6-15.4-4-36.1-4-58.3c0-22.3,1.4-43.1,4-58.7
		C8.6,18.2,12.8,1.3,24.2,1.3h315.9c11.4,0,15.7,16.9,18.1,31.7c2.6,15.6,4,36.4,4,58.7c0,22.2-1.4,42.9-4,58.3
		C355.9,164.6,351.6,181.4,340.2,181.4z M25.1,168.4h314.2c1-1.3,4.3-6.6,6.9-25c2-14.3,3.1-32.7,3.1-52c0-19.3-1.1-37.8-3.2-52
		c-2.6-18.4-5.9-23.7-6.9-25h-314c-1,1.3-4.3,6.6-6.9,25c-2,14.3-3.2,32.7-3.2,52c0,19.3,1.1,37.8,3.1,52
		C20.8,161.8,24.1,167.1,25.1,168.4z"/>
</g>
<g class="st3">
	<path class="st4" d="M16.1,88.9c0,0,161.8,67.4,333.4-0.5c0,0,0,69-10.6,82.4H26.2C12.9,151.1,16.1,88.9,16.1,88.9z"/>
</g>
</svg>
