<?xml version="1.0" encoding="utf-8"?>
<!-- Generator: Adobe Illustrator 21.0.0, SVG Export Plug-In . SVG Version: 6.00 Build 0)  -->
<svg version="1.1" id="Layer_1" xmlns="http://www.w3.org/2000/svg" xmlns:xlink="http://www.w3.org/1999/xlink" x="0px" y="0px"
	 viewBox="0 0 1686.5 778.7" style="enable-background:new 0 0 1686.5 778.7;" xml:space="preserve">
<style type="text/css">
	.st0{fill:#1B75BB;}
	.st1{fill:#25A9E0;}
	.st2{fill:#FFFFFF;}
</style>
<g>
	<g>
		<path class="st0" d="M228.7,325.4c-30.1-19.8-146.6-60.7-201.4,22.4c-44.8,67.9-24.1,120.7,10,143.2
			c41.9,27.6,104.1,9.6,90.9-82.2c-9-62.2,56.1-61.7,106.4-75C237.7,333,235.3,329.7,228.7,325.4z"/>
	</g>
	<g>
		<path class="st0" d="M1429.2,493.1c-4.8-1-7.3-0.6-6.3,1.1c16.2,28.1,45,56.8,13.5,80.1c-46.5,34.5-27.1,70,3.5,76.4
			c25,5.2,57.5-8.8,67.9-58.5C1520.6,531.4,1451.2,497.7,1429.2,493.1z"/>
	</g>
	<g>
		<path class="st0" d="M262.6,249.8c-27.2-17.8-65.8-30.3-48.2-65.4c25.9-51.8-7.4-74.7-37.6-66.6c-24.7,6.6-47.3,33.8-34.1,82.9
			c16.1,60,93.2,58.8,114.9,53C262.2,252.4,264.3,250.9,262.6,249.8z"/>
	</g>
	<g>
		<path class="st0" d="M1620.6,374.2c-86.4-49.4-171.9,39.7-189.8,70.9c-3.9,6.8-4.6,10.8-1.4,10.2c50.9-10.8,108.7-40.6,128.7,18.9
			c29.6,87.9,93.2,75.8,118.1,32.3C1696.6,470.9,1691.1,414.5,1620.6,374.2z"/>
	</g>
</g>
<g>
	<path class="st0" d="M1452.8,404.4c0-112.8-91.4-204.2-204.2-204.2c-19.4,0-38.2,2.7-56,7.8c-37.4-46.8-95-76.7-159.5-76.7
		c-51.7,0-99,19.2-134.9,51c-36.9-52.9-98.2-87.5-167.6-87.5c-88.3,0-163.5,56.1-192,134.5c-26.9-13.1-57.2-20.4-89.1-20.4
		c-105.6,0-192.5,80.2-203.1,183.1c-39,37.2-63.3,89.6-63.3,147.8c0,112.8,91.4,204.2,204.2,204.2c63.6,0,120.4-29.1,157.9-74.7
		c33.5,24,74.5,38.1,118.8,38.1c3.2,0,6.4-0.1,9.6-0.2c37.5,43.9,93.2,71.8,155.4,71.8c69.4,0,130.7-34.6,167.6-87.5
		c36.2,32.7,84.1,52.5,136.7,52.5c94.9,0,174.7-64.7,197.6-152.5C1402.7,559.7,1452.8,487.9,1452.8,404.4z"/>
</g>
<g>
	<path class="st1" d="M1452.8,338.5c0-112.8-91.4-204.2-204.2-204.2c-19.4,0-38.2,2.7-56,7.8c-37.4-46.8-95-76.7-159.5-76.7
		c-51.7,0-99,19.2-134.9,51c-36.9-52.9-98.2-87.5-167.6-87.5c-88.3,0-163.5,56.1-192,134.5c-26.9-13.1-57.2-20.4-89.1-20.4
		c-105.6,0-192.5,80.2-203.1,183.1c-39,37.2-63.3,89.6-63.3,147.8c0,112.8,91.4,204.2,204.2,204.2c63.6,0,120.4-29.1,157.9-74.7
		c33.5,24,74.5,38.1,118.8,38.1c3.2,0,6.4-0.1,9.6-0.2c37.5,43.9,93.2,71.8,155.4,71.8c69.4,0,130.7-34.6,167.6-87.5
		c36.2,32.7,84.1,52.5,136.7,52.5c94.9,0,174.7-64.7,197.6-152.5C1402.7,493.8,1452.8,422,1452.8,338.5z"/>
	<path class="st2" d="M829,741.8c-63.7,0-124.1-25.9-168-71.6c-39.3-0.5-77.1-10.7-110.9-29.7c-43.3,42.4-101.4,66.2-162.8,66.2
		c-62.2,0-120.8-24.2-164.8-68.2c-44-44-68.2-102.5-68.2-164.8c0-32.4,6.5-63.8,19.4-93.3c11-25.3,26.3-48,45.3-67.9
		c7.9-53,33.9-101.7,73.9-138c42.9-39,98.5-60.5,156.6-60.5c25.5,0,50.3,4,74,12C540.5,93.3,565,65,595.5,43.2
		C635.1,14.9,681.9,0,730.7,0c66,0,128.5,28.1,172.4,76.3c38.3-25.8,83.5-39.7,130.1-39.7c64.9,0,125.8,26.5,169.8,73.4
		c15-3,30.3-4.5,45.7-4.5c62.2,0,120.8,24.2,164.8,68.2c44,44,68.2,102.5,68.2,164.8c0,87.7-49.3,167.7-126.8,207.4
		c-31,95.4-120.2,160.8-221.6,160.8c-47.5,0-93.5-14.4-132.1-41.1C957.3,713.8,894.9,741.8,829,741.8z M673.6,612.3
		c8.4,0,16.4,3.7,21.9,10.1c33.4,39.2,82.1,61.6,133.5,61.6c57.3,0,111.1-28.1,143.9-75.2c4.7-6.8,12.2-11.2,20.4-12.2
		c8.2-0.9,16.4,1.7,22.6,7.2c32.2,29.1,73.9,45.1,117.4,45.1c79.8,0,149.5-53.8,169.7-130.9c2.2-8.5,8.2-15.6,16.3-19.1
		c63.6-28,104.7-91,104.7-160.5c0-96.7-78.7-175.3-175.3-175.3c-16.3,0-32.5,2.2-48.1,6.7c-11.2,3.2-23.1-0.7-30.4-9.7
		c-33.5-41.9-83.4-65.9-137-65.9c-42.7,0-83.9,15.5-115.9,43.8c-6.2,5.4-14.4,8-22.5,7c-8.2-1-15.5-5.4-20.2-12.1
		C841.8,85.8,788,57.7,730.7,57.7c-73.5,0-139.8,46.4-164.9,115.5c-2.8,7.7-8.7,13.8-16.3,16.9c-7.6,3.1-16.1,2.8-23.4-0.8
		c-23.9-11.6-49.7-17.5-76.5-17.5c-90.2,0-165.2,67.6-174.4,157.2c-0.7,6.8-3.8,13.2-8.8,17.9c-35,33.4-54.3,78.5-54.3,126.9
		c0,96.7,78.7,175.3,175.3,175.3c52.7,0,102.1-23.4,135.6-64.1c9.6-11.7,26.7-14,39.1-5.1c29.9,21.4,65.1,32.7,102,32.7
		c2.7,0,5.4-0.1,8.3-0.2C672.7,612.3,673.2,612.3,673.6,612.3z"/>
</g>
<g>
	<path class="st0" d="M1354.3,360.8c0-79-77.2-143-172.5-143c-16.4,0-32.3,1.9-47.3,5.4c-31.6-32.7-80.2-53.7-134.7-53.7
		c-43.7,0-83.6,13.5-114,35.7c-31.2-37-83-61.3-141.6-61.3c-74.6,0-138.1,39.3-162.2,94.2c-22.8-9.2-48.3-14.3-75.3-14.3
		c-89.2,0-162.7,56.2-171.6,128.2c-32.9,26-53.5,62.8-53.5,103.5c0,79,116.1,179.8,255.9,72.3c53.9,56.6,112.9,45,150.3,45
		c2.7,0,5.4-0.1,8.1-0.2c31.6,30.7,78.7,50.3,131.3,50.3c58.6,0,110.4-24.2,141.6-61.3c30.6,22.9,71.1,36.8,115.5,36.8
		c80.2,0,147.6-45.3,166.9-106.8C1311.9,469.5,1354.3,419.2,1354.3,360.8z"/>
</g>
<g>
	<g>
		<path class="st2" d="M227.1,306.3C197,286.4,80.5,245.6,25.7,328.7c-44.8,67.9-24.1,120.7,10,143.2c41.9,27.6,104.1,9.6,90.9-82.2
			c-9-62.2,56.1-61.7,106.4-75C236.1,313.9,233.6,310.6,227.1,306.3z"/>
	</g>
	<g>
		<path class="st2" d="M1419.8,466.3c-4.8-1-7.3-0.6-6.3,1.1c16.2,28.1,45,56.8,13.5,80.1c-46.5,34.5-27.1,70,3.5,76.4
			c25,5.2,57.5-8.8,67.9-58.5C1511.1,504.6,1441.8,470.9,1419.8,466.3z"/>
	</g>
	<g>
		<path class="st2" d="M260.9,230.6c-27.2-17.8-65.8-30.3-48.2-65.4c25.9-51.8-7.4-74.7-37.6-66.6c-24.7,6.6-47.3,33.8-34.1,82.9
			c16.1,60,93.2,58.8,114.9,53C260.5,233.2,262.7,231.7,260.9,230.6z"/>
	</g>
	<g>
		<path class="st2" d="M1618.9,355c-86.4-49.4-171.9,39.7-189.8,70.9c-3.9,6.8-4.6,10.8-1.4,10.2c50.9-10.8,108.7-40.6,128.7,18.9
			c29.6,87.9,93.2,75.8,118.1,32.3C1694.9,451.8,1689.5,395.3,1618.9,355z"/>
	</g>
</g>
<g>
	<path class="st0" d="M454.3,310.8l-65.4,91.4l-3.1,74.5h-56.4l1.4-74l-34-88.3l60.7-7.6l9.5,51.4l30.2-51.4L454.3,310.8z"/>
	<path class="st0" d="M586,380.8c0,7.2-0.8,14.2-2.5,20.9c-1.7,6.7-4.1,13-7.2,18.9c-3.1,5.9-6.9,11.2-11.4,16.1
		c-4.5,4.9-9.5,9.1-15.1,12.6c-5.6,3.5-11.7,6.2-18.3,8.2c-6.6,1.9-13.6,2.9-20.9,2.9c-7.1,0-13.9-0.9-20.4-2.7
		c-6.5-1.8-12.5-4.4-18.1-7.7c-5.6-3.3-10.7-7.3-15.3-11.9c-4.6-4.6-8.4-9.8-11.7-15.5c-3.2-5.7-5.7-11.8-7.5-18.3
		c-1.8-6.5-2.7-13.3-2.7-20.3c0-6.9,0.8-13.7,2.5-20.3c1.7-6.6,4.1-12.9,7.2-18.7c3.1-5.9,6.9-11.3,11.4-16.2
		c4.4-4.9,9.4-9.2,14.9-12.7c5.5-3.6,11.5-6.3,17.9-8.3c6.4-2,13.2-3,20.3-3c11.5,0,22,1.8,31.5,5.4c9.5,3.6,17.6,8.7,24.3,15.3
		c6.7,6.6,11.9,14.6,15.6,24S586,369.2,586,380.8z M533.2,383.9c0-3.4-0.5-6.7-1.5-9.9c-1-3.2-2.4-6.1-4.3-8.6
		c-1.9-2.5-4.3-4.5-7.1-6.1c-2.8-1.5-6-2.3-9.7-2.3c-3.7,0-7.1,0.7-10,2c-2.9,1.3-5.5,3.2-7.6,5.5c-2.1,2.3-3.7,5.1-4.8,8.2
		c-1.1,3.1-1.7,6.4-1.7,9.9c0,3.3,0.5,6.7,1.4,10c1,3.3,2.4,6.3,4.3,9c1.9,2.7,4.3,4.9,7.1,6.5c2.8,1.7,6.1,2.5,9.8,2.5
		c3.7,0,7.1-0.7,10.1-2.2c3-1.5,5.5-3.5,7.6-5.9c2.1-2.5,3.6-5.4,4.8-8.6C532.6,390.7,533.2,387.4,533.2,383.9z"/>
	<path class="st0" d="M736.2,304.4c-3.6,27.9-6.6,55.7-9.2,83.3c-2.5,27.6-5,55.5-7.3,83.5l-48.8,3.6l2.1-18.3
		c-1.6,1.8-3.4,3.4-5.5,4.8c-2.1,1.3-4.3,2.4-6.7,3.3s-4.8,1.4-7.4,1.8c-2.5,0.4-5,0.5-7.3,0.4c-5.4-0.1-10.5-1.1-15.2-3.2
		c-4.8-2-9.1-4.7-13.1-8.1c-4-3.4-7.5-7.3-10.7-11.8c-3.2-4.5-5.9-9.2-8-14.2c-2.2-5-3.8-10-5-15.2c-1.2-5.2-1.7-10.2-1.7-15
		c0-7.1,0.1-14.5,0.4-22.2c0.3-7.7,0.8-15.3,1.5-23c0.7-7.7,1.6-15.3,2.8-22.8c1.1-7.5,2.6-14.8,4.3-21.7c9.7,0.5,19.4,0.9,29.1,1.3
		c9.8,0.4,19.5,0.5,29.1,0.4c-1.8,6.9-3.6,13.8-5.4,20.8c-1.8,6.9-3.4,13.9-4.8,20.9c-1.4,7-2.6,14.1-3.5,21.1
		c-0.9,7.1-1.3,14.2-1.3,21.4c0,1.7,0.1,4,0.2,7.1c0.2,3.1,0.6,6.1,1.2,9.2c0.7,3,1.7,5.7,3.1,7.9c1.4,2.3,3.3,3.4,5.9,3.4
		c3,0,5.7-1.3,8.1-3.9c2.4-2.6,4.5-6,6.3-10.4c1.8-4.4,3.4-9.4,4.7-15.1s2.4-11.7,3.3-17.9c0.9-6.2,1.6-12.5,2.2-18.9
		c0.6-6.3,1-12.3,1.3-17.9c0.3-5.6,0.5-10.6,0.6-15.1c0.1-4.4,0.2-7.9,0.2-10.4c0-1.6,0-3.1-0.1-4.6c-0.1-1.5-0.2-3.1-0.4-4.6
		c5.2,0.2,10.3,0.3,15.3,0.4c5.1,0.1,10.2,0.1,15.3,0.1c4,0,8,0,12-0.1C728.1,304.8,732.1,304.6,736.2,304.4z"/>
	<path class="st0" d="M895.5,404.1l-5,52.8l-100.2,7.9c0.5-27.7,1-55.2,1.6-82.6s1.3-54.9,2.2-82.6H856c-1.8,17.4-3.6,34.7-5.2,52.1
		c-1.7,17.3-2.9,34.8-3.6,52.4c3.7,0.2,7.4,0.2,11.1,0.2c3.6,0,7.3,0,11.1,0c4.4,0,8.8,0,13.1-0.1
		C886.7,404.1,891,404.1,895.5,404.1z"/>
	<path class="st0" d="M1048.1,380.8c0,7.2-0.8,14.2-2.5,20.9c-1.7,6.7-4.1,13-7.2,18.9c-3.1,5.9-6.9,11.2-11.4,16.1
		c-4.5,4.9-9.5,9.1-15.1,12.6c-5.6,3.5-11.7,6.2-18.3,8.2c-6.6,1.9-13.6,2.9-20.9,2.9c-7.1,0-13.9-0.9-20.4-2.7
		c-6.5-1.8-12.5-4.4-18.1-7.7c-5.6-3.3-10.7-7.3-15.3-11.9c-4.6-4.6-8.4-9.8-11.7-15.5c-3.2-5.7-5.7-11.8-7.5-18.3
		c-1.8-6.5-2.7-13.3-2.7-20.3c0-6.9,0.8-13.7,2.5-20.3c1.7-6.6,4.1-12.9,7.2-18.7c3.1-5.9,6.9-11.3,11.4-16.2
		c4.4-4.9,9.4-9.2,14.9-12.7c5.5-3.6,11.5-6.3,17.9-8.3c6.4-2,13.2-3,20.3-3c11.5,0,22,1.8,31.5,5.4c9.5,3.6,17.6,8.7,24.3,15.3
		c6.7,6.6,11.9,14.6,15.6,24S1048.1,369.2,1048.1,380.8z M995.3,383.9c0-3.4-0.5-6.7-1.5-9.9c-1-3.2-2.4-6.1-4.3-8.6
		c-1.9-2.5-4.3-4.5-7.1-6.1c-2.8-1.5-6-2.3-9.7-2.3c-3.7,0-7.1,0.7-10,2c-2.9,1.3-5.5,3.2-7.6,5.5c-2.1,2.3-3.7,5.1-4.8,8.2
		c-1.1,3.1-1.7,6.4-1.7,9.9c0,3.3,0.5,6.7,1.4,10c1,3.3,2.4,6.3,4.3,9c1.9,2.7,4.3,4.9,7.1,6.5c2.8,1.7,6.1,2.5,9.8,2.5
		c3.7,0,7.1-0.7,10.1-2.2c3-1.5,5.5-3.5,7.6-5.9c2.1-2.5,3.6-5.4,4.8-8.6C994.7,390.7,995.3,387.4,995.3,383.9z"/>
	<path class="st0" d="M1178.4,411c0,10.9-1.9,20.2-5.7,28.1c-3.8,7.9-8.9,14.4-15.5,19.5s-14.2,8.9-23,11.3
		c-8.8,2.4-18.2,3.6-28.3,3.6c-3.9,0-8.1-0.5-12.8-1.5c-4.6-1-9.3-2.3-14.1-3.9c-4.8-1.5-9.3-3.2-13.7-5c-4.4-1.8-8.3-3.5-11.7-5.1
		l5.2-46.6c6.7,4,14.2,7.1,22.4,9.2c8.2,2.1,16.3,3.2,24.2,3.2c1.5,0,3.3-0.1,5.5-0.2s4.2-0.5,6.1-1.1c1.9-0.6,3.6-1.5,4.9-2.7
		c1.3-1.2,2-2.9,2-5.1c0-1.5-0.5-2.8-1.4-3.9c-1-1.1-2.2-1.9-3.7-2.6c-1.5-0.7-3.2-1.2-5.1-1.5c-1.9-0.4-3.8-0.6-5.6-0.8
		c-1.8-0.2-3.5-0.2-5.1-0.2c-1.6,0-2.9,0-3.8,0c-6.8,0-13-1.1-18.6-3.2c-5.6-2.1-10.4-5.2-14.4-9.1c-4-3.9-7.1-8.7-9.3-14.3
		c-2.2-5.6-3.3-11.8-3.3-18.6c0-9.4,1.9-17.7,5.7-25.2c3.8-7.4,8.8-13.7,15.1-18.9c6.3-5.2,13.5-9.2,21.7-12
		c8.2-2.8,16.6-4.2,25.3-4.2c3.9,0,7.9,0.1,12,0.4c4.1,0.3,8.2,0.8,12.3,1.5c4.1,0.7,8.1,1.6,12,2.7c3.9,1.1,7.6,2.5,11.1,4.2
		l-4.5,48.3c-5.4-1.8-11-3.3-17-4.6c-5.9-1.2-11.7-1.8-17.3-1.8c-1,0-2.4,0-4,0.1c-1.6,0-3.3,0.2-5.1,0.4c-1.8,0.2-3.6,0.5-5.4,0.9
		c-1.8,0.4-3.5,0.9-4.9,1.6c-1.4,0.7-2.6,1.6-3.5,2.7c-0.9,1.1-1.3,2.4-1.2,3.9c0.1,1.7,0.7,3.1,2,4c1.2,1,2.8,1.6,4.8,2.1
		c1.9,0.4,4.1,0.7,6.4,0.7c2.3,0,4.7-0.1,7-0.2c2.3-0.1,4.4-0.2,6.4-0.4c2-0.1,3.6-0.1,4.9-0.1c6.3,0.4,12.1,1.7,17.1,4
		c5.1,2.3,9.4,5.4,12.9,9.2c3.5,3.8,6.2,8.3,8.1,13.6C1177.5,398.8,1178.4,404.7,1178.4,411z"/>
	<path class="st0" d="M1309.2,304.2l-1.2,50.4l-35.5,1.4l-4.3,110.4l-50.2,2.6l-4.5-110.4l-35.5,1.9l1.4-56.2L1309.2,304.2z"/>
	<path class="st0" d="M1349.4,447.4c0,3.5-0.7,6.7-2,9.8c-1.3,3-3.2,5.7-5.4,7.9s-4.9,4-7.9,5.4c-3,1.3-6.2,2-9.6,2
		c-3.5,0-6.7-0.7-9.8-2c-3-1.3-5.7-3.1-7.9-5.4s-4-4.9-5.4-7.9c-1.3-3-2-6.3-2-9.8c0-3.4,0.7-6.7,2-9.8c1.3-3.1,3.1-5.8,5.4-8
		s4.9-4.1,7.9-5.4c3-1.3,6.3-2,9.8-2c3.4,0,6.6,0.7,9.6,2c3,1.3,5.7,3.2,7.9,5.4s4.1,4.9,5.4,8
		C1348.7,440.7,1349.4,444,1349.4,447.4z"/>
</g>
<g>
	<path class="st2" d="M483.2,329.2l-62.4,89.9l-3,73.3h-53.8l1.4-72.8l-32.5-86.9l57.9-7.5l9.1,50.6l28.8-50.6L483.2,329.2z"/>
	<path class="st2" d="M608.8,398c0,7.1-0.8,13.9-2.4,20.5c-1.6,6.6-3.9,12.8-6.9,18.6c-3,5.8-6.6,11.1-10.9,15.9
		c-4.3,4.8-9.1,8.9-14.4,12.3c-5.3,3.4-11.1,6.1-17.4,8c-6.3,1.9-12.9,2.9-20,2.9c-6.8,0-13.3-0.9-19.5-2.7
		c-6.2-1.8-11.9-4.3-17.3-7.6c-5.4-3.2-10.2-7.1-14.6-11.7c-4.4-4.6-8.1-9.6-11.1-15.2c-3.1-5.6-5.5-11.6-7.2-18
		c-1.7-6.4-2.6-13.1-2.6-20c0-6.8,0.8-13.4,2.4-20c1.6-6.5,3.9-12.7,6.9-18.4c3-5.8,6.6-11.1,10.8-15.9c4.2-4.8,9-9,14.3-12.5
		c5.3-3.5,11-6.2,17.1-8.2c6.1-2,12.6-2.9,19.4-2.9c11,0,21,1.8,30,5.3c9,3.5,16.8,8.5,23.2,15c6.4,6.5,11.4,14.4,14.9,23.6
		C607.1,376.3,608.8,386.6,608.8,398z M558.4,401.1c0-3.4-0.5-6.6-1.4-9.8c-0.9-3.2-2.3-6-4.1-8.4c-1.8-2.5-4.1-4.4-6.8-6
		c-2.7-1.5-5.8-2.3-9.3-2.3c-3.6,0-6.7,0.7-9.5,2c-2.8,1.3-5.2,3.1-7.2,5.4c-2,2.3-3.5,5-4.6,8.1c-1.1,3.1-1.6,6.3-1.6,9.8
		c0,3.3,0.5,6.6,1.4,9.8c0.9,3.3,2.3,6.2,4.1,8.9c1.8,2.7,4.1,4.8,6.8,6.4c2.7,1.6,5.8,2.5,9.4,2.5c3.6,0,6.8-0.7,9.6-2.2
		c2.8-1.4,5.2-3.4,7.2-5.9c2-2.5,3.5-5.3,4.5-8.5C557.9,407.8,558.4,404.5,558.4,401.1z"/>
	<path class="st2" d="M752.1,322.9c-3.4,27.5-6.3,54.8-8.7,82c-2.4,27.2-4.7,54.6-6.9,82.1l-46.6,3.5l2-18c-1.5,1.8-3.3,3.4-5.3,4.7
		c-2,1.3-4.1,2.4-6.4,3.2c-2.3,0.8-4.6,1.4-7,1.8c-2.4,0.4-4.7,0.5-6.9,0.4c-5.1-0.1-10-1.1-14.5-3.1c-4.5-2-8.7-4.6-12.5-8
		c-3.8-3.3-7.2-7.2-10.2-11.6c-3-4.4-5.6-9.1-7.7-13.9c-2.1-4.9-3.7-9.9-4.8-14.9c-1.1-5.1-1.6-10-1.6-14.7c0-7,0.1-14.3,0.4-21.8
		c0.3-7.5,0.7-15.1,1.4-22.7c0.7-7.6,1.6-15.1,2.7-22.5c1.1-7.4,2.5-14.5,4.1-21.3c9.2,0.5,18.5,0.9,27.8,1.3
		c9.3,0.4,18.6,0.5,27.8,0.4c-1.7,6.8-3.5,13.6-5.2,20.4c-1.7,6.8-3.2,13.7-4.6,20.6c-1.4,6.9-2.5,13.8-3.3,20.8
		c-0.8,6.9-1.2,14-1.2,21.1c0,1.6,0.1,4,0.2,7c0.2,3,0.5,6,1.2,9c0.6,3,1.6,5.6,3,7.8c1.3,2.2,3.2,3.3,5.6,3.3
		c2.9,0,5.4-1.3,7.7-3.8c2.3-2.5,4.3-6,6-10.2c1.7-4.3,3.2-9.2,4.5-14.9c1.2-5.6,2.3-11.5,3.2-17.6c0.9-6.1,1.6-12.3,2.1-18.6
		c0.5-6.2,0.9-12.1,1.2-17.6c0.3-5.5,0.5-10.4,0.6-14.8c0.1-4.4,0.2-7.8,0.2-10.2c0-1.6,0-3.1-0.1-4.6c-0.1-1.5-0.2-3-0.3-4.6
		c4.9,0.2,9.8,0.3,14.6,0.4c4.8,0.1,9.7,0.1,14.6,0.1c3.8,0,7.6,0,11.4-0.1C744.4,323.2,748.3,323.1,752.1,322.9z"/>
	<path class="st2" d="M904.2,421l-4.8,52l-95.6,7.7c0.5-27.2,1-54.3,1.5-81.2s1.3-54,2.1-81.2h59c-1.7,17.1-3.4,34.2-5,51.2
		c-1.6,17.1-2.7,34.2-3.4,51.6c3.6,0.2,7.1,0.2,10.6,0.2c3.5,0,7,0,10.6,0c4.2,0,8.4,0,12.5-0.1C895.8,421,899.9,421,904.2,421z"/>
	<path class="st2" d="M1049.9,398c0,7.1-0.8,13.9-2.4,20.5c-1.6,6.6-3.9,12.8-6.9,18.6c-3,5.8-6.6,11.1-10.9,15.9
		c-4.3,4.8-9.1,8.9-14.4,12.3c-5.3,3.4-11.1,6.1-17.4,8c-6.3,1.9-12.9,2.9-20,2.9c-6.8,0-13.3-0.9-19.5-2.7
		c-6.2-1.8-11.9-4.3-17.3-7.6c-5.4-3.2-10.2-7.1-14.6-11.7c-4.4-4.6-8.1-9.6-11.1-15.2c-3.1-5.6-5.5-11.6-7.2-18
		c-1.7-6.4-2.6-13.1-2.6-20c0-6.8,0.8-13.4,2.4-20c1.6-6.5,3.9-12.7,6.9-18.4c3-5.8,6.6-11.1,10.8-15.9c4.2-4.8,9-9,14.3-12.5
		c5.3-3.5,11-6.2,17.1-8.2c6.1-2,12.6-2.9,19.4-2.9c11,0,21,1.8,30,5.3c9,3.5,16.8,8.5,23.2,15c6.4,6.5,11.4,14.4,14.9,23.6
		C1048.1,376.3,1049.9,386.6,1049.9,398z M999.4,401.1c0-3.4-0.5-6.6-1.4-9.8c-0.9-3.2-2.3-6-4.1-8.4c-1.8-2.5-4.1-4.4-6.8-6
		c-2.7-1.5-5.8-2.3-9.3-2.3c-3.6,0-6.7,0.7-9.5,2c-2.8,1.3-5.2,3.1-7.2,5.4c-2,2.3-3.5,5-4.6,8.1c-1.1,3.1-1.6,6.3-1.6,9.8
		c0,3.3,0.5,6.6,1.4,9.8c0.9,3.3,2.3,6.2,4.1,8.9c1.8,2.7,4.1,4.8,6.8,6.4c2.7,1.6,5.8,2.5,9.4,2.5c3.6,0,6.8-0.7,9.6-2.2
		c2.8-1.4,5.2-3.4,7.2-5.9c2-2.5,3.5-5.3,4.5-8.5C998.9,407.8,999.4,404.5,999.4,401.1z"/>
	<path class="st2" d="M1174.2,427.7c0,10.7-1.8,19.9-5.4,27.7c-3.6,7.8-8.5,14.2-14.8,19.2c-6.2,5-13.6,8.7-21.9,11.1
		c-8.4,2.4-17.4,3.6-27,3.6c-3.7,0-7.8-0.5-12.2-1.5c-4.4-1-8.9-2.3-13.5-3.8c-4.5-1.5-8.9-3.2-13.1-4.9s-7.9-3.4-11.2-5l5-45.9
		c6.4,4,13.6,7,21.4,9.1c7.8,2.1,15.5,3.1,23.1,3.1c1.4,0,3.2-0.1,5.2-0.2s4-0.5,5.8-1.1c1.9-0.6,3.4-1.5,4.7-2.6
		c1.3-1.2,1.9-2.8,1.9-5c0-1.5-0.5-2.8-1.4-3.8c-0.9-1.1-2.1-1.9-3.5-2.6c-1.4-0.7-3.1-1.2-4.9-1.5c-1.8-0.4-3.6-0.6-5.3-0.8
		c-1.7-0.2-3.4-0.2-4.9-0.2c-1.5,0-2.7,0-3.6,0c-6.5,0-12.4-1.1-17.8-3.2c-5.3-2.1-9.9-5.1-13.7-9c-3.8-3.9-6.8-8.5-8.9-14
		c-2.1-5.5-3.2-11.6-3.2-18.3c0-9.2,1.8-17.5,5.4-24.8c3.6-7.3,8.4-13.5,14.4-18.6c6-5.1,12.9-9,20.7-11.8
		c7.8-2.7,15.9-4.1,24.2-4.1c3.7,0,7.5,0.1,11.5,0.4c3.9,0.3,7.9,0.8,11.8,1.5c3.9,0.7,7.7,1.6,11.4,2.7c3.7,1.1,7.2,2.5,10.6,4.1
		l-4.3,47.5c-5.1-1.8-10.5-3.3-16.2-4.5c-5.6-1.2-11.1-1.8-16.5-1.8c-1,0-2.3,0-3.8,0.1c-1.6,0-3.2,0.2-4.9,0.4
		c-1.7,0.2-3.4,0.5-5.2,0.9c-1.7,0.4-3.3,0.9-4.7,1.6c-1.4,0.7-2.5,1.5-3.3,2.6c-0.8,1.1-1.2,2.4-1.1,3.9c0.1,1.7,0.7,3,1.9,4
		c1.2,0.9,2.7,1.6,4.5,2c1.9,0.4,3.9,0.6,6.1,0.6c2.2,0,4.4-0.1,6.6-0.2c2.2-0.1,4.2-0.2,6.1-0.4c1.9-0.1,3.4-0.1,4.7-0.1
		c6.1,0.4,11.5,1.7,16.4,4c4.8,2.3,9,5.3,12.3,9c3.4,3.7,5.9,8.2,7.7,13.4C1173.3,415.8,1174.2,421.5,1174.2,427.7z"/>
	<path class="st2" d="M1299,322.6l-1.1,49.6l-33.8,1.4l-4.1,108.6l-47.9,2.6l-4.3-108.6l-33.8,1.9l1.4-55.3L1299,322.6z"/>
	<path class="st2" d="M1337.3,463.6c0,3.4-0.6,6.6-1.9,9.6c-1.3,3-3,5.6-5.2,7.8s-4.7,4-7.6,5.3c-2.9,1.3-5.9,1.9-9.2,1.9
		c-3.3,0-6.4-0.6-9.3-1.9c-2.9-1.3-5.4-3-7.6-5.3c-2.2-2.2-3.9-4.8-5.1-7.8c-1.2-3-1.9-6.2-1.9-9.6c0-3.4,0.6-6.6,1.9-9.6
		c1.2-3,3-5.7,5.1-7.9c2.2-2.2,4.7-4,7.6-5.3c2.9-1.3,6-2,9.3-2c3.3,0,6.3,0.7,9.2,2c2.9,1.3,5.4,3.1,7.6,5.3
		c2.2,2.2,3.9,4.9,5.2,7.9C1336.7,457,1337.3,460.2,1337.3,463.6z"/>
</g>
</svg>
