<?xml version="1.0" encoding="utf-8"?>
<!-- Generator: Adobe Illustrator 21.0.0, SVG Export Plug-In . SVG Version: 6.00 Build 0)  -->
<svg version="1.1" id="Layer_1" xmlns="http://www.w3.org/2000/svg" xmlns:xlink="http://www.w3.org/1999/xlink" x="0px" y="0px"
	 viewBox="0 0 875.7 789.1" style="enable-background:new 0 0 875.7 789.1;" xml:space="preserve" preserveAspectRatio="none">
<style type="text/css">
	.st0{fill:#1B75BA;}
	.st1{fill:#1A2D57;}
	.st2{fill:#AAD5F1;}
	.st3{fill:#FFFFFF;}
	.st4{opacity:0.13;fill:#66CCF1;}
</style>
<g>
	<g>
		<path class="st0" d="M109.3,776.9c-33.6,0-57.4-17.4-70.7-51.8C27.8,697,24.6,661,21.2,622.9c-5.3-60-8.3-140.6-8.3-226.9
			c0-86.6,3-167.7,8.3-228.3c3.4-38.3,6.6-74.5,17.5-102.8c13.3-34.6,37.1-52.1,70.8-52.1H767c33.7,0,57.5,17.5,70.8,52.1
			c10.9,28.3,14.1,64.5,17.5,102.8c5.4,60.6,8.3,141.6,8.3,228.3c0,86.3-2.9,166.9-8.3,226.9c-3.4,38.1-6.6,74.1-17.5,102.2
			c-13.3,34.4-37.1,51.8-70.7,51.8H109.3z"/>
		<path class="st1" d="M767,25.3c63.1,0,69.3,69.7,75.8,143.5c5.3,60.2,8.3,140.9,8.3,227.2c0,85.9-2.9,166.1-8.2,225.8
			c-6.5,73.4-12.7,142.7-75.7,142.7H109.3c-63,0-69.2-69.3-75.7-142.7c-5.3-59.7-8.2-139.9-8.2-225.8c0-86.3,2.9-167,8.3-227.2
			C40.3,95,46.5,25.3,109.5,25.3H767 M767,0.3H109.5c-20.8,0-38.7,5.9-53.2,17.6C43.8,28,34.2,41.9,27.1,60.4
			c-11.5,29.9-14.8,67-18.3,106.2C3.4,227.5,0.4,309,0.4,396c0,86.6,3,167.6,8.3,228c3.5,39,6.7,75.8,18.2,105.6
			c7.1,18.4,16.7,32.3,29.2,42.3c14.5,11.6,32.3,17.5,53.1,17.5h657.8c20.8,0,38.7-5.9,53.1-17.5c12.5-10,22.1-23.9,29.2-42.3
			C861,699.8,864.3,663,867.7,624c5.4-60.4,8.3-141.3,8.3-228c0-87-3-168.5-8.4-229.4c-3.5-39.2-6.8-76.3-18.3-106.2
			c-7.1-18.5-16.7-32.4-29.2-42.5C805.7,6.3,787.8,0.3,767,0.3L767,0.3z"/>
	</g>
</g>
<g>
	<g>
		<path class="st2" d="M819.3,394.9c0-84.7-2.7-166-7.4-228.9c-5.5-73.4-6.9-106.1-16-112.6h-35.3H83.8c-9.1,6.5-10.5,39.2-16,112.6
			c-4.8,62.9-7.4,144.2-7.4,228.9c0,84.7,2.6,166,7.3,228.9c5.5,73.4,6.9,106.1,16,112.6h35.5h677c9.1-6.5,10.5-39.2,16-112.6
			C816.8,560.9,819.3,479.6,819.3,394.9z"/>
	</g>
</g>
<g>
	<rect x="88.4" y="53.4" class="st3" width="703.3" height="682.9"/>
</g>
<path class="st4" d="M76.2,414.6c0,0,360.6,264.6,743.1-2.2c0,0,0,271.2-23.6,323.9H98.9C80.4,665.8,76.2,414.6,76.2,414.6z"/>
</svg>
