<?xml version="1.0" encoding="utf-8"?>
<!-- Generator: Adobe Illustrator 21.0.0, SVG Export Plug-In . SVG Version: 6.00 Build 0)  -->
<svg version="1.1" id="Layer_1" xmlns="http://www.w3.org/2000/svg" xmlns:xlink="http://www.w3.org/1999/xlink" x="0px" y="0px"
	 viewBox="0 0 232.8 148.1" style="enable-background:new 0 0 232.8 148.1;" xml:space="preserve">
<style type="text/css">
	.st0{fill:#1A2D57;}
	.st1{fill:#1076BB;}
	.st2{fill:#5AC9E8;}
</style>
<g>
	<g>
		<g>
			<path class="st0" d="M227.9,25.3c-4.7-7.7-12.3-12.5-20.8-13.2l-0.3,0c-0.4,0-0.9-0.1-1.3-0.1c-0.4,0-0.9,0-1.3,0.1L49.9,24.5
				c-12.1,1-23.5,7.3-32.2,17.7C9.9,51.7,4.6,64.1,2.8,77.4L0.5,93.9c-2.3,17.3,2.9,33.9,14,44.3c6.8,6.3,15.4,9.8,24.2,9.8
				c2.3,0,4.6-0.2,6.9-0.7l128.1-25.8c13.6-2.7,25.5-11.9,33.6-25.7l21.5-36.8c0.2-0.3,0.4-0.7,0.5-1l0.2-0.4c0.2-0.3,0.3-0.7,0.5-1
				C234.3,46.3,233.5,34.3,227.9,25.3z M38.8,132.1c-4.8,0-9.4-1.9-13.3-5.5c-7.2-6.8-10.7-18.5-9.1-30.5l2.2-16.5
				c2.9-21.3,16.6-37.7,32.6-39L205.5,28l0.3,0c3.4,0.3,6.5,2.3,8.5,5.6c2.9,4.7,3.3,11.4,1.1,16.9l-0.2,0.4l-21.5,36.8
				c-5.7,9.8-13.9,16.2-23,18.1L42.5,131.7C41.3,131.9,40,132.1,38.8,132.1C38.8,132.1,38.8,132.1,38.8,132.1z"/>
		</g>
		<g>
			<path class="st0" d="M227.9,13.3c-4.7-7.7-12.3-12.5-20.8-13.2l-0.3,0c-0.4,0-0.9-0.1-1.3-0.1c-0.4,0-0.9,0-1.3,0.1L49.9,12.5
				c-12.1,1-23.5,7.3-32.2,17.7C9.9,39.7,4.6,52.1,2.8,65.4L0.5,81.9c-2.3,17.3,2.9,33.9,14,44.3c6.8,6.3,15.4,9.8,24.2,9.8
				c2.3,0,4.6-0.2,6.9-0.7l128.1-25.8c13.6-2.7,25.5-11.9,33.6-25.7l21.5-36.8c0.2-0.3,0.4-0.7,0.5-1l0.2-0.4c0.2-0.3,0.3-0.7,0.5-1
				C234.3,34.3,233.5,22.3,227.9,13.3z M38.8,120.1c-4.8,0-9.4-1.9-13.3-5.5c-7.2-6.8-10.7-18.5-9.1-30.5l2.2-16.5
				c2.9-21.3,16.6-37.7,32.6-39L205.5,16l0.3,0c3.4,0.3,6.5,2.3,8.5,5.6c2.9,4.7,3.3,11.4,1.1,16.9l-0.2,0.4l-21.5,36.8
				c-5.7,9.8-13.9,16.2-23,18.1L42.5,119.7C41.3,119.9,40,120.1,38.8,120.1C38.8,120.1,38.8,120.1,38.8,120.1z"/>
		</g>
	</g>
	<path class="st0" d="M33.9,111.9c-0.1,0-0.1-0.1-0.2-0.1C33.8,111.9,33.8,111.9,33.9,111.9z"/>
	<path class="st0" d="M32.8,111.3C32.8,111.3,32.8,111.3,32.8,111.3C32.8,111.3,32.8,111.3,32.8,111.3z"/>
	<path class="st0" d="M31.1,110.1c0,0-0.1-0.1-0.1-0.1C31,110.1,31.1,110.1,31.1,110.1z"/>
	<path class="st0" d="M32,110.8c0,0-0.1-0.1-0.1-0.1C31.9,110.7,31.9,110.8,32,110.8z"/>
	<path class="st0" d="M38.8,113.1c0.1,0,0.1,0,0.2,0C38.9,113,38.8,113,38.8,113.1C38.7,113,38.8,113.1,38.8,113.1z"/>
	<path class="st0" d="M23.3,85l2.2-16.5c2.4-18.1,13.5-32,26.2-33L205.4,23l0,0L51.8,35.5c-12.7,1-23.8,14.9-26.2,33L23.3,85
		c-1.3,9.7,1.4,19.2,7,24.4c0,0,0,0,0,0c0,0,0,0,0,0C24.8,104.2,22,94.7,23.3,85z"/>
	<path class="st0" d="M40.1,113c-0.1,0-0.2,0-0.3,0C39.8,113,40,113,40.1,113z"/>
	<path class="st0" d="M36.2,112.7C36.2,112.7,36.1,112.7,36.2,112.7C36.1,112.7,36.2,112.7,36.2,112.7z"/>
	<path class="st0" d="M37.5,113c-0.1,0-0.1,0-0.2,0C37.4,113,37.4,113,37.5,113z"/>
	<path class="st0" d="M35.1,112.4c-0.1,0-0.1,0-0.2-0.1C34.9,112.4,35,112.4,35.1,112.4z"/>
</g>
<path class="st1" d="M170.6,93.9c9.1-1.8,17.2-8.2,23-18.1L215.1,39l0.2-0.4c2.3-5.6,1.8-12.2-1.1-16.9c-2-3.3-5.1-5.3-8.5-5.6
	l-0.3,0L51.2,28.5c-16,1.3-29.7,17.7-32.6,39l-2.2,16.5c-1.6,12,1.9,23.7,9.1,30.5c3.9,3.6,8.5,5.5,13.3,5.5c0,0,0,0,0,0
	c1.2,0,2.5-0.1,3.7-0.4L170.6,93.9z M38.8,113.1C38.8,113.1,38.7,113,38.8,113.1c-0.5,0-0.9,0-1.3-0.1c-0.1,0-0.1,0-0.2,0
	c-0.4-0.1-0.8-0.1-1.1-0.2c0,0,0,0,0,0c-0.4-0.1-0.7-0.2-1.1-0.3c-0.1,0-0.1,0-0.2-0.1c-0.3-0.1-0.7-0.3-1-0.4
	c-0.1,0-0.1-0.1-0.2-0.1c-0.3-0.2-0.6-0.3-0.9-0.5c0,0,0,0,0,0c-0.3-0.2-0.6-0.4-0.8-0.6c0,0-0.1-0.1-0.1-0.1
	c-0.3-0.2-0.5-0.4-0.7-0.6c0,0-0.1-0.1-0.1-0.1c-0.2-0.2-0.5-0.4-0.7-0.6c0,0,0,0,0,0c-5.5-5.2-8.3-14.8-7-24.4l2.2-16.5
	c2.4-18.1,13.5-32,26.2-33L205.4,23l0,0l0,0c1.4,0.2,2.3,1.3,2.9,2.3c1.4,2.3,2.2,6.4,0.6,10.4l-21.4,36.6
	c-4.7,8-11.3,13.3-18.3,14.7L41.1,112.8c-0.4,0.1-0.7,0.1-1.1,0.2c-0.1,0-0.2,0-0.3,0c-0.3,0-0.5,0-0.8,0
	C38.9,113,38.9,113.1,38.8,113.1z"/>
<path class="st2" d="M40.1,113c0.4,0,0.7-0.1,1.1-0.2l128.1-25.8c7-1.4,13.7-6.8,18.3-14.7l21.4-36.6c1.5-4,0.8-8.1-0.6-10.4
	c-0.6-0.9-1.5-2.1-2.9-2.3l0,0L51.8,35.5c-12.7,1-23.8,14.9-26.2,33L23.3,85c-1.3,9.7,1.4,19.2,7,24.4c0,0,0,0,0,0
	c0.2,0.2,0.4,0.4,0.7,0.6c0,0,0.1,0.1,0.1,0.1c0.2,0.2,0.5,0.4,0.7,0.6c0,0,0.1,0.1,0.1,0.1c0.3,0.2,0.5,0.4,0.8,0.6c0,0,0,0,0,0
	c0.3,0.2,0.6,0.3,0.9,0.5c0.1,0,0.1,0.1,0.2,0.1c0.3,0.1,0.6,0.3,1,0.4c0.1,0,0.1,0,0.2,0.1c0.4,0.1,0.7,0.2,1.1,0.3c0,0,0,0,0,0
	c0.4,0.1,0.8,0.2,1.1,0.2c0.1,0,0.1,0,0.2,0c0.4,0,0.8,0.1,1.2,0.1c0.1,0,0.2,0,0.3,0c0.2,0,0.5,0,0.8,0C39.8,113,40,113,40.1,113z"
	/>
</svg>
