<?xml version="1.0" encoding="utf-8"?>
<!-- Generator: Adobe Illustrator 21.0.0, SVG Export Plug-In . SVG Version: 6.00 Build 0)  -->
<svg version="1.1" id="Layer_1" xmlns="http://www.w3.org/2000/svg" xmlns:xlink="http://www.w3.org/1999/xlink" x="0px" y="0px"
	 viewBox="0 0 810.1 334.8" style="enable-background:new 0 0 810.1 334.8;" xml:space="preserve">
<style type="text/css">
	.st0{fill:#0E406A;}
	.st1{fill:#1A2D57;}
	.st2{fill:#FFFFFF;}
	.st3{fill:#1076BB;}
	.st4{fill:#5AC9E8;}
	.st5{fill:#2383C5;}
</style>
<g>
	<g>
		<path class="st0" d="M792.1,76.1L792.1,76.1h-12.4h-54.2h-11.9c-4.4,0-8.7,1.6-12,4.6l-33.7-2.8l-7.1-0.6c-0.5,0-1-0.1-1.5-0.1
			c-4.3,0-8.5,1.6-11.7,4.3l-10.7-0.6l-51.5-3.1l-12-0.7c-0.4,0-0.7,0-1.1,0c-4.5,0-8.9,1.7-12.2,4.8c-3.6,3.3-5.7,8-5.8,12.9
			l-0.2,11.1c-3.8-2.2-7.9-4.1-12.1-5.8c-12.3-4.9-25.8-7.4-40.2-7.4c-9.7,0-19.2,1.5-28.1,4.4c-4.7,1.5-9.3,3.4-13.7,5.7l0.1-4.7
			c0.1-4.9-1.7-9.6-5.1-13.1c-3.4-3.5-8-5.5-12.9-5.5h-12.2h-59.5h-8.1c-7.6,0-14.3,4.7-16.9,11.8l-1.9,5.1
			c-2.3-7.5-9.3-12.6-17.2-12.6c-0.2,0-0.5,0-0.8,0l-9,0.4l-56.8,2.3l-5.6,0.2c0.4-0.8,0.8-1.7,1.2-2.5c1.6-3.6,2.8-7.4,3.5-11.4
			c0.8-4.2,1.1-8.3,0.8-12.4c-0.2-3.9-0.9-7.8-2-11.5c-1.1-3.7-2.6-7.3-4.5-10.7c-1.9-3.4-4.2-6.6-6.8-9.4c-2.7-3.1-5.8-5.8-9.2-8.1
			c-3.7-2.5-7.7-4.5-11.9-6c-5.2-1.8-10.5-2.7-15.8-2.7c-1.9,0-3.8,0.1-5.7,0.4c-7.4,0.9-14.3,3.6-20.5,7.9c-0.1,0-0.1,0.1-0.2,0.1
			c-0.5-0.3-1.1-0.5-1.6-0.7l-7.4-2.5c-2.8-1-5.8-1.6-8.9-2.1c-2.6-0.3-5.2-0.5-7.8-0.5l-0.2,0c-2.5,0-4.9,0.2-7.4,0.4
			c-2.2,0.2-4.3,0.6-6.4,1c-5.9,1.1-11.5,3.1-16.7,5.7c-5.1,2.6-9.6,5.8-13.6,9.6c-4,3.8-7.4,8.2-10,12.9c-2.6,4.7-4.4,9.6-5.4,14.7
			c0,0.1,0,0.2-0.1,0.3c-2.9-3.7-7.3-5.8-11.9-5.8c-2,0-4,0.4-5.9,1.2l-8,3.4c-2.6,1.1-5.1,2.4-7.6,3.9c-2.2,1.3-4.4,2.8-6.5,4.4
			c-2.1,1.6-4.2,3.3-6.1,5.1c-1.8,1.6-3.5,3.3-5.1,5c-4.2,4.5-7.7,9.5-10.5,14.8c-2,3.9-3.5,7.8-4.5,11.8c-0.9,0.4-1.8,0.9-2.6,1.4
			c-3.3,1.9-6.3,4.3-9,7.3c-2.6,2.9-4.7,6.1-6.4,9.7c-1.7,3.7-2.8,7.5-3.3,11.3c-0.2,1.9-0.3,3.9-0.3,5.8l-2.1,7.6
			C2.4,165.7,0,188.4,0,202.2c0,3,0.1,9.1,0.3,12.4c0,0.7,0.2,1.9,0.3,2.8c1.7,15.6,7,37.5,14.4,54.8c3.5,8.2,14.1,26,14.1,26
			c5.8,8.9,11.5,17.3,18.8,25.1l6.4,6.8c2.9,3.1,6.9,4.8,11,4.8c3.3,0,6.7-1.1,9.4-3.4l7.3-5.9c5.6-4.5,11.3-9.3,17.4-14.6
			c6-5.2,11.5-10,16.8-14.7l2.3-2c3.6,3,7.4,5.8,11.4,8.3c7.4,4.6,15.5,8.2,24,10.8c8.7,2.6,18,3.9,27.4,3.9
			c9.8,0,19.4-1.4,28.3-4.2c6.9-2.2,13.5-5.1,19.7-8.7c0.5,4.1,2.3,7.9,5.3,10.8c3.4,3.3,7.9,5.1,12.6,5.1c0.2,0,0.4,0,0.6,0
			l12.1-0.4l51.1-1.6l11.1-0.4c6.9-0.2,12.8-4.3,15.7-10.2h2.1l0,0.1c0,4.9,2,9.7,5.5,13.1c3.4,3.2,7.8,5,12.5,5c0.3,0,0.6,0,0.8,0
			l12.1-0.6l50.4-2.3l10.4-0.5c9.2-0.4,16.6-7.7,17.1-16.9l0.3-4.7c0.9,0.6,1.9,1.2,2.8,1.8c7.4,4.6,15.5,8.2,24,10.8
			c8.7,2.6,18,3.9,27.4,3.9c9.8,0,19.3-1.4,28.3-4.2c6.6-2.1,13-4.8,18.9-8.2l-0.1,6.3c0,4.9,1.9,9.7,5.5,13.1
			c3.4,3.3,7.9,5.1,12.5,5.1c0.2,0,0.5,0,0.7,0l12.3-0.5l46-1.9l10.7-0.4c3.4-0.1,6.6-1.2,9.2-3c2.7,1.5,5.7,2.3,8.8,2.3
			c1.1,0,2.2-0.1,3.3-0.3l7.5-1.4l44.9-8.4c4.6,4.7,10,8.6,16,11.3c6.7,3.1,13.9,4.7,21.4,4.7c7.5,0,14.6-1.6,21.3-4.7
			c6.2-2.9,11.8-6.9,16.5-11.9c4.5-4.8,8.1-10.4,10.7-16.6c3-7.2,4.9-18.4,4.9-25l0-0.3c0-3.2,0.1-12.4-3-23.2l0.5-6.5
			c0,0,0-0.1,0-0.1l9.1-135.9l0.8-11.4c0.1-0.6,0.1-1.1,0.1-1.7C810.1,84.2,802,76.1,792.1,76.1z"/>
	</g>
	<g>
		<path class="st1" d="M792.1,64.1L792.1,64.1h-12.4h-54.2h-11.9c-4.4,0-8.7,1.6-12,4.6l-33.7-2.8l-7.1-0.6c-0.5,0-1-0.1-1.5-0.1
			c-4.3,0-8.5,1.6-11.7,4.3l-10.7-0.6l-51.5-3.1l-12-0.7c-0.4,0-0.7,0-1.1,0c-4.5,0-8.9,1.7-12.2,4.8c-3.6,3.3-5.7,8-5.8,12.9
			l-0.2,11.1c-3.8-2.2-7.9-4.1-12.1-5.8c-12.3-4.9-25.8-7.4-40.2-7.4c-9.7,0-19.2,1.5-28.1,4.4c-4.7,1.5-9.3,3.4-13.7,5.7l0.1-4.7
			c0.1-4.9-1.7-9.6-5.1-13.1c-3.4-3.5-8-5.5-12.9-5.5h-12.2h-59.5h-8.1c-7.6,0-14.3,4.7-16.9,11.8l-1.9,5.1
			c-2.3-7.5-9.3-12.6-17.2-12.6c-0.2,0-0.5,0-0.8,0l-9,0.4l-56.8,2.3l-5.6,0.2c0.4-0.8,0.8-1.7,1.2-2.5c1.6-3.6,2.8-7.4,3.5-11.4
			c0.8-4.2,1.1-8.3,0.8-12.4c-0.2-3.9-0.9-7.8-2-11.5c-1.1-3.7-2.6-7.3-4.5-10.7c-1.9-3.4-4.2-6.6-6.8-9.4c-2.7-3.1-5.8-5.8-9.2-8.1
			c-3.7-2.5-7.7-4.5-11.9-6C220.1,0.9,214.8,0,209.6,0c-1.9,0-3.8,0.1-5.7,0.4c-7.4,0.9-14.3,3.6-20.5,7.9c-0.1,0-0.1,0.1-0.2,0.1
			c-0.5-0.3-1.1-0.5-1.6-0.7L174,5.2c-2.8-1-5.8-1.6-8.9-2.1c-2.6-0.3-5.2-0.5-7.8-0.5l-0.2,0c-2.5,0-4.9,0.2-7.4,0.4
			c-2.2,0.2-4.3,0.6-6.4,1c-5.9,1.1-11.5,3.1-16.7,5.7c-5.1,2.6-9.6,5.8-13.6,9.6c-4,3.8-7.4,8.2-10,12.9c-2.6,4.7-4.4,9.6-5.4,14.7
			c0,0.1,0,0.2-0.1,0.3c-2.9-3.7-7.3-5.8-11.9-5.8c-2,0-4,0.4-5.9,1.2l-8,3.4c-2.6,1.1-5.1,2.4-7.6,3.9c-2.2,1.3-4.4,2.8-6.5,4.4
			c-2.1,1.6-4.2,3.3-6.1,5.1c-1.8,1.6-3.5,3.3-5.1,5c-4.2,4.5-7.7,9.5-10.5,14.8c-2,3.9-3.5,7.8-4.5,11.8c-0.9,0.4-1.8,0.9-2.6,1.4
			c-3.3,1.9-6.3,4.3-9,7.3c-2.6,2.9-4.7,6.1-6.4,9.7c-1.7,3.7-2.8,7.5-3.3,11.3c-0.2,1.9-0.3,3.9-0.3,5.8l-2.1,7.6
			C2.4,153.7,0,176.4,0,190.2c0,3,0.1,9.1,0.3,12.4c0,0.7,0.2,1.9,0.3,2.8c1.7,15.6,7,37.5,14.4,54.8c3.5,8.2,14.1,26,14.1,26
			c5.8,8.9,11.5,17.3,18.8,25.1l6.4,6.8c2.9,3.1,6.9,4.8,11,4.8c3.3,0,6.7-1.1,9.4-3.4l7.3-5.9c5.6-4.5,11.3-9.3,17.4-14.6
			c6-5.2,11.5-10,16.8-14.7l2.3-2c3.6,3,7.4,5.8,11.4,8.3c7.4,4.6,15.5,8.2,24,10.8c8.7,2.6,18,3.9,27.4,3.9
			c9.8,0,19.4-1.4,28.3-4.2c6.9-2.2,13.5-5.1,19.7-8.7c0.5,4.1,2.3,7.9,5.3,10.8c3.4,3.3,7.9,5.1,12.6,5.1c0.2,0,0.4,0,0.6,0
			l12.1-0.4l51.1-1.6l11.1-0.4c6.9-0.2,12.8-4.3,15.7-10.2h2.1l0,0.1c0,4.9,2,9.7,5.5,13.1c3.4,3.2,7.8,5,12.5,5c0.3,0,0.6,0,0.8,0
			l12.1-0.6l50.4-2.3l10.4-0.5c9.2-0.4,16.6-7.7,17.1-16.9l0.3-4.7c0.9,0.6,1.9,1.2,2.8,1.8c7.4,4.6,15.5,8.2,24,10.8
			c8.7,2.6,18,3.9,27.4,3.9c9.8,0,19.3-1.4,28.3-4.2c6.6-2.1,13-4.8,18.9-8.2l-0.1,6.3c0,4.9,1.9,9.7,5.5,13.1
			c3.4,3.3,7.9,5.1,12.5,5.1c0.2,0,0.5,0,0.7,0l12.3-0.5l46-1.9l10.7-0.4c3.4-0.1,6.6-1.2,9.2-3c2.7,1.5,5.7,2.3,8.8,2.3
			c1.1,0,2.2-0.1,3.3-0.3l7.5-1.4l44.9-8.4c4.6,4.7,10,8.6,16,11.3c6.7,3.1,13.9,4.7,21.4,4.7c7.5,0,14.6-1.6,21.3-4.7
			c6.2-2.9,11.8-6.9,16.5-11.9c4.5-4.8,8.1-10.4,10.7-16.6c3-7.2,4.9-18.4,4.9-25l0-0.3c0-3.2,0.1-12.4-3-23.2l0.5-6.5
			c0,0,0-0.1,0-0.1l9.1-135.9l0.8-11.4c0.1-0.6,0.1-1.1,0.1-1.7C810.1,72.2,802,64.1,792.1,64.1z"/>
	</g>
</g>
<path class="st2" d="M66.1,294.1c5.7-4.6,11.3-9.3,16.8-14.1c5.5-4.8,11.8-9.9,17.3-14.7c-2.7-10-10.7-18.7-16.4-28.1
	c-5.3,2-12.6,6.5-18,8.4c0.7,1.4,1.4,2.8,2.2,4.1c0.7,1.3,1.5,2.7,2.3,4c0.7,1.1,1.4,2.3,2.1,3.4c0.7,1.1,1.4,2.2,2.1,3.3
	c-4.1,2.4-8.2,4.6-12.5,6.5c-4.2,2-8.6,3.8-12.9,5.6C54.2,280.2,59.9,287.4,66.1,294.1z"/>
<path class="st2" d="M79.4,229c-4.2-9.2-7.1-19-8.5-29.1c-2.3,0.1-4.6,0.3-6.9,0.4c-2.3,0.1-4.6,0.2-7,0.3c0.3,2.8,0.5,4.1,1,6.9
	c0.7,3.9,1.1,5.8,2.1,9.6c-1.8,0.3-2.8,0.4-4.6,0.7c-1.3-4.8-1.9-7.2-2.8-12c-4,0.2-6,0.3-9.9,0.4c0.8,5.2,1.3,7.8,2.5,13
	c-1.6,0.2-2.4,0.3-4,0.5c-1.8-6.4-2.7-10.2-3.5-16c-4.3,0-7.2,0-12,0.1c1.7,14.3,5.6,27.9,10.7,41.3C50.7,239.8,65.1,234.5,79.4,229
	z"/>
<path class="st2" d="M41.8,158.3c0.9-5.3,1.5-7.9,3-13c-5.1-1.8-7.7-2.7-12.8-4.5c-4.6,16.7-6.8,32.6-6.8,49.7c0,1,0,2.1,0,3.1
	c6,0,9.1,0,15.1-0.1c-0.1-1-0.2-2-0.2-2.9c-0.3-3.6-0.3-6.1-0.3-10.4c10.1,0.5,20.2,1.1,30.2,1.6c0-5.9,0.2-8.9,1-14.8
	C61.2,164.4,51.5,161.5,41.8,158.3z"/>
<path class="st2" d="M36.3,130.3c0.6,0.8,1.3,1.3,2.1,1.7c0.6,0.2,1.1,0.3,1.7,0.3c0.8,0,1.6-0.2,2.4-0.5c1.5-0.6,2.8-1.7,4-3.3
	c0.6,0.2,1.2,0.4,2,0.7c0.7,0.3,1.4,0.5,2.1,0.7c0.7,0.2,1.2,0.4,1.7,0.6c0.5,0.2,0.7,0.2,0.7,0.3c0.1-2,0-3.8-0.3-5.7
	c-0.3-1.8-0.7-3.5-1.3-5c-0.3-0.8-0.6-1.5-1-2.2c-0.9-1-1.8-2.2-2.5-3.4c-0.3-0.3-0.7-0.6-1-0.8c-0.1,0-0.1-0.1-0.2-0.1
	c-0.6-0.4-1.4-0.6-2.1-0.6c-0.2,0-0.4,0-0.5,0c-1,0.1-2,0.4-2.9,1c-1,0.6-1.9,1.3-2.8,2.3c-0.9,1-1.7,2.1-2.3,3.5
	c-0.6,1.3-1,2.7-1.2,4c-0.2,1.3-0.1,2.5,0.1,3.6C35.4,128.6,35.8,129.5,36.3,130.3z"/>
<path class="st2" d="M56.4,108.6c0.6,1.3,1.4,2.4,2.4,3.3c0.5,0.5,1.1,1,1.8,1.4c1.6,1,3.2,1.5,5,1.6c0.3,0,0.7,0,1,0
	c1.4,0,2.8-0.2,4.3-0.7c1.8-0.6,3.5-1.5,5.2-2.7c1.7-1.2,3.3-2.8,4.8-4.6c0.2-0.3,0.5-0.6,0.9-1s0.8-0.9,1.2-1.3
	c0.5-0.5,1-0.9,1.5-1.4s1-0.8,1.5-1.1c0.5-0.3,1-0.4,1.4-0.5c0.1,0,0.1,0,0.2,0c0.4,0,0.7,0.1,0.9,0.3c0.4,0.4,0.6,0.9,0.5,1.4
	c-0.1,0.6-0.3,1.1-0.6,1.7c-0.3,0.6-0.7,1.2-1.2,1.8c-0.5,0.6-0.9,1.1-1.2,1.4c-1.8,2.1-3.7,4-5.8,5.9c-2.1,1.9-4.3,3.6-6.4,4.9
	c4,3.4,6.1,5.1,10.2,8.4c0.9-0.7,2-1.4,3.1-2.3s2.3-1.7,3.5-2.7c1.2-0.9,2.3-1.8,3.4-2.8c1.1-0.9,2-1.8,2.8-2.7
	c2-2.3,3.7-4.7,5.1-7.1c1.4-2.4,2.5-4.8,3.1-7.3c0.6-2.5,0.8-4.9,0.5-7.4c-0.4-2.5-1.4-4.9-3.2-7.2c-1.1-1.3-2.3-2.3-3.7-3
	c-1.3-0.6-2.7-0.9-4.1-0.9c-0.2,0-0.4,0-0.6,0c-1.7,0.1-3.6,0.6-5.5,1.4c-1.9,0.9-3.8,2.2-5.7,3.8c-0.4,0.3-0.9,0.8-1.4,1.3
	c-0.5,0.6-1.1,1.2-1.8,1.8c-0.6,0.6-1.3,1.3-1.9,1.9c-0.7,0.6-1.3,1.2-1.9,1.6c-0.6,0.5-1.2,0.8-1.7,1c-0.2,0.1-0.4,0.1-0.6,0.1
	c-0.3,0-0.5-0.1-0.8-0.3c-0.3-0.2-0.5-0.6-0.5-1c0-0.5,0.1-0.9,0.4-1.5c0.2-0.5,0.6-1.1,1-1.7c0.4-0.6,0.8-1.2,1.3-1.8
	c0.5-0.6,0.9-1.1,1.3-1.6c0.4-0.5,0.8-0.9,1.1-1.2c1.6-1.6,3.4-3.1,5.4-4.5c2-1.4,4-2.6,6-3.6c-2.8-4.4-4.2-6.6-6.9-11.1
	c-1.5,0.6-3,1.4-4.5,2.3s-3,1.9-4.5,3c-1.5,1.1-2.9,2.3-4.2,3.5c-1.3,1.2-2.6,2.5-3.8,3.7c-2.6,2.8-4.8,5.8-6.4,9
	c-1.6,3.2-2.6,6.3-3,9.2c-0.4,2.9-0.1,5.6,0.7,7.9C56.1,108.1,56.3,108.4,56.4,108.6z"/>
<g>
	<g>
		<path class="st3" d="M64.9,124.9l2.4,2c4.1,3.5,6.2,5.2,10.4,8.6l6,4.8l6.2-4.5c0.8-0.6,1.7-1.2,2.6-1.9l0.6-0.4
			c1.2-0.9,2.4-1.8,3.7-2.8c1.4-1.1,2.6-2.1,3.8-3.1c1.5-1.3,2.8-2.6,3.9-3.8c2.4-2.8,4.5-5.6,6.2-8.5c1.9-3.3,3.3-6.5,4.2-9.9
			c1-3.8,1.2-7.6,0.7-11.4c-0.6-4.3-2.4-8.4-5.2-12c-2.1-2.6-4.6-4.6-7.4-5.9c-1.9-0.9-3.9-1.4-5.9-1.7c-2.6-4.1-4-6.3-6.5-10.6
			l-4.5-7.5l-8,3.4c-1.9,0.8-3.9,1.8-5.8,3c-1.8,1.1-3.6,2.3-5.3,3.6c-1.7,1.3-3.4,2.7-5,4.1c-1.5,1.4-3,2.8-4.3,4.3
			c-3.3,3.5-6,7.3-8,11.3c-2.1,4.2-3.5,8.4-4,12.5c-0.2,1.5-0.3,3-0.3,4.5c-0.1,0-0.2,0-0.3,0c-0.5,0-1.1,0-1.6,0.1
			c-2.4,0.3-4.6,1-6.8,2.3c-1.9,1.1-3.7,2.5-5.3,4.3c-1.6,1.7-2.9,3.8-3.9,6c-1,2.3-1.7,4.6-2,6.9c-0.2,1.9-0.2,3.7,0,5.4l-2.8,10.1
			c-4.9,17.5-7.3,38.8-7.3,52c0,2.8,0.1,8.5,0.3,11.3c0,0.6,0.2,2.2,0.2,2.2c1.6,14.3,5.2,28.6,11.5,44.9l3.5,9.2l9.3-3.3
			c5.4-2,10.8-3.9,16.3-5.9l0.8,1.5c0.8,1.5,1.6,3,2.4,4.5c0.4,0.7,0.8,1.3,1.1,2c-0.8,0.4-1.7,0.8-2.5,1.2
			c-4.2,1.9-8.4,3.8-12.5,5.5l-11.2,4.6l6.6,10.2c5.3,8.1,11.4,15.9,18.1,23l6.4,6.8l7.3-5.9c5.4-4.4,11-9.1,17.1-14.3
			c5.9-5.1,11.4-9.9,16.6-14.6l8-7.1c-43.2-42-29.8-106.3-29.8-106.3l-10.7-2.2c-6.7-1.9-13.5-3.8-20.1-5.9c0.3-1.1,0.6-2.2,1-3.5
			l1.4-5l6.6,2.9l0.7-14.6c0.1-2.2,0-4.4-0.3-6.5c0.6,0.1,1.2,0.2,1.9,0.2C64.8,124.9,64.8,124.9,64.9,124.9z M37.7,203.6
			c0.9,5.8,1.7,9.5,3.5,16c1.6-0.2,2.4-0.3,4-0.5c-1.3-5.2-1.8-7.8-2.5-13c4-0.1,6-0.2,9.9-0.4c0.9,4.9,1.4,7.3,2.8,12
			c1.8-0.3,2.8-0.4,4.6-0.7c-1-3.8-1.4-5.7-2.1-9.6c-0.5-2.7-0.7-4.1-1-6.9c2.3-0.1,4.7-0.2,7-0.3c2.3-0.1,4.6-0.2,6.9-0.4
			c1.5,10.1,4.3,19.9,8.5,29.1c-14.3,5.4-28.7,10.8-43,16c-5.2-13.4-9.1-27-10.7-41.3C30.5,203.7,33.4,203.6,37.7,203.6z
			 M74.5,260.3c-0.7-1.1-1.4-2.2-2.1-3.3c-0.7-1.1-1.4-2.2-2.1-3.4c-0.8-1.4-1.6-2.7-2.3-4c-0.7-1.3-1.5-2.7-2.2-4.1
			c5.4-1.8,12.4-4.9,17.7-6.9c4.7,9.8,8.8,16,16.8,26.6c-5.5,4.9-11.7,10-17.3,14.7c-5.5,4.8-11.2,9.5-16.8,14.1
			c-6.3-6.7-11.9-13.9-17-21.7c4.4-1.8,8.7-3.7,12.9-5.6C66.3,264.9,70.5,262.7,74.5,260.3z M70,181.9c-10.1-0.5-20.2-1-30.2-1.6
			c0,4.3,0,6.8,0.3,10.4c0.1,0.9,0.1,1.8,0.2,2.9c-6,0.1-9.1,0.1-15.1,0.1c0-1,0-2.1,0-3.1c0-17.2,2.1-33,6.8-49.7
			c5.1,1.8,7.7,2.7,12.8,4.5c-1.4,5.2-2,7.8-3,13c9.6,3.2,19.4,6.1,29.2,8.8C70.2,173,70,176,70,181.9z M35.1,123.9
			c0.2-1.3,0.6-2.6,1.2-4c0.6-1.3,1.4-2.5,2.3-3.5c0.9-1,1.8-1.8,2.8-2.3c1-0.6,2-0.9,2.9-1c0.2,0,0.4,0,0.5,0
			c0.8,0,1.5,0.2,2.1,0.6c0.1,0,0.1,0.1,0.2,0.1c0.3,0.2,0.7,0.5,1,0.8c0.7,1.2,1.5,2.3,2.5,3.4c0.4,0.7,0.7,1.4,1,2.2
			c0.5,1.5,1,3.2,1.3,5c0.3,1.8,0.4,3.7,0.3,5.7c0,0-0.3-0.1-0.7-0.3c-0.5-0.2-1-0.4-1.7-0.6c-0.7-0.2-1.4-0.5-2.1-0.7
			c-0.7-0.3-1.4-0.5-2-0.7c-1.2,1.6-2.5,2.6-4,3.3c-0.8,0.4-1.7,0.5-2.4,0.5c-0.6,0-1.2-0.1-1.7-0.3c-0.9-0.3-1.6-0.9-2.1-1.7
			c-0.6-0.8-1-1.7-1.2-2.8C35,126.4,34.9,125.2,35.1,123.9z M55.3,99.9c0.4-2.9,1.4-6.1,3-9.2c1.6-3.2,3.8-6.2,6.4-9
			c1.2-1.2,2.4-2.5,3.8-3.7c1.3-1.2,2.8-2.4,4.2-3.5c1.5-1.1,3-2.1,4.5-3s3-1.7,4.5-2.3c2.7,4.5,4.1,6.7,6.9,11.1c-2,1-4,2.2-6,3.6
			c-2,1.4-3.8,2.9-5.4,4.5c-0.3,0.3-0.7,0.7-1.1,1.2c-0.4,0.5-0.9,1-1.3,1.6c-0.5,0.6-0.9,1.1-1.3,1.8c-0.4,0.6-0.7,1.2-1,1.7
			c-0.2,0.5-0.4,1-0.4,1.5c0,0.5,0.2,0.8,0.5,1c0.2,0.2,0.5,0.3,0.8,0.3c0.2,0,0.4,0,0.6-0.1c0.5-0.2,1.1-0.5,1.7-1
			c0.6-0.5,1.3-1,1.9-1.6c0.7-0.6,1.3-1.3,1.9-1.9c0.6-0.6,1.2-1.2,1.8-1.8c0.5-0.6,1-1,1.4-1.3c1.9-1.6,3.8-2.9,5.7-3.8
			c1.9-0.9,3.7-1.3,5.5-1.4c0.2,0,0.4,0,0.6,0c1.5,0,2.9,0.3,4.1,0.9c1.4,0.7,2.7,1.7,3.7,3c1.8,2.3,2.8,4.7,3.2,7.2
			c0.4,2.5,0.2,5-0.5,7.4c-0.7,2.5-1.7,4.9-3.1,7.3c-1.4,2.4-3.1,4.8-5.1,7.1c-0.8,0.9-1.7,1.8-2.8,2.7c-1.1,0.9-2.2,1.9-3.4,2.8
			c-1.2,0.9-2.4,1.8-3.5,2.7s-2.2,1.6-3.1,2.3c-4.1-3.3-6.2-5-10.2-8.4c2.2-1.4,4.3-3,6.4-4.9c2.1-1.9,4.1-3.9,5.8-5.9
			c0.3-0.4,0.7-0.9,1.2-1.4c0.5-0.6,0.9-1.2,1.2-1.8c0.3-0.6,0.5-1.2,0.6-1.7c0.1-0.6-0.1-1-0.5-1.4c-0.2-0.2-0.6-0.3-0.9-0.3
			c-0.1,0-0.1,0-0.2,0c-0.4,0.1-0.9,0.2-1.4,0.5c-0.5,0.3-1,0.6-1.5,1.1s-1,0.9-1.5,1.4c-0.5,0.5-0.9,0.9-1.2,1.3s-0.7,0.8-0.9,1
			c-1.5,1.9-3.1,3.4-4.8,4.6c-1.7,1.2-3.4,2.1-5.2,2.7c-1.4,0.5-2.8,0.7-4.3,0.7c-0.3,0-0.7,0-1,0c-1.8-0.1-3.4-0.7-5-1.6
			c-0.7-0.4-1.3-0.9-1.8-1.4c-1-0.9-1.8-2-2.4-3.3c-0.1-0.3-0.2-0.5-0.3-0.8C55.2,105.5,54.9,102.8,55.3,99.9z"/>
	</g>
</g>
<g>
	<path class="st4" d="M791.2,94l0.9-11.9h-12.4h-54.2h-11.9l0.2,5.7l-47.4-4l-7.1-0.6l-3.7,6.1l-8.3,13.6l0.3-15.4l-11.7-0.7
		l-51.5-3.1l-12-0.7l-0.2,12l-0.8,39.5c-2.7-4.4-5.9-8.4-9.3-12.1c-7.4-7.7-16.3-13.7-26.6-17.9c-10.1-4.1-21.4-6.1-33.5-6.1
		c-7.8,0-15.4,1.2-22.5,3.5c-7,2.3-13.6,5.6-19.6,9.7c-5.9,4.1-11.4,9-16.1,14.6c-1.2,1.4-2.3,2.8-3.4,4.2l1.2-21.1l0.7-24.1h-12.2
		h-59.5h-8.1l-2.8,7.6l-18,49.3l-12.7-43.8l-2.5-8.7l-9,0.4l-56.8,2.3l-10.9,0.5l-0.1,10.9l-0.4,30.3c-2.7-4.2-5.7-8.1-9-11.6
		c-7.4-7.7-16.3-13.7-26.6-17.9c-10.1-4.1-21.4-6.1-33.5-6.1c-7.8,0-15.4,1.2-22.5,3.5c-7,2.3-13.6,5.6-19.6,9.7
		c-5.9,4.1-11.4,9-16.1,14.6c-4.7,5.5-8.8,11.7-12.1,18.3c-3.3,6.6-5.9,13.6-7.6,21c-1.7,7.4-3.2,21.3-3.2,28.9
		c0.1,9.1,1.5,21.3,3.4,28.6c1.9,7.3,4.6,14.2,8,20.6c3.4,6.4,7.7,12.4,12.5,17.7c4.9,5.3,10.5,9.9,16.6,13.7
		c6.1,3.8,12.7,6.7,19.6,8.8c7,2.1,14.5,3.2,22.3,3.2c8,0,15.7-1.1,22.9-3.4c7.1-2.2,13.8-5.4,19.9-9.4c6-4,11.6-8.9,16.4-14.5
		c2.6-3,4.9-6.1,7.1-9.4l-0.2,15.7l-0.2,24l12.1-0.4l51.1-1.6l11.1-0.4l0-10.2h6.1H347h8.5l2.3,0.2l0,6l0.1,0l-0.1,11.9l12.1-0.6
		l50.4-2.3l10.4-0.5l2.7-46.2c3.2,5.5,6.9,10.7,11.2,15.3c4.9,5.3,10.5,9.9,16.6,13.7c6.1,3.8,12.7,6.7,19.6,8.8
		c7,2.1,14.5,3.2,22.3,3.2c8,0,15.7-1.1,22.9-3.4c7.1-2.2,13.8-5.4,19.9-9.4c6-4,11.6-8.9,16.4-14.5c2.4-2.8,4.6-5.7,6.7-8.8
		l-0.5,24l-0.2,24.1l12.3-0.5l46-1.9l10.7-0.4l0.4-10.7l0.6-17l13.6,20.6l4.2,6.4l7.5-1.4l51.3-9.6l4.5-0.8c1.4,2.5,3.1,4.8,5.1,6.9
		c3.1,3.3,6.8,5.9,10.9,7.9c4.3,2,9,3,13.9,3c4.8,0,9.5-1,13.8-3c4.1-1.9,7.8-4.6,10.9-7.9c3-3.2,5.5-7,7.3-11.2
		c1.8-4.4,3.4-13.1,3.4-18c0-2,0.4-11.3-3.2-21.4l0.7-10L791.2,94z M717.1,239.5c-0.5,1.1-0.8,2.3-1.2,3.5l-31-57.4l30.3-44.5
		l3,88.4l0.2,7C717.9,237.5,717.5,238.5,717.1,239.5z"/>
</g>
<g>
	<g>
		<g>
			<path class="st2" d="M251.3,185.3c0,7.1-0.8,14-2.3,20.6c-1.5,6.6-3.8,12.8-6.7,18.6c-2.9,5.8-6.4,11.1-10.6,15.9
				c-4.2,4.8-8.8,8.9-14,12.4c-5.2,3.4-10.9,6.1-17,8c-6.1,1.9-12.6,2.9-19.5,2.9c-6.6,0-13-0.9-19-2.7c-6-1.8-11.6-4.3-16.9-7.6
				c-5.2-3.2-10-7.2-14.2-11.7c-4.2-4.6-7.8-9.7-10.8-15.3c-3-5.6-5.3-11.6-7-18c-1.7-6.4-2.5-13.1-2.5-20.1c0-6.8,0.8-13.5,2.3-20
				c1.5-6.5,3.8-12.7,6.7-18.5c2.9-5.8,6.4-11.1,10.6-16c4.1-4.9,8.7-9,13.9-12.6c5.1-3.5,10.7-6.3,16.6-8.2c6-2,12.3-2.9,18.9-2.9
				c10.7,0,20.4,1.8,29.2,5.3c8.8,3.5,16.3,8.6,22.5,15.1c6.2,6.5,11.1,14.4,14.5,23.7C249.6,163.5,251.3,173.9,251.3,185.3z
				 M202.2,188.4c0-3.4-0.5-6.6-1.4-9.8c-0.9-3.2-2.3-6-4-8.5c-1.8-2.5-4-4.5-6.6-6c-2.6-1.5-5.6-2.3-9-2.3c-3.5,0-6.6,0.7-9.3,2
				c-2.7,1.3-5.1,3.2-7,5.5c-2,2.3-3.4,5-4.5,8.1c-1,3.1-1.5,6.4-1.5,9.8c0,3.3,0.4,6.6,1.3,9.9c0.9,3.3,2.2,6.3,4,8.9
				c1.8,2.7,4,4.8,6.6,6.5c2.6,1.6,5.7,2.5,9.1,2.5c3.5,0,6.6-0.7,9.3-2.2c2.8-1.4,5.1-3.4,7-5.9c1.9-2.5,3.4-5.3,4.4-8.5
				C201.7,195.1,202.2,191.8,202.2,188.4z"/>
		</g>
	</g>
	<g>
		<g>
			<path class="st2" d="M429.9,97l-10.2,172.4l-50.4,2.3l0.4-90.9L347,254.1h-19.5l-17.5-65.5l-0.2,76.1l-51.1,1.6L261,104l56.8-2.3
				l22.5,77.8L370.5,97H429.9z"/>
		</g>
	</g>
	<g>
		<g>
			<path class="st2" d="M573.2,185.3c0,7.1-0.8,14-2.3,20.6c-1.5,6.6-3.8,12.8-6.7,18.6c-2.9,5.8-6.4,11.1-10.6,15.9
				c-4.2,4.8-8.8,8.9-14,12.4c-5.2,3.4-10.9,6.1-17,8c-6.1,1.9-12.6,2.9-19.5,2.9c-6.6,0-13-0.9-19-2.7c-6-1.8-11.6-4.3-16.9-7.6
				c-5.2-3.2-10-7.2-14.2-11.7c-4.2-4.6-7.8-9.7-10.8-15.3c-3-5.6-5.3-11.6-7-18c-1.7-6.4-2.5-13.1-2.5-20.1c0-6.8,0.8-13.5,2.3-20
				c1.5-6.5,3.8-12.7,6.7-18.5c2.9-5.8,6.4-11.1,10.6-16c4.1-4.9,8.7-9,13.9-12.6c5.1-3.5,10.7-6.3,16.6-8.2c6-2,12.3-2.9,18.9-2.9
				c10.7,0,20.4,1.8,29.2,5.3c8.8,3.5,16.3,8.6,22.5,15.1c6.2,6.5,11.1,14.4,14.5,23.7C571.5,163.5,573.2,173.9,573.2,185.3z
				 M524.1,188.4c0-3.4-0.5-6.6-1.4-9.8c-0.9-3.2-2.3-6-4-8.5s-4-4.5-6.6-6c-2.6-1.5-5.6-2.3-9-2.3c-3.5,0-6.6,0.7-9.3,2
				c-2.7,1.3-5.1,3.2-7,5.5c-2,2.3-3.4,5-4.5,8.1c-1,3.1-1.5,6.4-1.5,9.8c0,3.3,0.4,6.6,1.3,9.9s2.2,6.3,4,8.9
				c1.8,2.7,4,4.8,6.6,6.5c2.6,1.6,5.7,2.5,9.1,2.5c3.5,0,6.6-0.7,9.3-2.2c2.8-1.4,5.1-3.4,7-5.9c1.9-2.5,3.4-5.3,4.4-8.5
				C523.6,195.1,524.1,191.8,524.1,188.4z"/>
		</g>
	</g>
	<g>
		<g>
			<path class="st2" d="M721.1,100l-53.3,78.2l44.9,83.2l-51.3,9.6l-33.6-50.7l-1.8,53.1l-46,1.9l3.5-180l51.5,3.1l-4,53.1
				l34.3-56.1L721.1,100z"/>
		</g>
	</g>
	<g>
		<g>
			<path class="st2" d="M779.7,93.7l-9.1,123.6h-40.9l-4.2-123.6H779.7z M772.4,253.4c0,3.4-0.6,6.7-1.9,9.6c-1.3,3-2.9,5.6-5,7.8
				c-2.1,2.2-4.6,4-7.4,5.3c-2.8,1.3-5.8,1.9-9,1.9c-3.2,0-6.3-0.6-9.1-1.9c-2.8-1.3-5.3-3.1-7.4-5.3c-2.1-2.2-3.8-4.8-5-7.8
				c-1.2-3-1.8-6.2-1.8-9.6c0-3.4,0.6-6.6,1.8-9.6c1.2-3.1,2.9-5.7,5-7.9s4.5-4,7.4-5.3c2.8-1.3,5.8-2,9.1-2c3.2,0,6.2,0.7,9,2
				c2.8,1.3,5.3,3.1,7.4,5.3s3.8,4.9,5,7.9C771.8,246.9,772.4,250.1,772.4,253.4z"/>
		</g>
	</g>
</g>
<g>
	<path class="st5" d="M241.7,66.1c1.1-2.5,2-5.3,2.5-8.1c0.6-3,0.8-5.9,0.6-8.7c-0.2-2.8-0.6-5.5-1.4-8.2c-0.8-2.6-1.9-5.2-3.2-7.6
		c-1.4-2.4-3-4.7-4.8-6.8c-1.9-2.2-4.1-4.1-6.5-5.7c-2.6-1.7-5.3-3.1-8.3-4.1c-3.7-1.3-7.3-1.9-10.9-1.9c-1.3,0-2.6,0.1-3.8,0.2
		c-5,0.6-9.7,2.4-13.9,5.3c-4.2,2.9-7.7,6.7-10.6,11.4c-0.8,1.3-1.5,2.6-2.1,4l-3,0.2c0.1-1.9,0.1-3.9,0.2-6.5l0.3-7.8l-7.4-2.5
		c-1.9-0.6-3.9-1.1-6-1.4c-1.9-0.3-3.8-0.4-5.8-0.4l-0.2,0c-1.9,0-3.8,0.1-5.8,0.3c-1.8,0.2-3.5,0.5-5.2,0.8
		c-4.5,0.9-8.8,2.3-12.7,4.3c-3.8,2-7.2,4.4-10.1,7.1c-2.9,2.8-5.3,5.9-7.2,9.2c-1.8,3.3-3.1,6.8-3.8,10.4
		c-0.7,3.5-0.8,7.1-0.4,10.7c0.4,3.4,1.3,6.8,2.7,10.1c1.8,4.2,4.4,7.9,7.7,11c3,2.8,6.4,5.1,10.1,6.8c3.6,1.6,7.5,2.7,11.5,3.1
		c1.2,0.1,2.5,0.2,3.8,0.2c2.8,0,5.7-0.3,8.5-1c2-0.5,4-1.1,6.2-1.9c2.1-0.8,4.2-1.7,6.3-2.8c2.1-1.1,4.2-2.4,6.1-3.9
		c2.3-1.7,4.2-3.6,5.8-5.8l0.3-0.4c0.5,0.8,1.1,1.5,1.7,2.2c2.2,2.5,4.7,4.7,7.4,6.4c2.7,1.7,5.7,3,8.9,3.8c2.6,0.7,5.3,1,8,1
		c0.5,0,0.9,0,1.4,0c3.1-0.1,6.2-0.7,9.2-1.6c2.7-0.9,5.3-2.1,7.8-3.5c2.4-1.4,4.6-3.1,6.7-5c2-1.9,3.8-3.9,5.4-6.1
		C239.2,70.9,240.6,68.6,241.7,66.1z M168.8,73.7c-1.5,1.1-3,2.1-4.7,2.9c-1.6,0.9-3.3,1.6-5,2.2c-1.7,0.6-3.4,1.1-4.9,1.5
		c-2.1,0.5-4.2,0.7-6.2,0.7c-0.9,0-1.8,0-2.6-0.1c-2.9-0.3-5.6-1-8.3-2.2c-2.6-1.2-5-2.8-7.3-4.9c-2.2-2.1-4-4.6-5.3-7.5
		c-1-2.3-1.6-4.6-1.9-7.1c-0.3-2.5-0.2-5,0.3-7.4c0.5-2.5,1.4-4.9,2.7-7.3c1.3-2.4,3.1-4.6,5.2-6.7c2.2-2.1,4.7-3.9,7.7-5.4
		c2.9-1.5,6.2-2.6,9.8-3.3c1.3-0.3,2.8-0.5,4.3-0.7c1.5-0.2,3.1-0.3,4.6-0.3c0,0,0.1,0,0.1,0c1.5,0,3,0.1,4.4,0.3
		c1.5,0.2,2.8,0.5,4,0.9c-0.2,5.2-0.3,7.9-0.3,13.1c-1.5-0.3-3-0.5-4.6-0.5c-0.1,0-0.3,0-0.4,0c-1.7,0-3.4,0.2-5,0.4
		c-2.3,0.4-4.4,1-6.2,2c-1.9,1-3.4,2.1-4.6,3.5c-1.2,1.4-2,2.9-2.4,4.6c-0.4,1.7-0.4,3.4,0.1,5.2c0.3,1.1,0.8,2.2,1.4,3.2
		c0.6,1,1.4,1.8,2.3,2.4c0.9,0.6,1.9,1.1,3.1,1.3c0.5,0.1,1.1,0.2,1.7,0.2c0.7,0,1.3-0.1,2.1-0.2c0.9-0.2,1.8-0.5,2.8-0.9
		s1.7-0.9,2.4-1.6c-0.1-1.1-0.1-1.6-0.2-2.7c-3.6,0.5-5.4,0.9-9,1.7c-0.7-4-1-6.1-1.7-10.1c4-1.1,8-1.9,12.1-2.5
		c4.1-0.6,8.2-1.1,12.3-1.4c0.4,7.6,0.8,15.3,1.2,22.9C171.5,71.4,170.2,72.6,168.8,73.7z M233.8,56.1c-0.4,2-1,4-1.8,5.8
		c-0.8,1.8-1.8,3.5-2.9,5.1c-1.2,1.6-2.5,3.1-4,4.5c-1.5,1.4-3.1,2.6-4.9,3.6c-1.8,1-3.7,1.9-5.7,2.6c-2,0.7-4.1,1-6.3,1.1
		c-0.3,0-0.6,0-1,0c-1.8,0-3.6-0.2-5.4-0.7c-2.1-0.5-4.1-1.4-5.9-2.5c-1.8-1.1-3.5-2.6-5-4.3c-1.5-1.7-2.7-3.7-3.7-6
		c-1-2.2-1.6-4.7-1.9-7.3c-0.3-2.6-0.2-5.4,0.3-8.3c0.9-4.6,2.4-8.8,4.5-12.3c2.1-3.5,4.7-6.2,7.6-8.2c2.9-2,6-3.2,9.3-3.6
		c0.8-0.1,1.7-0.2,2.5-0.2c2.5,0,5,0.5,7.5,1.3c2.1,0.7,4,1.7,5.8,2.9c1.7,1.2,3.3,2.5,4.6,4.1c1.4,1.5,2.5,3.1,3.5,4.9
		c1,1.7,1.7,3.6,2.3,5.4c0.6,1.9,0.9,3.8,1,5.8C234.4,51.9,234.2,54,233.8,56.1z"/>
	<path class="st5" d="M205.6,60.1c0.9,0.5,1.9,0.8,3,0.9c0.3,0,0.6,0,0.8,0c0.8,0,1.5-0.1,2.3-0.3c1.1-0.2,2.1-0.6,3-1.2
		c0.9-0.5,1.7-1.3,2.4-2.1c0.7-0.9,1.1-1.9,1.3-3.1c0.2-1.2,0.2-2.3,0-3.4c-0.2-1-0.7-2-1.3-2.8c-0.6-0.8-1.4-1.5-2.3-2.1
		c-0.9-0.6-1.9-1-2.9-1.2c-0.6-0.1-1.2-0.2-1.8-0.2c-0.4,0-0.9,0-1.3,0.1c-1.1,0.2-2.1,0.5-3,1c-0.9,0.5-1.7,1.3-2.4,2.2
		c-0.7,0.9-1.2,2.1-1.4,3.4c-0.3,1.4-0.3,2.6,0,3.7c0.2,1.1,0.7,2.1,1.3,2.9C203.9,59,204.7,59.6,205.6,60.1z"/>
	<path class="st2" d="M159,48.5c-4.1,0.6-8.1,1.5-12.1,2.5c0.7,4,1,6.1,1.7,10.1c3.6-0.8,5.4-1.1,9-1.7c0.1,1.1,0.1,1.6,0.2,2.7
		c-0.6,0.7-1.4,1.2-2.4,1.6s-1.9,0.7-2.8,0.9c-0.7,0.1-1.4,0.2-2.1,0.2c-0.6,0-1.1-0.1-1.7-0.2c-1.1-0.3-2.2-0.7-3.1-1.3
		c-0.9-0.6-1.7-1.4-2.3-2.4c-0.6-1-1.1-2-1.4-3.2c-0.5-1.8-0.5-3.6-0.1-5.2c0.4-1.7,1.2-3.2,2.4-4.6c1.2-1.4,2.7-2.6,4.6-3.5
		c1.9-1,3.9-1.6,6.2-2c1.6-0.3,3.3-0.4,5-0.4c0.1,0,0.3,0,0.4,0c1.6,0,3.1,0.2,4.6,0.5c0.1-5.2,0.2-7.9,0.3-13.1
		c-1.2-0.4-2.6-0.7-4-0.9c-1.4-0.2-2.9-0.3-4.4-0.3c0,0-0.1,0-0.1,0c-1.5,0-3.1,0.1-4.6,0.3c-1.5,0.2-3,0.4-4.3,0.7
		c-3.6,0.7-6.9,1.8-9.8,3.3c-2.9,1.5-5.5,3.3-7.7,5.4c-2.2,2.1-3.9,4.3-5.2,6.7c-1.3,2.4-2.2,4.9-2.7,7.3c-0.5,2.5-0.6,5-0.3,7.4
		c0.3,2.5,0.9,4.8,1.9,7.1c1.3,3,3.1,5.4,5.3,7.5c2.2,2.1,4.6,3.7,7.3,4.9c2.6,1.2,5.4,1.9,8.3,2.2c0.9,0.1,1.8,0.1,2.6,0.1
		c2,0,4.1-0.2,6.2-0.7c1.6-0.4,3.2-0.9,4.9-1.5c1.7-0.6,3.4-1.4,5-2.2c1.6-0.9,3.2-1.8,4.7-2.9c1.5-1.1,2.7-2.3,3.8-3.7
		c-0.4-7.6-0.8-15.3-1.2-22.9C167.2,47.4,163.1,47.9,159,48.5z"/>
	<path class="st2" d="M233.2,44.1c-0.6-1.9-1.3-3.7-2.3-5.4c-1-1.7-2.1-3.4-3.5-4.9c-1.4-1.5-2.9-2.9-4.6-4.1
		c-1.7-1.2-3.7-2.2-5.8-2.9c-2.5-0.9-5-1.3-7.5-1.3c-0.8,0-1.7,0.1-2.5,0.2c-3.3,0.4-6.4,1.6-9.3,3.6c-2.9,2-5.4,4.7-7.6,8.2
		c-2.1,3.5-3.7,7.6-4.5,12.3c-0.5,2.9-0.6,5.7-0.3,8.3c0.3,2.6,0.9,5.1,1.9,7.3c1,2.2,2.2,4.2,3.7,6c1.5,1.7,3.2,3.2,5,4.3
		c1.8,1.1,3.8,2,5.9,2.5c1.8,0.5,3.6,0.7,5.4,0.7c0.3,0,0.6,0,1,0c2.2-0.1,4.3-0.5,6.3-1.1c2-0.7,3.9-1.5,5.7-2.6
		c1.8-1,3.4-2.3,4.9-3.6c1.5-1.4,2.8-2.9,4-4.5c1.2-1.6,2.1-3.3,2.9-5.1c0.8-1.8,1.4-3.7,1.8-5.8c0.4-2.1,0.5-4.1,0.4-6.2
		C234.1,47.9,233.8,46,233.2,44.1z M202,55.2c-0.2-1.1-0.3-2.4,0-3.7c0.2-1.3,0.7-2.5,1.4-3.4c0.7-0.9,1.5-1.7,2.4-2.2
		c0.9-0.5,1.9-0.9,3-1c0.4-0.1,0.9-0.1,1.3-0.1c0.6,0,1.2,0.1,1.8,0.2c1.1,0.2,2,0.6,2.9,1.2c0.9,0.6,1.6,1.3,2.3,2.1
		c0.6,0.8,1,1.7,1.3,2.8c0.2,1,0.3,2.2,0,3.4c-0.2,1.2-0.7,2.2-1.3,3.1c-0.7,0.9-1.4,1.6-2.4,2.1c-0.9,0.5-1.9,0.9-3,1.2
		c-0.8,0.2-1.6,0.3-2.3,0.3c-0.3,0-0.6,0-0.8,0c-1.1-0.1-2.1-0.4-3-0.9c-0.9-0.5-1.7-1.1-2.3-2C202.6,57.3,202.2,56.3,202,55.2z"/>
</g>
</svg>
